M48
; DRILL file {KiCad 5.1.4-3.fc30} date Mon 30 Sep 2019 02:21:42 CEST
; FORMAT={-:-/ absolute / metric / decimal}
; #@! TF.CreationDate,2019-09-30T02:21:42+02:00
; #@! TF.GenerationSoftware,Kicad,Pcbnew,5.1.4-3.fc30
FMAT,2
METRIC
T1C0.800
T2C0.900
T3C1.000
T4C1.100
T5C4.000
%
G90
G05
T1
X30.4Y7.8
X30.4Y2.0
X31.0Y51.5
X31.0Y46.1
X33.6Y38.14
X33.8Y48.8
X52.6Y22.6
X56.9Y27.5
X42.6Y47.9
X42.6Y37.74
X52.6Y50.6
X52.6Y40.44
X7.74Y51.8
X17.9Y51.8
X20.2Y38.0
X22.7Y38.0
X21.1Y11.0
X21.1Y8.5
X8.9Y43.8
X11.4Y43.8
X21.82Y34.0
X26.7Y34.0
X5.54Y51.8
X13.08Y22.5
X13.08Y14.88
X15.62Y22.5
X15.62Y14.88
X18.16Y22.5
X18.16Y14.88
X20.7Y22.5
X20.7Y14.88
X23.24Y22.5
X23.24Y14.88
X25.78Y22.5
X25.78Y14.88
X28.32Y22.5
X28.32Y14.88
X30.86Y22.5
X30.86Y14.88
X33.4Y22.5
X33.4Y14.88
X35.94Y22.5
X35.94Y14.88
X38.48Y22.5
X38.48Y14.88
X41.02Y22.5
X41.02Y14.88
X43.56Y22.5
X43.56Y14.88
X46.1Y22.5
X46.1Y14.88
X65.9Y20.5
X65.9Y10.34
X59.4Y54.7
X69.56Y54.7
X65.9Y23.0
X68.4Y23.0
X28.34Y54.7
X38.5Y54.7
X48.34Y36.6
X58.5Y36.6
X49.4Y9.6
X59.56Y9.6
X63.4Y53.4
X63.4Y43.24
X54.6Y18.8
X61.784Y25.984
X22.4Y60.3
X24.9Y60.3
X11.76Y9.54
X14.3Y12.08
X14.3Y7.0
X43.44Y54.7
X53.6Y54.7
X14.3Y5.2
X24.46Y5.2
X25.7Y38.0
X28.2Y38.0
T2
X3.0Y51.8
T3
X13.2Y29.74
X13.2Y27.2
X6.3Y12.6
X8.84Y12.6
X29.92Y70.2
X32.46Y70.2
X35.0Y70.2
X37.54Y70.2
X33.7Y5.0
X36.24Y5.0
X38.78Y5.0
X41.32Y5.0
X71.8Y19.4
X71.8Y16.86
X71.8Y14.32
X71.8Y11.78
X71.8Y9.24
X71.8Y6.7
X33.4Y29.94
X33.4Y27.4
X56.96Y70.2
X59.5Y70.2
X46.72Y5.0
X49.26Y5.0
X51.8Y5.0
T4
X17.7Y69.0
X20.24Y69.0
X22.78Y69.0
X60.0Y66.7
X70.16Y66.7
X64.46Y32.1
X67.0Y32.1
X69.54Y32.1
X64.5Y60.7
X67.04Y60.7
X69.58Y60.7
X51.5Y60.7
X54.04Y60.7
X56.58Y60.7
X38.5Y60.7
X41.04Y60.7
X43.58Y60.7
T5
X73.3Y72.9
X73.3Y2.9
X3.3Y2.9
X3.3Y72.9
T3
G00X8.4Y61.3
M15
G01X8.4Y59.3
M16
G05
G00X10.4Y55.6
M15
G01X12.4Y55.6
M16
G05
G00X14.4Y61.3
M15
G01X14.4Y59.3
M16
G05
T0
M30
