G04 #@! TF.GenerationSoftware,KiCad,Pcbnew,5.1.4-3.fc30*
G04 #@! TF.CreationDate,2019-09-30T02:21:18+02:00*
G04 #@! TF.ProjectId,AT328-aqua-controller,41543332-382d-4617-9175-612d636f6e74,rev?*
G04 #@! TF.SameCoordinates,PX1e53ac0PY62b48e0*
G04 #@! TF.FileFunction,Copper,L2,Bot*
G04 #@! TF.FilePolarity,Positive*
%FSLAX46Y46*%
G04 Gerber Fmt 4.6, Leading zero omitted, Abs format (unit mm)*
G04 Created by KiCad (PCBNEW 5.1.4-3.fc30) date 2019-09-30 02:21:18*
%MOMM*%
%LPD*%
G04 APERTURE LIST*
%ADD10O,3.000000X1.600000*%
%ADD11R,3.000000X1.600000*%
%ADD12O,1.600000X3.000000*%
%ADD13C,3.000000*%
%ADD14R,3.000000X1.500000*%
%ADD15O,3.000000X1.500000*%
%ADD16R,1.600000X3.000000*%
%ADD17R,3.500000X3.500000*%
%ADD18C,0.100000*%
%ADD19C,3.500000*%
%ADD20R,3.000000X1.700000*%
%ADD21O,3.000000X1.700000*%
%ADD22R,1.700000X3.000000*%
%ADD23O,1.700000X3.000000*%
%ADD24O,1.700000X3.200000*%
%ADD25O,3.500000X2.200000*%
%ADD26R,2.200000X2.200000*%
%ADD27R,1.800000X3.000000*%
%ADD28R,1.600000X2.600000*%
%ADD29O,1.600000X2.600000*%
%ADD30R,1.905000X4.000000*%
%ADD31O,1.905000X4.000000*%
%ADD32C,1.600000*%
%ADD33C,1.600000*%
%ADD34C,2.500000*%
%ADD35C,0.800000*%
%ADD36C,1.200000*%
%ADD37C,1.500000*%
%ADD38C,1.000000*%
%ADD39C,0.400000*%
G04 APERTURE END LIST*
D10*
X21100000Y8500000D03*
D11*
X21100000Y11000000D03*
D12*
X65900000Y23000000D03*
X68400000Y23000000D03*
D13*
X21820000Y34000000D03*
X26700000Y34000000D03*
D12*
X65900000Y10340000D03*
X65900000Y20500000D03*
D14*
X14300000Y7000000D03*
D15*
X14300000Y12080000D03*
X11760000Y9540000D03*
D12*
X24900000Y60300000D03*
D16*
X22400000Y60300000D03*
X8900000Y43800000D03*
D12*
X11400000Y43800000D03*
X25700000Y38000000D03*
X28200000Y38000000D03*
X20200000Y38000000D03*
X22700000Y38000000D03*
D17*
X14400000Y60300000D03*
D18*
G36*
X9223513Y62046389D02*
G01*
X9296318Y62035589D01*
X9367714Y62017705D01*
X9437013Y61992910D01*
X9503548Y61961441D01*
X9566678Y61923602D01*
X9625795Y61879758D01*
X9680330Y61830330D01*
X9729758Y61775795D01*
X9773602Y61716678D01*
X9811441Y61653548D01*
X9842910Y61587013D01*
X9867705Y61517714D01*
X9885589Y61446318D01*
X9896389Y61373513D01*
X9900000Y61300000D01*
X9900000Y59300000D01*
X9896389Y59226487D01*
X9885589Y59153682D01*
X9867705Y59082286D01*
X9842910Y59012987D01*
X9811441Y58946452D01*
X9773602Y58883322D01*
X9729758Y58824205D01*
X9680330Y58769670D01*
X9625795Y58720242D01*
X9566678Y58676398D01*
X9503548Y58638559D01*
X9437013Y58607090D01*
X9367714Y58582295D01*
X9296318Y58564411D01*
X9223513Y58553611D01*
X9150000Y58550000D01*
X7650000Y58550000D01*
X7576487Y58553611D01*
X7503682Y58564411D01*
X7432286Y58582295D01*
X7362987Y58607090D01*
X7296452Y58638559D01*
X7233322Y58676398D01*
X7174205Y58720242D01*
X7119670Y58769670D01*
X7070242Y58824205D01*
X7026398Y58883322D01*
X6988559Y58946452D01*
X6957090Y59012987D01*
X6932295Y59082286D01*
X6914411Y59153682D01*
X6903611Y59226487D01*
X6900000Y59300000D01*
X6900000Y61300000D01*
X6903611Y61373513D01*
X6914411Y61446318D01*
X6932295Y61517714D01*
X6957090Y61587013D01*
X6988559Y61653548D01*
X7026398Y61716678D01*
X7070242Y61775795D01*
X7119670Y61830330D01*
X7174205Y61879758D01*
X7233322Y61923602D01*
X7296452Y61961441D01*
X7362987Y61992910D01*
X7432286Y62017705D01*
X7503682Y62035589D01*
X7576487Y62046389D01*
X7650000Y62050000D01*
X9150000Y62050000D01*
X9223513Y62046389D01*
X9223513Y62046389D01*
G37*
D13*
X8400000Y60300000D03*
D18*
G36*
X12360765Y57345787D02*
G01*
X12445704Y57333187D01*
X12528999Y57312323D01*
X12609848Y57283395D01*
X12687472Y57246681D01*
X12761124Y57202536D01*
X12830094Y57151384D01*
X12893718Y57093718D01*
X12951384Y57030094D01*
X13002536Y56961124D01*
X13046681Y56887472D01*
X13083395Y56809848D01*
X13112323Y56728999D01*
X13133187Y56645704D01*
X13145787Y56560765D01*
X13150000Y56475000D01*
X13150000Y54725000D01*
X13145787Y54639235D01*
X13133187Y54554296D01*
X13112323Y54471001D01*
X13083395Y54390152D01*
X13046681Y54312528D01*
X13002536Y54238876D01*
X12951384Y54169906D01*
X12893718Y54106282D01*
X12830094Y54048616D01*
X12761124Y53997464D01*
X12687472Y53953319D01*
X12609848Y53916605D01*
X12528999Y53887677D01*
X12445704Y53866813D01*
X12360765Y53854213D01*
X12275000Y53850000D01*
X10525000Y53850000D01*
X10439235Y53854213D01*
X10354296Y53866813D01*
X10271001Y53887677D01*
X10190152Y53916605D01*
X10112528Y53953319D01*
X10038876Y53997464D01*
X9969906Y54048616D01*
X9906282Y54106282D01*
X9848616Y54169906D01*
X9797464Y54238876D01*
X9753319Y54312528D01*
X9716605Y54390152D01*
X9687677Y54471001D01*
X9666813Y54554296D01*
X9654213Y54639235D01*
X9650000Y54725000D01*
X9650000Y56475000D01*
X9654213Y56560765D01*
X9666813Y56645704D01*
X9687677Y56728999D01*
X9716605Y56809848D01*
X9753319Y56887472D01*
X9797464Y56961124D01*
X9848616Y57030094D01*
X9906282Y57093718D01*
X9969906Y57151384D01*
X10038876Y57202536D01*
X10112528Y57246681D01*
X10190152Y57283395D01*
X10271001Y57312323D01*
X10354296Y57333187D01*
X10439235Y57345787D01*
X10525000Y57350000D01*
X12275000Y57350000D01*
X12360765Y57345787D01*
X12360765Y57345787D01*
G37*
D19*
X11400000Y55600000D03*
D20*
X33400000Y27400000D03*
D21*
X33400000Y29940000D03*
X13200000Y29740000D03*
D20*
X13200000Y27200000D03*
D22*
X56960000Y70200000D03*
D23*
X59500000Y70200000D03*
D22*
X51800000Y5000000D03*
D23*
X49260000Y5000000D03*
X46720000Y5000000D03*
D24*
X41320000Y5000000D03*
X38780000Y5000000D03*
X36240000Y5000000D03*
D22*
X33700000Y5000000D03*
X29920000Y70200000D03*
D24*
X32460000Y70200000D03*
X35000000Y70200000D03*
X37540000Y70200000D03*
D20*
X71800000Y19400000D03*
D21*
X71800000Y16860000D03*
X71800000Y14320000D03*
X71800000Y11780000D03*
X71800000Y9240000D03*
X71800000Y6700000D03*
D22*
X6300000Y12600000D03*
D23*
X8840000Y12600000D03*
D25*
X70160000Y66700000D03*
D26*
X60000000Y66700000D03*
D27*
X3000000Y51800000D03*
D12*
X5540000Y51800000D03*
D28*
X46100000Y22500000D03*
D29*
X13080000Y14880000D03*
X43560000Y22500000D03*
X15620000Y14880000D03*
X41020000Y22500000D03*
X18160000Y14880000D03*
X38480000Y22500000D03*
X20700000Y14880000D03*
X35940000Y22500000D03*
X23240000Y14880000D03*
X33400000Y22500000D03*
X25780000Y14880000D03*
X30860000Y22500000D03*
X28320000Y14880000D03*
X28320000Y22500000D03*
X30860000Y14880000D03*
X25780000Y22500000D03*
X33400000Y14880000D03*
X23240000Y22500000D03*
X35940000Y14880000D03*
X20700000Y22500000D03*
X38480000Y14880000D03*
X18160000Y22500000D03*
X41020000Y14880000D03*
X15620000Y22500000D03*
X43560000Y14880000D03*
X13080000Y22500000D03*
X46100000Y14880000D03*
D30*
X17700000Y69000000D03*
D31*
X20240000Y69000000D03*
X22780000Y69000000D03*
X69540000Y32100000D03*
X67000000Y32100000D03*
D30*
X64460000Y32100000D03*
X64500000Y60700000D03*
D31*
X67040000Y60700000D03*
X69580000Y60700000D03*
X56580000Y60700000D03*
X54040000Y60700000D03*
D30*
X51500000Y60700000D03*
X38500000Y60700000D03*
D31*
X41040000Y60700000D03*
X43580000Y60700000D03*
D12*
X63400000Y43240000D03*
X63400000Y53400000D03*
D10*
X38500000Y54700000D03*
X28340000Y54700000D03*
D12*
X52600000Y40440000D03*
X52600000Y50600000D03*
X42600000Y47900000D03*
X42600000Y37740000D03*
D10*
X43440000Y54700000D03*
X53600000Y54700000D03*
X59400000Y54700000D03*
X69560000Y54700000D03*
D32*
X61784205Y25984205D03*
D33*
X62279180Y26479180D02*
X61289230Y25489230D01*
D32*
X54600000Y18800000D03*
D33*
X55094975Y19294975D02*
X54105025Y18305025D01*
D10*
X58500000Y36600000D03*
X48340000Y36600000D03*
X49400000Y9600000D03*
X59560000Y9600000D03*
X17900000Y51800000D03*
X7740000Y51800000D03*
X14300000Y5200000D03*
X24460000Y5200000D03*
D34*
X33800000Y48800000D03*
X33600000Y38140000D03*
X30400000Y7800000D03*
X30400000Y2000000D03*
X31000000Y51500000D03*
X31000000Y46100000D03*
X52600000Y22600000D03*
X56900000Y27500000D03*
D35*
X15620000Y14180000D02*
X18800000Y11000000D01*
X18800000Y11000000D02*
X21100000Y11000000D01*
X15620000Y14880000D02*
X15620000Y14180000D01*
X12000000Y7000000D02*
X14300000Y7000000D01*
X8840000Y9517955D02*
X11357955Y7000000D01*
X11357955Y7000000D02*
X12000000Y7000000D01*
X8840000Y12600000D02*
X8840000Y9517955D01*
X14300000Y7000000D02*
X14300000Y5200000D01*
D36*
X27510002Y5000000D02*
X33700000Y5000000D01*
X17900000Y51800000D02*
X14200000Y51800000D01*
X14200000Y51800000D02*
X8900000Y46500000D01*
X8900000Y46500000D02*
X8900000Y43800000D01*
X27510002Y10649998D02*
X27510002Y5000000D01*
X25780000Y14880000D02*
X25780000Y12380000D01*
X25780000Y12380000D02*
X27510002Y10649998D01*
D35*
X51800000Y5000000D02*
X51800000Y2600000D01*
X51800000Y2600000D02*
X51799990Y2599990D01*
X51799990Y2599990D02*
X35450010Y2599990D01*
X35450010Y2599990D02*
X33700000Y4350000D01*
X33700000Y4350000D02*
X33700000Y5000000D01*
D36*
X18900000Y48800000D02*
X33800000Y48800000D01*
X17900000Y51800000D02*
X17900000Y49800000D01*
X17900000Y49800000D02*
X18900000Y48800000D01*
X33800000Y54645598D02*
X33800000Y48800000D01*
X67340000Y11780000D02*
X65900000Y10340000D01*
X71800000Y11780000D02*
X67340000Y11780000D01*
X60300000Y10340000D02*
X59560000Y9600000D01*
X65900000Y10340000D02*
X60300000Y10340000D01*
X56400000Y9600000D02*
X51800000Y5000000D01*
X59560000Y9600000D02*
X56400000Y9600000D01*
X33600000Y34200000D02*
X33600000Y38140000D01*
X29900000Y30500000D02*
X33600000Y34200000D01*
X30860000Y22500000D02*
X30860000Y24840000D01*
X29900000Y25800000D02*
X29900000Y30500000D01*
X30860000Y24840000D02*
X29900000Y25800000D01*
X6900000Y43800000D02*
X8900000Y43800000D01*
X6300000Y43200000D02*
X6900000Y43800000D01*
X6300000Y12600000D02*
X6300000Y43200000D01*
X6300000Y12600000D02*
X6300000Y9700088D01*
X26605588Y3399990D02*
X27660010Y5200000D01*
X6300000Y9660088D02*
X12520098Y3399990D01*
X12520098Y3399990D02*
X26605588Y3399990D01*
X33800000Y60132500D02*
X33800000Y54645598D01*
X24932500Y69000000D02*
X33800000Y60132500D01*
X22780000Y69000000D02*
X24932500Y69000000D01*
X5540000Y51800000D02*
X7740000Y51800000D01*
D35*
X49400000Y5140000D02*
X49260000Y5000000D01*
X49400000Y9600000D02*
X49400000Y5140000D01*
X38480000Y22000000D02*
X38480000Y22500000D01*
X40372264Y20107736D02*
X38480000Y22000000D01*
X53026804Y20107736D02*
X40372264Y20107736D01*
X53811009Y20891941D02*
X53026804Y20107736D01*
X55936719Y20891941D02*
X53811009Y20891941D01*
X56715805Y20112855D02*
X55936719Y20891941D01*
X56715805Y16215805D02*
X56715805Y20112855D01*
X50100000Y9600000D02*
X56715805Y16215805D01*
X49400000Y9600000D02*
X50100000Y9600000D01*
X61007500Y36600000D02*
X60800000Y36600000D01*
X60800000Y36600000D02*
X58500000Y36600000D01*
X64460000Y33147500D02*
X61007500Y36600000D01*
X64460000Y32100000D02*
X64460000Y33147500D01*
X64460000Y28560000D02*
X62700000Y26800000D01*
X64460000Y32100000D02*
X64460000Y28560000D01*
X13080000Y15380000D02*
X13080000Y14880000D01*
X54600000Y18800000D02*
X28773232Y18873232D01*
D36*
X13080000Y14880000D02*
X13080000Y15385598D01*
D35*
X13080000Y15102755D02*
X15377245Y17400000D01*
X13080000Y14880000D02*
X13080000Y15102755D01*
X27300000Y17400000D02*
X28773232Y18873232D01*
X15377245Y17400000D02*
X27300000Y17400000D01*
X64500000Y57900000D02*
X64500000Y60700000D01*
X64500000Y57500000D02*
X64500000Y57900000D01*
X61700000Y54700000D02*
X64500000Y57500000D01*
X59400000Y54700000D02*
X61700000Y54700000D01*
X62100000Y54700000D02*
X63400000Y53400000D01*
X59400000Y54700000D02*
X62100000Y54700000D01*
X51500000Y56800000D02*
X53600000Y54700000D01*
X51500000Y60700000D02*
X51500000Y56800000D01*
X52600000Y53700000D02*
X53600000Y54700000D01*
X52600000Y50600000D02*
X52600000Y53700000D01*
X38500000Y49900000D02*
X38500000Y53100000D01*
X38500000Y53100000D02*
X38500000Y54700000D01*
X38500000Y54700000D02*
X38500000Y60700000D01*
X40500000Y47900000D02*
X38500000Y49900000D01*
X42600000Y47900000D02*
X40500000Y47900000D01*
X21377255Y42140010D02*
X49299990Y42140010D01*
X51000000Y40440000D02*
X52600000Y40440000D01*
X49299990Y42140010D02*
X51000000Y40440000D01*
X21377255Y42140010D02*
X17760010Y38522765D01*
X20700000Y23000000D02*
X20700000Y22500000D01*
X17760010Y25939990D02*
X20700000Y23000000D01*
X17760010Y38522765D02*
X17760010Y25939990D01*
X16560000Y24600000D02*
X18160000Y23000000D01*
X16560000Y39019825D02*
X16560000Y24600000D01*
X18160000Y23000000D02*
X18160000Y22500000D01*
X61600000Y43500000D02*
X20880194Y43340019D01*
X20880194Y43340019D02*
X16560000Y39019825D01*
X61600000Y43440000D02*
X61600000Y43500000D01*
X61800000Y43240000D02*
X61600000Y43440000D01*
X63400000Y43240000D02*
X61800000Y43240000D01*
X35940000Y28280000D02*
X35940000Y24600000D01*
X42600000Y37740000D02*
X42600000Y34940000D01*
X35940000Y24600000D02*
X35940000Y22500000D01*
X42600000Y34940000D02*
X35940000Y28280000D01*
D37*
X41040000Y63055878D02*
X41040000Y60700000D01*
X35709999Y63850001D02*
X40245877Y63850001D01*
X40245877Y63850001D02*
X41040000Y63055878D01*
X32460000Y67100000D02*
X35709999Y63850001D01*
X32460000Y70200000D02*
X32460000Y67100000D01*
X52489989Y65750011D02*
X54040000Y64200000D01*
X38411548Y65750011D02*
X52489989Y65750011D01*
X54040000Y64200000D02*
X54040000Y60700000D01*
X35000000Y69161559D02*
X38411548Y65750011D01*
X35000000Y70200000D02*
X35000000Y69161559D01*
X67040000Y63182502D02*
X67040000Y60700000D01*
X66372501Y63850001D02*
X67040000Y63182502D01*
X58572981Y63850001D02*
X66372501Y63850001D01*
X52222982Y70200000D02*
X58572981Y63850001D01*
X37540000Y70200000D02*
X52222982Y70200000D01*
D36*
X61550000Y70200000D02*
X59500000Y70200000D01*
X63710000Y70200000D02*
X61550000Y70200000D01*
X67210000Y66700000D02*
X63710000Y70200000D01*
X70160000Y66700000D02*
X67210000Y66700000D01*
X67000000Y35300000D02*
X67000000Y32100000D01*
X70160000Y66700000D02*
X70160000Y63928766D01*
X72660010Y61428756D02*
X72660010Y42460010D01*
X67000000Y36800000D02*
X67000000Y35300000D01*
X70160000Y63928766D02*
X72660010Y61428756D01*
X72660010Y42460010D02*
X67000000Y36800000D01*
D37*
X59733691Y66700000D02*
X60000000Y66700000D01*
X56960000Y70200000D02*
X56960000Y69473691D01*
X59521559Y66700000D02*
X60000000Y66700000D01*
X56960000Y69261559D02*
X59521559Y66700000D01*
X56960000Y70200000D02*
X56960000Y69261559D01*
X17700000Y63600000D02*
X14400000Y60300000D01*
X17700000Y69000000D02*
X17700000Y63600000D01*
D36*
X20400000Y60300000D02*
X22400000Y60300000D01*
X17700000Y63000000D02*
X20400000Y60300000D01*
X17700000Y63600000D02*
X17700000Y63000000D01*
D37*
X25619990Y72150010D02*
X19581244Y72150010D01*
X27570000Y70200000D02*
X25619990Y72150010D01*
X17700000Y70268766D02*
X17700000Y69000000D01*
X19581244Y72150010D02*
X17700000Y70268766D01*
X29920000Y70200000D02*
X27570000Y70200000D01*
X52309990Y72800010D02*
X54910000Y70200000D01*
X31481569Y72800010D02*
X52309990Y72800010D01*
X54910000Y70200000D02*
X56960000Y70200000D01*
X29920000Y71238441D02*
X31481569Y72800010D01*
X29920000Y70200000D02*
X29920000Y71238441D01*
D35*
X71600000Y19200000D02*
X71800000Y19400000D01*
X71800000Y19600000D02*
X68400000Y23000000D01*
X71800000Y19400000D02*
X71800000Y19600000D01*
X33400000Y22500000D02*
X33400000Y23000000D01*
X33400000Y27400000D02*
X33400000Y22500000D01*
X25700000Y35000000D02*
X26700000Y34000000D01*
X25700000Y38000000D02*
X25700000Y35000000D01*
X25780000Y33080000D02*
X26700000Y34000000D01*
X25780000Y22500000D02*
X25780000Y33080000D01*
X22700000Y34880000D02*
X21820000Y34000000D01*
X22700000Y38000000D02*
X22700000Y34880000D01*
X23240000Y32580000D02*
X21820000Y34000000D01*
X23240000Y22500000D02*
X23240000Y32580000D01*
X15620000Y23000000D02*
X15620000Y22500000D01*
X13200000Y25420000D02*
X15620000Y23000000D01*
X13200000Y27200000D02*
X13200000Y25420000D01*
X36560000Y5320000D02*
X36240000Y5000000D01*
X43560000Y14380000D02*
X43560000Y14880000D01*
X36240000Y7060000D02*
X43560000Y14380000D01*
X36240000Y5000000D02*
X36240000Y7060000D01*
D38*
X45820000Y14880000D02*
X46100000Y14880000D01*
X45780000Y14920000D02*
X45820000Y14880000D01*
D35*
X39100000Y5320000D02*
X38780000Y5000000D01*
X46100000Y14380000D02*
X46100000Y14880000D01*
X38780000Y7060000D02*
X46100000Y14380000D01*
X38780000Y5000000D02*
X38780000Y7060000D01*
X56900000Y26934315D02*
X56900000Y27500000D01*
X56900000Y26647292D02*
X56900000Y26934315D01*
X52500000Y22500000D02*
X52600000Y22600000D01*
X46100000Y22500000D02*
X52500000Y22500000D01*
X65900000Y23000000D02*
X65900000Y20500000D01*
X61796895Y20500000D02*
X65900000Y20500000D01*
X56900000Y27500000D02*
X56900000Y25396895D01*
X56900000Y25396895D02*
X61796895Y20500000D01*
X17900001Y9399999D02*
X18800000Y8500000D01*
X14200001Y9399999D02*
X17900001Y9399999D01*
X14060000Y9540000D02*
X14200001Y9399999D01*
X18800000Y8500000D02*
X21100000Y8500000D01*
X11760000Y9540000D02*
X14060000Y9540000D01*
X25160000Y5200000D02*
X24400000Y5200000D01*
X21160000Y8500000D02*
X24460000Y5200000D01*
X21100000Y8500000D02*
X21160000Y8500000D01*
X63739825Y16860000D02*
X71800000Y16860000D01*
X43500000Y27100000D02*
X53399912Y27199912D01*
X53399912Y27199912D02*
X63739825Y16860000D01*
X41020000Y24620000D02*
X41020000Y22500000D01*
X43500000Y27100000D02*
X41020000Y24620000D01*
X53751377Y25151377D02*
X45100000Y25100000D01*
X71800000Y14320000D02*
X64582755Y14320000D01*
X64582755Y14320000D02*
X53751377Y25151377D01*
X43560000Y24600000D02*
X43560000Y22500000D01*
X44060000Y25100000D02*
X43560000Y24600000D01*
X45100000Y25100000D02*
X44060000Y25100000D01*
D39*
G36*
X71573751Y75003441D02*
G01*
X71196559Y74626249D01*
X70900201Y74182719D01*
X70696067Y73689895D01*
X70592000Y73166715D01*
X70592000Y72633285D01*
X70696067Y72110105D01*
X70900201Y71617281D01*
X71196559Y71173751D01*
X71573751Y70796559D01*
X72017281Y70500201D01*
X72510105Y70296067D01*
X73033285Y70192000D01*
X73566715Y70192000D01*
X74089895Y70296067D01*
X74582719Y70500201D01*
X75026249Y70796559D01*
X75403441Y71173751D01*
X75699799Y71617281D01*
X75817000Y71900230D01*
X75817001Y3899768D01*
X75699799Y4182719D01*
X75403441Y4626249D01*
X75026249Y5003441D01*
X74582719Y5299799D01*
X74089895Y5503933D01*
X73566715Y5608000D01*
X73033285Y5608000D01*
X72510105Y5503933D01*
X72017281Y5299799D01*
X71573751Y5003441D01*
X71196559Y4626249D01*
X70900201Y4182719D01*
X70696067Y3689895D01*
X70592000Y3166715D01*
X70592000Y2633285D01*
X70696067Y2110105D01*
X70900201Y1617281D01*
X71196559Y1173751D01*
X71573751Y796559D01*
X71594043Y783000D01*
X5005957Y783000D01*
X5026249Y796559D01*
X5403441Y1173751D01*
X5699799Y1617281D01*
X5903933Y2110105D01*
X6008000Y2633285D01*
X6008000Y3166715D01*
X5903933Y3689895D01*
X5699799Y4182719D01*
X5403441Y4626249D01*
X5026249Y5003441D01*
X4582719Y5299799D01*
X4089895Y5503933D01*
X3566715Y5608000D01*
X3033285Y5608000D01*
X2510105Y5503933D01*
X2017281Y5299799D01*
X1573751Y5003441D01*
X1196559Y4626249D01*
X900201Y4182719D01*
X783000Y3899770D01*
X783000Y14100000D01*
X4738575Y14100000D01*
X4738575Y11100000D01*
X4752245Y10961208D01*
X4792729Y10827749D01*
X4858472Y10704753D01*
X4946947Y10596947D01*
X4992001Y10559972D01*
X4992001Y9726438D01*
X4985680Y9664300D01*
X5010111Y9407809D01*
X5084113Y9161012D01*
X5204841Y8933393D01*
X5326859Y8783739D01*
X11548439Y2522149D01*
X11590728Y2470620D01*
X11688667Y2390243D01*
X11786397Y2309512D01*
X11788260Y2308508D01*
X11789896Y2307166D01*
X11901637Y2247439D01*
X12013237Y2187327D01*
X12015261Y2186706D01*
X12017126Y2185709D01*
X12138461Y2148902D01*
X12259555Y2111745D01*
X12261657Y2111531D01*
X12263685Y2110916D01*
X12389918Y2098483D01*
X12515885Y2085669D01*
X12582244Y2091990D01*
X26580081Y2091990D01*
X26683279Y2087960D01*
X26772293Y2102081D01*
X26862001Y2110916D01*
X26899286Y2122226D01*
X26937750Y2128328D01*
X27022288Y2159538D01*
X27108560Y2185709D01*
X27142920Y2204075D01*
X27179457Y2217564D01*
X27256286Y2264670D01*
X27335790Y2307166D01*
X27365905Y2331881D01*
X27399110Y2352240D01*
X27465280Y2413436D01*
X27534958Y2470620D01*
X27559671Y2500732D01*
X27588269Y2527181D01*
X27641224Y2600105D01*
X27698412Y2669788D01*
X27747112Y2760899D01*
X28292539Y3692000D01*
X32138575Y3692000D01*
X32138575Y3500000D01*
X32152245Y3361208D01*
X32192729Y3227749D01*
X32258472Y3104753D01*
X32346947Y2996947D01*
X32454753Y2908472D01*
X32577749Y2842729D01*
X32711208Y2802245D01*
X32850000Y2788575D01*
X33694478Y2788575D01*
X34628045Y1855007D01*
X34662745Y1812725D01*
X34831460Y1674264D01*
X34938068Y1617281D01*
X35023945Y1571379D01*
X35232803Y1508022D01*
X35252168Y1506115D01*
X35395579Y1491990D01*
X35395586Y1491990D01*
X35450010Y1486630D01*
X35504433Y1491990D01*
X51745567Y1491990D01*
X51799990Y1486630D01*
X51854413Y1491990D01*
X51854421Y1491990D01*
X52017196Y1508022D01*
X52226055Y1571379D01*
X52418540Y1674264D01*
X52587255Y1812725D01*
X52587265Y1812735D01*
X52725726Y1981450D01*
X52828611Y2173935D01*
X52891968Y2382794D01*
X52908000Y2545569D01*
X52908000Y2545578D01*
X52913360Y2599999D01*
X52908000Y2654420D01*
X52908000Y2838406D01*
X52922251Y2842729D01*
X53045247Y2908472D01*
X53153053Y2996947D01*
X53241528Y3104753D01*
X53307271Y3227749D01*
X53347755Y3361208D01*
X53361425Y3500000D01*
X53361425Y4711634D01*
X56941792Y8292000D01*
X58108093Y8292000D01*
X58280121Y8200049D01*
X58564380Y8113820D01*
X58785922Y8092000D01*
X60334078Y8092000D01*
X60555620Y8113820D01*
X60839879Y8200049D01*
X61101853Y8340077D01*
X61331476Y8528524D01*
X61519923Y8758147D01*
X61659951Y9020121D01*
X61663554Y9032000D01*
X64515081Y9032000D01*
X64640077Y8798148D01*
X64828524Y8568524D01*
X65058147Y8380077D01*
X65320121Y8240049D01*
X65604380Y8153820D01*
X65900000Y8124704D01*
X66195619Y8153820D01*
X66479878Y8240049D01*
X66741852Y8380077D01*
X66971476Y8568524D01*
X67159923Y8798147D01*
X67299951Y9060121D01*
X67386180Y9344380D01*
X67408000Y9565922D01*
X67408000Y9998209D01*
X67881791Y10472000D01*
X70195307Y10472000D01*
X70042997Y10347003D01*
X69848303Y10109766D01*
X69703631Y9839105D01*
X69614543Y9545421D01*
X69584462Y9240000D01*
X69614543Y8934579D01*
X69703631Y8640895D01*
X69848303Y8370234D01*
X70042997Y8132997D01*
X70280234Y7938303D01*
X70550895Y7793631D01*
X70844579Y7704543D01*
X71073465Y7682000D01*
X72526535Y7682000D01*
X72755421Y7704543D01*
X73049105Y7793631D01*
X73319766Y7938303D01*
X73557003Y8132997D01*
X73751697Y8370234D01*
X73896369Y8640895D01*
X73985457Y8934579D01*
X74015538Y9240000D01*
X73985457Y9545421D01*
X73896369Y9839105D01*
X73751697Y10109766D01*
X73557003Y10347003D01*
X73358389Y10510000D01*
X73557003Y10672997D01*
X73751697Y10910234D01*
X73896369Y11180895D01*
X73985457Y11474579D01*
X74015538Y11780000D01*
X73985457Y12085421D01*
X73896369Y12379105D01*
X73751697Y12649766D01*
X73557003Y12887003D01*
X73358389Y13050000D01*
X73557003Y13212997D01*
X73751697Y13450234D01*
X73896369Y13720895D01*
X73985457Y14014579D01*
X74015538Y14320000D01*
X73985457Y14625421D01*
X73896369Y14919105D01*
X73751697Y15189766D01*
X73557003Y15427003D01*
X73358389Y15590000D01*
X73557003Y15752997D01*
X73751697Y15990234D01*
X73896369Y16260895D01*
X73985457Y16554579D01*
X74015538Y16860000D01*
X73985457Y17165421D01*
X73896369Y17459105D01*
X73751697Y17729766D01*
X73604021Y17909711D01*
X73695247Y17958472D01*
X73803053Y18046947D01*
X73891528Y18154753D01*
X73957271Y18277749D01*
X73997755Y18411208D01*
X74011425Y18550000D01*
X74011425Y20250000D01*
X73997755Y20388792D01*
X73957271Y20522251D01*
X73891528Y20645247D01*
X73803053Y20753053D01*
X73695247Y20841528D01*
X73572251Y20907271D01*
X73438792Y20947755D01*
X73300000Y20961425D01*
X72005523Y20961425D01*
X69908000Y23058947D01*
X69908000Y23774078D01*
X69886180Y23995620D01*
X69799951Y24279879D01*
X69659923Y24541853D01*
X69471476Y24771476D01*
X69241853Y24959923D01*
X68979879Y25099951D01*
X68695620Y25186180D01*
X68400000Y25215296D01*
X68104381Y25186180D01*
X67820122Y25099951D01*
X67558148Y24959923D01*
X67328525Y24771476D01*
X67150001Y24553944D01*
X66971476Y24771476D01*
X66741853Y24959923D01*
X66479879Y25099951D01*
X66195620Y25186180D01*
X65900000Y25215296D01*
X65604381Y25186180D01*
X65320122Y25099951D01*
X65058148Y24959923D01*
X64828525Y24771476D01*
X64640078Y24541853D01*
X64500050Y24279879D01*
X64413820Y23995620D01*
X64392000Y23774078D01*
X64392000Y22225923D01*
X64413820Y22004381D01*
X64490986Y21749999D01*
X64447910Y21608000D01*
X62255844Y21608000D01*
X58008000Y25855842D01*
X58008000Y25885475D01*
X58148152Y25979122D01*
X58420878Y26251848D01*
X58635157Y26572539D01*
X58782755Y26928872D01*
X58858000Y27307154D01*
X58858000Y27692846D01*
X58782755Y28071128D01*
X58635157Y28427461D01*
X58420878Y28748152D01*
X58148152Y29020878D01*
X57827461Y29235157D01*
X57471128Y29382755D01*
X57092846Y29458000D01*
X56707154Y29458000D01*
X56328872Y29382755D01*
X55972539Y29235157D01*
X55651848Y29020878D01*
X55379122Y28748152D01*
X55164843Y28427461D01*
X55017245Y28071128D01*
X54942000Y27692846D01*
X54942000Y27307154D01*
X54962456Y27204315D01*
X54217911Y27948860D01*
X54179191Y27995081D01*
X54098486Y28059962D01*
X54018462Y28125637D01*
X54013488Y28128296D01*
X54009088Y28131833D01*
X53917269Y28179726D01*
X53825976Y28228523D01*
X53820575Y28230161D01*
X53815574Y28232770D01*
X53716244Y28261810D01*
X53617118Y28291880D01*
X53611499Y28292433D01*
X53606086Y28294016D01*
X53502975Y28303122D01*
X53399912Y28313272D01*
X53339904Y28307362D01*
X43548855Y28208549D01*
X43500000Y28213361D01*
X43439990Y28207451D01*
X43434391Y28207394D01*
X43385872Y28202120D01*
X43282794Y28191968D01*
X43277392Y28190329D01*
X43271786Y28189720D01*
X43173093Y28158690D01*
X43073935Y28128611D01*
X43068954Y28125948D01*
X43063577Y28124258D01*
X42972852Y28074581D01*
X42881450Y28025726D01*
X42877085Y28022143D01*
X42872140Y28019436D01*
X42792846Y27953011D01*
X42755014Y27921963D01*
X42751044Y27917993D01*
X42704831Y27879280D01*
X42674079Y27841028D01*
X40275022Y25441969D01*
X40232735Y25407265D01*
X40094274Y25238550D01*
X40020218Y25100000D01*
X39991389Y25046064D01*
X39939896Y24876314D01*
X39928032Y24837205D01*
X39912000Y24674430D01*
X39912000Y24674423D01*
X39906640Y24620000D01*
X39912000Y24565576D01*
X39912000Y24026971D01*
X39760077Y23841853D01*
X39750000Y23823000D01*
X39739923Y23841853D01*
X39551476Y24071476D01*
X39321853Y24259923D01*
X39059879Y24399951D01*
X38775620Y24486180D01*
X38480000Y24515296D01*
X38184381Y24486180D01*
X37900122Y24399951D01*
X37638148Y24259923D01*
X37408525Y24071476D01*
X37220077Y23841853D01*
X37210000Y23823000D01*
X37199923Y23841853D01*
X37048000Y24026971D01*
X37048000Y27821053D01*
X43344989Y34118040D01*
X43387265Y34152735D01*
X43525726Y34321450D01*
X43628611Y34513935D01*
X43691968Y34722794D01*
X43708000Y34885569D01*
X43708000Y34885578D01*
X43713360Y34939999D01*
X43708000Y34994420D01*
X43708000Y36013029D01*
X43859923Y36198147D01*
X43999951Y36460121D01*
X44086180Y36744380D01*
X44108000Y36965922D01*
X44108000Y38514078D01*
X44086180Y38735620D01*
X43999951Y39019879D01*
X43859923Y39281853D01*
X43671476Y39511476D01*
X43441853Y39699923D01*
X43179879Y39839951D01*
X42895620Y39926180D01*
X42600000Y39955296D01*
X42304381Y39926180D01*
X42020122Y39839951D01*
X41758148Y39699923D01*
X41528525Y39511476D01*
X41340078Y39281853D01*
X41200050Y39019879D01*
X41113820Y38735620D01*
X41092000Y38514078D01*
X41092000Y36965923D01*
X41113820Y36744381D01*
X41200049Y36460122D01*
X41340077Y36198148D01*
X41492001Y36013028D01*
X41492001Y35398950D01*
X35195022Y29101969D01*
X35152735Y29067265D01*
X35051494Y28943902D01*
X35038792Y28947755D01*
X34900000Y28961425D01*
X31900000Y28961425D01*
X31761208Y28947755D01*
X31627749Y28907271D01*
X31504753Y28841528D01*
X31396947Y28753053D01*
X31308472Y28645247D01*
X31242729Y28522251D01*
X31208000Y28407764D01*
X31208000Y29958209D01*
X34479470Y33229678D01*
X34529370Y33270630D01*
X34570323Y33320531D01*
X34570327Y33320535D01*
X34692824Y33469798D01*
X34814281Y33697028D01*
X34814743Y33698550D01*
X34889074Y33943587D01*
X34908000Y34135750D01*
X34908000Y34135759D01*
X34914327Y34199999D01*
X34908000Y34264239D01*
X34908000Y36678970D01*
X35120878Y36891848D01*
X35335157Y37212539D01*
X35482755Y37568872D01*
X35558000Y37947154D01*
X35558000Y38332846D01*
X35482755Y38711128D01*
X35335157Y39067461D01*
X35120878Y39388152D01*
X34848152Y39660878D01*
X34527461Y39875157D01*
X34171128Y40022755D01*
X33792846Y40098000D01*
X33407154Y40098000D01*
X33028872Y40022755D01*
X32672539Y39875157D01*
X32351848Y39660878D01*
X32079122Y39388152D01*
X31864843Y39067461D01*
X31717245Y38711128D01*
X31642000Y38332846D01*
X31642000Y37947154D01*
X31717245Y37568872D01*
X31864843Y37212539D01*
X32079122Y36891848D01*
X32292001Y36678969D01*
X32292000Y34741792D01*
X29020532Y31470323D01*
X28970631Y31429370D01*
X28929678Y31379469D01*
X28929673Y31379464D01*
X28807176Y31230201D01*
X28685719Y31002971D01*
X28610926Y30756412D01*
X28585673Y30500000D01*
X28592001Y30435748D01*
X28592000Y25864243D01*
X28585673Y25800000D01*
X28592000Y25735757D01*
X28592000Y25735751D01*
X28610926Y25543588D01*
X28685719Y25297029D01*
X28807176Y25069799D01*
X28970630Y24870630D01*
X29020536Y24829673D01*
X29552001Y24298208D01*
X29552001Y23751908D01*
X29460049Y23579879D01*
X29373820Y23295620D01*
X29352000Y23074078D01*
X29352000Y21925923D01*
X29373820Y21704381D01*
X29460049Y21420122D01*
X29600077Y21158148D01*
X29788524Y20928524D01*
X30018147Y20740077D01*
X30280121Y20600049D01*
X30564380Y20513820D01*
X30860000Y20484704D01*
X31155619Y20513820D01*
X31439878Y20600049D01*
X31701852Y20740077D01*
X31931476Y20928524D01*
X32119923Y21158147D01*
X32130000Y21177000D01*
X32140077Y21158148D01*
X32328524Y20928524D01*
X32558147Y20740077D01*
X32820121Y20600049D01*
X33104380Y20513820D01*
X33400000Y20484704D01*
X33695619Y20513820D01*
X33979878Y20600049D01*
X34241852Y20740077D01*
X34471476Y20928524D01*
X34659923Y21158147D01*
X34670000Y21177000D01*
X34680077Y21158148D01*
X34868524Y20928524D01*
X35098147Y20740077D01*
X35360121Y20600049D01*
X35644380Y20513820D01*
X35940000Y20484704D01*
X36235619Y20513820D01*
X36519878Y20600049D01*
X36781852Y20740077D01*
X37011476Y20928524D01*
X37199923Y21158147D01*
X37210000Y21177000D01*
X37220077Y21158148D01*
X37408524Y20928524D01*
X37638147Y20740077D01*
X37900121Y20600049D01*
X38184380Y20513820D01*
X38422705Y20490347D01*
X38960702Y19952349D01*
X28829239Y19981077D01*
X28773232Y19986593D01*
X28665903Y19976022D01*
X28559124Y19965811D01*
X28557608Y19965356D01*
X28556025Y19965200D01*
X28452737Y19933868D01*
X28350086Y19903046D01*
X28348690Y19902305D01*
X28347167Y19901843D01*
X28252062Y19851009D01*
X28157310Y19800708D01*
X28156083Y19799707D01*
X28154682Y19798958D01*
X28071340Y19730561D01*
X27988203Y19662726D01*
X27952388Y19619337D01*
X26841053Y18508000D01*
X15431668Y18508000D01*
X15377244Y18513360D01*
X15322821Y18508000D01*
X15322814Y18508000D01*
X15181298Y18494062D01*
X15160038Y18491968D01*
X14951180Y18428611D01*
X14758695Y18325726D01*
X14589980Y18187265D01*
X14555282Y18144985D01*
X13285367Y16875069D01*
X13080000Y16895296D01*
X12784381Y16866180D01*
X12500122Y16779951D01*
X12238148Y16639923D01*
X12008525Y16451476D01*
X11820077Y16221853D01*
X11680049Y15959879D01*
X11593820Y15675620D01*
X11572000Y15454078D01*
X11572000Y14305923D01*
X11593820Y14084381D01*
X11680049Y13800122D01*
X11820077Y13538148D01*
X12008524Y13308524D01*
X12238147Y13120077D01*
X12500121Y12980049D01*
X12784380Y12893820D01*
X13080000Y12864704D01*
X13375619Y12893820D01*
X13659878Y12980049D01*
X13921852Y13120077D01*
X14151476Y13308524D01*
X14339923Y13538147D01*
X14350000Y13557000D01*
X14360077Y13538148D01*
X14548524Y13308524D01*
X14778147Y13120077D01*
X15040121Y12980049D01*
X15324380Y12893820D01*
X15340856Y12892197D01*
X17725053Y10507999D01*
X14599462Y10507999D01*
X14486065Y10568611D01*
X14277206Y10631968D01*
X14114431Y10648000D01*
X14114423Y10648000D01*
X14060000Y10653360D01*
X14005577Y10648000D01*
X13458156Y10648000D01*
X13323940Y10758148D01*
X13070652Y10893533D01*
X12795818Y10976903D01*
X12581619Y10998000D01*
X10938381Y10998000D01*
X10724182Y10976903D01*
X10449348Y10893533D01*
X10196060Y10758148D01*
X9974050Y10575950D01*
X9948000Y10544208D01*
X9948000Y10844212D01*
X10141697Y11080234D01*
X10286369Y11350895D01*
X10375457Y11644579D01*
X10398000Y11873465D01*
X10398000Y13326535D01*
X10375457Y13555421D01*
X10286369Y13849105D01*
X10141697Y14119766D01*
X9947003Y14357003D01*
X9709765Y14551697D01*
X9439104Y14696369D01*
X9145420Y14785457D01*
X8840000Y14815538D01*
X8534579Y14785457D01*
X8240895Y14696369D01*
X7970234Y14551697D01*
X7790289Y14404021D01*
X7741528Y14495247D01*
X7653053Y14603053D01*
X7608000Y14640027D01*
X7608000Y28050000D01*
X10988575Y28050000D01*
X10988575Y26350000D01*
X11002245Y26211208D01*
X11042729Y26077749D01*
X11108472Y25954753D01*
X11196947Y25846947D01*
X11304753Y25758472D01*
X11427749Y25692729D01*
X11561208Y25652245D01*
X11700000Y25638575D01*
X12092000Y25638575D01*
X12092000Y25474423D01*
X12086640Y25420000D01*
X12092000Y25365577D01*
X12092000Y25365569D01*
X12094226Y25342972D01*
X12108032Y25202794D01*
X12171389Y24993936D01*
X12249382Y24848022D01*
X12274275Y24801450D01*
X12412736Y24632735D01*
X12455018Y24598035D01*
X12617497Y24435556D01*
X12500122Y24399951D01*
X12238148Y24259923D01*
X12008525Y24071476D01*
X11820077Y23841853D01*
X11680049Y23579879D01*
X11593820Y23295620D01*
X11572000Y23074078D01*
X11572000Y21925923D01*
X11593820Y21704381D01*
X11680049Y21420122D01*
X11820077Y21158148D01*
X12008524Y20928524D01*
X12238147Y20740077D01*
X12500121Y20600049D01*
X12784380Y20513820D01*
X13080000Y20484704D01*
X13375619Y20513820D01*
X13659878Y20600049D01*
X13921852Y20740077D01*
X14151476Y20928524D01*
X14339923Y21158147D01*
X14350000Y21177000D01*
X14360077Y21158148D01*
X14548524Y20928524D01*
X14778147Y20740077D01*
X15040121Y20600049D01*
X15324380Y20513820D01*
X15620000Y20484704D01*
X15915619Y20513820D01*
X16199878Y20600049D01*
X16461852Y20740077D01*
X16691476Y20928524D01*
X16879923Y21158147D01*
X16890000Y21177000D01*
X16900077Y21158148D01*
X17088524Y20928524D01*
X17318147Y20740077D01*
X17580121Y20600049D01*
X17864380Y20513820D01*
X18160000Y20484704D01*
X18455619Y20513820D01*
X18739878Y20600049D01*
X19001852Y20740077D01*
X19231476Y20928524D01*
X19419923Y21158147D01*
X19430000Y21177000D01*
X19440077Y21158148D01*
X19628524Y20928524D01*
X19858147Y20740077D01*
X20120121Y20600049D01*
X20404380Y20513820D01*
X20700000Y20484704D01*
X20995619Y20513820D01*
X21279878Y20600049D01*
X21541852Y20740077D01*
X21771476Y20928524D01*
X21959923Y21158147D01*
X21970000Y21177000D01*
X21980077Y21158148D01*
X22168524Y20928524D01*
X22398147Y20740077D01*
X22660121Y20600049D01*
X22944380Y20513820D01*
X23240000Y20484704D01*
X23535619Y20513820D01*
X23819878Y20600049D01*
X24081852Y20740077D01*
X24311476Y20928524D01*
X24499923Y21158147D01*
X24510000Y21177000D01*
X24520077Y21158148D01*
X24708524Y20928524D01*
X24938147Y20740077D01*
X25200121Y20600049D01*
X25484380Y20513820D01*
X25780000Y20484704D01*
X26075619Y20513820D01*
X26359878Y20600049D01*
X26621852Y20740077D01*
X26851476Y20928524D01*
X27039923Y21158147D01*
X27179951Y21420121D01*
X27266180Y21704380D01*
X27288000Y21925922D01*
X27288000Y23074078D01*
X27266180Y23295620D01*
X27179951Y23579879D01*
X27039923Y23841853D01*
X26888000Y24026971D01*
X26888000Y31792000D01*
X26917469Y31792000D01*
X27344050Y31876852D01*
X27745880Y32043295D01*
X28107518Y32284934D01*
X28415066Y32592482D01*
X28656705Y32954120D01*
X28823148Y33355950D01*
X28908000Y33782531D01*
X28908000Y34217469D01*
X28823148Y34644050D01*
X28656705Y35045880D01*
X28415066Y35407518D01*
X28107518Y35715066D01*
X27745880Y35956705D01*
X27344050Y36123148D01*
X26917469Y36208000D01*
X26808000Y36208000D01*
X26808000Y36273029D01*
X26959923Y36458147D01*
X27099951Y36720121D01*
X27186180Y37004380D01*
X27208000Y37225922D01*
X27208000Y38774078D01*
X27186180Y38995620D01*
X27099951Y39279879D01*
X26959923Y39541853D01*
X26771476Y39771476D01*
X26541853Y39959923D01*
X26279879Y40099951D01*
X25995620Y40186180D01*
X25700000Y40215296D01*
X25404381Y40186180D01*
X25120122Y40099951D01*
X24858148Y39959923D01*
X24628525Y39771476D01*
X24440078Y39541853D01*
X24300050Y39279879D01*
X24213820Y38995620D01*
X24200000Y38855303D01*
X24186180Y38995620D01*
X24099951Y39279879D01*
X23959923Y39541853D01*
X23771476Y39771476D01*
X23541852Y39959923D01*
X23279878Y40099951D01*
X22995619Y40186180D01*
X22700000Y40215296D01*
X22404380Y40186180D01*
X22120121Y40099951D01*
X21858147Y39959923D01*
X21628524Y39771476D01*
X21440077Y39541852D01*
X21300049Y39279878D01*
X21213820Y38995619D01*
X21192000Y38774077D01*
X21192000Y37225922D01*
X21213820Y37004380D01*
X21300050Y36720121D01*
X21440078Y36458147D01*
X21592001Y36273029D01*
X21592001Y36205905D01*
X21175950Y36123148D01*
X20774120Y35956705D01*
X20412482Y35715066D01*
X20104934Y35407518D01*
X19863295Y35045880D01*
X19696852Y34644050D01*
X19612000Y34217469D01*
X19612000Y33782531D01*
X19696852Y33355950D01*
X19863295Y32954120D01*
X20104934Y32592482D01*
X20412482Y32284934D01*
X20774120Y32043295D01*
X21175950Y31876852D01*
X21602531Y31792000D01*
X22037469Y31792000D01*
X22132001Y31810804D01*
X22132000Y24026971D01*
X21980077Y23841853D01*
X21970000Y23823000D01*
X21959923Y23841853D01*
X21771476Y24071476D01*
X21541853Y24259923D01*
X21279879Y24399951D01*
X20995620Y24486180D01*
X20757296Y24509653D01*
X18868010Y26398937D01*
X18868010Y38063818D01*
X21836203Y41032010D01*
X48841043Y41032010D01*
X50178035Y39695017D01*
X50212735Y39652735D01*
X50381450Y39514274D01*
X50573935Y39411389D01*
X50782794Y39348032D01*
X50945569Y39332000D01*
X50945578Y39332000D01*
X50999999Y39326640D01*
X51054420Y39332000D01*
X51147910Y39332000D01*
X51200049Y39160122D01*
X51340077Y38898148D01*
X51528524Y38668524D01*
X51758147Y38480077D01*
X52020121Y38340049D01*
X52304380Y38253820D01*
X52600000Y38224704D01*
X52895619Y38253820D01*
X53179878Y38340049D01*
X53441852Y38480077D01*
X53671476Y38668524D01*
X53859923Y38898147D01*
X53999951Y39160121D01*
X54086180Y39444380D01*
X54108000Y39665922D01*
X54108000Y41214078D01*
X54086180Y41435620D01*
X53999951Y41719879D01*
X53859923Y41981853D01*
X53671476Y42211476D01*
X53490340Y42360131D01*
X61089196Y42389985D01*
X61181450Y42314274D01*
X61373935Y42211389D01*
X61539359Y42161208D01*
X61582794Y42148032D01*
X61800000Y42126639D01*
X61854431Y42132000D01*
X61947910Y42132000D01*
X62000049Y41960122D01*
X62140077Y41698148D01*
X62328524Y41468524D01*
X62558147Y41280077D01*
X62820121Y41140049D01*
X63104380Y41053820D01*
X63400000Y41024704D01*
X63695619Y41053820D01*
X63979878Y41140049D01*
X64241852Y41280077D01*
X64471476Y41468524D01*
X64659923Y41698147D01*
X64799951Y41960121D01*
X64886180Y42244380D01*
X64908000Y42465922D01*
X64908000Y44014078D01*
X64886180Y44235620D01*
X64799951Y44519879D01*
X64659923Y44781853D01*
X64471476Y45011476D01*
X64241853Y45199923D01*
X63979879Y45339951D01*
X63695620Y45426180D01*
X63400000Y45455296D01*
X63104381Y45426180D01*
X62820122Y45339951D01*
X62558148Y45199923D01*
X62328525Y45011476D01*
X62140078Y44781853D01*
X62007869Y44534508D01*
X61919837Y44560835D01*
X61817206Y44591968D01*
X61815013Y44592184D01*
X61812913Y44592812D01*
X61706584Y44602863D01*
X61600000Y44613361D01*
X61543395Y44607786D01*
X20932452Y44448232D01*
X20880194Y44453379D01*
X20823593Y44447805D01*
X20821411Y44447796D01*
X20769449Y44442472D01*
X20662987Y44431987D01*
X20660883Y44431349D01*
X20658700Y44431125D01*
X20556599Y44399714D01*
X20454129Y44368630D01*
X20452189Y44367593D01*
X20450092Y44366948D01*
X20356064Y44316213D01*
X20261643Y44265744D01*
X20259943Y44264349D01*
X20258012Y44263307D01*
X20175734Y44195240D01*
X20135208Y44161981D01*
X20133660Y44160433D01*
X20089843Y44124184D01*
X20056693Y44083466D01*
X15815022Y39841794D01*
X15772735Y39807090D01*
X15634274Y39638375D01*
X15566446Y39511476D01*
X15531389Y39445889D01*
X15501705Y39348033D01*
X15468032Y39237030D01*
X15452000Y39074255D01*
X15452000Y39074248D01*
X15446640Y39019825D01*
X15452000Y38965402D01*
X15452001Y24734947D01*
X14548372Y25638575D01*
X14700000Y25638575D01*
X14838792Y25652245D01*
X14972251Y25692729D01*
X15095247Y25758472D01*
X15203053Y25846947D01*
X15291528Y25954753D01*
X15357271Y26077749D01*
X15397755Y26211208D01*
X15411425Y26350000D01*
X15411425Y28050000D01*
X15397755Y28188792D01*
X15357271Y28322251D01*
X15291528Y28445247D01*
X15203053Y28553053D01*
X15095247Y28641528D01*
X14972251Y28707271D01*
X14838792Y28747755D01*
X14700000Y28761425D01*
X11700000Y28761425D01*
X11561208Y28747755D01*
X11427749Y28707271D01*
X11304753Y28641528D01*
X11196947Y28553053D01*
X11108472Y28445247D01*
X11042729Y28322251D01*
X11002245Y28188792D01*
X10988575Y28050000D01*
X7608000Y28050000D01*
X7608000Y41787876D01*
X7704753Y41708472D01*
X7827749Y41642729D01*
X7961208Y41602245D01*
X8100000Y41588575D01*
X9700000Y41588575D01*
X9838792Y41602245D01*
X9972251Y41642729D01*
X10095247Y41708472D01*
X10203053Y41796947D01*
X10291528Y41904753D01*
X10357271Y42027749D01*
X10397755Y42161208D01*
X10411425Y42300000D01*
X10411425Y45300000D01*
X10397755Y45438792D01*
X10357271Y45572251D01*
X10291528Y45695247D01*
X10208000Y45797025D01*
X10208000Y45958209D01*
X14741791Y50492000D01*
X16448093Y50492000D01*
X16592001Y50415080D01*
X16592001Y49864252D01*
X16585673Y49800000D01*
X16610926Y49543588D01*
X16685719Y49297029D01*
X16807176Y49069799D01*
X16929673Y48920536D01*
X16929678Y48920531D01*
X16970631Y48870630D01*
X17020532Y48829677D01*
X17929673Y47920536D01*
X17970630Y47870630D01*
X18169798Y47707176D01*
X18397028Y47585719D01*
X18643587Y47510926D01*
X18835750Y47492000D01*
X18835757Y47492000D01*
X18900000Y47485673D01*
X18964243Y47492000D01*
X32338970Y47492000D01*
X32551848Y47279122D01*
X32872539Y47064843D01*
X33228872Y46917245D01*
X33607154Y46842000D01*
X33992846Y46842000D01*
X34371128Y46917245D01*
X34727461Y47064843D01*
X35048152Y47279122D01*
X35320878Y47551848D01*
X35535157Y47872539D01*
X35682755Y48228872D01*
X35758000Y48607154D01*
X35758000Y48992846D01*
X35682755Y49371128D01*
X35535157Y49727461D01*
X35320878Y50048152D01*
X35108000Y50261030D01*
X35108000Y60068257D01*
X35114327Y60132500D01*
X35108000Y60196743D01*
X35108000Y60196750D01*
X35089074Y60388913D01*
X35014281Y60635472D01*
X34892824Y60862702D01*
X34729370Y61061870D01*
X34679465Y61102826D01*
X26851398Y68930893D01*
X26924162Y68892000D01*
X27009348Y68846467D01*
X27284182Y68763097D01*
X27570000Y68734946D01*
X27641619Y68742000D01*
X28358575Y68742000D01*
X28358575Y68700000D01*
X28372245Y68561208D01*
X28412729Y68427749D01*
X28478472Y68304753D01*
X28566947Y68196947D01*
X28674753Y68108472D01*
X28797749Y68042729D01*
X28931208Y68002245D01*
X29070000Y67988575D01*
X30770000Y67988575D01*
X30908792Y68002245D01*
X31002001Y68030519D01*
X31002001Y67171629D01*
X30994946Y67100000D01*
X31023097Y66814182D01*
X31106467Y66539349D01*
X31210044Y66345570D01*
X31241853Y66286060D01*
X31424051Y66064050D01*
X31479687Y66018391D01*
X34628394Y62869682D01*
X34674049Y62814051D01*
X34896059Y62631853D01*
X35146939Y62497755D01*
X35149347Y62496468D01*
X35424181Y62413098D01*
X35709999Y62384947D01*
X35781618Y62392001D01*
X36836075Y62392001D01*
X36836075Y58700000D01*
X36849745Y58561208D01*
X36890229Y58427749D01*
X36955972Y58304753D01*
X37044447Y58196947D01*
X37152253Y58108472D01*
X37275249Y58042729D01*
X37392001Y58007313D01*
X37392000Y56152090D01*
X37220121Y56099951D01*
X36958147Y55959923D01*
X36728524Y55771476D01*
X36540077Y55541853D01*
X36400049Y55279879D01*
X36313820Y54995620D01*
X36284704Y54700000D01*
X36313820Y54404380D01*
X36400049Y54120121D01*
X36540077Y53858147D01*
X36728524Y53628524D01*
X36958147Y53440077D01*
X37220121Y53300049D01*
X37392000Y53247910D01*
X37392000Y53045570D01*
X37392001Y53045560D01*
X37392000Y49954424D01*
X37386640Y49900000D01*
X37392000Y49845577D01*
X37392000Y49845570D01*
X37403445Y49729370D01*
X37408032Y49682794D01*
X37428955Y49613820D01*
X37471389Y49473936D01*
X37574274Y49281450D01*
X37712735Y49112735D01*
X37755022Y49078031D01*
X39678035Y47155017D01*
X39712735Y47112735D01*
X39881450Y46974274D01*
X40073935Y46871389D01*
X40282794Y46808032D01*
X40445569Y46792000D01*
X40445578Y46792000D01*
X40499999Y46786640D01*
X40554420Y46792000D01*
X41147910Y46792000D01*
X41200049Y46620122D01*
X41340077Y46358148D01*
X41528524Y46128524D01*
X41758147Y45940077D01*
X42020121Y45800049D01*
X42304380Y45713820D01*
X42600000Y45684704D01*
X42895619Y45713820D01*
X43179878Y45800049D01*
X43441852Y45940077D01*
X43671476Y46128524D01*
X43859923Y46358147D01*
X43999951Y46620121D01*
X44086180Y46904380D01*
X44108000Y47125922D01*
X44108000Y48674078D01*
X44086180Y48895620D01*
X43999951Y49179879D01*
X43859923Y49441853D01*
X43671476Y49671476D01*
X43441853Y49859923D01*
X43179879Y49999951D01*
X42895620Y50086180D01*
X42600000Y50115296D01*
X42304381Y50086180D01*
X42020122Y49999951D01*
X41758148Y49859923D01*
X41528525Y49671476D01*
X41340078Y49441853D01*
X41200050Y49179879D01*
X41147910Y49008000D01*
X40958948Y49008000D01*
X39608000Y50358947D01*
X39608000Y53247910D01*
X39779879Y53300049D01*
X40041853Y53440077D01*
X40271476Y53628524D01*
X40459923Y53858147D01*
X40599951Y54120121D01*
X40686180Y54404380D01*
X40715296Y54700000D01*
X40686180Y54995620D01*
X40599951Y55279879D01*
X40459923Y55541853D01*
X40271476Y55771476D01*
X40041853Y55959923D01*
X39779879Y56099951D01*
X39608000Y56152090D01*
X39608000Y58007313D01*
X39724751Y58042729D01*
X39847747Y58108472D01*
X39955553Y58196947D01*
X40044028Y58304753D01*
X40050354Y58316588D01*
X40113013Y58265165D01*
X40401481Y58110976D01*
X40714486Y58016026D01*
X41040000Y57983966D01*
X41365515Y58016026D01*
X41678520Y58110976D01*
X41966988Y58265165D01*
X42219832Y58472668D01*
X42427335Y58725512D01*
X42581524Y59013980D01*
X42676474Y59326985D01*
X42700500Y59570928D01*
X42700500Y61829072D01*
X42676474Y62073015D01*
X42581524Y62386020D01*
X42498000Y62542283D01*
X42498000Y62984259D01*
X42505054Y63055878D01*
X42476903Y63341696D01*
X42393533Y63616530D01*
X42363695Y63672353D01*
X42258148Y63869818D01*
X42075949Y64091828D01*
X42020318Y64137483D01*
X41865790Y64292011D01*
X51886066Y64292011D01*
X52582000Y63596076D01*
X52582000Y63398670D01*
X52452500Y63411425D01*
X50547500Y63411425D01*
X50408708Y63397755D01*
X50275249Y63357271D01*
X50152253Y63291528D01*
X50044447Y63203053D01*
X49955972Y63095247D01*
X49890229Y62972251D01*
X49849745Y62838792D01*
X49836075Y62700000D01*
X49836075Y58700000D01*
X49849745Y58561208D01*
X49890229Y58427749D01*
X49955972Y58304753D01*
X50044447Y58196947D01*
X50152253Y58108472D01*
X50275249Y58042729D01*
X50392001Y58007313D01*
X50392001Y56854433D01*
X50386640Y56800000D01*
X50408032Y56582794D01*
X50471389Y56373936D01*
X50471390Y56373935D01*
X50574275Y56181450D01*
X50712736Y56012735D01*
X50755018Y55978035D01*
X51489139Y55243913D01*
X51413820Y54995620D01*
X51384704Y54700000D01*
X51413820Y54404380D01*
X51500049Y54120121D01*
X51544410Y54037127D01*
X51508032Y53917206D01*
X51486640Y53700000D01*
X51492001Y53645567D01*
X51492001Y52326971D01*
X51340078Y52141853D01*
X51200050Y51879879D01*
X51113820Y51595620D01*
X51092000Y51374078D01*
X51092000Y49825923D01*
X51113820Y49604381D01*
X51200049Y49320122D01*
X51340077Y49058148D01*
X51528524Y48828524D01*
X51758147Y48640077D01*
X52020121Y48500049D01*
X52304380Y48413820D01*
X52600000Y48384704D01*
X52895619Y48413820D01*
X53179878Y48500049D01*
X53441852Y48640077D01*
X53671476Y48828524D01*
X53859923Y49058147D01*
X53999951Y49320121D01*
X54086180Y49604380D01*
X54108000Y49825922D01*
X54108000Y51374078D01*
X54086180Y51595620D01*
X53999951Y51879879D01*
X53859923Y52141853D01*
X53708000Y52326971D01*
X53708000Y53192000D01*
X54374078Y53192000D01*
X54595620Y53213820D01*
X54879879Y53300049D01*
X55141853Y53440077D01*
X55371476Y53628524D01*
X55559923Y53858147D01*
X55699951Y54120121D01*
X55786180Y54404380D01*
X55815296Y54700000D01*
X55786180Y54995620D01*
X55699951Y55279879D01*
X55559923Y55541853D01*
X55371476Y55771476D01*
X55141853Y55959923D01*
X54879879Y56099951D01*
X54595620Y56186180D01*
X54374078Y56208000D01*
X53658948Y56208000D01*
X52608000Y57258947D01*
X52608000Y58007313D01*
X52724751Y58042729D01*
X52847747Y58108472D01*
X52955553Y58196947D01*
X53044028Y58304753D01*
X53050354Y58316588D01*
X53113013Y58265165D01*
X53401481Y58110976D01*
X53714486Y58016026D01*
X54040000Y57983966D01*
X54365515Y58016026D01*
X54678520Y58110976D01*
X54966988Y58265165D01*
X55219832Y58472668D01*
X55427335Y58725512D01*
X55581524Y59013980D01*
X55676474Y59326985D01*
X55700500Y59570928D01*
X55700500Y61829072D01*
X55676474Y62073015D01*
X55581524Y62386020D01*
X55498000Y62542283D01*
X55498000Y64128381D01*
X55505054Y64200000D01*
X55476903Y64485818D01*
X55393533Y64760652D01*
X55356294Y64830321D01*
X55258148Y65013940D01*
X55152193Y65143047D01*
X55121604Y65180320D01*
X55121601Y65180323D01*
X55075949Y65235950D01*
X55020323Y65281601D01*
X53571602Y66730320D01*
X53525939Y66785961D01*
X53303929Y66968159D01*
X53050641Y67103544D01*
X52775807Y67186914D01*
X52489989Y67215065D01*
X52418370Y67208011D01*
X39015471Y67208011D01*
X38191725Y68031757D01*
X38409766Y68148303D01*
X38647003Y68342997D01*
X38841697Y68580234D01*
X38928163Y68742000D01*
X51619060Y68742000D01*
X57491376Y62869682D01*
X57537031Y62814051D01*
X57759041Y62631853D01*
X58009921Y62497755D01*
X58012329Y62496468D01*
X58287162Y62413098D01*
X58572981Y62384947D01*
X58644600Y62392001D01*
X62836075Y62392001D01*
X62836075Y58700000D01*
X62849745Y58561208D01*
X62890229Y58427749D01*
X62955972Y58304753D01*
X63044447Y58196947D01*
X63152253Y58108472D01*
X63275249Y58042729D01*
X63392000Y58007313D01*
X63392000Y57958948D01*
X61241053Y55808000D01*
X61126971Y55808000D01*
X60941853Y55959923D01*
X60679879Y56099951D01*
X60395620Y56186180D01*
X60174078Y56208000D01*
X58625922Y56208000D01*
X58404380Y56186180D01*
X58120121Y56099951D01*
X57858147Y55959923D01*
X57628524Y55771476D01*
X57440077Y55541853D01*
X57300049Y55279879D01*
X57213820Y54995620D01*
X57184704Y54700000D01*
X57213820Y54404380D01*
X57300049Y54120121D01*
X57440077Y53858147D01*
X57628524Y53628524D01*
X57858147Y53440077D01*
X58120121Y53300049D01*
X58404380Y53213820D01*
X58625922Y53192000D01*
X60174078Y53192000D01*
X60395620Y53213820D01*
X60679879Y53300049D01*
X60941853Y53440077D01*
X61126971Y53592000D01*
X61641052Y53592000D01*
X61892000Y53341052D01*
X61892000Y52625923D01*
X61913820Y52404381D01*
X62000049Y52120122D01*
X62140077Y51858148D01*
X62328524Y51628524D01*
X62558147Y51440077D01*
X62820121Y51300049D01*
X63104380Y51213820D01*
X63400000Y51184704D01*
X63695619Y51213820D01*
X63979878Y51300049D01*
X64241852Y51440077D01*
X64471476Y51628524D01*
X64659923Y51858147D01*
X64799951Y52120121D01*
X64886180Y52404380D01*
X64908000Y52625922D01*
X64908000Y54174078D01*
X64886180Y54395620D01*
X64799951Y54679879D01*
X64659923Y54941853D01*
X64471476Y55171476D01*
X64241853Y55359923D01*
X64036587Y55469640D01*
X65244983Y56678035D01*
X65287265Y56712735D01*
X65425726Y56881450D01*
X65528611Y57073935D01*
X65574759Y57226064D01*
X65591968Y57282793D01*
X65593875Y57302158D01*
X65608000Y57445569D01*
X65608000Y57445576D01*
X65613360Y57500000D01*
X65608000Y57554423D01*
X65608000Y58007313D01*
X65724751Y58042729D01*
X65847747Y58108472D01*
X65955553Y58196947D01*
X66044028Y58304753D01*
X66050354Y58316588D01*
X66113013Y58265165D01*
X66401481Y58110976D01*
X66714486Y58016026D01*
X67040000Y57983966D01*
X67365515Y58016026D01*
X67678520Y58110976D01*
X67966988Y58265165D01*
X68219832Y58472668D01*
X68427335Y58725512D01*
X68581524Y59013980D01*
X68676474Y59326985D01*
X68700500Y59570928D01*
X68700500Y61829072D01*
X68676474Y62073015D01*
X68581524Y62386020D01*
X68498000Y62542283D01*
X68498000Y63110883D01*
X68505054Y63182503D01*
X68476903Y63468321D01*
X68393533Y63743154D01*
X68332995Y63856412D01*
X68258148Y63996442D01*
X68075949Y64218452D01*
X68020313Y64264111D01*
X67454115Y64830309D01*
X67408451Y64885951D01*
X67186441Y65068149D01*
X66933153Y65203534D01*
X66658319Y65286904D01*
X66444120Y65308001D01*
X66372501Y65315055D01*
X66300882Y65308001D01*
X61746715Y65308001D01*
X61757271Y65327749D01*
X61797755Y65461208D01*
X61811425Y65600000D01*
X61811425Y67800000D01*
X61797755Y67938792D01*
X61757271Y68072251D01*
X61691528Y68195247D01*
X61603053Y68303053D01*
X61495247Y68391528D01*
X61372251Y68457271D01*
X61238792Y68497755D01*
X61100000Y68511425D01*
X60663160Y68511425D01*
X60801697Y68680234D01*
X60914889Y68892000D01*
X63168209Y68892000D01*
X66239673Y65820536D01*
X66280630Y65770630D01*
X66479798Y65607176D01*
X66707028Y65485719D01*
X66953587Y65410926D01*
X67145750Y65392000D01*
X67145759Y65392000D01*
X67209999Y65385673D01*
X67274239Y65392000D01*
X68253835Y65392000D01*
X68500669Y65189429D01*
X68814761Y65021544D01*
X68852001Y65010247D01*
X68852001Y63993018D01*
X68845673Y63928766D01*
X68870926Y63672354D01*
X68945719Y63425795D01*
X69067176Y63198565D01*
X69189673Y63049302D01*
X69189678Y63049297D01*
X69230631Y62999396D01*
X69280532Y62958443D01*
X71352010Y60886964D01*
X71352011Y43001802D01*
X66120536Y37770327D01*
X66070630Y37729370D01*
X66029674Y37679465D01*
X66029673Y37679464D01*
X65907177Y37530202D01*
X65907176Y37530201D01*
X65785719Y37302971D01*
X65710926Y37056412D01*
X65692000Y36864249D01*
X65692000Y36864243D01*
X65685673Y36800000D01*
X65692000Y36735757D01*
X65692000Y34753396D01*
X65684751Y34757271D01*
X65551292Y34797755D01*
X65412500Y34811425D01*
X64363023Y34811425D01*
X61829469Y37344978D01*
X61794765Y37387265D01*
X61626050Y37525726D01*
X61433565Y37628611D01*
X61224706Y37691968D01*
X61061931Y37708000D01*
X61061923Y37708000D01*
X61007500Y37713360D01*
X60953077Y37708000D01*
X60226971Y37708000D01*
X60041853Y37859923D01*
X59779879Y37999951D01*
X59495620Y38086180D01*
X59274078Y38108000D01*
X57725922Y38108000D01*
X57504380Y38086180D01*
X57220121Y37999951D01*
X56958147Y37859923D01*
X56728524Y37671476D01*
X56540077Y37441853D01*
X56400049Y37179879D01*
X56313820Y36895620D01*
X56284704Y36600000D01*
X56313820Y36304380D01*
X56400049Y36020121D01*
X56540077Y35758147D01*
X56728524Y35528524D01*
X56958147Y35340077D01*
X57220121Y35200049D01*
X57504380Y35113820D01*
X57725922Y35092000D01*
X59274078Y35092000D01*
X59495620Y35113820D01*
X59779879Y35200049D01*
X60041853Y35340077D01*
X60226971Y35492000D01*
X60548553Y35492000D01*
X62796075Y33244477D01*
X62796075Y30100000D01*
X62809745Y29961208D01*
X62850229Y29827749D01*
X62915972Y29704753D01*
X63004447Y29596947D01*
X63112253Y29508472D01*
X63235249Y29442729D01*
X63352001Y29407313D01*
X63352001Y29018949D01*
X62323194Y27990141D01*
X62279180Y27994476D01*
X61983560Y27965360D01*
X61699301Y27879131D01*
X61437327Y27739103D01*
X61265245Y27597878D01*
X60170532Y26503165D01*
X60029308Y26331083D01*
X59889279Y26069108D01*
X59803050Y25784850D01*
X59773935Y25489230D01*
X59803050Y25193610D01*
X59889279Y24909352D01*
X60029308Y24647377D01*
X60217754Y24417754D01*
X60447377Y24229308D01*
X60709352Y24089279D01*
X60993610Y24003050D01*
X61289230Y23973935D01*
X61584850Y24003050D01*
X61869108Y24089279D01*
X62131083Y24229308D01*
X62303165Y24370532D01*
X63397878Y25465245D01*
X63539103Y25637327D01*
X63679131Y25899301D01*
X63765360Y26183560D01*
X63777908Y26310961D01*
X65204983Y27738035D01*
X65247265Y27772735D01*
X65385726Y27941450D01*
X65488611Y28133935D01*
X65517331Y28228611D01*
X65551968Y28342793D01*
X65560420Y28428611D01*
X65568000Y28505569D01*
X65568000Y28505576D01*
X65573360Y28560000D01*
X65568000Y28614423D01*
X65568000Y29407313D01*
X65684751Y29442729D01*
X65807747Y29508472D01*
X65915553Y29596947D01*
X66004028Y29704753D01*
X66010354Y29716588D01*
X66073013Y29665165D01*
X66361481Y29510976D01*
X66674486Y29416026D01*
X67000000Y29383966D01*
X67325515Y29416026D01*
X67638520Y29510976D01*
X67926988Y29665165D01*
X68179832Y29872668D01*
X68387335Y30125512D01*
X68541524Y30413980D01*
X68636474Y30726985D01*
X68660500Y30970928D01*
X68660500Y33229072D01*
X68636474Y33473015D01*
X68541524Y33786020D01*
X68387335Y34074488D01*
X68308000Y34171158D01*
X68308000Y36258209D01*
X73539474Y41489683D01*
X73589380Y41530640D01*
X73752834Y41729808D01*
X73874291Y41957038D01*
X73949084Y42203597D01*
X73968010Y42395760D01*
X73968010Y42395767D01*
X73974337Y42460010D01*
X73968010Y42524253D01*
X73968010Y61364514D01*
X73974337Y61428757D01*
X73968010Y61493000D01*
X73968010Y61493006D01*
X73949084Y61685169D01*
X73874291Y61931728D01*
X73752834Y62158958D01*
X73681017Y62246467D01*
X73630337Y62308221D01*
X73630333Y62308225D01*
X73589380Y62358126D01*
X73539480Y62399078D01*
X71468000Y64470557D01*
X71468000Y65010248D01*
X71505239Y65021544D01*
X71819331Y65189429D01*
X72094635Y65415365D01*
X72320571Y65690669D01*
X72488456Y66004761D01*
X72591840Y66345570D01*
X72626748Y66700000D01*
X72591840Y67054430D01*
X72488456Y67395239D01*
X72320571Y67709331D01*
X72094635Y67984635D01*
X71819331Y68210571D01*
X71505239Y68378456D01*
X71164430Y68481840D01*
X70898821Y68508000D01*
X69421179Y68508000D01*
X69155570Y68481840D01*
X68814761Y68378456D01*
X68500669Y68210571D01*
X68253835Y68008000D01*
X67751791Y68008000D01*
X64680327Y71079464D01*
X64639370Y71129370D01*
X64440202Y71292824D01*
X64212972Y71414281D01*
X63966413Y71489074D01*
X63774250Y71508000D01*
X63774243Y71508000D01*
X63710000Y71514327D01*
X63645757Y71508000D01*
X60914889Y71508000D01*
X60801697Y71719766D01*
X60607003Y71957003D01*
X60369765Y72151697D01*
X60099104Y72296369D01*
X59805420Y72385457D01*
X59500000Y72415538D01*
X59194579Y72385457D01*
X58900895Y72296369D01*
X58630234Y72151697D01*
X58450289Y72004021D01*
X58401528Y72095247D01*
X58313053Y72203053D01*
X58205247Y72291528D01*
X58082251Y72357271D01*
X57948792Y72397755D01*
X57810000Y72411425D01*
X56110000Y72411425D01*
X55971208Y72397755D01*
X55837749Y72357271D01*
X55714753Y72291528D01*
X55606947Y72203053D01*
X55518472Y72095247D01*
X55452729Y71972251D01*
X55412245Y71838792D01*
X55405151Y71766771D01*
X53391604Y73780318D01*
X53345940Y73835960D01*
X53123930Y74018158D01*
X52870642Y74153543D01*
X52595808Y74236913D01*
X52381609Y74258010D01*
X52309990Y74265064D01*
X52238371Y74258010D01*
X31553188Y74258010D01*
X31481568Y74265064D01*
X31195750Y74236913D01*
X31017097Y74182719D01*
X30920917Y74153543D01*
X30667629Y74018158D01*
X30445619Y73835960D01*
X30399959Y73780323D01*
X29026808Y72407171D01*
X28931208Y72397755D01*
X28797749Y72357271D01*
X28674753Y72291528D01*
X28566947Y72203053D01*
X28478472Y72095247D01*
X28412729Y71972251D01*
X28372245Y71838792D01*
X28358575Y71700000D01*
X28358575Y71658000D01*
X28173924Y71658000D01*
X26701603Y73130319D01*
X26655940Y73185960D01*
X26433930Y73368158D01*
X26180642Y73503543D01*
X25905808Y73586913D01*
X25691609Y73608010D01*
X25619990Y73615064D01*
X25548371Y73608010D01*
X19652863Y73608010D01*
X19581244Y73615064D01*
X19295425Y73586913D01*
X19020592Y73503543D01*
X18767304Y73368158D01*
X18545294Y73185960D01*
X18499639Y73130329D01*
X17080737Y71711425D01*
X16747500Y71711425D01*
X16608708Y71697755D01*
X16475249Y71657271D01*
X16352253Y71591528D01*
X16244447Y71503053D01*
X16155972Y71395247D01*
X16090229Y71272251D01*
X16049745Y71138792D01*
X16036075Y71000000D01*
X16036075Y67000000D01*
X16049745Y66861208D01*
X16090229Y66727749D01*
X16155972Y66604753D01*
X16242000Y66499928D01*
X16242001Y64203925D01*
X14799502Y62761425D01*
X12650000Y62761425D01*
X12511208Y62747755D01*
X12377749Y62707271D01*
X12254753Y62641528D01*
X12146947Y62553053D01*
X12058472Y62445247D01*
X11992729Y62322251D01*
X11952245Y62188792D01*
X11938575Y62050000D01*
X11938575Y58550000D01*
X11952245Y58411208D01*
X11992729Y58277749D01*
X12058472Y58154753D01*
X12135065Y58061425D01*
X10525000Y58061425D01*
X10215504Y58030942D01*
X9917901Y57940666D01*
X9643629Y57794064D01*
X9403228Y57596772D01*
X9205936Y57356371D01*
X9059334Y57082099D01*
X8969058Y56784496D01*
X8938575Y56475000D01*
X8938575Y54725000D01*
X8969058Y54415504D01*
X9059334Y54117901D01*
X9205936Y53843629D01*
X9403228Y53603228D01*
X9643629Y53405936D01*
X9917901Y53259334D01*
X10215504Y53169058D01*
X10525000Y53138575D01*
X12275000Y53138575D01*
X12584496Y53169058D01*
X12882099Y53259334D01*
X13156371Y53405936D01*
X13396772Y53603228D01*
X13594064Y53843629D01*
X13740666Y54117901D01*
X13830942Y54415504D01*
X13861425Y54725000D01*
X13861425Y56475000D01*
X13830942Y56784496D01*
X13740666Y57082099D01*
X13594064Y57356371D01*
X13396772Y57596772D01*
X13156371Y57794064D01*
X13073097Y57838575D01*
X16150000Y57838575D01*
X16288792Y57852245D01*
X16422251Y57892729D01*
X16545247Y57958472D01*
X16653053Y58046947D01*
X16741528Y58154753D01*
X16807271Y58277749D01*
X16847755Y58411208D01*
X16861425Y58550000D01*
X16861425Y60699502D01*
X17506066Y61344143D01*
X19429673Y59420536D01*
X19470630Y59370630D01*
X19669798Y59207176D01*
X19897028Y59085719D01*
X20143587Y59010926D01*
X20335750Y58992000D01*
X20335757Y58992000D01*
X20400000Y58985673D01*
X20464243Y58992000D01*
X20888575Y58992000D01*
X20888575Y58800000D01*
X20902245Y58661208D01*
X20942729Y58527749D01*
X21008472Y58404753D01*
X21096947Y58296947D01*
X21204753Y58208472D01*
X21327749Y58142729D01*
X21461208Y58102245D01*
X21600000Y58088575D01*
X23200000Y58088575D01*
X23338792Y58102245D01*
X23472251Y58142729D01*
X23595247Y58208472D01*
X23703053Y58296947D01*
X23791528Y58404753D01*
X23857271Y58527749D01*
X23897755Y58661208D01*
X23911425Y58800000D01*
X23911425Y61800000D01*
X23897755Y61938792D01*
X23857271Y62072251D01*
X23791528Y62195247D01*
X23703053Y62303053D01*
X23595247Y62391528D01*
X23472251Y62457271D01*
X23338792Y62497755D01*
X23200000Y62511425D01*
X21600000Y62511425D01*
X21461208Y62497755D01*
X21327749Y62457271D01*
X21204753Y62391528D01*
X21096947Y62303053D01*
X21008472Y62195247D01*
X20942729Y62072251D01*
X20902245Y61938792D01*
X20888575Y61800000D01*
X20888575Y61661216D01*
X19145753Y63404038D01*
X19165054Y63600000D01*
X19158000Y63671619D01*
X19158000Y66499929D01*
X19244028Y66604753D01*
X19309771Y66727749D01*
X19350255Y66861208D01*
X19363925Y67000000D01*
X19363925Y69870768D01*
X20185168Y70692010D01*
X21241678Y70692010D01*
X21238476Y70686019D01*
X21143526Y70373014D01*
X21119500Y70129071D01*
X21119501Y67870928D01*
X21143527Y67626985D01*
X21238477Y67313980D01*
X21392666Y67025512D01*
X21600169Y66772668D01*
X21853013Y66565165D01*
X22141481Y66410976D01*
X22454486Y66316026D01*
X22780000Y66283966D01*
X23105515Y66316026D01*
X23418520Y66410976D01*
X23706988Y66565165D01*
X23959832Y66772668D01*
X24167335Y67025512D01*
X24321524Y67313980D01*
X24416474Y67626985D01*
X24419993Y67662716D01*
X32492000Y59590709D01*
X32492001Y54709857D01*
X32492000Y54709847D01*
X32492001Y50261031D01*
X32338970Y50108000D01*
X19441791Y50108000D01*
X19208000Y50341791D01*
X19208000Y50415080D01*
X19441853Y50540077D01*
X19671476Y50728524D01*
X19859923Y50958147D01*
X19999951Y51220121D01*
X20086180Y51504380D01*
X20115296Y51800000D01*
X20086180Y52095620D01*
X19999951Y52379879D01*
X19859923Y52641853D01*
X19671476Y52871476D01*
X19441853Y53059923D01*
X19179879Y53199951D01*
X18895620Y53286180D01*
X18674078Y53308000D01*
X17125922Y53308000D01*
X16904380Y53286180D01*
X16620121Y53199951D01*
X16448093Y53108000D01*
X14264243Y53108000D01*
X14200000Y53114327D01*
X14135757Y53108000D01*
X14135750Y53108000D01*
X13943587Y53089074D01*
X13697028Y53014281D01*
X13469798Y52892824D01*
X13270630Y52729370D01*
X13229673Y52679464D01*
X8020536Y47470327D01*
X7970630Y47429370D01*
X7807176Y47230201D01*
X7685719Y47002971D01*
X7610926Y46756412D01*
X7592000Y46564249D01*
X7592000Y46564243D01*
X7585673Y46500000D01*
X7592000Y46435757D01*
X7592000Y45797025D01*
X7508472Y45695247D01*
X7442729Y45572251D01*
X7402245Y45438792D01*
X7388575Y45300000D01*
X7388575Y45108000D01*
X6964239Y45108000D01*
X6899999Y45114327D01*
X6835759Y45108000D01*
X6835750Y45108000D01*
X6643587Y45089074D01*
X6397028Y45014281D01*
X6169798Y44892824D01*
X5970630Y44729370D01*
X5929673Y44679464D01*
X5420532Y44170323D01*
X5370631Y44129370D01*
X5329678Y44079469D01*
X5329673Y44079464D01*
X5207176Y43930201D01*
X5085719Y43702971D01*
X5010926Y43456412D01*
X4985673Y43200000D01*
X4992001Y43135747D01*
X4992000Y14640027D01*
X4946947Y14603053D01*
X4858472Y14495247D01*
X4792729Y14372251D01*
X4752245Y14238792D01*
X4738575Y14100000D01*
X783000Y14100000D01*
X783000Y52574077D01*
X4032000Y52574077D01*
X4032000Y51025922D01*
X4053820Y50804380D01*
X4140050Y50520121D01*
X4280078Y50258147D01*
X4468525Y50028524D01*
X4698148Y49840077D01*
X4960122Y49700049D01*
X5244381Y49613820D01*
X5540000Y49584704D01*
X5835620Y49613820D01*
X6119879Y49700049D01*
X6381853Y49840077D01*
X6611476Y50028524D01*
X6799923Y50258147D01*
X6825415Y50305839D01*
X6965922Y50292000D01*
X8514078Y50292000D01*
X8735620Y50313820D01*
X9019879Y50400049D01*
X9281853Y50540077D01*
X9511476Y50728524D01*
X9699923Y50958147D01*
X9839951Y51220121D01*
X9926180Y51504380D01*
X9955296Y51800000D01*
X9926180Y52095620D01*
X9839951Y52379879D01*
X9699923Y52641853D01*
X9511476Y52871476D01*
X9281853Y53059923D01*
X9019879Y53199951D01*
X8735620Y53286180D01*
X8514078Y53308000D01*
X6965922Y53308000D01*
X6825415Y53294161D01*
X6799923Y53341853D01*
X6611476Y53571476D01*
X6381852Y53759923D01*
X6119878Y53899951D01*
X5835619Y53986180D01*
X5540000Y54015296D01*
X5244380Y53986180D01*
X4960121Y53899951D01*
X4698147Y53759923D01*
X4468524Y53571476D01*
X4280077Y53341852D01*
X4140049Y53079878D01*
X4053820Y52795619D01*
X4032000Y52574077D01*
X783000Y52574077D01*
X783000Y71900230D01*
X900201Y71617281D01*
X1196559Y71173751D01*
X1573751Y70796559D01*
X2017281Y70500201D01*
X2510105Y70296067D01*
X3033285Y70192000D01*
X3566715Y70192000D01*
X4089895Y70296067D01*
X4582719Y70500201D01*
X5026249Y70796559D01*
X5403441Y71173751D01*
X5699799Y71617281D01*
X5903933Y72110105D01*
X6008000Y72633285D01*
X6008000Y73166715D01*
X5903933Y73689895D01*
X5699799Y74182719D01*
X5403441Y74626249D01*
X5026249Y75003441D01*
X4706636Y75217000D01*
X71893364Y75217000D01*
X71573751Y75003441D01*
X71573751Y75003441D01*
G37*
X71573751Y75003441D02*
X71196559Y74626249D01*
X70900201Y74182719D01*
X70696067Y73689895D01*
X70592000Y73166715D01*
X70592000Y72633285D01*
X70696067Y72110105D01*
X70900201Y71617281D01*
X71196559Y71173751D01*
X71573751Y70796559D01*
X72017281Y70500201D01*
X72510105Y70296067D01*
X73033285Y70192000D01*
X73566715Y70192000D01*
X74089895Y70296067D01*
X74582719Y70500201D01*
X75026249Y70796559D01*
X75403441Y71173751D01*
X75699799Y71617281D01*
X75817000Y71900230D01*
X75817001Y3899768D01*
X75699799Y4182719D01*
X75403441Y4626249D01*
X75026249Y5003441D01*
X74582719Y5299799D01*
X74089895Y5503933D01*
X73566715Y5608000D01*
X73033285Y5608000D01*
X72510105Y5503933D01*
X72017281Y5299799D01*
X71573751Y5003441D01*
X71196559Y4626249D01*
X70900201Y4182719D01*
X70696067Y3689895D01*
X70592000Y3166715D01*
X70592000Y2633285D01*
X70696067Y2110105D01*
X70900201Y1617281D01*
X71196559Y1173751D01*
X71573751Y796559D01*
X71594043Y783000D01*
X5005957Y783000D01*
X5026249Y796559D01*
X5403441Y1173751D01*
X5699799Y1617281D01*
X5903933Y2110105D01*
X6008000Y2633285D01*
X6008000Y3166715D01*
X5903933Y3689895D01*
X5699799Y4182719D01*
X5403441Y4626249D01*
X5026249Y5003441D01*
X4582719Y5299799D01*
X4089895Y5503933D01*
X3566715Y5608000D01*
X3033285Y5608000D01*
X2510105Y5503933D01*
X2017281Y5299799D01*
X1573751Y5003441D01*
X1196559Y4626249D01*
X900201Y4182719D01*
X783000Y3899770D01*
X783000Y14100000D01*
X4738575Y14100000D01*
X4738575Y11100000D01*
X4752245Y10961208D01*
X4792729Y10827749D01*
X4858472Y10704753D01*
X4946947Y10596947D01*
X4992001Y10559972D01*
X4992001Y9726438D01*
X4985680Y9664300D01*
X5010111Y9407809D01*
X5084113Y9161012D01*
X5204841Y8933393D01*
X5326859Y8783739D01*
X11548439Y2522149D01*
X11590728Y2470620D01*
X11688667Y2390243D01*
X11786397Y2309512D01*
X11788260Y2308508D01*
X11789896Y2307166D01*
X11901637Y2247439D01*
X12013237Y2187327D01*
X12015261Y2186706D01*
X12017126Y2185709D01*
X12138461Y2148902D01*
X12259555Y2111745D01*
X12261657Y2111531D01*
X12263685Y2110916D01*
X12389918Y2098483D01*
X12515885Y2085669D01*
X12582244Y2091990D01*
X26580081Y2091990D01*
X26683279Y2087960D01*
X26772293Y2102081D01*
X26862001Y2110916D01*
X26899286Y2122226D01*
X26937750Y2128328D01*
X27022288Y2159538D01*
X27108560Y2185709D01*
X27142920Y2204075D01*
X27179457Y2217564D01*
X27256286Y2264670D01*
X27335790Y2307166D01*
X27365905Y2331881D01*
X27399110Y2352240D01*
X27465280Y2413436D01*
X27534958Y2470620D01*
X27559671Y2500732D01*
X27588269Y2527181D01*
X27641224Y2600105D01*
X27698412Y2669788D01*
X27747112Y2760899D01*
X28292539Y3692000D01*
X32138575Y3692000D01*
X32138575Y3500000D01*
X32152245Y3361208D01*
X32192729Y3227749D01*
X32258472Y3104753D01*
X32346947Y2996947D01*
X32454753Y2908472D01*
X32577749Y2842729D01*
X32711208Y2802245D01*
X32850000Y2788575D01*
X33694478Y2788575D01*
X34628045Y1855007D01*
X34662745Y1812725D01*
X34831460Y1674264D01*
X34938068Y1617281D01*
X35023945Y1571379D01*
X35232803Y1508022D01*
X35252168Y1506115D01*
X35395579Y1491990D01*
X35395586Y1491990D01*
X35450010Y1486630D01*
X35504433Y1491990D01*
X51745567Y1491990D01*
X51799990Y1486630D01*
X51854413Y1491990D01*
X51854421Y1491990D01*
X52017196Y1508022D01*
X52226055Y1571379D01*
X52418540Y1674264D01*
X52587255Y1812725D01*
X52587265Y1812735D01*
X52725726Y1981450D01*
X52828611Y2173935D01*
X52891968Y2382794D01*
X52908000Y2545569D01*
X52908000Y2545578D01*
X52913360Y2599999D01*
X52908000Y2654420D01*
X52908000Y2838406D01*
X52922251Y2842729D01*
X53045247Y2908472D01*
X53153053Y2996947D01*
X53241528Y3104753D01*
X53307271Y3227749D01*
X53347755Y3361208D01*
X53361425Y3500000D01*
X53361425Y4711634D01*
X56941792Y8292000D01*
X58108093Y8292000D01*
X58280121Y8200049D01*
X58564380Y8113820D01*
X58785922Y8092000D01*
X60334078Y8092000D01*
X60555620Y8113820D01*
X60839879Y8200049D01*
X61101853Y8340077D01*
X61331476Y8528524D01*
X61519923Y8758147D01*
X61659951Y9020121D01*
X61663554Y9032000D01*
X64515081Y9032000D01*
X64640077Y8798148D01*
X64828524Y8568524D01*
X65058147Y8380077D01*
X65320121Y8240049D01*
X65604380Y8153820D01*
X65900000Y8124704D01*
X66195619Y8153820D01*
X66479878Y8240049D01*
X66741852Y8380077D01*
X66971476Y8568524D01*
X67159923Y8798147D01*
X67299951Y9060121D01*
X67386180Y9344380D01*
X67408000Y9565922D01*
X67408000Y9998209D01*
X67881791Y10472000D01*
X70195307Y10472000D01*
X70042997Y10347003D01*
X69848303Y10109766D01*
X69703631Y9839105D01*
X69614543Y9545421D01*
X69584462Y9240000D01*
X69614543Y8934579D01*
X69703631Y8640895D01*
X69848303Y8370234D01*
X70042997Y8132997D01*
X70280234Y7938303D01*
X70550895Y7793631D01*
X70844579Y7704543D01*
X71073465Y7682000D01*
X72526535Y7682000D01*
X72755421Y7704543D01*
X73049105Y7793631D01*
X73319766Y7938303D01*
X73557003Y8132997D01*
X73751697Y8370234D01*
X73896369Y8640895D01*
X73985457Y8934579D01*
X74015538Y9240000D01*
X73985457Y9545421D01*
X73896369Y9839105D01*
X73751697Y10109766D01*
X73557003Y10347003D01*
X73358389Y10510000D01*
X73557003Y10672997D01*
X73751697Y10910234D01*
X73896369Y11180895D01*
X73985457Y11474579D01*
X74015538Y11780000D01*
X73985457Y12085421D01*
X73896369Y12379105D01*
X73751697Y12649766D01*
X73557003Y12887003D01*
X73358389Y13050000D01*
X73557003Y13212997D01*
X73751697Y13450234D01*
X73896369Y13720895D01*
X73985457Y14014579D01*
X74015538Y14320000D01*
X73985457Y14625421D01*
X73896369Y14919105D01*
X73751697Y15189766D01*
X73557003Y15427003D01*
X73358389Y15590000D01*
X73557003Y15752997D01*
X73751697Y15990234D01*
X73896369Y16260895D01*
X73985457Y16554579D01*
X74015538Y16860000D01*
X73985457Y17165421D01*
X73896369Y17459105D01*
X73751697Y17729766D01*
X73604021Y17909711D01*
X73695247Y17958472D01*
X73803053Y18046947D01*
X73891528Y18154753D01*
X73957271Y18277749D01*
X73997755Y18411208D01*
X74011425Y18550000D01*
X74011425Y20250000D01*
X73997755Y20388792D01*
X73957271Y20522251D01*
X73891528Y20645247D01*
X73803053Y20753053D01*
X73695247Y20841528D01*
X73572251Y20907271D01*
X73438792Y20947755D01*
X73300000Y20961425D01*
X72005523Y20961425D01*
X69908000Y23058947D01*
X69908000Y23774078D01*
X69886180Y23995620D01*
X69799951Y24279879D01*
X69659923Y24541853D01*
X69471476Y24771476D01*
X69241853Y24959923D01*
X68979879Y25099951D01*
X68695620Y25186180D01*
X68400000Y25215296D01*
X68104381Y25186180D01*
X67820122Y25099951D01*
X67558148Y24959923D01*
X67328525Y24771476D01*
X67150001Y24553944D01*
X66971476Y24771476D01*
X66741853Y24959923D01*
X66479879Y25099951D01*
X66195620Y25186180D01*
X65900000Y25215296D01*
X65604381Y25186180D01*
X65320122Y25099951D01*
X65058148Y24959923D01*
X64828525Y24771476D01*
X64640078Y24541853D01*
X64500050Y24279879D01*
X64413820Y23995620D01*
X64392000Y23774078D01*
X64392000Y22225923D01*
X64413820Y22004381D01*
X64490986Y21749999D01*
X64447910Y21608000D01*
X62255844Y21608000D01*
X58008000Y25855842D01*
X58008000Y25885475D01*
X58148152Y25979122D01*
X58420878Y26251848D01*
X58635157Y26572539D01*
X58782755Y26928872D01*
X58858000Y27307154D01*
X58858000Y27692846D01*
X58782755Y28071128D01*
X58635157Y28427461D01*
X58420878Y28748152D01*
X58148152Y29020878D01*
X57827461Y29235157D01*
X57471128Y29382755D01*
X57092846Y29458000D01*
X56707154Y29458000D01*
X56328872Y29382755D01*
X55972539Y29235157D01*
X55651848Y29020878D01*
X55379122Y28748152D01*
X55164843Y28427461D01*
X55017245Y28071128D01*
X54942000Y27692846D01*
X54942000Y27307154D01*
X54962456Y27204315D01*
X54217911Y27948860D01*
X54179191Y27995081D01*
X54098486Y28059962D01*
X54018462Y28125637D01*
X54013488Y28128296D01*
X54009088Y28131833D01*
X53917269Y28179726D01*
X53825976Y28228523D01*
X53820575Y28230161D01*
X53815574Y28232770D01*
X53716244Y28261810D01*
X53617118Y28291880D01*
X53611499Y28292433D01*
X53606086Y28294016D01*
X53502975Y28303122D01*
X53399912Y28313272D01*
X53339904Y28307362D01*
X43548855Y28208549D01*
X43500000Y28213361D01*
X43439990Y28207451D01*
X43434391Y28207394D01*
X43385872Y28202120D01*
X43282794Y28191968D01*
X43277392Y28190329D01*
X43271786Y28189720D01*
X43173093Y28158690D01*
X43073935Y28128611D01*
X43068954Y28125948D01*
X43063577Y28124258D01*
X42972852Y28074581D01*
X42881450Y28025726D01*
X42877085Y28022143D01*
X42872140Y28019436D01*
X42792846Y27953011D01*
X42755014Y27921963D01*
X42751044Y27917993D01*
X42704831Y27879280D01*
X42674079Y27841028D01*
X40275022Y25441969D01*
X40232735Y25407265D01*
X40094274Y25238550D01*
X40020218Y25100000D01*
X39991389Y25046064D01*
X39939896Y24876314D01*
X39928032Y24837205D01*
X39912000Y24674430D01*
X39912000Y24674423D01*
X39906640Y24620000D01*
X39912000Y24565576D01*
X39912000Y24026971D01*
X39760077Y23841853D01*
X39750000Y23823000D01*
X39739923Y23841853D01*
X39551476Y24071476D01*
X39321853Y24259923D01*
X39059879Y24399951D01*
X38775620Y24486180D01*
X38480000Y24515296D01*
X38184381Y24486180D01*
X37900122Y24399951D01*
X37638148Y24259923D01*
X37408525Y24071476D01*
X37220077Y23841853D01*
X37210000Y23823000D01*
X37199923Y23841853D01*
X37048000Y24026971D01*
X37048000Y27821053D01*
X43344989Y34118040D01*
X43387265Y34152735D01*
X43525726Y34321450D01*
X43628611Y34513935D01*
X43691968Y34722794D01*
X43708000Y34885569D01*
X43708000Y34885578D01*
X43713360Y34939999D01*
X43708000Y34994420D01*
X43708000Y36013029D01*
X43859923Y36198147D01*
X43999951Y36460121D01*
X44086180Y36744380D01*
X44108000Y36965922D01*
X44108000Y38514078D01*
X44086180Y38735620D01*
X43999951Y39019879D01*
X43859923Y39281853D01*
X43671476Y39511476D01*
X43441853Y39699923D01*
X43179879Y39839951D01*
X42895620Y39926180D01*
X42600000Y39955296D01*
X42304381Y39926180D01*
X42020122Y39839951D01*
X41758148Y39699923D01*
X41528525Y39511476D01*
X41340078Y39281853D01*
X41200050Y39019879D01*
X41113820Y38735620D01*
X41092000Y38514078D01*
X41092000Y36965923D01*
X41113820Y36744381D01*
X41200049Y36460122D01*
X41340077Y36198148D01*
X41492001Y36013028D01*
X41492001Y35398950D01*
X35195022Y29101969D01*
X35152735Y29067265D01*
X35051494Y28943902D01*
X35038792Y28947755D01*
X34900000Y28961425D01*
X31900000Y28961425D01*
X31761208Y28947755D01*
X31627749Y28907271D01*
X31504753Y28841528D01*
X31396947Y28753053D01*
X31308472Y28645247D01*
X31242729Y28522251D01*
X31208000Y28407764D01*
X31208000Y29958209D01*
X34479470Y33229678D01*
X34529370Y33270630D01*
X34570323Y33320531D01*
X34570327Y33320535D01*
X34692824Y33469798D01*
X34814281Y33697028D01*
X34814743Y33698550D01*
X34889074Y33943587D01*
X34908000Y34135750D01*
X34908000Y34135759D01*
X34914327Y34199999D01*
X34908000Y34264239D01*
X34908000Y36678970D01*
X35120878Y36891848D01*
X35335157Y37212539D01*
X35482755Y37568872D01*
X35558000Y37947154D01*
X35558000Y38332846D01*
X35482755Y38711128D01*
X35335157Y39067461D01*
X35120878Y39388152D01*
X34848152Y39660878D01*
X34527461Y39875157D01*
X34171128Y40022755D01*
X33792846Y40098000D01*
X33407154Y40098000D01*
X33028872Y40022755D01*
X32672539Y39875157D01*
X32351848Y39660878D01*
X32079122Y39388152D01*
X31864843Y39067461D01*
X31717245Y38711128D01*
X31642000Y38332846D01*
X31642000Y37947154D01*
X31717245Y37568872D01*
X31864843Y37212539D01*
X32079122Y36891848D01*
X32292001Y36678969D01*
X32292000Y34741792D01*
X29020532Y31470323D01*
X28970631Y31429370D01*
X28929678Y31379469D01*
X28929673Y31379464D01*
X28807176Y31230201D01*
X28685719Y31002971D01*
X28610926Y30756412D01*
X28585673Y30500000D01*
X28592001Y30435748D01*
X28592000Y25864243D01*
X28585673Y25800000D01*
X28592000Y25735757D01*
X28592000Y25735751D01*
X28610926Y25543588D01*
X28685719Y25297029D01*
X28807176Y25069799D01*
X28970630Y24870630D01*
X29020536Y24829673D01*
X29552001Y24298208D01*
X29552001Y23751908D01*
X29460049Y23579879D01*
X29373820Y23295620D01*
X29352000Y23074078D01*
X29352000Y21925923D01*
X29373820Y21704381D01*
X29460049Y21420122D01*
X29600077Y21158148D01*
X29788524Y20928524D01*
X30018147Y20740077D01*
X30280121Y20600049D01*
X30564380Y20513820D01*
X30860000Y20484704D01*
X31155619Y20513820D01*
X31439878Y20600049D01*
X31701852Y20740077D01*
X31931476Y20928524D01*
X32119923Y21158147D01*
X32130000Y21177000D01*
X32140077Y21158148D01*
X32328524Y20928524D01*
X32558147Y20740077D01*
X32820121Y20600049D01*
X33104380Y20513820D01*
X33400000Y20484704D01*
X33695619Y20513820D01*
X33979878Y20600049D01*
X34241852Y20740077D01*
X34471476Y20928524D01*
X34659923Y21158147D01*
X34670000Y21177000D01*
X34680077Y21158148D01*
X34868524Y20928524D01*
X35098147Y20740077D01*
X35360121Y20600049D01*
X35644380Y20513820D01*
X35940000Y20484704D01*
X36235619Y20513820D01*
X36519878Y20600049D01*
X36781852Y20740077D01*
X37011476Y20928524D01*
X37199923Y21158147D01*
X37210000Y21177000D01*
X37220077Y21158148D01*
X37408524Y20928524D01*
X37638147Y20740077D01*
X37900121Y20600049D01*
X38184380Y20513820D01*
X38422705Y20490347D01*
X38960702Y19952349D01*
X28829239Y19981077D01*
X28773232Y19986593D01*
X28665903Y19976022D01*
X28559124Y19965811D01*
X28557608Y19965356D01*
X28556025Y19965200D01*
X28452737Y19933868D01*
X28350086Y19903046D01*
X28348690Y19902305D01*
X28347167Y19901843D01*
X28252062Y19851009D01*
X28157310Y19800708D01*
X28156083Y19799707D01*
X28154682Y19798958D01*
X28071340Y19730561D01*
X27988203Y19662726D01*
X27952388Y19619337D01*
X26841053Y18508000D01*
X15431668Y18508000D01*
X15377244Y18513360D01*
X15322821Y18508000D01*
X15322814Y18508000D01*
X15181298Y18494062D01*
X15160038Y18491968D01*
X14951180Y18428611D01*
X14758695Y18325726D01*
X14589980Y18187265D01*
X14555282Y18144985D01*
X13285367Y16875069D01*
X13080000Y16895296D01*
X12784381Y16866180D01*
X12500122Y16779951D01*
X12238148Y16639923D01*
X12008525Y16451476D01*
X11820077Y16221853D01*
X11680049Y15959879D01*
X11593820Y15675620D01*
X11572000Y15454078D01*
X11572000Y14305923D01*
X11593820Y14084381D01*
X11680049Y13800122D01*
X11820077Y13538148D01*
X12008524Y13308524D01*
X12238147Y13120077D01*
X12500121Y12980049D01*
X12784380Y12893820D01*
X13080000Y12864704D01*
X13375619Y12893820D01*
X13659878Y12980049D01*
X13921852Y13120077D01*
X14151476Y13308524D01*
X14339923Y13538147D01*
X14350000Y13557000D01*
X14360077Y13538148D01*
X14548524Y13308524D01*
X14778147Y13120077D01*
X15040121Y12980049D01*
X15324380Y12893820D01*
X15340856Y12892197D01*
X17725053Y10507999D01*
X14599462Y10507999D01*
X14486065Y10568611D01*
X14277206Y10631968D01*
X14114431Y10648000D01*
X14114423Y10648000D01*
X14060000Y10653360D01*
X14005577Y10648000D01*
X13458156Y10648000D01*
X13323940Y10758148D01*
X13070652Y10893533D01*
X12795818Y10976903D01*
X12581619Y10998000D01*
X10938381Y10998000D01*
X10724182Y10976903D01*
X10449348Y10893533D01*
X10196060Y10758148D01*
X9974050Y10575950D01*
X9948000Y10544208D01*
X9948000Y10844212D01*
X10141697Y11080234D01*
X10286369Y11350895D01*
X10375457Y11644579D01*
X10398000Y11873465D01*
X10398000Y13326535D01*
X10375457Y13555421D01*
X10286369Y13849105D01*
X10141697Y14119766D01*
X9947003Y14357003D01*
X9709765Y14551697D01*
X9439104Y14696369D01*
X9145420Y14785457D01*
X8840000Y14815538D01*
X8534579Y14785457D01*
X8240895Y14696369D01*
X7970234Y14551697D01*
X7790289Y14404021D01*
X7741528Y14495247D01*
X7653053Y14603053D01*
X7608000Y14640027D01*
X7608000Y28050000D01*
X10988575Y28050000D01*
X10988575Y26350000D01*
X11002245Y26211208D01*
X11042729Y26077749D01*
X11108472Y25954753D01*
X11196947Y25846947D01*
X11304753Y25758472D01*
X11427749Y25692729D01*
X11561208Y25652245D01*
X11700000Y25638575D01*
X12092000Y25638575D01*
X12092000Y25474423D01*
X12086640Y25420000D01*
X12092000Y25365577D01*
X12092000Y25365569D01*
X12094226Y25342972D01*
X12108032Y25202794D01*
X12171389Y24993936D01*
X12249382Y24848022D01*
X12274275Y24801450D01*
X12412736Y24632735D01*
X12455018Y24598035D01*
X12617497Y24435556D01*
X12500122Y24399951D01*
X12238148Y24259923D01*
X12008525Y24071476D01*
X11820077Y23841853D01*
X11680049Y23579879D01*
X11593820Y23295620D01*
X11572000Y23074078D01*
X11572000Y21925923D01*
X11593820Y21704381D01*
X11680049Y21420122D01*
X11820077Y21158148D01*
X12008524Y20928524D01*
X12238147Y20740077D01*
X12500121Y20600049D01*
X12784380Y20513820D01*
X13080000Y20484704D01*
X13375619Y20513820D01*
X13659878Y20600049D01*
X13921852Y20740077D01*
X14151476Y20928524D01*
X14339923Y21158147D01*
X14350000Y21177000D01*
X14360077Y21158148D01*
X14548524Y20928524D01*
X14778147Y20740077D01*
X15040121Y20600049D01*
X15324380Y20513820D01*
X15620000Y20484704D01*
X15915619Y20513820D01*
X16199878Y20600049D01*
X16461852Y20740077D01*
X16691476Y20928524D01*
X16879923Y21158147D01*
X16890000Y21177000D01*
X16900077Y21158148D01*
X17088524Y20928524D01*
X17318147Y20740077D01*
X17580121Y20600049D01*
X17864380Y20513820D01*
X18160000Y20484704D01*
X18455619Y20513820D01*
X18739878Y20600049D01*
X19001852Y20740077D01*
X19231476Y20928524D01*
X19419923Y21158147D01*
X19430000Y21177000D01*
X19440077Y21158148D01*
X19628524Y20928524D01*
X19858147Y20740077D01*
X20120121Y20600049D01*
X20404380Y20513820D01*
X20700000Y20484704D01*
X20995619Y20513820D01*
X21279878Y20600049D01*
X21541852Y20740077D01*
X21771476Y20928524D01*
X21959923Y21158147D01*
X21970000Y21177000D01*
X21980077Y21158148D01*
X22168524Y20928524D01*
X22398147Y20740077D01*
X22660121Y20600049D01*
X22944380Y20513820D01*
X23240000Y20484704D01*
X23535619Y20513820D01*
X23819878Y20600049D01*
X24081852Y20740077D01*
X24311476Y20928524D01*
X24499923Y21158147D01*
X24510000Y21177000D01*
X24520077Y21158148D01*
X24708524Y20928524D01*
X24938147Y20740077D01*
X25200121Y20600049D01*
X25484380Y20513820D01*
X25780000Y20484704D01*
X26075619Y20513820D01*
X26359878Y20600049D01*
X26621852Y20740077D01*
X26851476Y20928524D01*
X27039923Y21158147D01*
X27179951Y21420121D01*
X27266180Y21704380D01*
X27288000Y21925922D01*
X27288000Y23074078D01*
X27266180Y23295620D01*
X27179951Y23579879D01*
X27039923Y23841853D01*
X26888000Y24026971D01*
X26888000Y31792000D01*
X26917469Y31792000D01*
X27344050Y31876852D01*
X27745880Y32043295D01*
X28107518Y32284934D01*
X28415066Y32592482D01*
X28656705Y32954120D01*
X28823148Y33355950D01*
X28908000Y33782531D01*
X28908000Y34217469D01*
X28823148Y34644050D01*
X28656705Y35045880D01*
X28415066Y35407518D01*
X28107518Y35715066D01*
X27745880Y35956705D01*
X27344050Y36123148D01*
X26917469Y36208000D01*
X26808000Y36208000D01*
X26808000Y36273029D01*
X26959923Y36458147D01*
X27099951Y36720121D01*
X27186180Y37004380D01*
X27208000Y37225922D01*
X27208000Y38774078D01*
X27186180Y38995620D01*
X27099951Y39279879D01*
X26959923Y39541853D01*
X26771476Y39771476D01*
X26541853Y39959923D01*
X26279879Y40099951D01*
X25995620Y40186180D01*
X25700000Y40215296D01*
X25404381Y40186180D01*
X25120122Y40099951D01*
X24858148Y39959923D01*
X24628525Y39771476D01*
X24440078Y39541853D01*
X24300050Y39279879D01*
X24213820Y38995620D01*
X24200000Y38855303D01*
X24186180Y38995620D01*
X24099951Y39279879D01*
X23959923Y39541853D01*
X23771476Y39771476D01*
X23541852Y39959923D01*
X23279878Y40099951D01*
X22995619Y40186180D01*
X22700000Y40215296D01*
X22404380Y40186180D01*
X22120121Y40099951D01*
X21858147Y39959923D01*
X21628524Y39771476D01*
X21440077Y39541852D01*
X21300049Y39279878D01*
X21213820Y38995619D01*
X21192000Y38774077D01*
X21192000Y37225922D01*
X21213820Y37004380D01*
X21300050Y36720121D01*
X21440078Y36458147D01*
X21592001Y36273029D01*
X21592001Y36205905D01*
X21175950Y36123148D01*
X20774120Y35956705D01*
X20412482Y35715066D01*
X20104934Y35407518D01*
X19863295Y35045880D01*
X19696852Y34644050D01*
X19612000Y34217469D01*
X19612000Y33782531D01*
X19696852Y33355950D01*
X19863295Y32954120D01*
X20104934Y32592482D01*
X20412482Y32284934D01*
X20774120Y32043295D01*
X21175950Y31876852D01*
X21602531Y31792000D01*
X22037469Y31792000D01*
X22132001Y31810804D01*
X22132000Y24026971D01*
X21980077Y23841853D01*
X21970000Y23823000D01*
X21959923Y23841853D01*
X21771476Y24071476D01*
X21541853Y24259923D01*
X21279879Y24399951D01*
X20995620Y24486180D01*
X20757296Y24509653D01*
X18868010Y26398937D01*
X18868010Y38063818D01*
X21836203Y41032010D01*
X48841043Y41032010D01*
X50178035Y39695017D01*
X50212735Y39652735D01*
X50381450Y39514274D01*
X50573935Y39411389D01*
X50782794Y39348032D01*
X50945569Y39332000D01*
X50945578Y39332000D01*
X50999999Y39326640D01*
X51054420Y39332000D01*
X51147910Y39332000D01*
X51200049Y39160122D01*
X51340077Y38898148D01*
X51528524Y38668524D01*
X51758147Y38480077D01*
X52020121Y38340049D01*
X52304380Y38253820D01*
X52600000Y38224704D01*
X52895619Y38253820D01*
X53179878Y38340049D01*
X53441852Y38480077D01*
X53671476Y38668524D01*
X53859923Y38898147D01*
X53999951Y39160121D01*
X54086180Y39444380D01*
X54108000Y39665922D01*
X54108000Y41214078D01*
X54086180Y41435620D01*
X53999951Y41719879D01*
X53859923Y41981853D01*
X53671476Y42211476D01*
X53490340Y42360131D01*
X61089196Y42389985D01*
X61181450Y42314274D01*
X61373935Y42211389D01*
X61539359Y42161208D01*
X61582794Y42148032D01*
X61800000Y42126639D01*
X61854431Y42132000D01*
X61947910Y42132000D01*
X62000049Y41960122D01*
X62140077Y41698148D01*
X62328524Y41468524D01*
X62558147Y41280077D01*
X62820121Y41140049D01*
X63104380Y41053820D01*
X63400000Y41024704D01*
X63695619Y41053820D01*
X63979878Y41140049D01*
X64241852Y41280077D01*
X64471476Y41468524D01*
X64659923Y41698147D01*
X64799951Y41960121D01*
X64886180Y42244380D01*
X64908000Y42465922D01*
X64908000Y44014078D01*
X64886180Y44235620D01*
X64799951Y44519879D01*
X64659923Y44781853D01*
X64471476Y45011476D01*
X64241853Y45199923D01*
X63979879Y45339951D01*
X63695620Y45426180D01*
X63400000Y45455296D01*
X63104381Y45426180D01*
X62820122Y45339951D01*
X62558148Y45199923D01*
X62328525Y45011476D01*
X62140078Y44781853D01*
X62007869Y44534508D01*
X61919837Y44560835D01*
X61817206Y44591968D01*
X61815013Y44592184D01*
X61812913Y44592812D01*
X61706584Y44602863D01*
X61600000Y44613361D01*
X61543395Y44607786D01*
X20932452Y44448232D01*
X20880194Y44453379D01*
X20823593Y44447805D01*
X20821411Y44447796D01*
X20769449Y44442472D01*
X20662987Y44431987D01*
X20660883Y44431349D01*
X20658700Y44431125D01*
X20556599Y44399714D01*
X20454129Y44368630D01*
X20452189Y44367593D01*
X20450092Y44366948D01*
X20356064Y44316213D01*
X20261643Y44265744D01*
X20259943Y44264349D01*
X20258012Y44263307D01*
X20175734Y44195240D01*
X20135208Y44161981D01*
X20133660Y44160433D01*
X20089843Y44124184D01*
X20056693Y44083466D01*
X15815022Y39841794D01*
X15772735Y39807090D01*
X15634274Y39638375D01*
X15566446Y39511476D01*
X15531389Y39445889D01*
X15501705Y39348033D01*
X15468032Y39237030D01*
X15452000Y39074255D01*
X15452000Y39074248D01*
X15446640Y39019825D01*
X15452000Y38965402D01*
X15452001Y24734947D01*
X14548372Y25638575D01*
X14700000Y25638575D01*
X14838792Y25652245D01*
X14972251Y25692729D01*
X15095247Y25758472D01*
X15203053Y25846947D01*
X15291528Y25954753D01*
X15357271Y26077749D01*
X15397755Y26211208D01*
X15411425Y26350000D01*
X15411425Y28050000D01*
X15397755Y28188792D01*
X15357271Y28322251D01*
X15291528Y28445247D01*
X15203053Y28553053D01*
X15095247Y28641528D01*
X14972251Y28707271D01*
X14838792Y28747755D01*
X14700000Y28761425D01*
X11700000Y28761425D01*
X11561208Y28747755D01*
X11427749Y28707271D01*
X11304753Y28641528D01*
X11196947Y28553053D01*
X11108472Y28445247D01*
X11042729Y28322251D01*
X11002245Y28188792D01*
X10988575Y28050000D01*
X7608000Y28050000D01*
X7608000Y41787876D01*
X7704753Y41708472D01*
X7827749Y41642729D01*
X7961208Y41602245D01*
X8100000Y41588575D01*
X9700000Y41588575D01*
X9838792Y41602245D01*
X9972251Y41642729D01*
X10095247Y41708472D01*
X10203053Y41796947D01*
X10291528Y41904753D01*
X10357271Y42027749D01*
X10397755Y42161208D01*
X10411425Y42300000D01*
X10411425Y45300000D01*
X10397755Y45438792D01*
X10357271Y45572251D01*
X10291528Y45695247D01*
X10208000Y45797025D01*
X10208000Y45958209D01*
X14741791Y50492000D01*
X16448093Y50492000D01*
X16592001Y50415080D01*
X16592001Y49864252D01*
X16585673Y49800000D01*
X16610926Y49543588D01*
X16685719Y49297029D01*
X16807176Y49069799D01*
X16929673Y48920536D01*
X16929678Y48920531D01*
X16970631Y48870630D01*
X17020532Y48829677D01*
X17929673Y47920536D01*
X17970630Y47870630D01*
X18169798Y47707176D01*
X18397028Y47585719D01*
X18643587Y47510926D01*
X18835750Y47492000D01*
X18835757Y47492000D01*
X18900000Y47485673D01*
X18964243Y47492000D01*
X32338970Y47492000D01*
X32551848Y47279122D01*
X32872539Y47064843D01*
X33228872Y46917245D01*
X33607154Y46842000D01*
X33992846Y46842000D01*
X34371128Y46917245D01*
X34727461Y47064843D01*
X35048152Y47279122D01*
X35320878Y47551848D01*
X35535157Y47872539D01*
X35682755Y48228872D01*
X35758000Y48607154D01*
X35758000Y48992846D01*
X35682755Y49371128D01*
X35535157Y49727461D01*
X35320878Y50048152D01*
X35108000Y50261030D01*
X35108000Y60068257D01*
X35114327Y60132500D01*
X35108000Y60196743D01*
X35108000Y60196750D01*
X35089074Y60388913D01*
X35014281Y60635472D01*
X34892824Y60862702D01*
X34729370Y61061870D01*
X34679465Y61102826D01*
X26851398Y68930893D01*
X26924162Y68892000D01*
X27009348Y68846467D01*
X27284182Y68763097D01*
X27570000Y68734946D01*
X27641619Y68742000D01*
X28358575Y68742000D01*
X28358575Y68700000D01*
X28372245Y68561208D01*
X28412729Y68427749D01*
X28478472Y68304753D01*
X28566947Y68196947D01*
X28674753Y68108472D01*
X28797749Y68042729D01*
X28931208Y68002245D01*
X29070000Y67988575D01*
X30770000Y67988575D01*
X30908792Y68002245D01*
X31002001Y68030519D01*
X31002001Y67171629D01*
X30994946Y67100000D01*
X31023097Y66814182D01*
X31106467Y66539349D01*
X31210044Y66345570D01*
X31241853Y66286060D01*
X31424051Y66064050D01*
X31479687Y66018391D01*
X34628394Y62869682D01*
X34674049Y62814051D01*
X34896059Y62631853D01*
X35146939Y62497755D01*
X35149347Y62496468D01*
X35424181Y62413098D01*
X35709999Y62384947D01*
X35781618Y62392001D01*
X36836075Y62392001D01*
X36836075Y58700000D01*
X36849745Y58561208D01*
X36890229Y58427749D01*
X36955972Y58304753D01*
X37044447Y58196947D01*
X37152253Y58108472D01*
X37275249Y58042729D01*
X37392001Y58007313D01*
X37392000Y56152090D01*
X37220121Y56099951D01*
X36958147Y55959923D01*
X36728524Y55771476D01*
X36540077Y55541853D01*
X36400049Y55279879D01*
X36313820Y54995620D01*
X36284704Y54700000D01*
X36313820Y54404380D01*
X36400049Y54120121D01*
X36540077Y53858147D01*
X36728524Y53628524D01*
X36958147Y53440077D01*
X37220121Y53300049D01*
X37392000Y53247910D01*
X37392000Y53045570D01*
X37392001Y53045560D01*
X37392000Y49954424D01*
X37386640Y49900000D01*
X37392000Y49845577D01*
X37392000Y49845570D01*
X37403445Y49729370D01*
X37408032Y49682794D01*
X37428955Y49613820D01*
X37471389Y49473936D01*
X37574274Y49281450D01*
X37712735Y49112735D01*
X37755022Y49078031D01*
X39678035Y47155017D01*
X39712735Y47112735D01*
X39881450Y46974274D01*
X40073935Y46871389D01*
X40282794Y46808032D01*
X40445569Y46792000D01*
X40445578Y46792000D01*
X40499999Y46786640D01*
X40554420Y46792000D01*
X41147910Y46792000D01*
X41200049Y46620122D01*
X41340077Y46358148D01*
X41528524Y46128524D01*
X41758147Y45940077D01*
X42020121Y45800049D01*
X42304380Y45713820D01*
X42600000Y45684704D01*
X42895619Y45713820D01*
X43179878Y45800049D01*
X43441852Y45940077D01*
X43671476Y46128524D01*
X43859923Y46358147D01*
X43999951Y46620121D01*
X44086180Y46904380D01*
X44108000Y47125922D01*
X44108000Y48674078D01*
X44086180Y48895620D01*
X43999951Y49179879D01*
X43859923Y49441853D01*
X43671476Y49671476D01*
X43441853Y49859923D01*
X43179879Y49999951D01*
X42895620Y50086180D01*
X42600000Y50115296D01*
X42304381Y50086180D01*
X42020122Y49999951D01*
X41758148Y49859923D01*
X41528525Y49671476D01*
X41340078Y49441853D01*
X41200050Y49179879D01*
X41147910Y49008000D01*
X40958948Y49008000D01*
X39608000Y50358947D01*
X39608000Y53247910D01*
X39779879Y53300049D01*
X40041853Y53440077D01*
X40271476Y53628524D01*
X40459923Y53858147D01*
X40599951Y54120121D01*
X40686180Y54404380D01*
X40715296Y54700000D01*
X40686180Y54995620D01*
X40599951Y55279879D01*
X40459923Y55541853D01*
X40271476Y55771476D01*
X40041853Y55959923D01*
X39779879Y56099951D01*
X39608000Y56152090D01*
X39608000Y58007313D01*
X39724751Y58042729D01*
X39847747Y58108472D01*
X39955553Y58196947D01*
X40044028Y58304753D01*
X40050354Y58316588D01*
X40113013Y58265165D01*
X40401481Y58110976D01*
X40714486Y58016026D01*
X41040000Y57983966D01*
X41365515Y58016026D01*
X41678520Y58110976D01*
X41966988Y58265165D01*
X42219832Y58472668D01*
X42427335Y58725512D01*
X42581524Y59013980D01*
X42676474Y59326985D01*
X42700500Y59570928D01*
X42700500Y61829072D01*
X42676474Y62073015D01*
X42581524Y62386020D01*
X42498000Y62542283D01*
X42498000Y62984259D01*
X42505054Y63055878D01*
X42476903Y63341696D01*
X42393533Y63616530D01*
X42363695Y63672353D01*
X42258148Y63869818D01*
X42075949Y64091828D01*
X42020318Y64137483D01*
X41865790Y64292011D01*
X51886066Y64292011D01*
X52582000Y63596076D01*
X52582000Y63398670D01*
X52452500Y63411425D01*
X50547500Y63411425D01*
X50408708Y63397755D01*
X50275249Y63357271D01*
X50152253Y63291528D01*
X50044447Y63203053D01*
X49955972Y63095247D01*
X49890229Y62972251D01*
X49849745Y62838792D01*
X49836075Y62700000D01*
X49836075Y58700000D01*
X49849745Y58561208D01*
X49890229Y58427749D01*
X49955972Y58304753D01*
X50044447Y58196947D01*
X50152253Y58108472D01*
X50275249Y58042729D01*
X50392001Y58007313D01*
X50392001Y56854433D01*
X50386640Y56800000D01*
X50408032Y56582794D01*
X50471389Y56373936D01*
X50471390Y56373935D01*
X50574275Y56181450D01*
X50712736Y56012735D01*
X50755018Y55978035D01*
X51489139Y55243913D01*
X51413820Y54995620D01*
X51384704Y54700000D01*
X51413820Y54404380D01*
X51500049Y54120121D01*
X51544410Y54037127D01*
X51508032Y53917206D01*
X51486640Y53700000D01*
X51492001Y53645567D01*
X51492001Y52326971D01*
X51340078Y52141853D01*
X51200050Y51879879D01*
X51113820Y51595620D01*
X51092000Y51374078D01*
X51092000Y49825923D01*
X51113820Y49604381D01*
X51200049Y49320122D01*
X51340077Y49058148D01*
X51528524Y48828524D01*
X51758147Y48640077D01*
X52020121Y48500049D01*
X52304380Y48413820D01*
X52600000Y48384704D01*
X52895619Y48413820D01*
X53179878Y48500049D01*
X53441852Y48640077D01*
X53671476Y48828524D01*
X53859923Y49058147D01*
X53999951Y49320121D01*
X54086180Y49604380D01*
X54108000Y49825922D01*
X54108000Y51374078D01*
X54086180Y51595620D01*
X53999951Y51879879D01*
X53859923Y52141853D01*
X53708000Y52326971D01*
X53708000Y53192000D01*
X54374078Y53192000D01*
X54595620Y53213820D01*
X54879879Y53300049D01*
X55141853Y53440077D01*
X55371476Y53628524D01*
X55559923Y53858147D01*
X55699951Y54120121D01*
X55786180Y54404380D01*
X55815296Y54700000D01*
X55786180Y54995620D01*
X55699951Y55279879D01*
X55559923Y55541853D01*
X55371476Y55771476D01*
X55141853Y55959923D01*
X54879879Y56099951D01*
X54595620Y56186180D01*
X54374078Y56208000D01*
X53658948Y56208000D01*
X52608000Y57258947D01*
X52608000Y58007313D01*
X52724751Y58042729D01*
X52847747Y58108472D01*
X52955553Y58196947D01*
X53044028Y58304753D01*
X53050354Y58316588D01*
X53113013Y58265165D01*
X53401481Y58110976D01*
X53714486Y58016026D01*
X54040000Y57983966D01*
X54365515Y58016026D01*
X54678520Y58110976D01*
X54966988Y58265165D01*
X55219832Y58472668D01*
X55427335Y58725512D01*
X55581524Y59013980D01*
X55676474Y59326985D01*
X55700500Y59570928D01*
X55700500Y61829072D01*
X55676474Y62073015D01*
X55581524Y62386020D01*
X55498000Y62542283D01*
X55498000Y64128381D01*
X55505054Y64200000D01*
X55476903Y64485818D01*
X55393533Y64760652D01*
X55356294Y64830321D01*
X55258148Y65013940D01*
X55152193Y65143047D01*
X55121604Y65180320D01*
X55121601Y65180323D01*
X55075949Y65235950D01*
X55020323Y65281601D01*
X53571602Y66730320D01*
X53525939Y66785961D01*
X53303929Y66968159D01*
X53050641Y67103544D01*
X52775807Y67186914D01*
X52489989Y67215065D01*
X52418370Y67208011D01*
X39015471Y67208011D01*
X38191725Y68031757D01*
X38409766Y68148303D01*
X38647003Y68342997D01*
X38841697Y68580234D01*
X38928163Y68742000D01*
X51619060Y68742000D01*
X57491376Y62869682D01*
X57537031Y62814051D01*
X57759041Y62631853D01*
X58009921Y62497755D01*
X58012329Y62496468D01*
X58287162Y62413098D01*
X58572981Y62384947D01*
X58644600Y62392001D01*
X62836075Y62392001D01*
X62836075Y58700000D01*
X62849745Y58561208D01*
X62890229Y58427749D01*
X62955972Y58304753D01*
X63044447Y58196947D01*
X63152253Y58108472D01*
X63275249Y58042729D01*
X63392000Y58007313D01*
X63392000Y57958948D01*
X61241053Y55808000D01*
X61126971Y55808000D01*
X60941853Y55959923D01*
X60679879Y56099951D01*
X60395620Y56186180D01*
X60174078Y56208000D01*
X58625922Y56208000D01*
X58404380Y56186180D01*
X58120121Y56099951D01*
X57858147Y55959923D01*
X57628524Y55771476D01*
X57440077Y55541853D01*
X57300049Y55279879D01*
X57213820Y54995620D01*
X57184704Y54700000D01*
X57213820Y54404380D01*
X57300049Y54120121D01*
X57440077Y53858147D01*
X57628524Y53628524D01*
X57858147Y53440077D01*
X58120121Y53300049D01*
X58404380Y53213820D01*
X58625922Y53192000D01*
X60174078Y53192000D01*
X60395620Y53213820D01*
X60679879Y53300049D01*
X60941853Y53440077D01*
X61126971Y53592000D01*
X61641052Y53592000D01*
X61892000Y53341052D01*
X61892000Y52625923D01*
X61913820Y52404381D01*
X62000049Y52120122D01*
X62140077Y51858148D01*
X62328524Y51628524D01*
X62558147Y51440077D01*
X62820121Y51300049D01*
X63104380Y51213820D01*
X63400000Y51184704D01*
X63695619Y51213820D01*
X63979878Y51300049D01*
X64241852Y51440077D01*
X64471476Y51628524D01*
X64659923Y51858147D01*
X64799951Y52120121D01*
X64886180Y52404380D01*
X64908000Y52625922D01*
X64908000Y54174078D01*
X64886180Y54395620D01*
X64799951Y54679879D01*
X64659923Y54941853D01*
X64471476Y55171476D01*
X64241853Y55359923D01*
X64036587Y55469640D01*
X65244983Y56678035D01*
X65287265Y56712735D01*
X65425726Y56881450D01*
X65528611Y57073935D01*
X65574759Y57226064D01*
X65591968Y57282793D01*
X65593875Y57302158D01*
X65608000Y57445569D01*
X65608000Y57445576D01*
X65613360Y57500000D01*
X65608000Y57554423D01*
X65608000Y58007313D01*
X65724751Y58042729D01*
X65847747Y58108472D01*
X65955553Y58196947D01*
X66044028Y58304753D01*
X66050354Y58316588D01*
X66113013Y58265165D01*
X66401481Y58110976D01*
X66714486Y58016026D01*
X67040000Y57983966D01*
X67365515Y58016026D01*
X67678520Y58110976D01*
X67966988Y58265165D01*
X68219832Y58472668D01*
X68427335Y58725512D01*
X68581524Y59013980D01*
X68676474Y59326985D01*
X68700500Y59570928D01*
X68700500Y61829072D01*
X68676474Y62073015D01*
X68581524Y62386020D01*
X68498000Y62542283D01*
X68498000Y63110883D01*
X68505054Y63182503D01*
X68476903Y63468321D01*
X68393533Y63743154D01*
X68332995Y63856412D01*
X68258148Y63996442D01*
X68075949Y64218452D01*
X68020313Y64264111D01*
X67454115Y64830309D01*
X67408451Y64885951D01*
X67186441Y65068149D01*
X66933153Y65203534D01*
X66658319Y65286904D01*
X66444120Y65308001D01*
X66372501Y65315055D01*
X66300882Y65308001D01*
X61746715Y65308001D01*
X61757271Y65327749D01*
X61797755Y65461208D01*
X61811425Y65600000D01*
X61811425Y67800000D01*
X61797755Y67938792D01*
X61757271Y68072251D01*
X61691528Y68195247D01*
X61603053Y68303053D01*
X61495247Y68391528D01*
X61372251Y68457271D01*
X61238792Y68497755D01*
X61100000Y68511425D01*
X60663160Y68511425D01*
X60801697Y68680234D01*
X60914889Y68892000D01*
X63168209Y68892000D01*
X66239673Y65820536D01*
X66280630Y65770630D01*
X66479798Y65607176D01*
X66707028Y65485719D01*
X66953587Y65410926D01*
X67145750Y65392000D01*
X67145759Y65392000D01*
X67209999Y65385673D01*
X67274239Y65392000D01*
X68253835Y65392000D01*
X68500669Y65189429D01*
X68814761Y65021544D01*
X68852001Y65010247D01*
X68852001Y63993018D01*
X68845673Y63928766D01*
X68870926Y63672354D01*
X68945719Y63425795D01*
X69067176Y63198565D01*
X69189673Y63049302D01*
X69189678Y63049297D01*
X69230631Y62999396D01*
X69280532Y62958443D01*
X71352010Y60886964D01*
X71352011Y43001802D01*
X66120536Y37770327D01*
X66070630Y37729370D01*
X66029674Y37679465D01*
X66029673Y37679464D01*
X65907177Y37530202D01*
X65907176Y37530201D01*
X65785719Y37302971D01*
X65710926Y37056412D01*
X65692000Y36864249D01*
X65692000Y36864243D01*
X65685673Y36800000D01*
X65692000Y36735757D01*
X65692000Y34753396D01*
X65684751Y34757271D01*
X65551292Y34797755D01*
X65412500Y34811425D01*
X64363023Y34811425D01*
X61829469Y37344978D01*
X61794765Y37387265D01*
X61626050Y37525726D01*
X61433565Y37628611D01*
X61224706Y37691968D01*
X61061931Y37708000D01*
X61061923Y37708000D01*
X61007500Y37713360D01*
X60953077Y37708000D01*
X60226971Y37708000D01*
X60041853Y37859923D01*
X59779879Y37999951D01*
X59495620Y38086180D01*
X59274078Y38108000D01*
X57725922Y38108000D01*
X57504380Y38086180D01*
X57220121Y37999951D01*
X56958147Y37859923D01*
X56728524Y37671476D01*
X56540077Y37441853D01*
X56400049Y37179879D01*
X56313820Y36895620D01*
X56284704Y36600000D01*
X56313820Y36304380D01*
X56400049Y36020121D01*
X56540077Y35758147D01*
X56728524Y35528524D01*
X56958147Y35340077D01*
X57220121Y35200049D01*
X57504380Y35113820D01*
X57725922Y35092000D01*
X59274078Y35092000D01*
X59495620Y35113820D01*
X59779879Y35200049D01*
X60041853Y35340077D01*
X60226971Y35492000D01*
X60548553Y35492000D01*
X62796075Y33244477D01*
X62796075Y30100000D01*
X62809745Y29961208D01*
X62850229Y29827749D01*
X62915972Y29704753D01*
X63004447Y29596947D01*
X63112253Y29508472D01*
X63235249Y29442729D01*
X63352001Y29407313D01*
X63352001Y29018949D01*
X62323194Y27990141D01*
X62279180Y27994476D01*
X61983560Y27965360D01*
X61699301Y27879131D01*
X61437327Y27739103D01*
X61265245Y27597878D01*
X60170532Y26503165D01*
X60029308Y26331083D01*
X59889279Y26069108D01*
X59803050Y25784850D01*
X59773935Y25489230D01*
X59803050Y25193610D01*
X59889279Y24909352D01*
X60029308Y24647377D01*
X60217754Y24417754D01*
X60447377Y24229308D01*
X60709352Y24089279D01*
X60993610Y24003050D01*
X61289230Y23973935D01*
X61584850Y24003050D01*
X61869108Y24089279D01*
X62131083Y24229308D01*
X62303165Y24370532D01*
X63397878Y25465245D01*
X63539103Y25637327D01*
X63679131Y25899301D01*
X63765360Y26183560D01*
X63777908Y26310961D01*
X65204983Y27738035D01*
X65247265Y27772735D01*
X65385726Y27941450D01*
X65488611Y28133935D01*
X65517331Y28228611D01*
X65551968Y28342793D01*
X65560420Y28428611D01*
X65568000Y28505569D01*
X65568000Y28505576D01*
X65573360Y28560000D01*
X65568000Y28614423D01*
X65568000Y29407313D01*
X65684751Y29442729D01*
X65807747Y29508472D01*
X65915553Y29596947D01*
X66004028Y29704753D01*
X66010354Y29716588D01*
X66073013Y29665165D01*
X66361481Y29510976D01*
X66674486Y29416026D01*
X67000000Y29383966D01*
X67325515Y29416026D01*
X67638520Y29510976D01*
X67926988Y29665165D01*
X68179832Y29872668D01*
X68387335Y30125512D01*
X68541524Y30413980D01*
X68636474Y30726985D01*
X68660500Y30970928D01*
X68660500Y33229072D01*
X68636474Y33473015D01*
X68541524Y33786020D01*
X68387335Y34074488D01*
X68308000Y34171158D01*
X68308000Y36258209D01*
X73539474Y41489683D01*
X73589380Y41530640D01*
X73752834Y41729808D01*
X73874291Y41957038D01*
X73949084Y42203597D01*
X73968010Y42395760D01*
X73968010Y42395767D01*
X73974337Y42460010D01*
X73968010Y42524253D01*
X73968010Y61364514D01*
X73974337Y61428757D01*
X73968010Y61493000D01*
X73968010Y61493006D01*
X73949084Y61685169D01*
X73874291Y61931728D01*
X73752834Y62158958D01*
X73681017Y62246467D01*
X73630337Y62308221D01*
X73630333Y62308225D01*
X73589380Y62358126D01*
X73539480Y62399078D01*
X71468000Y64470557D01*
X71468000Y65010248D01*
X71505239Y65021544D01*
X71819331Y65189429D01*
X72094635Y65415365D01*
X72320571Y65690669D01*
X72488456Y66004761D01*
X72591840Y66345570D01*
X72626748Y66700000D01*
X72591840Y67054430D01*
X72488456Y67395239D01*
X72320571Y67709331D01*
X72094635Y67984635D01*
X71819331Y68210571D01*
X71505239Y68378456D01*
X71164430Y68481840D01*
X70898821Y68508000D01*
X69421179Y68508000D01*
X69155570Y68481840D01*
X68814761Y68378456D01*
X68500669Y68210571D01*
X68253835Y68008000D01*
X67751791Y68008000D01*
X64680327Y71079464D01*
X64639370Y71129370D01*
X64440202Y71292824D01*
X64212972Y71414281D01*
X63966413Y71489074D01*
X63774250Y71508000D01*
X63774243Y71508000D01*
X63710000Y71514327D01*
X63645757Y71508000D01*
X60914889Y71508000D01*
X60801697Y71719766D01*
X60607003Y71957003D01*
X60369765Y72151697D01*
X60099104Y72296369D01*
X59805420Y72385457D01*
X59500000Y72415538D01*
X59194579Y72385457D01*
X58900895Y72296369D01*
X58630234Y72151697D01*
X58450289Y72004021D01*
X58401528Y72095247D01*
X58313053Y72203053D01*
X58205247Y72291528D01*
X58082251Y72357271D01*
X57948792Y72397755D01*
X57810000Y72411425D01*
X56110000Y72411425D01*
X55971208Y72397755D01*
X55837749Y72357271D01*
X55714753Y72291528D01*
X55606947Y72203053D01*
X55518472Y72095247D01*
X55452729Y71972251D01*
X55412245Y71838792D01*
X55405151Y71766771D01*
X53391604Y73780318D01*
X53345940Y73835960D01*
X53123930Y74018158D01*
X52870642Y74153543D01*
X52595808Y74236913D01*
X52381609Y74258010D01*
X52309990Y74265064D01*
X52238371Y74258010D01*
X31553188Y74258010D01*
X31481568Y74265064D01*
X31195750Y74236913D01*
X31017097Y74182719D01*
X30920917Y74153543D01*
X30667629Y74018158D01*
X30445619Y73835960D01*
X30399959Y73780323D01*
X29026808Y72407171D01*
X28931208Y72397755D01*
X28797749Y72357271D01*
X28674753Y72291528D01*
X28566947Y72203053D01*
X28478472Y72095247D01*
X28412729Y71972251D01*
X28372245Y71838792D01*
X28358575Y71700000D01*
X28358575Y71658000D01*
X28173924Y71658000D01*
X26701603Y73130319D01*
X26655940Y73185960D01*
X26433930Y73368158D01*
X26180642Y73503543D01*
X25905808Y73586913D01*
X25691609Y73608010D01*
X25619990Y73615064D01*
X25548371Y73608010D01*
X19652863Y73608010D01*
X19581244Y73615064D01*
X19295425Y73586913D01*
X19020592Y73503543D01*
X18767304Y73368158D01*
X18545294Y73185960D01*
X18499639Y73130329D01*
X17080737Y71711425D01*
X16747500Y71711425D01*
X16608708Y71697755D01*
X16475249Y71657271D01*
X16352253Y71591528D01*
X16244447Y71503053D01*
X16155972Y71395247D01*
X16090229Y71272251D01*
X16049745Y71138792D01*
X16036075Y71000000D01*
X16036075Y67000000D01*
X16049745Y66861208D01*
X16090229Y66727749D01*
X16155972Y66604753D01*
X16242000Y66499928D01*
X16242001Y64203925D01*
X14799502Y62761425D01*
X12650000Y62761425D01*
X12511208Y62747755D01*
X12377749Y62707271D01*
X12254753Y62641528D01*
X12146947Y62553053D01*
X12058472Y62445247D01*
X11992729Y62322251D01*
X11952245Y62188792D01*
X11938575Y62050000D01*
X11938575Y58550000D01*
X11952245Y58411208D01*
X11992729Y58277749D01*
X12058472Y58154753D01*
X12135065Y58061425D01*
X10525000Y58061425D01*
X10215504Y58030942D01*
X9917901Y57940666D01*
X9643629Y57794064D01*
X9403228Y57596772D01*
X9205936Y57356371D01*
X9059334Y57082099D01*
X8969058Y56784496D01*
X8938575Y56475000D01*
X8938575Y54725000D01*
X8969058Y54415504D01*
X9059334Y54117901D01*
X9205936Y53843629D01*
X9403228Y53603228D01*
X9643629Y53405936D01*
X9917901Y53259334D01*
X10215504Y53169058D01*
X10525000Y53138575D01*
X12275000Y53138575D01*
X12584496Y53169058D01*
X12882099Y53259334D01*
X13156371Y53405936D01*
X13396772Y53603228D01*
X13594064Y53843629D01*
X13740666Y54117901D01*
X13830942Y54415504D01*
X13861425Y54725000D01*
X13861425Y56475000D01*
X13830942Y56784496D01*
X13740666Y57082099D01*
X13594064Y57356371D01*
X13396772Y57596772D01*
X13156371Y57794064D01*
X13073097Y57838575D01*
X16150000Y57838575D01*
X16288792Y57852245D01*
X16422251Y57892729D01*
X16545247Y57958472D01*
X16653053Y58046947D01*
X16741528Y58154753D01*
X16807271Y58277749D01*
X16847755Y58411208D01*
X16861425Y58550000D01*
X16861425Y60699502D01*
X17506066Y61344143D01*
X19429673Y59420536D01*
X19470630Y59370630D01*
X19669798Y59207176D01*
X19897028Y59085719D01*
X20143587Y59010926D01*
X20335750Y58992000D01*
X20335757Y58992000D01*
X20400000Y58985673D01*
X20464243Y58992000D01*
X20888575Y58992000D01*
X20888575Y58800000D01*
X20902245Y58661208D01*
X20942729Y58527749D01*
X21008472Y58404753D01*
X21096947Y58296947D01*
X21204753Y58208472D01*
X21327749Y58142729D01*
X21461208Y58102245D01*
X21600000Y58088575D01*
X23200000Y58088575D01*
X23338792Y58102245D01*
X23472251Y58142729D01*
X23595247Y58208472D01*
X23703053Y58296947D01*
X23791528Y58404753D01*
X23857271Y58527749D01*
X23897755Y58661208D01*
X23911425Y58800000D01*
X23911425Y61800000D01*
X23897755Y61938792D01*
X23857271Y62072251D01*
X23791528Y62195247D01*
X23703053Y62303053D01*
X23595247Y62391528D01*
X23472251Y62457271D01*
X23338792Y62497755D01*
X23200000Y62511425D01*
X21600000Y62511425D01*
X21461208Y62497755D01*
X21327749Y62457271D01*
X21204753Y62391528D01*
X21096947Y62303053D01*
X21008472Y62195247D01*
X20942729Y62072251D01*
X20902245Y61938792D01*
X20888575Y61800000D01*
X20888575Y61661216D01*
X19145753Y63404038D01*
X19165054Y63600000D01*
X19158000Y63671619D01*
X19158000Y66499929D01*
X19244028Y66604753D01*
X19309771Y66727749D01*
X19350255Y66861208D01*
X19363925Y67000000D01*
X19363925Y69870768D01*
X20185168Y70692010D01*
X21241678Y70692010D01*
X21238476Y70686019D01*
X21143526Y70373014D01*
X21119500Y70129071D01*
X21119501Y67870928D01*
X21143527Y67626985D01*
X21238477Y67313980D01*
X21392666Y67025512D01*
X21600169Y66772668D01*
X21853013Y66565165D01*
X22141481Y66410976D01*
X22454486Y66316026D01*
X22780000Y66283966D01*
X23105515Y66316026D01*
X23418520Y66410976D01*
X23706988Y66565165D01*
X23959832Y66772668D01*
X24167335Y67025512D01*
X24321524Y67313980D01*
X24416474Y67626985D01*
X24419993Y67662716D01*
X32492000Y59590709D01*
X32492001Y54709857D01*
X32492000Y54709847D01*
X32492001Y50261031D01*
X32338970Y50108000D01*
X19441791Y50108000D01*
X19208000Y50341791D01*
X19208000Y50415080D01*
X19441853Y50540077D01*
X19671476Y50728524D01*
X19859923Y50958147D01*
X19999951Y51220121D01*
X20086180Y51504380D01*
X20115296Y51800000D01*
X20086180Y52095620D01*
X19999951Y52379879D01*
X19859923Y52641853D01*
X19671476Y52871476D01*
X19441853Y53059923D01*
X19179879Y53199951D01*
X18895620Y53286180D01*
X18674078Y53308000D01*
X17125922Y53308000D01*
X16904380Y53286180D01*
X16620121Y53199951D01*
X16448093Y53108000D01*
X14264243Y53108000D01*
X14200000Y53114327D01*
X14135757Y53108000D01*
X14135750Y53108000D01*
X13943587Y53089074D01*
X13697028Y53014281D01*
X13469798Y52892824D01*
X13270630Y52729370D01*
X13229673Y52679464D01*
X8020536Y47470327D01*
X7970630Y47429370D01*
X7807176Y47230201D01*
X7685719Y47002971D01*
X7610926Y46756412D01*
X7592000Y46564249D01*
X7592000Y46564243D01*
X7585673Y46500000D01*
X7592000Y46435757D01*
X7592000Y45797025D01*
X7508472Y45695247D01*
X7442729Y45572251D01*
X7402245Y45438792D01*
X7388575Y45300000D01*
X7388575Y45108000D01*
X6964239Y45108000D01*
X6899999Y45114327D01*
X6835759Y45108000D01*
X6835750Y45108000D01*
X6643587Y45089074D01*
X6397028Y45014281D01*
X6169798Y44892824D01*
X5970630Y44729370D01*
X5929673Y44679464D01*
X5420532Y44170323D01*
X5370631Y44129370D01*
X5329678Y44079469D01*
X5329673Y44079464D01*
X5207176Y43930201D01*
X5085719Y43702971D01*
X5010926Y43456412D01*
X4985673Y43200000D01*
X4992001Y43135747D01*
X4992000Y14640027D01*
X4946947Y14603053D01*
X4858472Y14495247D01*
X4792729Y14372251D01*
X4752245Y14238792D01*
X4738575Y14100000D01*
X783000Y14100000D01*
X783000Y52574077D01*
X4032000Y52574077D01*
X4032000Y51025922D01*
X4053820Y50804380D01*
X4140050Y50520121D01*
X4280078Y50258147D01*
X4468525Y50028524D01*
X4698148Y49840077D01*
X4960122Y49700049D01*
X5244381Y49613820D01*
X5540000Y49584704D01*
X5835620Y49613820D01*
X6119879Y49700049D01*
X6381853Y49840077D01*
X6611476Y50028524D01*
X6799923Y50258147D01*
X6825415Y50305839D01*
X6965922Y50292000D01*
X8514078Y50292000D01*
X8735620Y50313820D01*
X9019879Y50400049D01*
X9281853Y50540077D01*
X9511476Y50728524D01*
X9699923Y50958147D01*
X9839951Y51220121D01*
X9926180Y51504380D01*
X9955296Y51800000D01*
X9926180Y52095620D01*
X9839951Y52379879D01*
X9699923Y52641853D01*
X9511476Y52871476D01*
X9281853Y53059923D01*
X9019879Y53199951D01*
X8735620Y53286180D01*
X8514078Y53308000D01*
X6965922Y53308000D01*
X6825415Y53294161D01*
X6799923Y53341853D01*
X6611476Y53571476D01*
X6381852Y53759923D01*
X6119878Y53899951D01*
X5835619Y53986180D01*
X5540000Y54015296D01*
X5244380Y53986180D01*
X4960121Y53899951D01*
X4698147Y53759923D01*
X4468524Y53571476D01*
X4280077Y53341852D01*
X4140049Y53079878D01*
X4053820Y52795619D01*
X4032000Y52574077D01*
X783000Y52574077D01*
X783000Y71900230D01*
X900201Y71617281D01*
X1196559Y71173751D01*
X1573751Y70796559D01*
X2017281Y70500201D01*
X2510105Y70296067D01*
X3033285Y70192000D01*
X3566715Y70192000D01*
X4089895Y70296067D01*
X4582719Y70500201D01*
X5026249Y70796559D01*
X5403441Y71173751D01*
X5699799Y71617281D01*
X5903933Y72110105D01*
X6008000Y72633285D01*
X6008000Y73166715D01*
X5903933Y73689895D01*
X5699799Y74182719D01*
X5403441Y74626249D01*
X5026249Y75003441D01*
X4706636Y75217000D01*
X71893364Y75217000D01*
X71573751Y75003441D01*
G36*
X52719944Y17697327D02*
G01*
X52845103Y17463172D01*
X53033549Y17233549D01*
X53263172Y17045103D01*
X53525147Y16905074D01*
X53809405Y16818845D01*
X54105025Y16789730D01*
X54400645Y16818845D01*
X54684903Y16905074D01*
X54946878Y17045103D01*
X55118960Y17186327D01*
X55607805Y17675172D01*
X55607805Y16674753D01*
X50041053Y11108000D01*
X48625922Y11108000D01*
X48404380Y11086180D01*
X48120121Y10999951D01*
X47858147Y10859923D01*
X47628524Y10671476D01*
X47440077Y10441853D01*
X47300049Y10179879D01*
X47213820Y9895620D01*
X47184704Y9600000D01*
X47213820Y9304380D01*
X47300049Y9020121D01*
X47440077Y8758147D01*
X47628524Y8528524D01*
X47858147Y8340077D01*
X48120121Y8200049D01*
X48292000Y8147910D01*
X48292001Y6871079D01*
X48152998Y6757003D01*
X47958304Y6519766D01*
X47813631Y6249105D01*
X47724543Y5955421D01*
X47702000Y5726535D01*
X47702000Y4273466D01*
X47724543Y4044580D01*
X47813631Y3750896D01*
X47836565Y3707990D01*
X40243689Y3707990D01*
X40315457Y3944579D01*
X40338000Y4173465D01*
X40338000Y5826535D01*
X40315457Y6055421D01*
X40226369Y6349105D01*
X40081697Y6619766D01*
X40002823Y6715875D01*
X46157295Y12870347D01*
X46395619Y12893820D01*
X46679878Y12980049D01*
X46941852Y13120077D01*
X47171476Y13308524D01*
X47359923Y13538147D01*
X47499951Y13800121D01*
X47586180Y14084380D01*
X47608000Y14305922D01*
X47608000Y15454078D01*
X47586180Y15675620D01*
X47499951Y15959879D01*
X47359923Y16221853D01*
X47171476Y16451476D01*
X46941853Y16639923D01*
X46679879Y16779951D01*
X46395620Y16866180D01*
X46100000Y16895296D01*
X45804381Y16866180D01*
X45520122Y16779951D01*
X45258148Y16639923D01*
X45028525Y16451476D01*
X44840077Y16221853D01*
X44830000Y16203000D01*
X44819923Y16221853D01*
X44631476Y16451476D01*
X44401853Y16639923D01*
X44139879Y16779951D01*
X43855620Y16866180D01*
X43560000Y16895296D01*
X43264381Y16866180D01*
X42980122Y16779951D01*
X42718148Y16639923D01*
X42488525Y16451476D01*
X42300077Y16221853D01*
X42290000Y16203000D01*
X42279923Y16221853D01*
X42091476Y16451476D01*
X41861853Y16639923D01*
X41599879Y16779951D01*
X41315620Y16866180D01*
X41020000Y16895296D01*
X40724381Y16866180D01*
X40440122Y16779951D01*
X40178148Y16639923D01*
X39948525Y16451476D01*
X39760077Y16221853D01*
X39750000Y16203000D01*
X39739923Y16221853D01*
X39551476Y16451476D01*
X39321853Y16639923D01*
X39059879Y16779951D01*
X38775620Y16866180D01*
X38480000Y16895296D01*
X38184381Y16866180D01*
X37900122Y16779951D01*
X37638148Y16639923D01*
X37408525Y16451476D01*
X37220077Y16221853D01*
X37210000Y16203000D01*
X37199923Y16221853D01*
X37011476Y16451476D01*
X36781853Y16639923D01*
X36519879Y16779951D01*
X36235620Y16866180D01*
X35940000Y16895296D01*
X35644381Y16866180D01*
X35360122Y16779951D01*
X35098148Y16639923D01*
X34868525Y16451476D01*
X34680077Y16221853D01*
X34670000Y16203000D01*
X34659923Y16221853D01*
X34471476Y16451476D01*
X34241853Y16639923D01*
X33979879Y16779951D01*
X33695620Y16866180D01*
X33400000Y16895296D01*
X33104381Y16866180D01*
X32820122Y16779951D01*
X32558148Y16639923D01*
X32328525Y16451476D01*
X32140077Y16221853D01*
X32000049Y15959879D01*
X31913820Y15675620D01*
X31892000Y15454078D01*
X31892000Y14305923D01*
X31913820Y14084381D01*
X32000049Y13800122D01*
X32140077Y13538148D01*
X32328524Y13308524D01*
X32558147Y13120077D01*
X32820121Y12980049D01*
X33104380Y12893820D01*
X33400000Y12864704D01*
X33695619Y12893820D01*
X33979878Y12980049D01*
X34241852Y13120077D01*
X34471476Y13308524D01*
X34659923Y13538147D01*
X34670000Y13557000D01*
X34680077Y13538148D01*
X34868524Y13308524D01*
X35098147Y13120077D01*
X35360121Y12980049D01*
X35644380Y12893820D01*
X35940000Y12864704D01*
X36235619Y12893820D01*
X36519878Y12980049D01*
X36781852Y13120077D01*
X37011476Y13308524D01*
X37199923Y13538147D01*
X37210000Y13557000D01*
X37220077Y13538148D01*
X37408524Y13308524D01*
X37638147Y13120077D01*
X37900121Y12980049D01*
X38184380Y12893820D01*
X38480000Y12864704D01*
X38775619Y12893820D01*
X39059878Y12980049D01*
X39321852Y13120077D01*
X39551476Y13308524D01*
X39739923Y13538147D01*
X39750000Y13557000D01*
X39760077Y13538148D01*
X39948524Y13308524D01*
X40178147Y13120077D01*
X40440121Y12980049D01*
X40557496Y12944444D01*
X35495018Y7881965D01*
X35452736Y7847265D01*
X35377028Y7755015D01*
X35314275Y7678550D01*
X35211389Y7486064D01*
X35148032Y7277206D01*
X35126640Y7060000D01*
X35132001Y7005567D01*
X35132001Y6906856D01*
X35053053Y7003053D01*
X34945247Y7091528D01*
X34822251Y7157271D01*
X34688792Y7197755D01*
X34550000Y7211425D01*
X32850000Y7211425D01*
X32711208Y7197755D01*
X32577749Y7157271D01*
X32454753Y7091528D01*
X32346947Y7003053D01*
X32258472Y6895247D01*
X32192729Y6772251D01*
X32152245Y6638792D01*
X32138575Y6500000D01*
X32138575Y6308000D01*
X28818002Y6308000D01*
X28818002Y10585759D01*
X28824329Y10649999D01*
X28818002Y10714239D01*
X28818002Y10714248D01*
X28799076Y10906411D01*
X28724283Y11152970D01*
X28602826Y11380200D01*
X28598297Y11385719D01*
X28480329Y11529463D01*
X28480325Y11529467D01*
X28439372Y11579368D01*
X28389472Y11620320D01*
X27088000Y12921791D01*
X27088000Y13504124D01*
X27248524Y13308524D01*
X27478147Y13120077D01*
X27740121Y12980049D01*
X28024380Y12893820D01*
X28320000Y12864704D01*
X28615619Y12893820D01*
X28899878Y12980049D01*
X29161852Y13120077D01*
X29391476Y13308524D01*
X29579923Y13538147D01*
X29719951Y13800121D01*
X29806180Y14084380D01*
X29828000Y14305922D01*
X29828000Y15454078D01*
X29806180Y15675620D01*
X29719951Y15959879D01*
X29579923Y16221853D01*
X29391476Y16451476D01*
X29161853Y16639923D01*
X28899879Y16779951D01*
X28615620Y16866180D01*
X28358456Y16891508D01*
X29230879Y17763930D01*
X52719944Y17697327D01*
X52719944Y17697327D01*
G37*
X52719944Y17697327D02*
X52845103Y17463172D01*
X53033549Y17233549D01*
X53263172Y17045103D01*
X53525147Y16905074D01*
X53809405Y16818845D01*
X54105025Y16789730D01*
X54400645Y16818845D01*
X54684903Y16905074D01*
X54946878Y17045103D01*
X55118960Y17186327D01*
X55607805Y17675172D01*
X55607805Y16674753D01*
X50041053Y11108000D01*
X48625922Y11108000D01*
X48404380Y11086180D01*
X48120121Y10999951D01*
X47858147Y10859923D01*
X47628524Y10671476D01*
X47440077Y10441853D01*
X47300049Y10179879D01*
X47213820Y9895620D01*
X47184704Y9600000D01*
X47213820Y9304380D01*
X47300049Y9020121D01*
X47440077Y8758147D01*
X47628524Y8528524D01*
X47858147Y8340077D01*
X48120121Y8200049D01*
X48292000Y8147910D01*
X48292001Y6871079D01*
X48152998Y6757003D01*
X47958304Y6519766D01*
X47813631Y6249105D01*
X47724543Y5955421D01*
X47702000Y5726535D01*
X47702000Y4273466D01*
X47724543Y4044580D01*
X47813631Y3750896D01*
X47836565Y3707990D01*
X40243689Y3707990D01*
X40315457Y3944579D01*
X40338000Y4173465D01*
X40338000Y5826535D01*
X40315457Y6055421D01*
X40226369Y6349105D01*
X40081697Y6619766D01*
X40002823Y6715875D01*
X46157295Y12870347D01*
X46395619Y12893820D01*
X46679878Y12980049D01*
X46941852Y13120077D01*
X47171476Y13308524D01*
X47359923Y13538147D01*
X47499951Y13800121D01*
X47586180Y14084380D01*
X47608000Y14305922D01*
X47608000Y15454078D01*
X47586180Y15675620D01*
X47499951Y15959879D01*
X47359923Y16221853D01*
X47171476Y16451476D01*
X46941853Y16639923D01*
X46679879Y16779951D01*
X46395620Y16866180D01*
X46100000Y16895296D01*
X45804381Y16866180D01*
X45520122Y16779951D01*
X45258148Y16639923D01*
X45028525Y16451476D01*
X44840077Y16221853D01*
X44830000Y16203000D01*
X44819923Y16221853D01*
X44631476Y16451476D01*
X44401853Y16639923D01*
X44139879Y16779951D01*
X43855620Y16866180D01*
X43560000Y16895296D01*
X43264381Y16866180D01*
X42980122Y16779951D01*
X42718148Y16639923D01*
X42488525Y16451476D01*
X42300077Y16221853D01*
X42290000Y16203000D01*
X42279923Y16221853D01*
X42091476Y16451476D01*
X41861853Y16639923D01*
X41599879Y16779951D01*
X41315620Y16866180D01*
X41020000Y16895296D01*
X40724381Y16866180D01*
X40440122Y16779951D01*
X40178148Y16639923D01*
X39948525Y16451476D01*
X39760077Y16221853D01*
X39750000Y16203000D01*
X39739923Y16221853D01*
X39551476Y16451476D01*
X39321853Y16639923D01*
X39059879Y16779951D01*
X38775620Y16866180D01*
X38480000Y16895296D01*
X38184381Y16866180D01*
X37900122Y16779951D01*
X37638148Y16639923D01*
X37408525Y16451476D01*
X37220077Y16221853D01*
X37210000Y16203000D01*
X37199923Y16221853D01*
X37011476Y16451476D01*
X36781853Y16639923D01*
X36519879Y16779951D01*
X36235620Y16866180D01*
X35940000Y16895296D01*
X35644381Y16866180D01*
X35360122Y16779951D01*
X35098148Y16639923D01*
X34868525Y16451476D01*
X34680077Y16221853D01*
X34670000Y16203000D01*
X34659923Y16221853D01*
X34471476Y16451476D01*
X34241853Y16639923D01*
X33979879Y16779951D01*
X33695620Y16866180D01*
X33400000Y16895296D01*
X33104381Y16866180D01*
X32820122Y16779951D01*
X32558148Y16639923D01*
X32328525Y16451476D01*
X32140077Y16221853D01*
X32000049Y15959879D01*
X31913820Y15675620D01*
X31892000Y15454078D01*
X31892000Y14305923D01*
X31913820Y14084381D01*
X32000049Y13800122D01*
X32140077Y13538148D01*
X32328524Y13308524D01*
X32558147Y13120077D01*
X32820121Y12980049D01*
X33104380Y12893820D01*
X33400000Y12864704D01*
X33695619Y12893820D01*
X33979878Y12980049D01*
X34241852Y13120077D01*
X34471476Y13308524D01*
X34659923Y13538147D01*
X34670000Y13557000D01*
X34680077Y13538148D01*
X34868524Y13308524D01*
X35098147Y13120077D01*
X35360121Y12980049D01*
X35644380Y12893820D01*
X35940000Y12864704D01*
X36235619Y12893820D01*
X36519878Y12980049D01*
X36781852Y13120077D01*
X37011476Y13308524D01*
X37199923Y13538147D01*
X37210000Y13557000D01*
X37220077Y13538148D01*
X37408524Y13308524D01*
X37638147Y13120077D01*
X37900121Y12980049D01*
X38184380Y12893820D01*
X38480000Y12864704D01*
X38775619Y12893820D01*
X39059878Y12980049D01*
X39321852Y13120077D01*
X39551476Y13308524D01*
X39739923Y13538147D01*
X39750000Y13557000D01*
X39760077Y13538148D01*
X39948524Y13308524D01*
X40178147Y13120077D01*
X40440121Y12980049D01*
X40557496Y12944444D01*
X35495018Y7881965D01*
X35452736Y7847265D01*
X35377028Y7755015D01*
X35314275Y7678550D01*
X35211389Y7486064D01*
X35148032Y7277206D01*
X35126640Y7060000D01*
X35132001Y7005567D01*
X35132001Y6906856D01*
X35053053Y7003053D01*
X34945247Y7091528D01*
X34822251Y7157271D01*
X34688792Y7197755D01*
X34550000Y7211425D01*
X32850000Y7211425D01*
X32711208Y7197755D01*
X32577749Y7157271D01*
X32454753Y7091528D01*
X32346947Y7003053D01*
X32258472Y6895247D01*
X32192729Y6772251D01*
X32152245Y6638792D01*
X32138575Y6500000D01*
X32138575Y6308000D01*
X28818002Y6308000D01*
X28818002Y10585759D01*
X28824329Y10649999D01*
X28818002Y10714239D01*
X28818002Y10714248D01*
X28799076Y10906411D01*
X28724283Y11152970D01*
X28602826Y11380200D01*
X28598297Y11385719D01*
X28480329Y11529463D01*
X28480325Y11529467D01*
X28439372Y11579368D01*
X28389472Y11620320D01*
X27088000Y12921791D01*
X27088000Y13504124D01*
X27248524Y13308524D01*
X27478147Y13120077D01*
X27740121Y12980049D01*
X28024380Y12893820D01*
X28320000Y12864704D01*
X28615619Y12893820D01*
X28899878Y12980049D01*
X29161852Y13120077D01*
X29391476Y13308524D01*
X29579923Y13538147D01*
X29719951Y13800121D01*
X29806180Y14084380D01*
X29828000Y14305922D01*
X29828000Y15454078D01*
X29806180Y15675620D01*
X29719951Y15959879D01*
X29579923Y16221853D01*
X29391476Y16451476D01*
X29161853Y16639923D01*
X28899879Y16779951D01*
X28615620Y16866180D01*
X28358456Y16891508D01*
X29230879Y17763930D01*
X52719944Y17697327D01*
M02*
