<?xml version="1.0" standalone="no"?>
 <!DOCTYPE svg PUBLIC "-//W3C//DTD SVG 1.1//EN" 
 "http://www.w3.org/Graphics/SVG/1.1/DTD/svg11.dtd"> 
<svg xmlns="http://www.w3.org/2000/svg" version="1.1" 
    width="29.7002cm" height="21.0007cm" viewBox="0 0 116930 82680 ">
<title>SVG Picture created as AT328-aqua-controller-F_SilkS.svg date 2020/04/11 11:32:43 </title>
  <desc>Picture generated by PCBNEW </desc>
<g style="fill:#000000; fill-opacity:1;stroke:#000000; stroke-opacity:1;
stroke-linecap:round; stroke-linejoin:round; "
 transform="translate(0 0) scale(1 1)">
</g>
<g style="fill:#000000; fill-opacity:0.0; 
stroke:#000000; stroke-width:-0.000393701; stroke-opacity:1; 
stroke-linecap:round; stroke-linejoin:round;">
</g>
<g style="fill:#000000; fill-opacity:0.0; 
stroke:#000000; stroke-width:59.0551; stroke-opacity:1; 
stroke-linecap:round; stroke-linejoin:round;">
<path d="M21259 38149
L22834 39960
" />
</g>
<g style="fill:#000000; fill-opacity:0.0; 
stroke:#000000; stroke-width:39.3701; stroke-opacity:1; 
stroke-linecap:round; stroke-linejoin:round;">
<g transform="rotate(-90 39619.7 21248)">
<text x="39619.7" y="21444.9"
textLength="1237.35" font-size="524.934" lengthAdjust="spacingAndGlyphs"
text-anchor="middle" opacity="0">v1.3</text>
</g>
<path d="M39535 21810
L39797 21716
L39535 21622
" />
<path d="M39797 21266
L39797 21491
" />
<path d="M39797 21379
L39404 21379
L39460 21416
L39497 21454
L39516 21491
" />
<path d="M39760 21098
L39779 21079
L39797 21098
L39779 21116
L39760 21098
L39797 21098
" />
<path d="M39404 20948
L39404 20704
L39554 20835
L39554 20779
L39572 20741
L39591 20723
L39629 20704
L39722 20704
L39760 20723
L39779 20741
L39797 20779
L39797 20891
L39779 20929
L39760 20948
" />
</g>
<g style="fill:#000000; fill-opacity:0.0; 
stroke:#000000; stroke-width:59.0551; stroke-opacity:1; 
stroke-linecap:round; stroke-linejoin:round;">
<text x="36619.7" y="37684.3"
textLength="973.566" font-size="629.921" lengthAdjust="spacingAndGlyphs"
text-anchor="middle" opacity="0">D2</text>
<path d="M36270 37661
L36270 37189
L36383 37189
L36450 37211
L36495 37256
L36518 37301
L36540 37391
L36540 37459
L36518 37549
L36495 37594
L36450 37639
L36383 37661
L36270 37661
" />
<path d="M36720 37234
L36743 37211
L36788 37189
L36900 37189
L36945 37211
L36968 37234
L36990 37279
L36990 37324
L36968 37391
L36698 37661
L36990 37661
" />
<g transform="rotate(-90 15039.4 33503.9)">
<text x="15039.4" y="33740.2"
textLength="1786.56" font-size="629.921" lengthAdjust="spacingAndGlyphs"
text-anchor="middle" opacity="0">~~D10</text>
</g>
<path d="M15073 34313
L15050 34291
L15028 34246
L15073 34156
L15050 34111
L15028 34088
" />
<path d="M15253 33908
L14780 33908
L14780 33796
L14803 33728
L14848 33683
L14893 33661
L14983 33638
L15050 33638
L15140 33661
L15185 33683
L15230 33728
L15253 33796
L15253 33908
" />
<path d="M15253 33188
L15253 33458
" />
<path d="M15253 33323
L14780 33323
L14848 33368
L14893 33413
L14915 33458
" />
<path d="M14780 32896
L14780 32851
L14803 32806
L14825 32784
L14870 32761
L14960 32739
L15073 32739
L15163 32761
L15208 32784
L15230 32806
L15253 32851
L15253 32896
L15230 32941
L15208 32964
L15163 32986
L15073 33008
L14960 33008
L14870 32986
L14825 32964
L14803 32941
L14780 32896
" />
<text x="35019.7" y="28484.3"
textLength="1336.61" font-size="629.921" lengthAdjust="spacingAndGlyphs"
text-anchor="middle" opacity="0">~~D9</text>
<path d="M34434 28281
L34457 28259
L34502 28236
L34592 28281
L34637 28259
L34659 28236
" />
<path d="M34839 28461
L34839 27989
L34952 27989
L35019 28011
L35064 28056
L35087 28101
L35109 28191
L35109 28259
L35087 28349
L35064 28394
L35019 28439
L34952 28461
L34839 28461
" />
<path d="M35334 28461
L35424 28461
L35469 28439
L35492 28416
L35537 28349
L35559 28259
L35559 28079
L35537 28034
L35514 28011
L35469 27989
L35379 27989
L35334 28011
L35312 28034
L35289 28079
L35289 28191
L35312 28236
L35334 28259
L35379 28281
L35469 28281
L35514 28259
L35537 28236
L35559 28191
" />
<text x="38819.7" y="18384.3"
textLength="1336.61" font-size="629.921" lengthAdjust="spacingAndGlyphs"
text-anchor="middle" opacity="0">~~D6</text>
<path d="M38234 18181
L38257 18159
L38302 18136
L38392 18181
L38437 18159
L38459 18136
" />
<path d="M38639 18361
L38639 17889
L38752 17889
L38819 17911
L38864 17956
L38887 18001
L38909 18091
L38909 18159
L38887 18249
L38864 18294
L38819 18339
L38752 18361
L38639 18361
" />
<path d="M39314 17889
L39224 17889
L39179 17911
L39157 17934
L39112 18001
L39089 18091
L39089 18271
L39112 18316
L39134 18339
L39179 18361
L39269 18361
L39314 18339
L39337 18316
L39359 18271
L39359 18159
L39337 18114
L39314 18091
L39269 18069
L39179 18069
L39134 18091
L39112 18114
L39089 18159
" />
<text x="33619.7" y="18384.3"
textLength="1336.61" font-size="629.921" lengthAdjust="spacingAndGlyphs"
text-anchor="middle" opacity="0">~~D5</text>
<path d="M33034 18181
L33057 18159
L33102 18136
L33192 18181
L33237 18159
L33259 18136
" />
<path d="M33439 18361
L33439 17889
L33552 17889
L33619 17911
L33664 17956
L33687 18001
L33709 18091
L33709 18159
L33687 18249
L33664 18294
L33619 18339
L33552 18361
L33439 18361
" />
<path d="M34137 17889
L33912 17889
L33889 18114
L33912 18091
L33957 18069
L34069 18069
L34114 18091
L34137 18114
L34159 18159
L34159 18271
L34137 18316
L34114 18339
L34069 18361
L33957 18361
L33912 18339
L33889 18316
" />
<text x="28519.7" y="18384.3"
textLength="1336.61" font-size="629.921" lengthAdjust="spacingAndGlyphs"
text-anchor="middle" opacity="0">~~D3</text>
<path d="M27934 18181
L27957 18159
L28002 18136
L28092 18181
L28137 18159
L28159 18136
" />
<path d="M28339 18361
L28339 17889
L28452 17889
L28519 17911
L28564 17956
L28587 18001
L28609 18091
L28609 18159
L28587 18249
L28564 18294
L28519 18339
L28452 18361
L28339 18361
" />
<path d="M28767 17889
L29059 17889
L28902 18069
L28969 18069
L29014 18091
L29037 18114
L29059 18159
L29059 18271
L29037 18316
L29014 18339
L28969 18361
L28834 18361
L28789 18339
L28767 18316
" />
</g>
<g style="fill:#000000; fill-opacity:0.0; 
stroke:#000000; stroke-width:393.701; stroke-opacity:1; 
stroke-linecap:round; stroke-linejoin:round;">
<path d="M20019 15448
L23219 15448
" />
</g>
<g style="fill:#000000; fill-opacity:0.0; 
stroke:#000000; stroke-width:39.3701; stroke-opacity:1; 
stroke-linecap:round; stroke-linejoin:round;">
<text x="21619.7" y="16284.3"
textLength="1876.55" font-size="629.921" lengthAdjust="spacingAndGlyphs"
text-anchor="middle" opacity="0">7805</text>
<path d="M20787 15789
L21102 15789
L20899 16261
" />
<path d="M21349 15991
L21304 15969
L21282 15946
L21259 15901
L21259 15879
L21282 15834
L21304 15811
L21349 15789
L21439 15789
L21484 15811
L21507 15834
L21529 15879
L21529 15901
L21507 15946
L21484 15969
L21439 15991
L21349 15991
L21304 16014
L21282 16036
L21259 16081
L21259 16171
L21282 16216
L21304 16239
L21349 16261
L21439 16261
L21484 16239
L21507 16216
L21529 16171
L21529 16081
L21507 16036
L21484 16014
L21439 15991
" />
<path d="M21822 15789
L21867 15789
L21912 15811
L21934 15834
L21957 15879
L21979 15969
L21979 16081
L21957 16171
L21934 16216
L21912 16239
L21867 16261
L21822 16261
L21777 16239
L21754 16216
L21732 16171
L21709 16081
L21709 15969
L21732 15879
L21754 15834
L21777 15811
L21822 15789
" />
<path d="M22407 15789
L22182 15789
L22159 16014
L22182 15991
L22227 15969
L22339 15969
L22384 15991
L22407 16014
L22429 16059
L22429 16171
L22407 16216
L22384 16239
L22339 16261
L22227 16261
L22182 16239
L22159 16216
" />
</g>
<g style="fill:#000000; fill-opacity:0.0; 
stroke:#000000; stroke-width:59.0551; stroke-opacity:1; 
stroke-linecap:round; stroke-linejoin:round;">
<path d="M20019 18248
L20019 15848
" />
<path d="M20419 18248
L20419 15848
" />
<path d="M20819 18248
L20819 16448
" />
<path d="M21219 18248
L21219 16448
" />
<path d="M21619 18248
L21619 16448
" />
<path d="M22019 18248
L22019 16448
" />
<path d="M22419 18248
L22419 16448
" />
<path d="M22819 18248
L22819 15848
" />
<path d="M23219 18248
L23219 15848
" />
<path d="M19619 18248
L23619 18248
" />
<path d="M19619 15048
L19619 18248
" />
<path d="M23619 15048
L19619 15048
" />
<path d="M23619 18248
L23619 15048
" />
</g>
<g style="fill:#000000; fill-opacity:0.0; 
stroke:#000000; stroke-width:78.7402; stroke-opacity:1; 
stroke-linecap:round; stroke-linejoin:round;">
<g transform="rotate(-90 20219.7 20148)">
<text x="20219.7" y="20659.8"
textLength="2008.44" font-size="944.882" lengthAdjust="spacingAndGlyphs"
text-anchor="middle" opacity="0">24V</text>
</g>
<path d="M19756 20991
L19707 20957
L19659 20890
L19659 20721
L19707 20654
L19756 20620
L19854 20586
L19951 20586
L20097 20620
L20682 21025
L20682 20586
" />
<path d="M20000 19979
L20682 19979
" />
<path d="M19610 20148
L20341 20316
L20341 19878
" />
<path d="M19659 19709
L20682 19473
L19659 19236
" />
</g>
<g style="fill:#000000; fill-opacity:0.0; 
stroke:#000000; stroke-width:98.4252; stroke-opacity:1; 
stroke-linecap:round; stroke-linejoin:round;">
<circle cx="14119.7" cy="16448" r="721.11" /> 
</g>
<g style="fill:#000000; fill-opacity:0.0; 
stroke:#000000; stroke-width:59.0551; stroke-opacity:1; 
stroke-linecap:round; stroke-linejoin:round;">
<path d="M27119 36148
L27119 39748
" />
<path d="M20551 37047
L21732 36023
" />
<path d="M34665 30354
L33425 31692
" />
<path d="M24744 20846
L24744 22086
" />
<path d="M25846 21968
L25826 25295
" />
</g>
<g style="fill:#000000; fill-opacity:0.0; 
stroke:#000000; stroke-width:196.85; stroke-opacity:1; 
stroke-linecap:round; stroke-linejoin:round;">
<g transform="rotate(-90 39319.7 26048)">
<text x="39319.7" y="26638.6"
textLength="8201.35" font-size="1679.79" lengthAdjust="spacingAndGlyphs"
text-anchor="middle" opacity="0">Aqua328</text>
</g>
<path d="M39516 29857
L39516 29257
" />
<path d="M39853 29977
L38672 29557
L39853 29137
" />
<path d="M39066 28177
L40247 28177
" />
<path d="M39797 28177
L39853 28297
L39853 28537
L39797 28657
L39741 28717
L39629 28777
L39291 28777
L39179 28717
L39122 28657
L39066 28537
L39066 28297
L39122 28177
" />
<path d="M39066 27037
L39853 27037
" />
<path d="M39066 27577
L39685 27577
L39797 27517
L39853 27397
L39853 27217
L39797 27097
L39741 27037
" />
<path d="M39853 25898
L39235 25898
L39122 25958
L39066 26078
L39066 26317
L39122 26437
" />
<path d="M39797 25898
L39853 26018
L39853 26317
L39797 26437
L39685 26497
L39572 26497
L39460 26437
L39404 26317
L39404 26018
L39347 25898
" />
<path d="M38672 25418
L38672 24638
L39122 25058
L39122 24878
L39179 24758
L39235 24698
L39347 24638
L39629 24638
L39741 24698
L39797 24758
L39853 24878
L39853 25238
L39797 25358
L39741 25418
" />
<path d="M38785 24158
L38729 24098
L38672 23978
L38672 23678
L38729 23558
L38785 23498
L38897 23438
L39010 23438
L39179 23498
L39853 24218
L39853 23438
" />
<path d="M39179 22718
L39122 22838
L39066 22898
L38954 22958
L38897 22958
L38785 22898
L38729 22838
L38672 22718
L38672 22478
L38729 22358
L38785 22298
L38897 22238
L38954 22238
L39066 22298
L39122 22358
L39179 22478
L39179 22718
L39235 22838
L39291 22898
L39404 22958
L39629 22958
L39741 22898
L39797 22838
L39853 22718
L39853 22478
L39797 22358
L39741 22298
L39629 22238
L39404 22238
L39291 22298
L39235 22358
L39179 22478
" />
</g>
<g style="fill:#000000; fill-opacity:0.0; 
stroke:#000000; stroke-width:59.0551; stroke-opacity:1; 
stroke-linecap:round; stroke-linejoin:round;">
<g transform="rotate(-90 21319.7 20448)">
<text x="21319.7" y="20684.3"
textLength="1605.74" font-size="629.921" lengthAdjust="spacingAndGlyphs"
text-anchor="middle" opacity="0">Max</text>
</g>
<path d="M21533 21010
L21060 21010
L21398 20852
L21060 20695
L21533 20695
" />
<path d="M21533 20268
L21285 20268
L21240 20290
L21218 20335
L21218 20425
L21240 20470
" />
<path d="M21510 20268
L21533 20313
L21533 20425
L21510 20470
L21465 20493
L21420 20493
L21375 20470
L21353 20425
L21353 20313
L21330 20268
" />
<path d="M21533 20088
L21218 19840
" />
<path d="M21218 20088
L21533 19840
" />
</g>
<g style="fill:#000000; fill-opacity:0.0; 
stroke:#000000; stroke-width:78.7402; stroke-opacity:1; 
stroke-linecap:round; stroke-linejoin:round;">
<g transform="rotate(-90 14419.7 23648)">
<text x="14419.7" y="24041.7"
textLength="1145.39" font-size="787.402" lengthAdjust="spacingAndGlyphs"
text-anchor="middle" opacity="0">5V</text>
</g>
<path d="M13988 23760
L13988 24041
L14363 24069
L14325 24041
L14288 23985
L14288 23844
L14325 23788
L14363 23760
L14438 23732
L14625 23732
L14700 23760
L14738 23788
L14775 23844
L14775 23985
L14738 24041
L14700 24069
" />
<path d="M13988 23563
L14775 23366
L13988 23169
" />
<g transform="rotate(-90 41519.7 22848)">
<text x="41519.7" y="23340.2"
textLength="18083.2" font-size="1207.35" lengthAdjust="spacingAndGlyphs"
text-anchor="middle" opacity="0">By Owen @ easytarget.org</text>
</g>
<path d="M41449 31321
L41496 31191
L41543 31148
L41636 31105
L41777 31105
L41871 31148
L41918 31191
L41964 31277
L41964 31622
L40980 31622
L40980 31321
L41027 31234
L41074 31191
L41168 31148
L41261 31148
L41355 31191
L41402 31234
L41449 31321
L41449 31622
" />
<path d="M41308 30803
L41964 30588
" />
<path d="M41308 30372
L41964 30588
L42199 30674
L42246 30717
L42293 30803
" />
<path d="M40980 29165
L40980 28992
L41027 28906
L41121 28820
L41308 28776
L41636 28776
L41824 28820
L41918 28906
L41964 28992
L41964 29165
L41918 29251
L41824 29337
L41636 29380
L41308 29380
L41121 29337
L41027 29251
L40980 29165
" />
<path d="M41308 28475
L41964 28302
L41496 28130
L41964 27957
L41308 27785
" />
<path d="M41918 27095
L41964 27181
L41964 27354
L41918 27440
L41824 27483
L41449 27483
L41355 27440
L41308 27354
L41308 27181
L41355 27095
L41449 27052
L41543 27052
L41636 27483
" />
<path d="M41308 26664
L41964 26664
" />
<path d="M41402 26664
L41355 26620
L41308 26534
L41308 26405
L41355 26319
L41449 26276
L41964 26276
" />
<path d="M41496 24594
L41449 24637
L41402 24723
L41402 24809
L41449 24896
L41496 24939
L41589 24982
L41683 24982
L41777 24939
L41824 24896
L41871 24809
L41871 24723
L41824 24637
L41777 24594
" />
<path d="M41402 24594
L41777 24594
L41824 24551
L41824 24508
L41777 24421
L41683 24378
L41449 24378
L41308 24465
L41215 24594
L41168 24766
L41215 24939
L41308 25068
L41449 25154
L41636 25198
L41824 25154
L41964 25068
L42058 24939
L42105 24766
L42058 24594
L41964 24465
" />
<path d="M41918 22955
L41964 23042
L41964 23214
L41918 23300
L41824 23343
L41449 23343
L41355 23300
L41308 23214
L41308 23042
L41355 22955
L41449 22912
L41543 22912
L41636 23343
" />
<path d="M41964 22136
L41449 22136
L41355 22179
L41308 22265
L41308 22438
L41355 22524
" />
<path d="M41918 22136
L41964 22222
L41964 22438
L41918 22524
L41824 22567
L41730 22567
L41636 22524
L41589 22438
L41589 22222
L41543 22136
" />
<path d="M41918 21748
L41964 21662
L41964 21489
L41918 21403
L41824 21360
L41777 21360
L41683 21403
L41636 21489
L41636 21619
L41589 21705
L41496 21748
L41449 21748
L41355 21705
L41308 21619
L41308 21489
L41355 21403
" />
<path d="M41308 21058
L41964 20842
" />
<path d="M41308 20627
L41964 20842
L42199 20929
L42246 20972
L42293 21058
" />
<path d="M41308 20411
L41308 20066
" />
<path d="M40980 20282
L41824 20282
L41918 20239
L41964 20153
L41964 20066
" />
<path d="M41964 19376
L41449 19376
L41355 19420
L41308 19506
L41308 19678
L41355 19764
" />
<path d="M41918 19376
L41964 19463
L41964 19678
L41918 19764
L41824 19808
L41730 19808
L41636 19764
L41589 19678
L41589 19463
L41543 19376
" />
<path d="M41964 18945
L41308 18945
" />
<path d="M41496 18945
L41402 18902
L41355 18859
L41308 18773
L41308 18686
" />
<path d="M41308 17997
L42105 17997
L42199 18040
L42246 18083
L42293 18169
L42293 18298
L42246 18385
" />
<path d="M41918 17997
L41964 18083
L41964 18255
L41918 18342
L41871 18385
L41777 18428
L41496 18428
L41402 18385
L41355 18342
L41308 18255
L41308 18083
L41355 17997
" />
<path d="M41918 17220
L41964 17307
L41964 17479
L41918 17565
L41824 17608
L41449 17608
L41355 17565
L41308 17479
L41308 17307
L41355 17220
L41449 17177
L41543 17177
L41636 17608
" />
<path d="M41308 16919
L41308 16574
" />
<path d="M40980 16789
L41824 16789
L41918 16746
L41964 16660
L41964 16574
" />
<path d="M41871 16272
L41918 16229
L41964 16272
L41918 16315
L41871 16272
L41964 16272
" />
<path d="M41964 15711
L41918 15797
L41871 15841
L41777 15884
L41496 15884
L41402 15841
L41355 15797
L41308 15711
L41308 15582
L41355 15496
L41402 15453
L41496 15409
L41777 15409
L41871 15453
L41918 15496
L41964 15582
L41964 15711
" />
<path d="M41964 15021
L41308 15021
" />
<path d="M41496 15021
L41402 14978
L41355 14935
L41308 14849
L41308 14763
" />
<path d="M41308 14073
L42105 14073
L42199 14116
L42246 14159
L42293 14245
L42293 14375
L42246 14461
" />
<path d="M41918 14073
L41964 14159
L41964 14331
L41918 14418
L41871 14461
L41777 14504
L41496 14504
L41402 14461
L41355 14418
L41308 14331
L41308 14159
L41355 14073
" />
</g>
<g style="fill:#000000; fill-opacity:0.0; 
stroke:#000000; stroke-width:59.0551; stroke-opacity:1; 
stroke-linecap:round; stroke-linejoin:round;">
<g transform="rotate(-90 31619.7 33248)">
<text x="31619.7" y="33484.3"
textLength="4489.31" font-size="629.921" lengthAdjust="spacingAndGlyphs"
text-anchor="middle" opacity="0">ATMega328P</text>
</g>
<path d="M31698 35351
L31698 35126
" />
<path d="M31833 35396
L31360 35239
L31833 35081
" />
<path d="M31360 34991
L31360 34721
" />
<path d="M31833 34856
L31360 34856
" />
<path d="M31833 34564
L31360 34564
L31698 34406
L31360 34249
L31833 34249
" />
<path d="M31810 33844
L31833 33889
L31833 33979
L31810 34024
L31765 34046
L31585 34046
L31540 34024
L31518 33979
L31518 33889
L31540 33844
L31585 33821
L31630 33821
L31675 34046
" />
<path d="M31518 33416
L31900 33416
L31945 33439
L31968 33461
L31990 33506
L31990 33574
L31968 33619
" />
<path d="M31810 33416
L31833 33461
L31833 33551
L31810 33596
L31788 33619
L31743 33641
L31608 33641
L31563 33619
L31540 33596
L31518 33551
L31518 33461
L31540 33416
" />
<path d="M31833 32989
L31585 32989
L31540 33011
L31518 33056
L31518 33146
L31540 33191
" />
<path d="M31810 32989
L31833 33034
L31833 33146
L31810 33191
L31765 33214
L31720 33214
L31675 33191
L31653 33146
L31653 33034
L31630 32989
" />
<path d="M31360 32809
L31360 32516
L31540 32674
L31540 32606
L31563 32561
L31585 32539
L31630 32516
L31743 32516
L31788 32539
L31810 32561
L31833 32606
L31833 32741
L31810 32786
L31788 32809
" />
<path d="M31405 32336
L31383 32314
L31360 32269
L31360 32156
L31383 32111
L31405 32089
L31450 32066
L31495 32066
L31563 32089
L31833 32359
L31833 32066
" />
<path d="M31563 31796
L31540 31841
L31518 31864
L31473 31886
L31450 31886
L31405 31864
L31383 31841
L31360 31796
L31360 31706
L31383 31661
L31405 31639
L31450 31616
L31473 31616
L31518 31639
L31540 31661
L31563 31706
L31563 31796
L31585 31841
L31608 31864
L31653 31886
L31743 31886
L31788 31864
L31810 31841
L31833 31796
L31833 31706
L31810 31661
L31788 31639
L31743 31616
L31653 31616
L31608 31639
L31585 31661
L31563 31706
" />
<path d="M31833 31414
L31360 31414
L31360 31234
L31383 31189
L31405 31167
L31450 31144
L31518 31144
L31563 31167
L31585 31189
L31608 31234
L31608 31414
" />
</g>
<g style="fill:#000000; fill-opacity:0.0; 
stroke:#000000; stroke-width:47.2441; stroke-opacity:1; 
stroke-linecap:round; stroke-linejoin:round;">
<path d="M19346.5 37460.6 A1016.21 1016.21 0.0 0 0 19552.8 37174.3 " />
<path d="M19565.5 36299.7 A1023.62 1023.62 0.0 0 0 18637.8 35708.7 " />
<path d="M18637.8 35708.7 A1023.62 1023.62 0.0 0 0 17710.1 36299.7 " />
<path d="M17722.8 37174.3 A1016.21 1016.21 0.0 0 0 17929.1 37460.6 " />
<path d="M17929 37460
L19346 37460
" />
<path d="M17897.6 37578.7 A1016.21 1016.21 0.0 0 0 17691.3 37865 " />
<path d="M17678.6 38739.7 A1023.62 1023.62 0.0 0 0 18606.3 39330.7 " />
<path d="M18606.3 39330.7 A1023.62 1023.62 0.0 0 0 19534 38739.7 " />
<path d="M19521.3 37865 A1016.21 1016.21 0.0 0 0 19315 37578.7 " />
<path d="M19314 37578
L17897 37578
" />
<path d="M38612.4 13288.4 A673.806 673.806 0.0 1 0 38635.9 14181.1 " />
<path d="M33219 15248
L37219 15248
" />
<path d="M33219 12248
L33219 15248
" />
<path d="M37219 12248
L33219 12248
" />
<path d="M37219 15248
L37219 12248
" />
<path d="M37219 14748
L33219 14748
" />
<path d="M24519 15220
L32519 15220
" />
<path d="M24519 12220
L32519 12220
" />
<path d="M32519 14720
L24519 14720
" />
<path d="M32519 15220
L32519 12220
" />
<path d="M24519 12220
L24519 15220
" />
<path d="M15596 27571
L15596 27048
" />
<path d="M16119 27571
L15596 27571
" />
<path d="M16619 27571
L16619 26524
" />
<path d="M16619 26524
L18643 26524
" />
<path d="M16619 27571
L18643 27571
" />
<path d="M18643 27571
L18643 26524
" />
<path d="M24196 30271
L24196 29748
" />
<path d="M24719 30271
L24196 30271
" />
<path d="M25219 30271
L25219 29224
" />
<path d="M25219 29224
L27243 29224
" />
<path d="M25219 30271
L27243 30271
" />
<path d="M27243 30271
L27243 29224
" />
<path d="M15596 30271
L15596 29748
" />
<path d="M16119 30271
L15596 30271
" />
<path d="M16619 30271
L16619 29224
" />
<path d="M16619 29224
L18643 29224
" />
<path d="M16619 30271
L18643 30271
" />
<path d="M18643 30271
L18643 29224
" />
<path d="M26543 36424
L25496 36424
" />
<path d="M26543 38448
L26543 36424
" />
<path d="M25496 38448
L25496 36424
" />
<path d="M26543 38448
L25496 38448
" />
<path d="M26543 38948
L26543 39471
" />
<path d="M26543 39471
L26019 39471
" />
<path d="M31980 36209
L32195 36423
" />
<path d="M34230 38458
L34015 38244
" />
<path d="M31813 36804
L33634 38625
" />
<path d="M32576 36042
L31813 36804
" />
<path d="M34397 37862
L32576 36042
" />
<path d="M33634 38625
L34397 37862
" />
<path d="M30480 36209
L30695 36423
" />
<path d="M32730 38458
L32515 38244
" />
<path d="M30313 36804
L32134 38625
" />
<path d="M31076 36042
L30313 36804
" />
<path d="M32897 37862
L31076 36042
" />
<path d="M32134 38625
L32897 37862
" />
<path d="M24043 36424
L22996 36424
" />
<path d="M24043 38448
L24043 36424
" />
<path d="M22996 38448
L22996 36424
" />
<path d="M24043 38448
L22996 38448
" />
<path d="M24043 38948
L24043 39471
" />
<path d="M24043 39471
L23519 39471
" />
<path d="M33369 34031
L34291 33110
" />
<path d="M37033 30368
L36111 31289
" />
<path d="M34672 33491
L36493 31671
" />
<path d="M33909 32728
L34672 33491
" />
<path d="M35730 30908
L33909 32728
" />
<path d="M36493 31671
L35730 30908
" />
<path d="M15462 37245
L15659 37245
" />
<path d="M15561 37344
L15561 37147
" />
<path d="M16029 35216
L16253 35216
" />
<path d="M15937 35231
L16345 35231
" />
<path d="M15875 35247
L16408 35247
" />
<path d="M15824 35263
L16458 35263
" />
<path d="M15781 35279
L16501 35279
" />
<path d="M15743 35294
L16539 35294
" />
<path d="M15709 35310
L16574 35310
" />
<path d="M15677 35326
L16605 35326
" />
<path d="M16551 35342
L16634 35342
" />
<path d="M15649 35342
L15732 35342
" />
<path d="M16551 35357
L16661 35357
" />
<path d="M15622 35357
L15732 35357
" />
<path d="M16551 35373
L16686 35373
" />
<path d="M15597 35373
L15732 35373
" />
<path d="M16551 35389
L16709 35389
" />
<path d="M15573 35389
L15732 35389
" />
<path d="M16551 35405
L16732 35405
" />
<path d="M15551 35405
L15732 35405
" />
<path d="M16551 35420
L16753 35420
" />
<path d="M15529 35420
L15732 35420
" />
<path d="M16551 35436
L16773 35436
" />
<path d="M15509 35436
L15732 35436
" />
<path d="M16551 35452
L16792 35452
" />
<path d="M15490 35452
L15732 35452
" />
<path d="M16551 35468
L16810 35468
" />
<path d="M15472 35468
L15732 35468
" />
<path d="M16551 35483
L16827 35483
" />
<path d="M15455 35483
L15732 35483
" />
<path d="M16551 35499
L16844 35499
" />
<path d="M15438 35499
L15732 35499
" />
<path d="M16551 35515
L16860 35515
" />
<path d="M15422 35515
L15732 35515
" />
<path d="M16551 35531
L16875 35531
" />
<path d="M15407 35531
L15732 35531
" />
<path d="M16551 35546
L16890 35546
" />
<path d="M15393 35546
L15732 35546
" />
<path d="M16551 35562
L16904 35562
" />
<path d="M15379 35562
L15732 35562
" />
<path d="M16551 35578
L16917 35578
" />
<path d="M15365 35578
L15732 35578
" />
<path d="M16551 35594
L16930 35594
" />
<path d="M15352 35594
L15732 35594
" />
<path d="M16551 35609
L16942 35609
" />
<path d="M15340 35609
L15732 35609
" />
<path d="M16551 35625
L16954 35625
" />
<path d="M15328 35625
L15732 35625
" />
<path d="M16551 35641
L16966 35641
" />
<path d="M15316 35641
L15732 35641
" />
<path d="M16551 35657
L16977 35657
" />
<path d="M15306 35657
L15732 35657
" />
<path d="M16551 35672
L16987 35672
" />
<path d="M15295 35672
L15732 35672
" />
<path d="M16551 35688
L16998 35688
" />
<path d="M15285 35688
L15732 35688
" />
<path d="M16551 35704
L17007 35704
" />
<path d="M15275 35704
L15732 35704
" />
<path d="M16551 35720
L17017 35720
" />
<path d="M15266 35720
L15732 35720
" />
<path d="M16551 35735
L17026 35735
" />
<path d="M15257 35735
L15732 35735
" />
<path d="M16551 35751
L17034 35751
" />
<path d="M15248 35751
L15732 35751
" />
<path d="M16551 35767
L17043 35767
" />
<path d="M15240 35767
L15732 35767
" />
<path d="M16551 35783
L17051 35783
" />
<path d="M15232 35783
L15732 35783
" />
<path d="M16551 35798
L17058 35798
" />
<path d="M15224 35798
L15732 35798
" />
<path d="M16551 35814
L17066 35814
" />
<path d="M15217 35814
L15732 35814
" />
<path d="M16551 35830
L17072 35830
" />
<path d="M15210 35830
L15732 35830
" />
<path d="M16551 35846
L17079 35846
" />
<path d="M15203 35846
L15732 35846
" />
<path d="M16551 35861
L17085 35861
" />
<path d="M15197 35861
L15732 35861
" />
<path d="M16551 35877
L17092 35877
" />
<path d="M15191 35877
L15732 35877
" />
<path d="M16551 35893
L17097 35893
" />
<path d="M15185 35893
L15732 35893
" />
<path d="M16551 35909
L17103 35909
" />
<path d="M15180 35909
L15732 35909
" />
<path d="M16551 35924
L17108 35924
" />
<path d="M15175 35924
L15732 35924
" />
<path d="M16551 35940
L17113 35940
" />
<path d="M15170 35940
L15732 35940
" />
<path d="M16551 35956
L17118 35956
" />
<path d="M15165 35956
L15732 35956
" />
<path d="M16551 35972
L17122 35972
" />
<path d="M15161 35972
L15732 35972
" />
<path d="M16551 35988
L17126 35988
" />
<path d="M15157 35988
L15732 35988
" />
<path d="M16551 36003
L17130 36003
" />
<path d="M15153 36003
L15732 36003
" />
<path d="M16551 36019
L17133 36019
" />
<path d="M15149 36019
L15732 36019
" />
<path d="M16551 36035
L17137 36035
" />
<path d="M15146 36035
L15732 36035
" />
<path d="M16551 36051
L17140 36051
" />
<path d="M15143 36051
L15732 36051
" />
<path d="M16551 36066
L17142 36066
" />
<path d="M15140 36066
L15732 36066
" />
<path d="M16551 36082
L17145 36082
" />
<path d="M15137 36082
L15732 36082
" />
<path d="M16551 36098
L17148 36098
" />
<path d="M15135 36098
L15732 36098
" />
<path d="M16551 36114
L17150 36114
" />
<path d="M15133 36114
L15732 36114
" />
<path d="M16551 36129
L17151 36129
" />
<path d="M15131 36129
L15732 36129
" />
<path d="M16551 36145
L17153 36145
" />
<path d="M15130 36145
L15732 36145
" />
<path d="M15128 36161
L17154 36161
" />
<path d="M15127 36177
L17155 36177
" />
<path d="M15126 36192
L17156 36192
" />
<path d="M15126 36208
L17157 36208
" />
<path d="M15125 36224
L17157 36224
" />
<path d="M15125 36240
L17157 36240
" />
<circle cx="16141.7" cy="36240.2" r="1031.5" /> 
<path d="M37925 32232
L37925 31153
" />
<path d="M39988 32232
L39988 31153
" />
<path d="M39988 31153
L37925 31153
" />
<path d="M39988 32232
L37925 32232
" />
<path d="M20811 26368.1 A994.094 994.094 0.0 0 0 20811 28356.3 " />
<path d="M23330.7 28356.3 A994.094 994.094 0.0 0 0 23330.7 26368.1 " />
<path d="M23330 26368
L20811 26368
" />
<path d="M23330 28356
L20811 28356
" />
<path d="M38464 36267
L38464 35964
" />
<path d="M38464 33086
L38464 33389
" />
<path d="M39003 35964
L39003 33389
" />
<path d="M37925 35964
L39003 35964
" />
<path d="M37925 33389
L37925 35964
" />
<path d="M39003 33389
L37925 33389
" />
<path d="M15144 18244
L15144 18539
" />
<path d="M14996 18391
L15292 18391
" />
<path d="M18139 19074
L18139 19421
" />
<path d="M18124 18975
L18124 19520
" />
<path d="M18108 18902
L18108 19593
" />
<path d="M18092 18843
L18092 19652
" />
<path d="M18076 18792
L18076 19703
" />
<path d="M18061 18746
L18061 19750
" />
<path d="M18045 18704
L18045 19791
" />
<path d="M18029 18666
L18029 19829
" />
<path d="M18013 18630
L18013 19865
" />
<path d="M17998 18596
L17998 19899
" />
<path d="M17982 18565
L17982 19930
" />
<path d="M17966 18535
L17966 19960
" />
<path d="M17950 18507
L17950 19988
" />
<path d="M17935 18480
L17935 20015
" />
<path d="M17919 18455
L17919 20040
" />
<path d="M17903 18430
L17903 20065
" />
<path d="M17887 18406
L17887 20089
" />
<path d="M17872 18383
L17872 20112
" />
<path d="M17856 18362
L17856 20133
" />
<path d="M17840 18340
L17840 20155
" />
<path d="M17824 18320
L17824 20175
" />
<path d="M17809 18301
L17809 20194
" />
<path d="M17793 18281
L17793 20214
" />
<path d="M17777 18263
L17777 20232
" />
<path d="M17761 18245
L17761 20250
" />
<path d="M17746 18228
L17746 20267
" />
<path d="M17730 18211
L17730 20284
" />
<path d="M17714 18195
L17714 20300
" />
<path d="M17698 18179
L17698 20316
" />
<path d="M17683 18164
L17683 20331
" />
<path d="M17667 18149
L17667 20346
" />
<path d="M17651 18135
L17651 20361
" />
<path d="M17635 18120
L17635 20375
" />
<path d="M17620 18107
L17620 20388
" />
<path d="M17604 18094
L17604 20401
" />
<path d="M17588 18081
L17588 20414
" />
<path d="M17572 18068
L17572 20427
" />
<path d="M17557 18055
L17557 20440
" />
<path d="M17541 18044
L17541 20451
" />
<path d="M17525 19657
L17525 20463
" />
<path d="M17525 18032
L17525 18838
" />
<path d="M17509 19657
L17509 20474
" />
<path d="M17509 18021
L17509 18838
" />
<path d="M17494 19657
L17494 20485
" />
<path d="M17494 18010
L17494 18838
" />
<path d="M17478 19657
L17478 20496
" />
<path d="M17478 17999
L17478 18838
" />
<path d="M17462 19657
L17462 20507
" />
<path d="M17462 17988
L17462 18838
" />
<path d="M17446 19657
L17446 20517
" />
<path d="M17446 17978
L17446 18838
" />
<path d="M17431 19657
L17431 20527
" />
<path d="M17431 17968
L17431 18838
" />
<path d="M17415 19657
L17415 20537
" />
<path d="M17415 17959
L17415 18838
" />
<path d="M17399 19657
L17399 20546
" />
<path d="M17399 17950
L17399 18838
" />
<path d="M17383 19657
L17383 20555
" />
<path d="M17383 17940
L17383 18838
" />
<path d="M17368 19657
L17368 20564
" />
<path d="M17368 17931
L17368 18838
" />
<path d="M17352 19657
L17352 20572
" />
<path d="M17352 17923
L17352 18838
" />
<path d="M17336 19657
L17336 20581
" />
<path d="M17336 17914
L17336 18838
" />
<path d="M17320 19657
L17320 20589
" />
<path d="M17320 17906
L17320 18838
" />
<path d="M17305 19657
L17305 20597
" />
<path d="M17305 17898
L17305 18838
" />
<path d="M17289 19657
L17289 20605
" />
<path d="M17289 17890
L17289 18838
" />
<path d="M17273 19657
L17273 20612
" />
<path d="M17273 17883
L17273 18838
" />
<path d="M17257 19657
L17257 20619
" />
<path d="M17257 17876
L17257 18838
" />
<path d="M17242 19657
L17242 20626
" />
<path d="M17242 17869
L17242 18838
" />
<path d="M17226 19657
L17226 20633
" />
<path d="M17226 17862
L17226 18838
" />
<path d="M17210 19657
L17210 20640
" />
<path d="M17210 17855
L17210 18838
" />
<path d="M17194 19657
L17194 20646
" />
<path d="M17194 17849
L17194 18838
" />
<path d="M17179 19657
L17179 20652
" />
<path d="M17179 17843
L17179 18838
" />
<path d="M17163 19657
L17163 20659
" />
<path d="M17163 17837
L17163 18838
" />
<path d="M17147 19657
L17147 20664
" />
<path d="M17147 17831
L17147 18838
" />
<path d="M17131 19657
L17131 20670
" />
<path d="M17131 17825
L17131 18838
" />
<path d="M17116 19657
L17116 20675
" />
<path d="M17116 17820
L17116 18838
" />
<path d="M17100 19657
L17100 20681
" />
<path d="M17100 17814
L17100 18838
" />
<path d="M17084 19657
L17084 20686
" />
<path d="M17084 17809
L17084 18838
" />
<path d="M17068 19657
L17068 20690
" />
<path d="M17068 17805
L17068 18838
" />
<path d="M17053 19657
L17053 20695
" />
<path d="M17053 17800
L17053 18838
" />
<path d="M17037 19657
L17037 20700
" />
<path d="M17037 17796
L17037 18838
" />
<path d="M17021 19657
L17021 20704
" />
<path d="M17021 17791
L17021 18838
" />
<path d="M17005 19657
L17005 20708
" />
<path d="M17005 17787
L17005 18838
" />
<path d="M16990 19657
L16990 20712
" />
<path d="M16990 17783
L16990 18838
" />
<path d="M16974 19657
L16974 20716
" />
<path d="M16974 17779
L16974 18838
" />
<path d="M16958 19657
L16958 20719
" />
<path d="M16958 17776
L16958 18838
" />
<path d="M16942 19657
L16942 20723
" />
<path d="M16942 17772
L16942 18838
" />
<path d="M16927 19657
L16927 20726
" />
<path d="M16927 17769
L16927 18838
" />
<path d="M16911 19657
L16911 20729
" />
<path d="M16911 17766
L16911 18838
" />
<path d="M16895 19657
L16895 20732
" />
<path d="M16895 17763
L16895 18838
" />
<path d="M16879 19657
L16879 20735
" />
<path d="M16879 17761
L16879 18838
" />
<path d="M16863 19657
L16863 20737
" />
<path d="M16863 17758
L16863 18838
" />
<path d="M16848 19657
L16848 20740
" />
<path d="M16848 17755
L16848 18838
" />
<path d="M16832 19657
L16832 20742
" />
<path d="M16832 17753
L16832 18838
" />
<path d="M16816 19657
L16816 20744
" />
<path d="M16816 17751
L16816 18838
" />
<path d="M16800 19657
L16800 20746
" />
<path d="M16800 17750
L16800 18838
" />
<path d="M16785 19657
L16785 20748
" />
<path d="M16785 17748
L16785 18838
" />
<path d="M16769 19657
L16769 20749
" />
<path d="M16769 17746
L16769 18838
" />
<path d="M16753 19657
L16753 20750
" />
<path d="M16753 17745
L16753 18838
" />
<path d="M16737 19657
L16737 20751
" />
<path d="M16737 17744
L16737 18838
" />
<path d="M16722 19657
L16722 20753
" />
<path d="M16722 17742
L16722 18838
" />
<path d="M16706 17742
L16706 20753
" />
<path d="M16690 17741
L16690 20754
" />
<path d="M16674 17740
L16674 20755
" />
<path d="M16659 17740
L16659 20755
" />
<path d="M16643 17740
L16643 20755
" />
<path d="M16627 17740
L16627 20755
" />
<circle cx="16627.6" cy="19248" r="1523.62" /> 
<circle cx="16611.8" cy="23848" r="1523.62" /> 
<path d="M16611 22340
L16611 25355
" />
<path d="M16627 22340
L16627 25355
" />
<path d="M16643 22340
L16643 25355
" />
<path d="M16659 22340
L16659 25355
" />
<path d="M16674 22341
L16674 25354
" />
<path d="M16690 22342
L16690 25353
" />
<path d="M16706 22342
L16706 23438
" />
<path d="M16706 24257
L16706 25353
" />
<path d="M16722 22344
L16722 23438
" />
<path d="M16722 24257
L16722 25351
" />
<path d="M16737 22345
L16737 23438
" />
<path d="M16737 24257
L16737 25350
" />
<path d="M16753 22346
L16753 23438
" />
<path d="M16753 24257
L16753 25349
" />
<path d="M16769 22348
L16769 23438
" />
<path d="M16769 24257
L16769 25348
" />
<path d="M16785 22350
L16785 23438
" />
<path d="M16785 24257
L16785 25346
" />
<path d="M16800 22351
L16800 23438
" />
<path d="M16800 24257
L16800 25344
" />
<path d="M16816 22353
L16816 23438
" />
<path d="M16816 24257
L16816 25342
" />
<path d="M16832 22355
L16832 23438
" />
<path d="M16832 24257
L16832 25340
" />
<path d="M16848 22358
L16848 23438
" />
<path d="M16848 24257
L16848 25337
" />
<path d="M16863 22361
L16863 23438
" />
<path d="M16863 24257
L16863 25335
" />
<path d="M16879 22363
L16879 23438
" />
<path d="M16879 24257
L16879 25332
" />
<path d="M16895 22366
L16895 23438
" />
<path d="M16895 24257
L16895 25329
" />
<path d="M16911 22369
L16911 23438
" />
<path d="M16911 24257
L16911 25326
" />
<path d="M16927 22372
L16927 23438
" />
<path d="M16927 24257
L16927 25323
" />
<path d="M16942 22376
L16942 23438
" />
<path d="M16942 24257
L16942 25319
" />
<path d="M16958 22379
L16958 23438
" />
<path d="M16958 24257
L16958 25316
" />
<path d="M16974 22383
L16974 23438
" />
<path d="M16974 24257
L16974 25312
" />
<path d="M16990 22387
L16990 23438
" />
<path d="M16990 24257
L16990 25308
" />
<path d="M17005 22391
L17005 23438
" />
<path d="M17005 24257
L17005 25304
" />
<path d="M17021 22396
L17021 23438
" />
<path d="M17021 24257
L17021 25300
" />
<path d="M17037 22400
L17037 23438
" />
<path d="M17037 24257
L17037 25295
" />
<path d="M17053 22405
L17053 23438
" />
<path d="M17053 24257
L17053 25290
" />
<path d="M17068 22409
L17068 23438
" />
<path d="M17068 24257
L17068 25286
" />
<path d="M17084 22414
L17084 23438
" />
<path d="M17084 24257
L17084 25281
" />
<path d="M17100 22420
L17100 23438
" />
<path d="M17100 24257
L17100 25275
" />
<path d="M17116 22425
L17116 23438
" />
<path d="M17116 24257
L17116 25270
" />
<path d="M17131 22431
L17131 23438
" />
<path d="M17131 24257
L17131 25264
" />
<path d="M17147 22437
L17147 23438
" />
<path d="M17147 24257
L17147 25259
" />
<path d="M17163 22443
L17163 23438
" />
<path d="M17163 24257
L17163 25252
" />
<path d="M17179 22449
L17179 23438
" />
<path d="M17179 24257
L17179 25246
" />
<path d="M17194 22455
L17194 23438
" />
<path d="M17194 24257
L17194 25240
" />
<path d="M17210 22462
L17210 23438
" />
<path d="M17210 24257
L17210 25233
" />
<path d="M17226 22469
L17226 23438
" />
<path d="M17226 24257
L17226 25226
" />
<path d="M17242 22476
L17242 23438
" />
<path d="M17242 24257
L17242 25219
" />
<path d="M17257 22483
L17257 23438
" />
<path d="M17257 24257
L17257 25212
" />
<path d="M17273 22490
L17273 23438
" />
<path d="M17273 24257
L17273 25205
" />
<path d="M17289 22498
L17289 23438
" />
<path d="M17289 24257
L17289 25197
" />
<path d="M17305 22506
L17305 23438
" />
<path d="M17305 24257
L17305 25189
" />
<path d="M17320 22514
L17320 23438
" />
<path d="M17320 24257
L17320 25181
" />
<path d="M17336 22523
L17336 23438
" />
<path d="M17336 24257
L17336 25172
" />
<path d="M17352 22531
L17352 23438
" />
<path d="M17352 24257
L17352 25164
" />
<path d="M17368 22540
L17368 23438
" />
<path d="M17368 24257
L17368 25155
" />
<path d="M17383 22550
L17383 23438
" />
<path d="M17383 24257
L17383 25146
" />
<path d="M17399 22559
L17399 23438
" />
<path d="M17399 24257
L17399 25137
" />
<path d="M17415 22568
L17415 23438
" />
<path d="M17415 24257
L17415 25127
" />
<path d="M17431 22578
L17431 23438
" />
<path d="M17431 24257
L17431 25117
" />
<path d="M17446 22588
L17446 23438
" />
<path d="M17446 24257
L17446 25107
" />
<path d="M17462 22599
L17462 23438
" />
<path d="M17462 24257
L17462 25096
" />
<path d="M17478 22610
L17478 23438
" />
<path d="M17478 24257
L17478 25085
" />
<path d="M17494 22621
L17494 23438
" />
<path d="M17494 24257
L17494 25074
" />
<path d="M17509 22632
L17509 23438
" />
<path d="M17509 24257
L17509 25063
" />
<path d="M17525 22644
L17525 25051
" />
<path d="M17541 22655
L17541 25040
" />
<path d="M17557 22668
L17557 25027
" />
<path d="M17572 22681
L17572 25014
" />
<path d="M17588 22694
L17588 25001
" />
<path d="M17604 22707
L17604 24988
" />
<path d="M17620 22720
L17620 24975
" />
<path d="M17635 22735
L17635 24961
" />
<path d="M17651 22749
L17651 24946
" />
<path d="M17667 22764
L17667 24931
" />
<path d="M17683 22779
L17683 24916
" />
<path d="M17698 22795
L17698 24900
" />
<path d="M17714 22811
L17714 24884
" />
<path d="M17730 22828
L17730 24867
" />
<path d="M17746 22845
L17746 24850
" />
<path d="M17761 22863
L17761 24832
" />
<path d="M17777 22881
L17777 24814
" />
<path d="M17793 22901
L17793 24794
" />
<path d="M17809 22920
L17809 24775
" />
<path d="M17824 22940
L17824 24755
" />
<path d="M17840 22962
L17840 24733
" />
<path d="M17856 22983
L17856 24712
" />
<path d="M17872 23006
L17872 24689
" />
<path d="M17887 23030
L17887 24665
" />
<path d="M17903 23055
L17903 24640
" />
<path d="M17919 23080
L17919 24615
" />
<path d="M17935 23107
L17935 24588
" />
<path d="M17950 23135
L17950 24560
" />
<path d="M17966 23165
L17966 24530
" />
<path d="M17982 23196
L17982 24499
" />
<path d="M17998 23230
L17998 24465
" />
<path d="M18013 23266
L18013 24429
" />
<path d="M18029 23304
L18029 24391
" />
<path d="M18045 23346
L18045 24350
" />
<path d="M18061 23392
L18061 24303
" />
<path d="M18076 23443
L18076 24252
" />
<path d="M18092 23502
L18092 24193
" />
<path d="M18108 23575
L18108 24120
" />
<path d="M18124 23674
L18124 24021
" />
<path d="M14981 22991
L15276 22991
" />
<path d="M15128 22844
L15128 23139
" />
<path d="M22098 26326
L22098 25248
" />
<path d="M24161 26326
L24161 25248
" />
<path d="M24161 25248
L22098 25248
" />
<path d="M24161 26326
L22098 26326
" />
<path d="M19933 25248
L21996 25248
" />
<path d="M19933 26326
L21996 26326
" />
<path d="M19933 25248
L19933 26326
" />
<path d="M21996 25248
L21996 26326
" />
<path d="M18296 16681
L18709 16681
" />
<path d="M18709 16267
L18709 16681
" />
<path d="M15008 14279
L15008 10814
" />
<path d="M15008 10814
L18630 10814
" />
<path d="M16071 16602
L15008 16602
" />
<path d="M15008 16602
L15008 15854
" />
<path d="M18630 10814
L18630 16602
" />
<path d="M18630 16602
L17607 16602
" />
<path d="M35196 37824
L35196 38871
" />
<path d="M37219 37824
L35196 37824
" />
<path d="M37219 38871
L35196 38871
" />
<path d="M37219 37824
L37219 38871
" />
<path d="M37719 37824
L38243 37824
" />
<path d="M38243 37824
L38243 38348
" />
<path d="M27196 38871
L27196 38348
" />
<path d="M27719 38871
L27196 38871
" />
<path d="M28219 38871
L28219 37824
" />
<path d="M28219 37824
L31243 37824
" />
<path d="M28219 38871
L31243 38871
" />
<path d="M31243 38871
L31243 37824
" />
<path d="M40263 38633
L41311 38633
" />
<path d="M40263 33610
L40263 38633
" />
<path d="M41311 33610
L41311 38633
" />
<path d="M40263 33610
L41311 33610
" />
<path d="M40263 33110
L40263 32586
" />
<path d="M40263 32586
L40787 32586
" />
<path d="M16665 33397
L15618 33397
" />
<path d="M16665 33397
L16665 32374
" />
<path d="M16665 32374
L15618 32374
" />
<path d="M15618 33397
L15618 32374
" />
<path d="M15618 34421
L15618 33897
" />
<path d="M16141 34421
L15618 34421
" />
<path d="M14619.5 22725.2 A1177.17 1177.17 0.0 0 0 15227.9 20540.2 " />
<path d="M14011.5 20540.2 A1177.17 1177.17 0.0 0 0 14619.9 22725.2 " />
<circle cx="14619.7" cy="21548" r="984.252" /> 
<path d="M15227 20540
L14011 20540
" />
<path d="M31192.9 32996.1 A393.701 393.701 0.0 0 0 31192.9 33783.5 " />
<path d="M31192 32996
L31192 32346
" />
<path d="M31192 32346
L17145 32346
" />
<path d="M17145 32346
L17145 34433
" />
<path d="M17145 34433
L31192 34433
" />
<path d="M31192 34433
L31192 33783
" />
<path d="M19603 13160
L23635 13160
" />
<path d="M19603 14987
L23635 14987
" />
<path d="M19603 13160
L19603 14987
" />
<path d="M23635 13160
L23635 14987
" />
<path d="M19603 13755
L23635 13755
" />
<path d="M20891 13160
L20891 13755
" />
<path d="M22348 13160
L22348 13755
" />
<path d="M35862 25641
L35862 26236
" />
<path d="M34405 25641
L34405 26236
" />
<path d="M33118 26236
L37149 26236
" />
<path d="M37149 25641
L37149 27468
" />
<path d="M33118 25641
L33118 27468
" />
<path d="M33118 27468
L37149 27468
" />
<path d="M33118 25641
L37149 25641
" />
<path d="M36897 15562
L40929 15562
" />
<path d="M36897 17390
L40929 17390
" />
<path d="M36897 15562
L36897 17390
" />
<path d="M40929 15562
L40929 17390
" />
<path d="M36897 16157
L40929 16157
" />
<path d="M38185 15562
L38185 16157
" />
<path d="M39642 15562
L39642 16157
" />
<path d="M34524 15562
L34524 16157
" />
<path d="M33066 15562
L33066 16157
" />
<path d="M31779 16157
L35811 16157
" />
<path d="M35811 15562
L35811 17390
" />
<path d="M31779 15562
L31779 17390
" />
<path d="M31779 17390
L35811 17390
" />
<path d="M31779 15562
L35811 15562
" />
<path d="M26661 15562
L30692 15562
" />
<path d="M26661 17390
L30692 17390
" />
<path d="M26661 15562
L26661 17390
" />
<path d="M30692 15562
L30692 17390
" />
<path d="M26661 16157
L30692 16157
" />
<path d="M27948 15562
L27948 16157
" />
<path d="M29405 15562
L29405 16157
" />
<path d="M37480 23314
L37480 23011
" />
<path d="M37480 20133
L37480 20437
" />
<path d="M38019 23011
L38019 20437
" />
<path d="M36940 23011
L38019 23011
" />
<path d="M36940 20437
L36940 23011
" />
<path d="M38019 20437
L36940 20437
" />
<path d="M27507 19751
L27507 18673
" />
<path d="M27507 18673
L24932 18673
" />
<path d="M24932 18673
L24932 19751
" />
<path d="M24932 19751
L27507 19751
" />
<path d="M27810 19212
L27507 19212
" />
<path d="M24629 19212
L24932 19212
" />
<path d="M33228 24417
L33228 24114
" />
<path d="M33228 21236
L33228 21539
" />
<path d="M33767 24114
L33767 21539
" />
<path d="M32688 24114
L33767 24114
" />
<path d="M32688 21539
L32688 24114
" />
<path d="M33767 21539
L32688 21539
" />
<path d="M29830 22602
L28751 22602
" />
<path d="M28751 22602
L28751 25177
" />
<path d="M28751 25177
L29830 25177
" />
<path d="M29830 25177
L29830 22602
" />
<path d="M29291 22299
L29291 22602
" />
<path d="M29291 25480
L29291 25177
" />
<path d="M30031 19212
L30334 19212
" />
<path d="M33212 19212
L32909 19212
" />
<path d="M30334 19751
L32909 19751
" />
<path d="M30334 18673
L30334 19751
" />
<path d="M32909 18673
L30334 18673
" />
<path d="M32909 19751
L32909 18673
" />
<path d="M36618 18673
L36618 19751
" />
<path d="M36618 19751
L39192 19751
" />
<path d="M39192 19751
L39192 18673
" />
<path d="M39192 18673
L36618 18673
" />
<path d="M36314 19212
L36618 19212
" />
<path d="M39496 19212
L39192 19212
" />
<path d="M30665 27744
L30665 26665
" />
<path d="M30665 26665
L28090 26665
" />
<path d="M28090 26665
L28090 27744
" />
<path d="M28090 27744
L30665 27744
" />
<path d="M30968 27204
L30665 27204
" />
<path d="M27787 27204
L28090 27204
" />
<path d="M34680 34409
L34895 34623
" />
<path d="M36930 36658
L36715 36444
" />
<path d="M34513 35004
L36334 36825
" />
<path d="M35276 34242
L34513 35004
" />
<path d="M37097 36062
L35276 34242
" />
<path d="M36334 36825
L37097 36062
" />
<path d="M14480 29035
L15559 29035
" />
<path d="M15559 29035
L15559 26460
" />
<path d="M15559 26460
L14480 26460
" />
<path d="M14480 26460
L14480 29035
" />
<path d="M15019 29338
L15019 29035
" />
<path d="M15019 26157
L15019 26460
" />
</g>
<g style="fill:#000000; fill-opacity:0.0; 
stroke:#000000; stroke-width:59.0551; stroke-opacity:1; 
stroke-linecap:round; stroke-linejoin:round;">
<text x="18661.4" y="36850.4"
textLength="864.173" font-size="524.934" lengthAdjust="spacingAndGlyphs"
text-anchor="middle" opacity="0">Q6</text>
<path d="M18623 36869
L18586 36850
L18548 36812
L18492 36756
L18455 36737
L18417 36737
" />
<path d="M18436 36831
L18398 36812
L18361 36775
L18342 36700
L18342 36569
L18361 36494
L18398 36456
L18436 36437
L18511 36437
L18548 36456
L18586 36494
L18605 36569
L18605 36700
L18586 36775
L18548 36812
L18511 36831
L18436 36831
" />
<path d="M18942 36437
L18867 36437
L18830 36456
L18811 36475
L18773 36531
L18755 36606
L18755 36756
L18773 36794
L18792 36812
L18830 36831
L18905 36831
L18942 36812
L18961 36794
L18980 36756
L18980 36662
L18961 36625
L18942 36606
L18905 36587
L18830 36587
L18792 36606
L18773 36625
L18755 36662
" />
<text x="18606.3" y="38582.7"
textLength="864.173" font-size="524.934" lengthAdjust="spacingAndGlyphs"
text-anchor="middle" opacity="0">Q5</text>
<path d="M18568 38601
L18531 38582
L18493 38545
L18437 38488
L18400 38470
L18362 38470
" />
<path d="M18381 38563
L18343 38545
L18306 38507
L18287 38432
L18287 38301
L18306 38226
L18343 38188
L18381 38170
L18456 38170
L18493 38188
L18531 38226
L18550 38301
L18550 38432
L18531 38507
L18493 38545
L18456 38563
L18381 38563
" />
<path d="M18906 38170
L18718 38170
L18700 38357
L18718 38338
L18756 38320
L18850 38320
L18887 38338
L18906 38357
L18925 38395
L18925 38488
L18906 38526
L18887 38545
L18850 38563
L18756 38563
L18718 38545
L18700 38526
" />
<text x="38619.7" y="15027.8"
textLength="845.426" font-size="524.934" lengthAdjust="spacingAndGlyphs"
text-anchor="middle" opacity="0">D1</text>
<path d="M38329 15009
L38329 14615
L38422 14615
L38479 14634
L38516 14671
L38535 14709
L38554 14784
L38554 14840
L38535 14915
L38516 14952
L38479 14990
L38422 15009
L38329 15009
" />
<path d="M38929 15009
L38704 15009
" />
<path d="M38816 15009
L38816 14615
L38779 14671
L38741 14709
L38704 14727
" />
<text x="39946.5" y="13944.9"
textLength="470.472" font-size="524.934" lengthAdjust="spacingAndGlyphs"
text-anchor="middle" opacity="0">K</text>
<path d="M39843 13926
L39843 13532
" />
<path d="M40068 13926
L39899 13701
" />
<path d="M40068 13532
L39843 13757
" />
</g>
<g style="fill:#000000; fill-opacity:0.0; 
stroke:#000000; stroke-width:78.7402; stroke-opacity:1; 
stroke-linecap:round; stroke-linejoin:round;">
<text x="38619.7" y="12941.7"
textLength="2251.5" font-size="1049.87" lengthAdjust="spacingAndGlyphs"
text-anchor="middle" opacity="0">FAN</text>
<path d="M37982 12491
L37719 12491
" />
<path d="M37719 12904
L37719 12116
L38094 12116
" />
<path d="M38357 12679
L38732 12679
" />
<path d="M38282 12904
L38544 12116
L38807 12904
" />
<path d="M39069 12904
L39069 12116
L39519 12904
L39519 12116
" />
</g>
<g style="fill:#000000; fill-opacity:0.0; 
stroke:#000000; stroke-width:59.0551; stroke-opacity:1; 
stroke-linecap:round; stroke-linejoin:round;">
<text x="34219.7" y="11984.3"
textLength="687.289" font-size="629.921" lengthAdjust="spacingAndGlyphs"
text-anchor="middle" opacity="0">+</text>
<path d="M34039 11781
L34399 11781
" />
<path d="M34219 11961
L34219 11601
" />
<text x="36319.7" y="11984.3"
textLength="661.698" font-size="629.921" lengthAdjust="spacingAndGlyphs"
text-anchor="middle" opacity="0">-</text>
<path d="M36139 11781
L36499 11781
" />
</g>
<g style="fill:#000000; fill-opacity:0.0; 
stroke:#000000; stroke-width:78.7402; stroke-opacity:1; 
stroke-linecap:round; stroke-linejoin:round;">
<text x="23219.7" y="12841.7"
textLength="2214" font-size="1049.87" lengthAdjust="spacingAndGlyphs"
text-anchor="middle" opacity="0">LED</text>
<path d="M22713 12804
L22338 12804
L22338 12016
" />
<path d="M22975 12391
L23238 12391
" />
<path d="M23350 12804
L22975 12804
L22975 12016
L23350 12016
" />
<path d="M23688 12804
L23688 12016
L23875 12016
L23988 12054
L24063 12129
L24100 12204
L24138 12354
L24138 12466
L24100 12616
L24063 12691
L23988 12766
L23875 12804
L23688 12804
" />
</g>
<g style="fill:#000000; fill-opacity:0.0; 
stroke:#000000; stroke-width:59.0551; stroke-opacity:1; 
stroke-linecap:round; stroke-linejoin:round;">
<text x="25619.7" y="12084.3"
textLength="1092.24" font-size="629.921" lengthAdjust="spacingAndGlyphs"
text-anchor="middle" opacity="0">V+</text>
<path d="M25169 11589
L25327 12061
L25484 11589
" />
<path d="M25642 11881
L26002 11881
" />
<path d="M25822 12061
L25822 11701
" />
<text x="27619.7" y="12084.3"
textLength="549.213" font-size="629.921" lengthAdjust="spacingAndGlyphs"
text-anchor="middle" opacity="0">B</text>
<path d="M27653 11814
L27720 11836
L27743 11859
L27765 11904
L27765 11971
L27743 12016
L27720 12039
L27675 12061
L27495 12061
L27495 11589
L27653 11589
L27698 11611
L27720 11634
L27743 11679
L27743 11724
L27720 11769
L27698 11791
L27653 11814
L27495 11814
" />
<text x="29519.7" y="12084.3"
textLength="549.213" font-size="629.921" lengthAdjust="spacingAndGlyphs"
text-anchor="middle" opacity="0">R</text>
<path d="M29665 12061
L29508 11836
" />
<path d="M29395 12061
L29395 11589
L29575 11589
L29620 11611
L29643 11634
L29665 11679
L29665 11746
L29643 11791
L29620 11814
L29575 11836
L29395 11836
" />
<text x="31519.7" y="12084.3"
textLength="549.213" font-size="629.921" lengthAdjust="spacingAndGlyphs"
text-anchor="middle" opacity="0">G</text>
<path d="M31643 11611
L31598 11589
L31530 11589
L31463 11611
L31418 11656
L31395 11701
L31373 11791
L31373 11859
L31395 11949
L31418 11994
L31463 12039
L31530 12061
L31575 12061
L31643 12039
L31665 12016
L31665 11859
L31575 11859
" />
<text x="17219.7" y="26284.3"
textLength="999.156" font-size="629.921" lengthAdjust="spacingAndGlyphs"
text-anchor="middle" opacity="0">D7</text>
<path d="M16870 26261
L16870 25789
L16983 25789
L17050 25811
L17095 25856
L17118 25901
L17140 25991
L17140 26059
L17118 26149
L17095 26194
L17050 26239
L16983 26261
L16870 26261
" />
<path d="M17298 25789
L17613 25789
L17410 26261
" />
</g>
<g style="fill:#000000; fill-opacity:0.0; 
stroke:#000000; stroke-width:78.7402; stroke-opacity:1; 
stroke-linecap:round; stroke-linejoin:round;">
<g transform="rotate(-90 16019.7 25948)">
<text x="16019.7" y="26341.7"
textLength="1051.65" font-size="1049.87" lengthAdjust="spacingAndGlyphs"
text-anchor="middle" opacity="0">+</text>
</g>
<path d="M16075 26247
L16075 25648
" />
<path d="M16375 25948
L15775 25948
" />
</g>
<g style="fill:#000000; fill-opacity:0.0; 
stroke:#000000; stroke-width:59.0551; stroke-opacity:1; 
stroke-linecap:round; stroke-linejoin:round;">
<text x="25619.7" y="28884.3"
textLength="1024.75" font-size="629.921" lengthAdjust="spacingAndGlyphs"
text-anchor="middle" opacity="0">D4</text>
<path d="M25270 28861
L25270 28389
L25383 28389
L25450 28411
L25495 28456
L25518 28501
L25540 28591
L25540 28659
L25518 28749
L25495 28794
L25450 28839
L25383 28861
L25270 28861
" />
<path d="M25945 28546
L25945 28861
" />
<path d="M25833 28366
L25720 28704
L26013 28704
" />
</g>
<g style="fill:#000000; fill-opacity:0.0; 
stroke:#000000; stroke-width:78.7402; stroke-opacity:1; 
stroke-linecap:round; stroke-linejoin:round;">
<g transform="rotate(-90 24519.7 28648)">
<text x="24519.7" y="29041.7"
textLength="1051.65" font-size="1049.87" lengthAdjust="spacingAndGlyphs"
text-anchor="middle" opacity="0">+</text>
</g>
<path d="M24575 28947
L24575 28348
" />
<path d="M24875 28648
L24275 28648
" />
</g>
<g style="fill:#000000; fill-opacity:0.0; 
stroke:#000000; stroke-width:59.0551; stroke-opacity:1; 
stroke-linecap:round; stroke-linejoin:round;">
<text x="17119.7" y="28984.3"
textLength="1024.75" font-size="629.921" lengthAdjust="spacingAndGlyphs"
text-anchor="middle" opacity="0">D8</text>
<path d="M16770 28961
L16770 28489
L16883 28489
L16950 28511
L16995 28556
L17018 28601
L17040 28691
L17040 28759
L17018 28849
L16995 28894
L16950 28939
L16883 28961
L16770 28961
" />
<path d="M17310 28691
L17265 28669
L17243 28646
L17220 28601
L17220 28579
L17243 28534
L17265 28511
L17310 28489
L17400 28489
L17445 28511
L17468 28534
L17490 28579
L17490 28601
L17468 28646
L17445 28669
L17400 28691
L17310 28691
L17265 28714
L17243 28736
L17220 28781
L17220 28871
L17243 28916
L17265 28939
L17310 28961
L17400 28961
L17445 28939
L17468 28916
L17490 28871
L17490 28781
L17468 28736
L17445 28714
L17400 28691
" />
</g>
<g style="fill:#000000; fill-opacity:0.0; 
stroke:#000000; stroke-width:78.7402; stroke-opacity:1; 
stroke-linecap:round; stroke-linejoin:round;">
<g transform="rotate(-90 16019.7 28648)">
<text x="16019.7" y="29041.7"
textLength="1051.65" font-size="1049.87" lengthAdjust="spacingAndGlyphs"
text-anchor="middle" opacity="0">+</text>
</g>
<path d="M16075 28947
L16075 28348
" />
<path d="M16375 28648
L15775 28648
" />
<text x="25619.7" y="40141.7"
textLength="1077.24" font-size="1049.87" lengthAdjust="spacingAndGlyphs"
text-anchor="middle" opacity="0">+</text>
<path d="M25319 39804
L25919 39804
" />
<path d="M25619 40104
L25619 39504
" />
</g>
<g style="fill:#000000; fill-opacity:0.0; 
stroke:#000000; stroke-width:59.0551; stroke-opacity:1; 
stroke-linecap:round; stroke-linejoin:round;">
<g transform="rotate(-90 25119.7 37848)">
<text x="25119.7" y="38084.3"
textLength="957.256" font-size="629.921" lengthAdjust="spacingAndGlyphs"
text-anchor="middle" opacity="0">A3</text>
</g>
<path d="M25198 38185
L25198 37960
" />
<path d="M25333 38230
L24860 38073
L25333 37915
" />
<path d="M24860 37803
L24860 37510
L25040 37668
L25040 37600
L25063 37555
L25085 37533
L25130 37510
L25243 37510
L25288 37533
L25310 37555
L25333 37600
L25333 37735
L25310 37780
L25288 37803
" />
<g transform="rotate(45 33063 37291.3)">
<text x="33063" y="37488.2"
textLength="845.426" font-size="524.934" lengthAdjust="spacingAndGlyphs"
text-anchor="middle" opacity="0">R8</text>
</g>
<path d="M32890 37370
L32930 37145
" />
<path d="M32731 37211
L33009 36933
L33116 37039
L33129 37079
L33129 37105
L33116 37145
L33076 37185
L33036 37198
L33009 37198
L32970 37185
L32864 37079
" />
<path d="M33208 37370
L33195 37331
L33195 37304
L33208 37264
L33222 37251
L33261 37238
L33288 37238
L33328 37251
L33381 37304
L33394 37344
L33394 37370
L33381 37410
L33367 37423
L33328 37437
L33301 37437
L33261 37423
L33208 37370
L33169 37357
L33142 37357
L33102 37370
L33049 37423
L33036 37463
L33036 37490
L33049 37529
L33102 37582
L33142 37596
L33169 37596
L33208 37582
L33261 37529
L33275 37490
L33275 37463
L33261 37423
" />
<g transform="rotate(45 31523.6 37370.1)">
<text x="31523.6" y="37566.9"
textLength="845.426" font-size="524.934" lengthAdjust="spacingAndGlyphs"
text-anchor="middle" opacity="0">R7</text>
</g>
<path d="M31351 37449
L31391 37224
" />
<path d="M31192 37290
L31470 37012
L31576 37118
L31589 37157
L31589 37184
L31576 37224
L31536 37264
L31497 37277
L31470 37277
L31430 37264
L31324 37157
" />
<path d="M31722 37264
L31908 37449
L31510 37608
" />
</g>
<g style="fill:#000000; fill-opacity:0.0; 
stroke:#000000; stroke-width:78.7402; stroke-opacity:1; 
stroke-linecap:round; stroke-linejoin:round;">
<text x="23219.7" y="40141.7"
textLength="1051.65" font-size="1049.87" lengthAdjust="spacingAndGlyphs"
text-anchor="middle" opacity="0">+</text>
<path d="M22919 39804
L23519 39804
" />
<path d="M23219 40104
L23219 39504
" />
</g>
<g style="fill:#000000; fill-opacity:0.0; 
stroke:#000000; stroke-width:59.0551; stroke-opacity:1; 
stroke-linecap:round; stroke-linejoin:round;">
<g transform="rotate(-90 22519.7 38048)">
<text x="22519.7" y="38284.3"
textLength="1812.15" font-size="629.921" lengthAdjust="spacingAndGlyphs"
text-anchor="middle" opacity="0">~~D11</text>
</g>
<path d="M22553 38857
L22530 38835
L22508 38790
L22553 38700
L22530 38655
L22508 38632
" />
<path d="M22733 38452
L22260 38452
L22260 38340
L22283 38273
L22328 38228
L22373 38205
L22463 38183
L22530 38183
L22620 38205
L22665 38228
L22710 38273
L22733 38340
L22733 38452
" />
<path d="M22733 37733
L22733 38003
" />
<path d="M22733 37868
L22260 37868
L22328 37913
L22373 37958
L22395 38003
" />
<path d="M22733 37283
L22733 37553
" />
<path d="M22733 37418
L22260 37418
L22328 37463
L22373 37508
L22395 37553
" />
<g transform="rotate(-45 35196.9 32204.7)">
<text x="35196.9" y="32401.6"
textLength="1220.38" font-size="524.934" lengthAdjust="spacingAndGlyphs"
text-anchor="middle" opacity="0">R12</text>
</g>
<path d="M35143 32509
L34918 32469
" />
<path d="M34984 32668
L34706 32390
L34812 32284
L34852 32271
L34878 32271
L34918 32284
L34958 32324
L34971 32363
L34971 32390
L34958 32430
L34852 32536
" />
<path d="M35408 32244
L35249 32403
" />
<path d="M35329 32324
L35051 32045
L35064 32111
L35064 32164
L35051 32204
" />
<path d="M35263 31886
L35263 31860
L35276 31820
L35342 31754
L35382 31740
L35408 31740
L35448 31754
L35475 31780
L35501 31833
L35501 32151
L35674 31979
" />
<g transform="rotate(-90 16574.8 36653.5)">
<text x="16574.8" y="36850.4"
textLength="845.426" font-size="524.934" lengthAdjust="spacingAndGlyphs"
text-anchor="middle" opacity="0">C4</text>
</g>
<path d="M16715 36719
L16734 36737
L16752 36794
L16752 36831
L16734 36887
L16696 36925
L16659 36944
L16584 36962
L16527 36962
L16452 36944
L16415 36925
L16377 36887
L16359 36831
L16359 36794
L16377 36737
L16396 36719
" />
<path d="M16490 36381
L16752 36381
" />
<path d="M16340 36475
L16621 36569
L16621 36325
" />
<text x="38956.7" y="32165.4"
textLength="845.426" font-size="524.934" lengthAdjust="spacingAndGlyphs"
text-anchor="middle" opacity="0">C3</text>
<path d="M38891 32109
L38872 32127
L38816 32146
L38778 32146
L38722 32127
L38684 32090
L38666 32052
L38647 31977
L38647 31921
L38666 31846
L38684 31809
L38722 31771
L38778 31752
L38816 31752
L38872 31771
L38891 31790
" />
<path d="M39022 31752
L39266 31752
L39134 31902
L39191 31902
L39228 31921
L39247 31940
L39266 31977
L39266 32071
L39247 32109
L39228 32127
L39191 32146
L39078 32146
L39041 32127
L39022 32109
" />
<text x="22070.9" y="27598.4"
textLength="789.183" font-size="524.934" lengthAdjust="spacingAndGlyphs"
text-anchor="middle" opacity="0">Y1</text>
<path d="M21883 27392
L21883 27579
" />
<path d="M21752 27185
L21883 27392
L22014 27185
" />
<path d="M22352 27579
L22127 27579
" />
<path d="M22239 27579
L22239 27185
L22202 27242
L22164 27279
L22127 27298
" />
<g transform="rotate(-90 38503.9 34803.1)">
<text x="38503.9" y="35000"
textLength="1220.38" font-size="524.934" lengthAdjust="spacingAndGlyphs"
text-anchor="middle" opacity="0">R10</text>
</g>
<path d="M38682 35056
L38494 35187
" />
<path d="M38682 35281
L38288 35281
L38288 35131
L38307 35093
L38325 35074
L38363 35056
L38419 35056
L38457 35074
L38475 35093
L38494 35131
L38494 35281
" />
<path d="M38682 34681
L38682 34906
" />
<path d="M38682 34793
L38288 34793
L38344 34831
L38382 34868
L38400 34906
" />
<path d="M38288 34437
L38288 34400
L38307 34362
L38325 34343
L38363 34325
L38438 34306
L38532 34306
L38607 34325
L38644 34343
L38663 34362
L38682 34400
L38682 34437
L38663 34475
L38644 34493
L38607 34512
L38532 34531
L38438 34531
L38363 34512
L38325 34493
L38307 34475
L38288 34437
" />
<text x="16017.3" y="20192.9"
textLength="845.426" font-size="524.934" lengthAdjust="spacingAndGlyphs"
text-anchor="middle" opacity="0">C5</text>
<path d="M15951 20136
L15932 20155
L15876 20174
L15839 20174
L15782 20155
L15745 20117
L15726 20080
L15707 20005
L15707 19949
L15726 19874
L15745 19836
L15782 19799
L15839 19780
L15876 19780
L15932 19799
L15951 19817
" />
<path d="M16307 19780
L16120 19780
L16101 19967
L16120 19949
L16157 19930
L16251 19930
L16289 19949
L16307 19967
L16326 20005
L16326 20099
L16307 20136
L16289 20155
L16251 20174
L16157 20174
L16120 20155
L16101 20136
" />
<text x="15962.2" y="24792.9"
textLength="845.426" font-size="524.934" lengthAdjust="spacingAndGlyphs"
text-anchor="middle" opacity="0">C6</text>
<path d="M15896 24736
L15877 24755
L15821 24774
L15784 24774
L15727 24755
L15690 24717
L15671 24680
L15652 24605
L15652 24549
L15671 24474
L15690 24436
L15727 24399
L15784 24380
L15821 24380
L15877 24399
L15896 24417
" />
<path d="M16234 24380
L16159 24380
L16121 24399
L16102 24417
L16065 24474
L16046 24549
L16046 24699
L16065 24736
L16084 24755
L16121 24774
L16196 24774
L16234 24755
L16252 24736
L16271 24699
L16271 24605
L16252 24567
L16234 24549
L16196 24530
L16121 24530
L16084 24549
L16065 24567
L16046 24605
" />
<text x="23031.5" y="26259.8"
textLength="845.426" font-size="524.934" lengthAdjust="spacingAndGlyphs"
text-anchor="middle" opacity="0">C1</text>
<path d="M22965 26203
L22947 26222
L22890 26241
L22853 26241
L22797 26222
L22759 26184
L22740 26147
L22722 26072
L22722 26016
L22740 25941
L22759 25903
L22797 25866
L22853 25847
L22890 25847
L22947 25866
L22965 25884
" />
<path d="M23340 26241
L23115 26241
" />
<path d="M23228 26241
L23228 25847
L23190 25903
L23153 25941
L23115 25959
" />
<text x="20984.3" y="26259.8"
textLength="845.426" font-size="524.934" lengthAdjust="spacingAndGlyphs"
text-anchor="middle" opacity="0">C2</text>
<path d="M20918 26203
L20899 26222
L20843 26241
L20806 26241
L20749 26222
L20712 26184
L20693 26147
L20674 26072
L20674 26016
L20693 25941
L20712 25903
L20749 25866
L20806 25847
L20843 25847
L20899 25866
L20918 25884
" />
<path d="M21068 25884
L21087 25866
L21124 25847
L21218 25847
L21256 25866
L21274 25884
L21293 25922
L21293 25959
L21274 26016
L21049 26241
L21293 26241
" />
<text x="16779.5" y="12515"
textLength="2101.52" font-size="629.921" lengthAdjust="spacingAndGlyphs"
text-anchor="middle" opacity="0">DC IN</text>
<path d="M15879 12492
L15879 12020
L15992 12020
L16059 12042
L16104 12087
L16127 12132
L16149 12222
L16149 12289
L16127 12379
L16104 12424
L16059 12469
L15992 12492
L15879 12492
" />
<path d="M16622 12447
L16599 12469
L16532 12492
L16487 12492
L16419 12469
L16374 12424
L16352 12379
L16329 12289
L16329 12222
L16352 12132
L16374 12087
L16419 12042
L16487 12020
L16532 12020
L16599 12042
L16622 12065
" />
<path d="M17184 12492
L17184 12020
" />
<path d="M17409 12492
L17409 12020
L17679 12492
L17679 12020
" />
</g>
<g style="fill:#000000; fill-opacity:0.0; 
stroke:#000000; stroke-width:98.4252; stroke-opacity:1; 
stroke-linecap:round; stroke-linejoin:round;">
<g transform="rotate(-90 14019.7 15848)">
<text x="14019.7" y="16241.7"
textLength="2116.52" font-size="839.895" lengthAdjust="spacingAndGlyphs"
text-anchor="middle" opacity="0">+ -</text>
</g>
<path d="M14075 16717
L14075 16237
" />
<path d="M14375 16477
L13775 16477
" />
<path d="M14075 15458
L14075 14978
" />
</g>
<g style="fill:#000000; fill-opacity:0.0; 
stroke:#000000; stroke-width:59.0551; stroke-opacity:1; 
stroke-linecap:round; stroke-linejoin:round;">
<text x="36784.3" y="39772.4"
textLength="3210.07" font-size="629.921" lengthAdjust="spacingAndGlyphs"
text-anchor="middle" opacity="0">ONEWIRE</text>
<path d="M35445 39277
L35535 39277
L35580 39300
L35625 39344
L35648 39434
L35648 39592
L35625 39682
L35580 39727
L35535 39749
L35445 39749
L35400 39727
L35355 39682
L35333 39592
L35333 39434
L35355 39344
L35400 39300
L35445 39277
" />
<path d="M35850 39749
L35850 39277
L36120 39749
L36120 39277
" />
<path d="M36345 39502
L36503 39502
" />
<path d="M36570 39749
L36345 39749
L36345 39277
L36570 39277
" />
<path d="M36728 39277
L36840 39749
L36930 39412
L37020 39749
L37132 39277
" />
<path d="M37312 39749
L37312 39277
" />
<path d="M37807 39749
L37650 39524
" />
<path d="M37537 39749
L37537 39277
L37717 39277
L37762 39300
L37785 39322
L37807 39367
L37807 39434
L37785 39479
L37762 39502
L37717 39524
L37537 39524
" />
<path d="M38010 39502
L38167 39502
" />
<path d="M38235 39749
L38010 39749
L38010 39277
L38235 39277
" />
</g>
<g style="fill:#000000; fill-opacity:0.0; 
stroke:#000000; stroke-width:78.7402; stroke-opacity:1; 
stroke-linecap:round; stroke-linejoin:round;">
<g transform="rotate(-90 38484.3 38836.2)">
<text x="38484.3" y="39229.9"
textLength="1051.65" font-size="1049.87" lengthAdjust="spacingAndGlyphs"
text-anchor="middle" opacity="0">+</text>
</g>
<path d="M38540 39136
L38540 38536
" />
<path d="M38840 38836
L38240 38836
" />
</g>
<g style="fill:#000000; fill-opacity:0.0; 
stroke:#000000; stroke-width:59.0551; stroke-opacity:1; 
stroke-linecap:round; stroke-linejoin:round;">
<text x="29552" y="39652.8"
textLength="1249.72" font-size="629.921" lengthAdjust="spacingAndGlyphs"
text-anchor="middle" opacity="0">I2C</text>
<path d="M29090 39630
L29090 39157
" />
<path d="M29293 39202
L29315 39180
L29360 39157
L29473 39157
L29518 39180
L29540 39202
L29563 39247
L29563 39292
L29540 39360
L29270 39630
L29563 39630
" />
<path d="M30035 39585
L30013 39607
L29945 39630
L29900 39630
L29833 39607
L29788 39562
L29765 39517
L29743 39427
L29743 39360
L29765 39270
L29788 39225
L29833 39180
L29900 39157
L29945 39157
L30013 39180
L30035 39202
" />
</g>
<g style="fill:#000000; fill-opacity:0.0; 
stroke:#000000; stroke-width:78.7402; stroke-opacity:1; 
stroke-linecap:round; stroke-linejoin:round;">
<g transform="rotate(-90 27719.7 37248)">
<text x="27719.7" y="37641.7"
textLength="1051.65" font-size="1049.87" lengthAdjust="spacingAndGlyphs"
text-anchor="middle" opacity="0">+</text>
</g>
<path d="M27775 37547
L27775 36948
" />
<path d="M28075 37248
L27475 37248
" />
</g>
<g style="fill:#000000; fill-opacity:0.0; 
stroke:#000000; stroke-width:59.0551; stroke-opacity:1; 
stroke-linecap:round; stroke-linejoin:round;">
<g transform="rotate(-90 28719.7 36948)">
<text x="28719.7" y="37184.3"
textLength="1429.7" font-size="629.921" lengthAdjust="spacingAndGlyphs"
text-anchor="middle" opacity="0">SDA</text>
</g>
<path d="M28910 37521
L28933 37454
L28933 37341
L28910 37296
L28888 37274
L28843 37251
L28798 37251
L28753 37274
L28730 37296
L28708 37341
L28685 37431
L28663 37476
L28640 37499
L28595 37521
L28550 37521
L28505 37499
L28483 37476
L28460 37431
L28460 37319
L28483 37251
" />
<path d="M28933 37049
L28460 37049
L28460 36936
L28483 36869
L28528 36824
L28573 36801
L28663 36779
L28730 36779
L28820 36801
L28865 36824
L28910 36869
L28933 36936
L28933 37049
" />
<path d="M28798 36599
L28798 36374
" />
<path d="M28933 36644
L28460 36486
L28933 36329
" />
<g transform="rotate(-90 29719.7 36948)">
<text x="29719.7" y="37184.3"
textLength="1381.61" font-size="629.921" lengthAdjust="spacingAndGlyphs"
text-anchor="middle" opacity="0">SCL</text>
</g>
<path d="M29910 37510
L29933 37442
L29933 37330
L29910 37285
L29888 37262
L29843 37240
L29798 37240
L29753 37262
L29730 37285
L29708 37330
L29685 37420
L29663 37465
L29640 37487
L29595 37510
L29550 37510
L29505 37487
L29483 37465
L29460 37420
L29460 37307
L29483 37240
" />
<path d="M29888 36768
L29910 36790
L29933 36858
L29933 36903
L29910 36970
L29865 37015
L29820 37038
L29730 37060
L29663 37060
L29573 37038
L29528 37015
L29483 36970
L29460 36903
L29460 36858
L29483 36790
L29505 36768
" />
<path d="M29933 36340
L29933 36565
L29460 36565
" />
<g transform="rotate(-90 41819.7 37848)">
<text x="41819.7" y="38005.5"
textLength="1546.59" font-size="419.947" lengthAdjust="spacingAndGlyphs"
text-anchor="middle" opacity="0">BLACK</text>
</g>
<path d="M41797 38402
L41812 38357
L41827 38342
L41857 38327
L41902 38327
L41932 38342
L41947 38357
L41962 38387
L41962 38507
L41647 38507
L41647 38402
L41662 38372
L41677 38357
L41707 38342
L41737 38342
L41767 38357
L41782 38372
L41797 38402
L41797 38507
" />
<path d="M41962 38043
L41962 38192
L41647 38192
" />
<path d="M41872 37953
L41872 37803
" />
<path d="M41962 37983
L41647 37878
L41962 37773
" />
<path d="M41932 37488
L41947 37503
L41962 37548
L41962 37578
L41947 37623
L41917 37653
L41887 37668
L41827 37683
L41782 37683
L41722 37668
L41692 37653
L41662 37623
L41647 37578
L41647 37548
L41662 37503
L41677 37488
" />
<path d="M41962 37353
L41647 37353
" />
<path d="M41962 37173
L41782 37308
" />
<path d="M41647 37173
L41827 37353
" />
<g transform="rotate(-90 41819.7 33448)">
<text x="41819.7" y="33605.5"
textLength="1606.58" font-size="419.947" lengthAdjust="spacingAndGlyphs"
text-anchor="middle" opacity="0">GREEN</text>
</g>
<path d="M41662 33972
L41647 34002
L41647 34047
L41662 34092
L41692 34122
L41722 34137
L41782 34152
L41827 34152
L41887 34137
L41917 34122
L41947 34092
L41962 34047
L41962 34017
L41947 33972
L41932 33957
L41827 33957
L41827 34017
" />
<path d="M41962 33643
L41812 33747
" />
<path d="M41962 33822
L41647 33822
L41647 33702
L41662 33673
L41677 33658
L41707 33643
L41752 33643
L41782 33658
L41797 33673
L41812 33702
L41812 33822
" />
<path d="M41797 33508
L41797 33403
" />
<path d="M41962 33358
L41962 33508
L41647 33508
L41647 33358
" />
<path d="M41797 33223
L41797 33118
" />
<path d="M41962 33073
L41962 33223
L41647 33223
L41647 33073
" />
<path d="M41962 32938
L41647 32938
L41962 32758
L41647 32758
" />
<text x="39719.7" y="36344.9"
textLength="751.687" font-size="524.934" lengthAdjust="spacingAndGlyphs"
text-anchor="middle" opacity="0">5v</text>
<path d="M39663 35932
L39475 35932
L39457 36119
L39475 36101
L39513 36082
L39607 36082
L39644 36101
L39663 36119
L39682 36157
L39682 36251
L39663 36288
L39644 36307
L39607 36326
L39513 36326
L39475 36307
L39457 36288
" />
<path d="M39813 36063
L39907 36326
L40000 36063
" />
<text x="39719.7" y="38244.9"
textLength="751.687" font-size="524.934" lengthAdjust="spacingAndGlyphs"
text-anchor="middle" opacity="0">0v</text>
<path d="M39550 37832
L39588 37832
L39625 37851
L39644 37869
L39663 37907
L39682 37982
L39682 38076
L39663 38151
L39644 38188
L39625 38207
L39588 38226
L39550 38226
L39513 38207
L39494 38188
L39475 38151
L39457 38076
L39457 37982
L39475 37907
L39494 37869
L39513 37851
L39550 37832
" />
<path d="M39813 37963
L39907 38226
L40000 37963
" />
<text x="39719.7" y="35344.9"
textLength="845.426" font-size="524.934" lengthAdjust="spacingAndGlyphs"
text-anchor="middle" opacity="0">RX</text>
<path d="M39654 35326
L39522 35138
" />
<path d="M39429 35326
L39429 34932
L39579 34932
L39616 34951
L39635 34969
L39654 35007
L39654 35063
L39635 35101
L39616 35119
L39579 35138
L39429 35138
" />
<path d="M39785 34932
L40047 35326
" />
<path d="M40047 34932
L39785 35326
" />
<text x="39719.7" y="34344.9"
textLength="751.687" font-size="524.934" lengthAdjust="spacingAndGlyphs"
text-anchor="middle" opacity="0">TX</text>
<path d="M39419 33932
L39644 33932
" />
<path d="M39532 34326
L39532 33932
" />
<path d="M39738 33932
L40000 34326
" />
<path d="M40000 33932
L39738 34326
" />
<text x="39719.7" y="37205.5"
textLength="839.087" font-size="524.934" lengthAdjust="spacingAndGlyphs"
text-anchor="middle" opacity="0">nc</text>
<path d="M39460 36980
L39434 37190
" />
<path d="M39456 37010
L39477 36995
L39516 36980
L39572 36980
L39608 36995
L39623 37025
L39602 37190
" />
<path d="M39960 37175
L39921 37190
L39846 37190
L39810 37175
L39794 37160
L39779 37130
L39790 37040
L39812 37010
L39833 36995
L39872 36980
L39947 36980
L39983 36995
" />
<text x="39619.7" y="33344.9"
textLength="1014.15" font-size="524.934" lengthAdjust="spacingAndGlyphs"
text-anchor="middle" opacity="0">~Rst</text>
<path d="M39150 32787
L39544 32787
" />
<path d="M39469 33326
L39338 33138
" />
<path d="M39244 33326
L39244 32932
L39394 32932
L39432 32951
L39450 32969
L39469 33007
L39469 33063
L39450 33101
L39432 33119
L39394 33138
L39244 33138
" />
<path d="M39544 32787
L39863 32787
" />
<path d="M39619 33307
L39657 33326
L39732 33326
L39769 33307
L39788 33269
L39788 33251
L39769 33213
L39732 33194
L39675 33194
L39638 33176
L39619 33138
L39619 33119
L39638 33082
L39675 33063
L39732 33063
L39769 33082
" />
<path d="M39863 32787
L40088 32787
" />
<path d="M39900 33063
L40050 33063
" />
<path d="M39957 32932
L39957 33269
L39975 33307
L40013 33326
L40050 33326
" />
<g transform="rotate(-90 42019.7 35548)">
<text x="42019.7" y="35784.3"
textLength="1539.09" font-size="629.921" lengthAdjust="spacingAndGlyphs"
text-anchor="middle" opacity="0">FTDI</text>
</g>
<path d="M41985 36009
L41985 36166
" />
<path d="M42233 36166
L41760 36166
L41760 35941
" />
<path d="M41760 35829
L41760 35559
" />
<path d="M42233 35694
L41760 35694
" />
<path d="M42233 35401
L41760 35401
L41760 35289
L41783 35221
L41828 35176
L41873 35154
L41963 35131
L42030 35131
L42120 35154
L42165 35176
L42210 35221
L42233 35289
L42233 35401
" />
<path d="M42233 34929
L41760 34929
" />
<g transform="rotate(-90 14330.7 33425.2)">
<text x="14330.7" y="33661.4"
textLength="2326.49" font-size="629.921" lengthAdjust="spacingAndGlyphs"
text-anchor="middle" opacity="0">LSPKR</text>
</g>
<path d="M14544 34212
L14544 34437
L14071 34437
" />
<path d="M14521 34077
L14544 34010
L14544 33897
L14521 33852
L14499 33830
L14454 33807
L14409 33807
L14364 33830
L14341 33852
L14319 33897
L14296 33987
L14274 34032
L14251 34055
L14206 34077
L14161 34077
L14116 34055
L14094 34032
L14071 33987
L14071 33875
L14094 33807
" />
<path d="M14544 33605
L14071 33605
L14071 33425
L14094 33380
L14116 33357
L14161 33335
L14229 33335
L14274 33357
L14296 33380
L14319 33425
L14319 33605
" />
<path d="M14544 33132
L14071 33132
" />
<path d="M14544 32862
L14274 33065
" />
<path d="M14071 32862
L14341 33132
" />
<path d="M14544 32390
L14319 32547
" />
<path d="M14544 32660
L14071 32660
L14071 32480
L14094 32435
L14116 32412
L14161 32390
L14229 32390
L14274 32412
L14296 32435
L14319 32480
L14319 32660
" />
</g>
<g style="fill:#000000; fill-opacity:0.0; 
stroke:#000000; stroke-width:78.7402; stroke-opacity:1; 
stroke-linecap:round; stroke-linejoin:round;">
<text x="16141.7" y="35291.3"
textLength="1051.65" font-size="1049.87" lengthAdjust="spacingAndGlyphs"
text-anchor="middle" opacity="0">+</text>
<path d="M15841 34953
L16441 34953
" />
<path d="M16141 35253
L16141 34653
" />
</g>
<g style="fill:#000000; fill-opacity:0.0; 
stroke:#000000; stroke-width:59.0551; stroke-opacity:1; 
stroke-linecap:round; stroke-linejoin:round;">
<text x="15126" y="21663.8"
textLength="871.016" font-size="524.934" lengthAdjust="spacingAndGlyphs"
text-anchor="middle" opacity="0">D2</text>
<path d="M14835 21645
L14835 21251
L14929 21251
L14985 21270
L15022 21307
L15041 21345
L15060 21420
L15060 21476
L15041 21551
L15022 21588
L14985 21626
L14929 21645
L14835 21645
" />
<path d="M15210 21288
L15229 21270
L15266 21251
L15360 21251
L15397 21270
L15416 21288
L15435 21326
L15435 21363
L15416 21420
L15191 21645
L15435 21645
" />
<g transform="rotate(-90 30236.2 33389.8)">
<text x="30236.2" y="33586.6"
textLength="864.173" font-size="524.934" lengthAdjust="spacingAndGlyphs"
text-anchor="middle" opacity="0">U1</text>
</g>
<path d="M30020 33689
L30339 33689
L30376 33670
L30395 33652
L30414 33614
L30414 33539
L30395 33502
L30376 33483
L30339 33464
L30020 33464
" />
<path d="M30414 33071
L30414 33296
" />
<path d="M30414 33183
L30020 33183
L30076 33221
L30114 33258
L30133 33296
" />
<text x="20147.2" y="14329.9"
textLength="864.173" font-size="524.934" lengthAdjust="spacingAndGlyphs"
text-anchor="middle" opacity="0">U2</text>
<path d="M19847 13917
L19847 14236
L19866 14273
L19884 14292
L19922 14311
L19997 14311
L20034 14292
L20053 14273
L20072 14236
L20072 13917
" />
<path d="M20240 13954
L20259 13936
L20297 13917
L20390 13917
L20428 13936
L20447 13954
L20465 13992
L20465 14029
L20447 14086
L20222 14311
L20465 14311
" />
<text x="33598.4" y="26732.3"
textLength="864.173" font-size="524.934" lengthAdjust="spacingAndGlyphs"
text-anchor="middle" opacity="0">Q4</text>
<path d="M33560 26751
L33523 26732
L33485 26694
L33429 26638
L33392 26619
L33354 26619
" />
<path d="M33373 26713
L33335 26694
L33298 26657
L33279 26582
L33279 26451
L33298 26376
L33335 26338
L33373 26319
L33448 26319
L33485 26338
L33523 26376
L33542 26451
L33542 26582
L33523 26657
L33485 26694
L33448 26713
L33373 26713
" />
<path d="M33879 26451
L33879 26713
" />
<path d="M33785 26301
L33692 26582
L33935 26582
" />
<text x="37283.5" y="16732.3"
textLength="864.173" font-size="524.934" lengthAdjust="spacingAndGlyphs"
text-anchor="middle" opacity="0">Q3</text>
<path d="M37245 16751
L37208 16732
L37170 16694
L37114 16638
L37077 16619
L37039 16619
" />
<path d="M37058 16713
L37020 16694
L36983 16657
L36964 16582
L36964 16451
L36983 16376
L37020 16338
L37058 16319
L37133 16319
L37170 16338
L37208 16376
L37227 16451
L37227 16582
L37208 16657
L37170 16694
L37133 16713
L37058 16713
" />
<path d="M37358 16319
L37602 16319
L37470 16469
L37527 16469
L37564 16488
L37583 16507
L37602 16544
L37602 16638
L37583 16676
L37564 16694
L37527 16713
L37414 16713
L37377 16694
L37358 16676
" />
<text x="32244.1" y="16692.9"
textLength="864.173" font-size="524.934" lengthAdjust="spacingAndGlyphs"
text-anchor="middle" opacity="0">Q2</text>
<path d="M32206 16711
L32169 16692
L32131 16655
L32075 16599
L32037 16580
L32000 16580
" />
<path d="M32019 16674
L31981 16655
L31944 16617
L31925 16542
L31925 16411
L31944 16336
L31981 16299
L32019 16280
L32094 16280
L32131 16299
L32169 16336
L32187 16411
L32187 16542
L32169 16617
L32131 16655
L32094 16674
L32019 16674
" />
<path d="M32337 16317
L32356 16299
L32394 16280
L32487 16280
L32525 16299
L32544 16317
L32562 16355
L32562 16392
L32544 16449
L32319 16674
L32562 16674
" />
<text x="27165.4" y="16653.5"
textLength="864.173" font-size="524.934" lengthAdjust="spacingAndGlyphs"
text-anchor="middle" opacity="0">Q1</text>
<path d="M27127 16672
L27090 16653
L27052 16616
L26996 16559
L26959 16541
L26921 16541
" />
<path d="M26940 16634
L26902 16616
L26865 16578
L26846 16503
L26846 16372
L26865 16297
L26902 16259
L26940 16241
L27015 16241
L27052 16259
L27090 16297
L27109 16372
L27109 16503
L27090 16578
L27052 16616
L27015 16634
L26940 16634
" />
<path d="M27484 16634
L27259 16634
" />
<path d="M27371 16634
L27371 16241
L27334 16297
L27296 16334
L27259 16353
" />
<g transform="rotate(-90 37519.7 21889.8)">
<text x="37519.7" y="22086.6"
textLength="845.426" font-size="524.934" lengthAdjust="spacingAndGlyphs"
text-anchor="middle" opacity="0">R4</text>
</g>
<path d="M37697 21955
L37510 22086
" />
<path d="M37697 22180
L37304 22180
L37304 22030
L37322 21992
L37341 21974
L37379 21955
L37435 21955
L37472 21974
L37491 21992
L37510 22030
L37510 22180
" />
<path d="M37435 21617
L37697 21617
" />
<path d="M37285 21711
L37566 21805
L37566 21561
" />
<text x="26172.4" y="19370.1"
textLength="845.426" font-size="524.934" lengthAdjust="spacingAndGlyphs"
text-anchor="middle" opacity="0">R3</text>
<path d="M26106 19351
L25975 19163
" />
<path d="M25881 19351
L25881 18957
L26031 18957
L26069 18976
L26088 18995
L26106 19032
L26106 19088
L26088 19126
L26069 19145
L26031 19163
L25881 19163
" />
<path d="M26238 18957
L26481 18957
L26350 19107
L26406 19107
L26444 19126
L26463 19145
L26481 19182
L26481 19276
L26463 19313
L26444 19332
L26406 19351
L26294 19351
L26256 19332
L26238 19313
" />
<g transform="rotate(-90 33346.5 22952.8)">
<text x="33346.5" y="23149.6"
textLength="845.426" font-size="524.934" lengthAdjust="spacingAndGlyphs"
text-anchor="middle" opacity="0">R2</text>
</g>
<path d="M33524 23018
L33337 23149
" />
<path d="M33524 23243
L33130 23243
L33130 23093
L33149 23055
L33168 23037
L33205 23018
L33262 23018
L33299 23037
L33318 23055
L33337 23093
L33337 23243
" />
<path d="M33168 22868
L33149 22849
L33130 22812
L33130 22718
L33149 22680
L33168 22662
L33205 22643
L33243 22643
L33299 22662
L33524 22887
L33524 22643
" />
<g transform="rotate(-90 29330.7 24015.7)">
<text x="29330.7" y="24212.6"
textLength="845.426" font-size="524.934" lengthAdjust="spacingAndGlyphs"
text-anchor="middle" opacity="0">R1</text>
</g>
<path d="M29508 24081
L29321 24212
" />
<path d="M29508 24306
L29115 24306
L29115 24156
L29133 24118
L29152 24100
L29190 24081
L29246 24081
L29283 24100
L29302 24118
L29321 24156
L29321 24306
" />
<path d="M29508 23706
L29508 23931
" />
<path d="M29508 23818
L29115 23818
L29171 23856
L29208 23893
L29227 23931
" />
<text x="31614.2" y="19409.4"
textLength="845.426" font-size="524.934" lengthAdjust="spacingAndGlyphs"
text-anchor="middle" opacity="0">R5</text>
<path d="M31548 19390
L31417 19203
" />
<path d="M31323 19390
L31323 18997
L31473 18997
L31511 19015
L31529 19034
L31548 19071
L31548 19128
L31529 19165
L31511 19184
L31473 19203
L31323 19203
" />
<path d="M31904 18997
L31717 18997
L31698 19184
L31717 19165
L31754 19146
L31848 19146
L31886 19165
L31904 19184
L31923 19221
L31923 19315
L31904 19353
L31886 19371
L31848 19390
L31754 19390
L31717 19371
L31698 19353
" />
<text x="38307.1" y="19448.8"
textLength="845.426" font-size="524.934" lengthAdjust="spacingAndGlyphs"
text-anchor="middle" opacity="0">R6</text>
<path d="M38241 19430
L38110 19242
" />
<path d="M38016 19430
L38016 19036
L38166 19036
L38203 19055
L38222 19073
L38241 19111
L38241 19167
L38222 19205
L38203 19223
L38166 19242
L38016 19242
" />
<path d="M38578 19036
L38503 19036
L38466 19055
L38447 19073
L38410 19130
L38391 19205
L38391 19355
L38410 19392
L38428 19411
L38466 19430
L38541 19430
L38578 19411
L38597 19392
L38616 19355
L38616 19261
L38597 19223
L38578 19205
L38541 19186
L38466 19186
L38428 19205
L38410 19223
L38391 19261
" />
<text x="29370.1" y="27480.3"
textLength="1220.38" font-size="524.934" lengthAdjust="spacingAndGlyphs"
text-anchor="middle" opacity="0">R13</text>
<path d="M29116 27461
L28985 27274
" />
<path d="M28892 27461
L28892 27067
L29041 27067
L29079 27086
L29098 27105
L29116 27142
L29116 27199
L29098 27236
L29079 27255
L29041 27274
L28892 27274
" />
<path d="M29491 27461
L29266 27461
" />
<path d="M29379 27461
L29379 27067
L29341 27124
L29304 27161
L29266 27180
" />
<path d="M29623 27067
L29866 27067
L29735 27217
L29791 27217
L29829 27236
L29848 27255
L29866 27292
L29866 27386
L29848 27424
L29829 27442
L29791 27461
L29679 27461
L29641 27442
L29623 27424
" />
<g transform="rotate(45 35827.7 35556.1)">
<text x="35827.7" y="35752.9"
textLength="845.426" font-size="524.934" lengthAdjust="spacingAndGlyphs"
text-anchor="middle" opacity="0">R9</text>
</g>
<path d="M35655 35635
L35695 35410
" />
<path d="M35496 35476
L35774 35198
L35880 35304
L35894 35343
L35894 35370
L35880 35410
L35840 35450
L35801 35463
L35774 35463
L35734 35450
L35628 35343
" />
<path d="M35787 35768
L35840 35821
L35880 35834
L35907 35834
L35973 35821
L36039 35781
L36145 35675
L36159 35635
L36159 35609
L36145 35569
L36092 35516
L36053 35503
L36026 35503
L35986 35516
L35920 35582
L35907 35622
L35907 35648
L35920 35688
L35973 35741
L36013 35754
L36039 35754
L36079 35741
" />
<g transform="rotate(-90 15019.7 27700.8)">
<text x="15019.7" y="27897.6"
textLength="1220.38" font-size="524.934" lengthAdjust="spacingAndGlyphs"
text-anchor="middle" opacity="0">R14</text>
</g>
<path d="M15197 27953
L15010 28085
" />
<path d="M15197 28178
L14804 28178
L14804 28028
L14822 27991
L14841 27972
L14879 27953
L14935 27953
L14972 27972
L14991 27991
L15010 28028
L15010 28178
" />
<path d="M15197 27578
L15197 27803
" />
<path d="M15197 27691
L14804 27691
L14860 27728
L14897 27766
L14916 27803
" />
<path d="M14935 27241
L15197 27241
" />
<path d="M14785 27335
L15066 27428
L15066 27185
" />
<g >
</g>
</g> 
</svg>
