M48
; DRILL file {KiCad 5.1.4-3.fc30} date Sat 12 Oct 2019 20:42:37 CEST
; FORMAT={-:-/ absolute / metric / decimal}
; #@! TF.CreationDate,2019-10-12T20:42:37+02:00
; #@! TF.GenerationSoftware,Kicad,Pcbnew,5.1.4-3.fc30
FMAT,2
METRIC
T1C0.800
T2C0.900
T3C1.000
T4C1.100
T5C1.520
T6C4.000
%
G90
G05
T1
X22.098Y12.192
X30.48Y11.176
X31.0Y51.5
X31.0Y46.1
X33.6Y38.14
X33.8Y48.8
X37.084Y11.684
X37.084Y2.54
X52.6Y22.6
X56.9Y27.5
X65.9Y23.0
X68.4Y23.0
X48.696Y12.264
X55.88Y5.08
X25.7Y38.0
X28.2Y38.0
X5.794Y48.752
X42.6Y47.9
X42.6Y37.74
X13.08Y22.5
X13.08Y14.88
X15.62Y22.5
X15.62Y14.88
X18.16Y22.5
X18.16Y14.88
X20.7Y22.5
X20.7Y14.88
X23.24Y22.5
X23.24Y14.88
X25.78Y22.5
X25.78Y14.88
X28.32Y22.5
X28.32Y14.88
X30.86Y22.5
X30.86Y14.88
X33.4Y22.5
X33.4Y14.88
X35.94Y22.5
X35.94Y14.88
X38.48Y22.5
X38.48Y14.88
X41.02Y22.5
X41.02Y14.88
X43.56Y22.5
X43.56Y14.88
X46.1Y22.5
X46.1Y14.88
X37.74Y34.4
X47.9Y34.4
X43.44Y54.7
X53.6Y54.7
X52.224Y16.324
X63.0Y27.1
X21.82Y34.0
X26.7Y34.0
X11.938Y5.334
X22.098Y5.334
X55.554Y16.836
X62.738Y9.652
X9.144Y43.434
X11.644Y43.434
X20.9Y9.2
X23.4Y9.2
X63.4Y53.4
X63.4Y43.24
X59.4Y54.7
X69.56Y54.7
X10.16Y48.768
X20.32Y48.768
X29.718Y54.7
X39.878Y54.7
X11.76Y9.54
X14.3Y12.08
X14.3Y7.0
X9.144Y54.102
X11.644Y54.102
X52.6Y50.6
X52.6Y40.44
X44.886Y12.264
X52.07Y5.08
X65.9Y20.5
X65.9Y10.34
X20.2Y38.0
X22.7Y38.0
T2
X3.254Y48.752
T3
X38.608Y6.096
X41.148Y6.096
X43.688Y6.096
X46.228Y6.096
X9.144Y34.798
X11.684Y34.798
X14.224Y34.798
X30.988Y27.94
X33.528Y27.94
X36.068Y27.94
X58.928Y6.096
X61.468Y6.096
X64.008Y6.096
X27.94Y9.652
X27.94Y7.112
X27.94Y4.572
X8.89Y14.986
X8.89Y12.446
X34.29Y9.652
X34.29Y7.112
X34.29Y4.572
X9.144Y27.94
X11.684Y27.94
X14.224Y27.94
X71.8Y19.4
X71.8Y16.86
X71.8Y14.32
X71.8Y11.78
X71.8Y9.24
X71.8Y6.7
T4
X54.9Y35.1
X57.44Y35.1
X59.98Y35.1
X65.024Y68.58
X67.564Y68.58
X51.5Y60.7
X54.04Y60.7
X56.58Y60.7
X20.574Y66.802
X23.114Y66.802
X25.654Y66.802
X64.5Y60.7
X67.04Y60.7
X69.58Y60.7
X38.5Y60.7
X41.04Y60.7
X43.58Y60.7
T5
X55.118Y68.58
X60.198Y68.58
X33.02Y68.65
X38.1Y68.65
X43.18Y68.65
X48.26Y68.65
T6
X73.3Y72.9
X3.3Y72.9
X73.3Y2.9
X3.3Y2.9
T3
G00X6.222Y66.23
M15
G01X6.222Y64.23
M16
G05
G00X11.922Y68.23
M15
G01X9.922Y68.23
M16
G05
G00X11.922Y62.23
M15
G01X9.922Y62.23
M16
G05
T0
M30
