G04 #@! TF.GenerationSoftware,KiCad,Pcbnew,5.1.4-3.fc30*
G04 #@! TF.CreationDate,2019-10-04T03:53:22+02:00*
G04 #@! TF.ProjectId,AT328-aqua-controller,41543332-382d-4617-9175-612d636f6e74,rev?*
G04 #@! TF.SameCoordinates,PX1e53ac0PY62b48e0*
G04 #@! TF.FileFunction,Copper,L2,Bot*
G04 #@! TF.FilePolarity,Positive*
%FSLAX46Y46*%
G04 Gerber Fmt 4.6, Leading zero omitted, Abs format (unit mm)*
G04 Created by KiCad (PCBNEW 5.1.4-3.fc30) date 2019-10-04 03:53:22*
%MOMM*%
%LPD*%
G04 APERTURE LIST*
%ADD10O,1.700000X3.000000*%
%ADD11R,1.700000X3.000000*%
%ADD12O,3.000000X1.700000*%
%ADD13R,3.000000X1.700000*%
%ADD14C,1.600000*%
%ADD15C,1.600000*%
%ADD16O,3.000000X1.600000*%
%ADD17O,3.200000X1.700000*%
%ADD18O,1.600000X3.000000*%
%ADD19R,1.600000X3.000000*%
%ADD20C,3.000000*%
%ADD21R,3.000000X1.500000*%
%ADD22O,3.000000X1.500000*%
%ADD23R,3.500000X3.500000*%
%ADD24C,0.100000*%
%ADD25C,3.500000*%
%ADD26O,1.700000X3.200000*%
%ADD27O,2.200000X3.500000*%
%ADD28R,3.000000X2.200000*%
%ADD29R,1.800000X3.000000*%
%ADD30R,1.600000X2.600000*%
%ADD31O,1.600000X2.600000*%
%ADD32R,1.905000X4.000000*%
%ADD33O,1.905000X4.000000*%
%ADD34C,2.500000*%
%ADD35C,2.000000*%
%ADD36C,0.800000*%
%ADD37C,1.200000*%
%ADD38C,1.500000*%
%ADD39C,0.400000*%
G04 APERTURE END LIST*
D10*
X14224000Y34798000D03*
X11684000Y34798000D03*
D11*
X9144000Y34798000D03*
D10*
X36068000Y27940000D03*
X33528000Y27940000D03*
D11*
X30988000Y27940000D03*
D10*
X14224000Y27940000D03*
X11684000Y27940000D03*
D11*
X9144000Y27940000D03*
D12*
X34290000Y9652000D03*
X34290000Y7112000D03*
D13*
X34290000Y4572000D03*
D14*
X48695795Y12264205D03*
D15*
X49190770Y11769230D02*
X48200820Y12759180D01*
D14*
X55880000Y5080000D03*
D15*
X56374975Y4585025D02*
X55385025Y5574975D01*
D14*
X44885795Y12264205D03*
D15*
X45380770Y11769230D02*
X44390820Y12759180D01*
D14*
X52070000Y5080000D03*
D15*
X52564975Y4585025D02*
X51575025Y5574975D01*
D16*
X22098000Y5334000D03*
X11938000Y5334000D03*
D17*
X27940000Y9652000D03*
X27940000Y7112000D03*
D13*
X27940000Y4572000D03*
D14*
X52223693Y16323693D03*
D15*
X52718668Y16818668D02*
X51728718Y15828718D01*
D14*
X63000000Y27100000D03*
D15*
X63494975Y27594975D02*
X62505025Y26605025D01*
D18*
X23400000Y9200000D03*
D19*
X20900000Y9200000D03*
D18*
X65900000Y23000000D03*
X68400000Y23000000D03*
D20*
X21820000Y34000000D03*
X26700000Y34000000D03*
D18*
X65900000Y10340000D03*
X65900000Y20500000D03*
D21*
X14300000Y7000000D03*
D22*
X14300000Y12080000D03*
X11760000Y9540000D03*
D18*
X27900000Y60300000D03*
D19*
X25400000Y60300000D03*
X8900000Y43800000D03*
D18*
X11400000Y43800000D03*
X25700000Y38000000D03*
X28200000Y38000000D03*
X20200000Y38000000D03*
X22700000Y38000000D03*
D23*
X14400000Y60300000D03*
D24*
G36*
X9223513Y62046389D02*
G01*
X9296318Y62035589D01*
X9367714Y62017705D01*
X9437013Y61992910D01*
X9503548Y61961441D01*
X9566678Y61923602D01*
X9625795Y61879758D01*
X9680330Y61830330D01*
X9729758Y61775795D01*
X9773602Y61716678D01*
X9811441Y61653548D01*
X9842910Y61587013D01*
X9867705Y61517714D01*
X9885589Y61446318D01*
X9896389Y61373513D01*
X9900000Y61300000D01*
X9900000Y59300000D01*
X9896389Y59226487D01*
X9885589Y59153682D01*
X9867705Y59082286D01*
X9842910Y59012987D01*
X9811441Y58946452D01*
X9773602Y58883322D01*
X9729758Y58824205D01*
X9680330Y58769670D01*
X9625795Y58720242D01*
X9566678Y58676398D01*
X9503548Y58638559D01*
X9437013Y58607090D01*
X9367714Y58582295D01*
X9296318Y58564411D01*
X9223513Y58553611D01*
X9150000Y58550000D01*
X7650000Y58550000D01*
X7576487Y58553611D01*
X7503682Y58564411D01*
X7432286Y58582295D01*
X7362987Y58607090D01*
X7296452Y58638559D01*
X7233322Y58676398D01*
X7174205Y58720242D01*
X7119670Y58769670D01*
X7070242Y58824205D01*
X7026398Y58883322D01*
X6988559Y58946452D01*
X6957090Y59012987D01*
X6932295Y59082286D01*
X6914411Y59153682D01*
X6903611Y59226487D01*
X6900000Y59300000D01*
X6900000Y61300000D01*
X6903611Y61373513D01*
X6914411Y61446318D01*
X6932295Y61517714D01*
X6957090Y61587013D01*
X6988559Y61653548D01*
X7026398Y61716678D01*
X7070242Y61775795D01*
X7119670Y61830330D01*
X7174205Y61879758D01*
X7233322Y61923602D01*
X7296452Y61961441D01*
X7362987Y61992910D01*
X7432286Y62017705D01*
X7503682Y62035589D01*
X7576487Y62046389D01*
X7650000Y62050000D01*
X9150000Y62050000D01*
X9223513Y62046389D01*
X9223513Y62046389D01*
G37*
D20*
X8400000Y60300000D03*
D24*
G36*
X12360765Y57345787D02*
G01*
X12445704Y57333187D01*
X12528999Y57312323D01*
X12609848Y57283395D01*
X12687472Y57246681D01*
X12761124Y57202536D01*
X12830094Y57151384D01*
X12893718Y57093718D01*
X12951384Y57030094D01*
X13002536Y56961124D01*
X13046681Y56887472D01*
X13083395Y56809848D01*
X13112323Y56728999D01*
X13133187Y56645704D01*
X13145787Y56560765D01*
X13150000Y56475000D01*
X13150000Y54725000D01*
X13145787Y54639235D01*
X13133187Y54554296D01*
X13112323Y54471001D01*
X13083395Y54390152D01*
X13046681Y54312528D01*
X13002536Y54238876D01*
X12951384Y54169906D01*
X12893718Y54106282D01*
X12830094Y54048616D01*
X12761124Y53997464D01*
X12687472Y53953319D01*
X12609848Y53916605D01*
X12528999Y53887677D01*
X12445704Y53866813D01*
X12360765Y53854213D01*
X12275000Y53850000D01*
X10525000Y53850000D01*
X10439235Y53854213D01*
X10354296Y53866813D01*
X10271001Y53887677D01*
X10190152Y53916605D01*
X10112528Y53953319D01*
X10038876Y53997464D01*
X9969906Y54048616D01*
X9906282Y54106282D01*
X9848616Y54169906D01*
X9797464Y54238876D01*
X9753319Y54312528D01*
X9716605Y54390152D01*
X9687677Y54471001D01*
X9666813Y54554296D01*
X9654213Y54639235D01*
X9650000Y54725000D01*
X9650000Y56475000D01*
X9654213Y56560765D01*
X9666813Y56645704D01*
X9687677Y56728999D01*
X9716605Y56809848D01*
X9753319Y56887472D01*
X9797464Y56961124D01*
X9848616Y57030094D01*
X9906282Y57093718D01*
X9969906Y57151384D01*
X10038876Y57202536D01*
X10112528Y57246681D01*
X10190152Y57283395D01*
X10271001Y57312323D01*
X10354296Y57333187D01*
X10439235Y57345787D01*
X10525000Y57350000D01*
X12275000Y57350000D01*
X12360765Y57345787D01*
X12360765Y57345787D01*
G37*
D25*
X11400000Y55600000D03*
D11*
X58674000Y68580000D03*
D10*
X61214000Y68580000D03*
D11*
X64008000Y6096000D03*
D10*
X61468000Y6096000D03*
X58928000Y6096000D03*
D26*
X46228000Y6096000D03*
X43688000Y6096000D03*
X41148000Y6096000D03*
D11*
X38608000Y6096000D03*
X30000000Y68650000D03*
D26*
X32540000Y68650000D03*
X35080000Y68650000D03*
X37620000Y68650000D03*
D13*
X71800000Y19400000D03*
D12*
X71800000Y16860000D03*
X71800000Y14320000D03*
X71800000Y11780000D03*
X71800000Y9240000D03*
X71800000Y6700000D03*
D13*
X8890000Y14986000D03*
D12*
X8890000Y12446000D03*
D27*
X72384205Y64415795D03*
D28*
X65200000Y71600000D03*
D29*
X3000000Y51800000D03*
D18*
X5540000Y51800000D03*
D30*
X46100000Y22500000D03*
D31*
X13080000Y14880000D03*
X43560000Y22500000D03*
X15620000Y14880000D03*
X41020000Y22500000D03*
X18160000Y14880000D03*
X38480000Y22500000D03*
X20700000Y14880000D03*
X35940000Y22500000D03*
X23240000Y14880000D03*
X33400000Y22500000D03*
X25780000Y14880000D03*
X30860000Y22500000D03*
X28320000Y14880000D03*
X28320000Y22500000D03*
X30860000Y14880000D03*
X25780000Y22500000D03*
X33400000Y14880000D03*
X23240000Y22500000D03*
X35940000Y14880000D03*
X20700000Y22500000D03*
X38480000Y14880000D03*
X18160000Y22500000D03*
X41020000Y14880000D03*
X15620000Y22500000D03*
X43560000Y14880000D03*
X13080000Y22500000D03*
X46100000Y14880000D03*
D32*
X17700000Y69000000D03*
D33*
X20240000Y69000000D03*
X22780000Y69000000D03*
X59980000Y35100000D03*
X57440000Y35100000D03*
D32*
X54900000Y35100000D03*
X64500000Y60700000D03*
D33*
X67040000Y60700000D03*
X69580000Y60700000D03*
X56580000Y60700000D03*
X54040000Y60700000D03*
D32*
X51500000Y60700000D03*
X38500000Y60700000D03*
D33*
X41040000Y60700000D03*
X43580000Y60700000D03*
D18*
X63400000Y43240000D03*
X63400000Y53400000D03*
D16*
X38500000Y54700000D03*
X28340000Y54700000D03*
D18*
X52600000Y40440000D03*
X52600000Y50600000D03*
X42600000Y47900000D03*
X42600000Y37740000D03*
D16*
X43440000Y54700000D03*
X53600000Y54700000D03*
X59400000Y54700000D03*
X69560000Y54700000D03*
X47900000Y34400000D03*
X37740000Y34400000D03*
X53860000Y10300000D03*
X64020000Y10300000D03*
X17900000Y51800000D03*
X7740000Y51800000D03*
D34*
X33800000Y48800000D03*
X33600000Y38140000D03*
X31000000Y51500000D03*
X31000000Y46100000D03*
D35*
X37084000Y11684000D03*
X37084000Y2540000D03*
X22098000Y12192000D03*
X30480000Y11176000D03*
D34*
X52600000Y22600000D03*
X56900000Y27500000D03*
D36*
X19165998Y9200000D02*
X19300000Y9200000D01*
X19300000Y9200000D02*
X20900000Y9200000D01*
X15620000Y14880000D02*
X17400000Y10800000D01*
X17400000Y10800000D02*
X19165998Y9200000D01*
D37*
X17900000Y51800000D02*
X14200000Y51800000D01*
X14200000Y51800000D02*
X8900000Y46500000D01*
X8900000Y46500000D02*
X8900000Y43800000D01*
X18900000Y48800000D02*
X33800000Y48800000D01*
X17900000Y51800000D02*
X17900000Y49800000D01*
X17900000Y49800000D02*
X18900000Y48800000D01*
X33800000Y54645598D02*
X33800000Y48800000D01*
X67340000Y11780000D02*
X65900000Y10340000D01*
X71800000Y11780000D02*
X67340000Y11780000D01*
X6900000Y43800000D02*
X8900000Y43800000D01*
X6300000Y43200000D02*
X6900000Y43800000D01*
X33800000Y60132500D02*
X33800000Y54645598D01*
X24932500Y69000000D02*
X33800000Y60132500D01*
X22780000Y69000000D02*
X24932500Y69000000D01*
X8840000Y14936000D02*
X8890000Y14986000D01*
X6300000Y14936000D02*
X8840000Y14936000D01*
X30988000Y28666309D02*
X33528000Y31206309D01*
X30988000Y27940000D02*
X30988000Y28666309D01*
X33528000Y31206309D02*
X33528000Y35560000D01*
X33600000Y35632000D02*
X33600000Y38140000D01*
X33528000Y35560000D02*
X33600000Y35632000D01*
X30988000Y22628000D02*
X30860000Y22500000D01*
X30988000Y27940000D02*
X30988000Y22628000D01*
X6300000Y14936000D02*
X6300000Y27890000D01*
X9144000Y34798000D02*
X6350000Y34798000D01*
X6350000Y34798000D02*
X6300000Y34848000D01*
X6300000Y27890000D02*
X6300000Y34848000D01*
X6300000Y34848000D02*
X6300000Y43200000D01*
X6350000Y27940000D02*
X6300000Y27890000D01*
X9144000Y27940000D02*
X6350000Y27940000D01*
D36*
X65860000Y10300000D02*
X65900000Y10340000D01*
D37*
X64060000Y10340000D02*
X64020000Y10300000D01*
X65900000Y10340000D02*
X64060000Y10340000D01*
X64020000Y10300000D02*
X64020000Y5062000D01*
X37084000Y4572000D02*
X38608000Y6096000D01*
X34290000Y4572000D02*
X37084000Y4572000D01*
X51433605Y4443605D02*
X52070000Y5080000D01*
X40381701Y3495990D02*
X50485990Y3495990D01*
X38608000Y5269691D02*
X40381701Y3495990D01*
X50485990Y3495990D02*
X51433605Y4443605D01*
X38608000Y6096000D02*
X38608000Y5269691D01*
X52070000Y5080000D02*
X55880000Y5080000D01*
X64008000Y5369691D02*
X64008000Y6096000D01*
X62234299Y3595990D02*
X64008000Y5369691D01*
X57364010Y3595990D02*
X62234299Y3595990D01*
X55880000Y5080000D02*
X57364010Y3595990D01*
X10492412Y3533990D02*
X24963990Y3533990D01*
X6300000Y7726402D02*
X10492412Y3533990D01*
X6300000Y14936000D02*
X6300000Y7726402D01*
X27113691Y4572000D02*
X27940000Y4572000D01*
X25339990Y6345701D02*
X27113691Y4572000D01*
X25339990Y10418299D02*
X25339990Y6345701D01*
X25780000Y10858309D02*
X25339990Y10418299D01*
X25780000Y14880000D02*
X25780000Y10858309D01*
X26002000Y4572000D02*
X34290000Y4572000D01*
X24963990Y3533990D02*
X26002000Y4572000D01*
D36*
X38480000Y22500000D02*
X38480000Y22000000D01*
X38480000Y22000000D02*
X40372264Y20107736D01*
X40372264Y20107736D02*
X51692358Y20107736D01*
X51692358Y20107736D02*
X54315634Y17484460D01*
X54315634Y17484460D02*
X54315634Y13625634D01*
X53860000Y13170000D02*
X53860000Y10300000D01*
X54315634Y13625634D02*
X53860000Y13170000D01*
X61468000Y5700000D02*
X61468000Y5050000D01*
X56868000Y10300000D02*
X61468000Y5700000D01*
X53860000Y10300000D02*
X56868000Y10300000D01*
X63000000Y27100000D02*
X63000000Y29600000D01*
X54900000Y34052500D02*
X54900000Y35100000D01*
X56652510Y32299990D02*
X54900000Y34052500D01*
X60300010Y32299990D02*
X56652510Y32299990D01*
X63000000Y29600000D02*
X60300010Y32299990D01*
X54200000Y34400000D02*
X54900000Y35100000D01*
X47900000Y34400000D02*
X54200000Y34400000D01*
X13080000Y15380000D02*
X13080000Y14880000D01*
D37*
X13080000Y14880000D02*
X13080000Y15385598D01*
D36*
X13080000Y15102755D02*
X15377245Y17400000D01*
X13080000Y14880000D02*
X13080000Y15102755D01*
X27300000Y17400000D02*
X28773232Y18873232D01*
X15377245Y17400000D02*
X27300000Y17400000D01*
X51010178Y18810178D02*
X28773232Y18873232D01*
X52223693Y17596663D02*
X51010178Y18810178D01*
X52223693Y16323693D02*
X52223693Y17596663D01*
X64500000Y57900000D02*
X64500000Y60700000D01*
X64500000Y57500000D02*
X64500000Y57900000D01*
X61700000Y54700000D02*
X64500000Y57500000D01*
X59400000Y54700000D02*
X61700000Y54700000D01*
X62100000Y54700000D02*
X63400000Y53400000D01*
X59400000Y54700000D02*
X62100000Y54700000D01*
X51500000Y56800000D02*
X53600000Y54700000D01*
X51500000Y60700000D02*
X51500000Y56800000D01*
X52600000Y53700000D02*
X53600000Y54700000D01*
X52600000Y50600000D02*
X52600000Y53700000D01*
X38500000Y49900000D02*
X38500000Y53100000D01*
X38500000Y53100000D02*
X38500000Y54700000D01*
X38500000Y54700000D02*
X38500000Y60700000D01*
X40500000Y47900000D02*
X38500000Y49900000D01*
X42600000Y47900000D02*
X40500000Y47900000D01*
X20700000Y30354000D02*
X20700000Y22500000D01*
X18034000Y33020000D02*
X20700000Y30354000D01*
X18034000Y39624000D02*
X18034000Y33020000D01*
X52600000Y41126000D02*
X51238010Y42487990D01*
X52600000Y40440000D02*
X52600000Y41126000D01*
X51238010Y42487990D02*
X20897990Y42487990D01*
X20897990Y42487990D02*
X18034000Y39624000D01*
X18160000Y24600000D02*
X18160000Y22500000D01*
X16833990Y40121060D02*
X16833990Y32004000D01*
X16833990Y32004000D02*
X18274030Y30480000D01*
X18274030Y24714030D02*
X18160000Y24600000D01*
X18274030Y30480000D02*
X18274030Y24714030D01*
X61800000Y43240000D02*
X61352000Y43688000D01*
X63400000Y43240000D02*
X61800000Y43240000D01*
X20400930Y43688000D02*
X16833990Y40121060D01*
X61352000Y43688000D02*
X20400930Y43688000D01*
X42600000Y37740000D02*
X42600000Y34940000D01*
X42600000Y31260000D02*
X42600000Y34940000D01*
X35940000Y24600000D02*
X42600000Y31260000D01*
X35940000Y22500000D02*
X35940000Y24600000D01*
D38*
X72384205Y64415795D02*
X72384205Y42412205D01*
X57440000Y36580898D02*
X57440000Y35100000D01*
X59109103Y38250001D02*
X57440000Y36580898D01*
X68222001Y38250001D02*
X59109103Y38250001D01*
X72384205Y42412205D02*
X68222001Y38250001D01*
X68220000Y68580000D02*
X72384205Y64415795D01*
X61214000Y68580000D02*
X68220000Y68580000D01*
X17700000Y63600000D02*
X14400000Y60300000D01*
X17700000Y69000000D02*
X17700000Y63600000D01*
X17700000Y71800000D02*
X17700000Y69000000D01*
X18050010Y72150010D02*
X17700000Y71800000D01*
X27149990Y72150010D02*
X18050010Y72150010D01*
X30000000Y69300000D02*
X27149990Y72150010D01*
X30000000Y68650000D02*
X30000000Y69300000D01*
X30000000Y69688441D02*
X31711569Y71400010D01*
X30000000Y68650000D02*
X30000000Y69688441D01*
X31711569Y71400010D02*
X56249990Y71400010D01*
X56249990Y71400010D02*
X58674000Y68580000D01*
X58674000Y68580000D02*
X58674000Y71326000D01*
X62200000Y71600000D02*
X65200000Y71600000D01*
X58948000Y71600000D02*
X62200000Y71600000D01*
X58674000Y71326000D02*
X58948000Y71600000D01*
D37*
X20400000Y60300000D02*
X25400000Y60300000D01*
X17700000Y63600000D02*
X17700000Y63000000D01*
X17700000Y63000000D02*
X20400000Y60300000D01*
D36*
X71600000Y19200000D02*
X71800000Y19400000D01*
X71800000Y19600000D02*
X68400000Y23000000D01*
X71800000Y19400000D02*
X71800000Y19600000D01*
X33400000Y27812000D02*
X33528000Y27940000D01*
X33400000Y22500000D02*
X33400000Y27812000D01*
X25700000Y35000000D02*
X26700000Y34000000D01*
X25700000Y38000000D02*
X25700000Y35000000D01*
X25780000Y33080000D02*
X26700000Y34000000D01*
X25780000Y22500000D02*
X25780000Y33080000D01*
X22700000Y34880000D02*
X21820000Y34000000D01*
X22700000Y38000000D02*
X22700000Y34880000D01*
X23240000Y32580000D02*
X21820000Y34000000D01*
X23240000Y22500000D02*
X23240000Y32580000D01*
X15620000Y24600000D02*
X15620000Y22500000D01*
X17074020Y29770516D02*
X17074020Y26054020D01*
X14346546Y32497990D02*
X17074020Y29770516D01*
X17074020Y26054020D02*
X15620000Y24600000D01*
X11684000Y34148000D02*
X13334010Y32497990D01*
X13334010Y32497990D02*
X14346546Y32497990D01*
X11684000Y34798000D02*
X11684000Y34148000D01*
X43560000Y13590000D02*
X44885795Y12264205D01*
X43560000Y14880000D02*
X43560000Y13590000D01*
X41148000Y8526410D02*
X41148000Y6096000D01*
X44885795Y12264205D02*
X41148000Y8526410D01*
X46100000Y14860000D02*
X48695795Y12264205D01*
X46100000Y14880000D02*
X46100000Y14860000D01*
X44577990Y6985990D02*
X43688000Y6096000D01*
X44577990Y8146400D02*
X44577990Y6985990D01*
X48695795Y12264205D02*
X44577990Y8146400D01*
X63739825Y16860000D02*
X71800000Y16860000D01*
X43500000Y27100000D02*
X53399912Y27199912D01*
X53399912Y27199912D02*
X63739825Y16860000D01*
X41020000Y24620000D02*
X41020000Y22500000D01*
X43500000Y27100000D02*
X41020000Y24620000D01*
X53751377Y25151377D02*
X45100000Y25100000D01*
X71800000Y14320000D02*
X64582755Y14320000D01*
X64582755Y14320000D02*
X53751377Y25151377D01*
X43560000Y24600000D02*
X43560000Y22500000D01*
X44060000Y25100000D02*
X43560000Y24600000D01*
X45100000Y25100000D02*
X44060000Y25100000D01*
D38*
X40372501Y63850001D02*
X34239999Y63850001D01*
X41040000Y63182502D02*
X40372501Y63850001D01*
X32540000Y65550000D02*
X32540000Y68650000D01*
X34239999Y63850001D02*
X32540000Y65550000D01*
X41040000Y60700000D02*
X41040000Y63182502D01*
X35149989Y65750011D02*
X35080000Y65820000D01*
X51472491Y65750011D02*
X35149989Y65750011D01*
X54040000Y63182502D02*
X51472491Y65750011D01*
X35080000Y65820000D02*
X35080000Y68650000D01*
X54040000Y60700000D02*
X54040000Y63182502D01*
X65590001Y65649999D02*
X67040000Y64200000D01*
X67040000Y64200000D02*
X67040000Y60700000D01*
X53929998Y68650000D02*
X56929999Y65649999D01*
X56929999Y65649999D02*
X65590001Y65649999D01*
X37620000Y68650000D02*
X53929998Y68650000D01*
D36*
X12000000Y7000000D02*
X14300000Y7000000D01*
X8840000Y9517955D02*
X11357955Y7000000D01*
X11357955Y7000000D02*
X12000000Y7000000D01*
X8840000Y12600000D02*
X8840000Y9517955D01*
X11938000Y5334000D02*
X11357955Y7000000D01*
X20683787Y12192000D02*
X22098000Y12192000D01*
X18748000Y12192000D02*
X20683787Y12192000D01*
X18160000Y12780000D02*
X18748000Y12192000D01*
X18160000Y14880000D02*
X18160000Y12780000D01*
X28690000Y7112000D02*
X27940000Y7112000D01*
X30480000Y8902000D02*
X28690000Y7112000D01*
X30480000Y11176000D02*
X30480000Y8902000D01*
X35352000Y7112000D02*
X34290000Y7112000D01*
X41020000Y14880000D02*
X41020000Y12780000D01*
X41020000Y12780000D02*
X35352000Y7112000D01*
X15874010Y26606544D02*
X13651466Y24384000D01*
X11684000Y28383466D02*
X13540544Y30240010D01*
X11684000Y27940000D02*
X11684000Y28383466D01*
X14907456Y30240010D02*
X15874010Y29273456D01*
X13540544Y30240010D02*
X14907456Y30240010D01*
X15874010Y29273456D02*
X15874010Y26606544D01*
X13651466Y23071466D02*
X13080000Y22500000D01*
X13651466Y24384000D02*
X13651466Y23071466D01*
X56900000Y26934315D02*
X56900000Y27500000D01*
X56900000Y26647292D02*
X56900000Y26934315D01*
X52500000Y22500000D02*
X52600000Y22600000D01*
X46100000Y22500000D02*
X52500000Y22500000D01*
D38*
X65900000Y23000000D02*
X65900000Y20500000D01*
D36*
X61796895Y20500000D02*
X65900000Y20500000D01*
X56900000Y27500000D02*
X56900000Y25396895D01*
X56900000Y25396895D02*
X61796895Y20500000D01*
X16819998Y9540000D02*
X19459999Y6899999D01*
X23400000Y6900000D02*
X23400000Y9200000D01*
X19459999Y6899999D02*
X23400000Y6900000D01*
X11760000Y9540000D02*
X16819998Y9540000D01*
X22826000Y6900000D02*
X23400000Y6900000D01*
X22098000Y5334000D02*
X22826000Y6900000D01*
D37*
X5540000Y51800000D02*
X7740000Y51800000D01*
D39*
G36*
X71573751Y75003441D02*
G01*
X71196559Y74626249D01*
X70900201Y74182719D01*
X70696067Y73689895D01*
X70592000Y73166715D01*
X70592000Y72633285D01*
X70696067Y72110105D01*
X70900201Y71617281D01*
X71196559Y71173751D01*
X71573751Y70796559D01*
X72017281Y70500201D01*
X72510105Y70296067D01*
X73033285Y70192000D01*
X73566715Y70192000D01*
X74089895Y70296067D01*
X74582719Y70500201D01*
X75026249Y70796559D01*
X75403441Y71173751D01*
X75699799Y71617281D01*
X75817000Y71900230D01*
X75817001Y3899768D01*
X75699799Y4182719D01*
X75403441Y4626249D01*
X75026249Y5003441D01*
X74582719Y5299799D01*
X74089895Y5503933D01*
X73566715Y5608000D01*
X73033285Y5608000D01*
X72510105Y5503933D01*
X72017281Y5299799D01*
X71573751Y5003441D01*
X71196559Y4626249D01*
X70900201Y4182719D01*
X70696067Y3689895D01*
X70592000Y3166715D01*
X70592000Y2633285D01*
X70696067Y2110105D01*
X70900201Y1617281D01*
X71196559Y1173751D01*
X71573751Y796559D01*
X71594043Y783000D01*
X5005957Y783000D01*
X5026249Y796559D01*
X5403441Y1173751D01*
X5699799Y1617281D01*
X5903933Y2110105D01*
X6008000Y2633285D01*
X6008000Y3166715D01*
X5903933Y3689895D01*
X5699799Y4182719D01*
X5403441Y4626249D01*
X5026249Y5003441D01*
X4582719Y5299799D01*
X4089895Y5503933D01*
X3566715Y5608000D01*
X3033285Y5608000D01*
X2510105Y5503933D01*
X2017281Y5299799D01*
X1573751Y5003441D01*
X1196559Y4626249D01*
X900201Y4182719D01*
X783000Y3899770D01*
X783000Y14936000D01*
X4985672Y14936000D01*
X4992000Y14871751D01*
X4992001Y7790655D01*
X4985673Y7726402D01*
X5010926Y7469990D01*
X5085719Y7223431D01*
X5207176Y6996201D01*
X5329673Y6846938D01*
X5329678Y6846933D01*
X5370631Y6797032D01*
X5420532Y6756079D01*
X9522085Y2654526D01*
X9563042Y2604620D01*
X9762210Y2441166D01*
X9989440Y2319709D01*
X10235999Y2244916D01*
X10428162Y2225990D01*
X10428169Y2225990D01*
X10492412Y2219663D01*
X10556655Y2225990D01*
X24899747Y2225990D01*
X24963990Y2219663D01*
X25028233Y2225990D01*
X25028240Y2225990D01*
X25220403Y2244916D01*
X25466962Y2319709D01*
X25694192Y2441166D01*
X25893360Y2604620D01*
X25934317Y2654526D01*
X26303782Y3023991D01*
X26440000Y3010575D01*
X29440000Y3010575D01*
X29578792Y3024245D01*
X29712251Y3064729D01*
X29835247Y3130472D01*
X29943053Y3218947D01*
X29980027Y3264000D01*
X32249973Y3264000D01*
X32286947Y3218947D01*
X32394753Y3130472D01*
X32517749Y3064729D01*
X32651208Y3024245D01*
X32790000Y3010575D01*
X35790000Y3010575D01*
X35928792Y3024245D01*
X36062251Y3064729D01*
X36185247Y3130472D01*
X36293053Y3218947D01*
X36330027Y3264000D01*
X37019757Y3264000D01*
X37084000Y3257673D01*
X37148243Y3264000D01*
X37148250Y3264000D01*
X37340413Y3282926D01*
X37586972Y3357719D01*
X37814202Y3479176D01*
X38013370Y3642630D01*
X38054327Y3692536D01*
X38194845Y3833054D01*
X39411378Y2616521D01*
X39452331Y2566620D01*
X39502232Y2525667D01*
X39502236Y2525663D01*
X39529649Y2503166D01*
X39651499Y2403166D01*
X39878729Y2281709D01*
X40125288Y2206916D01*
X40317451Y2187990D01*
X40317457Y2187990D01*
X40381700Y2181663D01*
X40445943Y2187990D01*
X50421747Y2187990D01*
X50485990Y2181663D01*
X50550233Y2187990D01*
X50550240Y2187990D01*
X50742403Y2206916D01*
X50988962Y2281709D01*
X51216192Y2403166D01*
X51415360Y2566620D01*
X51456317Y2616526D01*
X52015609Y3175818D01*
X52269355Y3098845D01*
X52564975Y3069729D01*
X52860595Y3098845D01*
X53144853Y3185074D01*
X53406828Y3325102D01*
X53636451Y3513549D01*
X53824898Y3743172D01*
X53840307Y3772000D01*
X55055367Y3772000D01*
X55361040Y3466327D01*
X55533122Y3325102D01*
X55795096Y3185074D01*
X55981757Y3128451D01*
X56393687Y2716521D01*
X56434640Y2666620D01*
X56484541Y2625667D01*
X56484545Y2625663D01*
X56633808Y2503166D01*
X56861038Y2381709D01*
X57107597Y2306916D01*
X57299760Y2287990D01*
X57299769Y2287990D01*
X57364009Y2281663D01*
X57428249Y2287990D01*
X62170056Y2287990D01*
X62234299Y2281663D01*
X62298542Y2287990D01*
X62298549Y2287990D01*
X62490712Y2306916D01*
X62737271Y2381709D01*
X62964501Y2503166D01*
X63163669Y2666620D01*
X63204626Y2716526D01*
X64259346Y3771245D01*
X64276413Y3772926D01*
X64522972Y3847719D01*
X64591925Y3884575D01*
X64858000Y3884575D01*
X64996792Y3898245D01*
X65130251Y3938729D01*
X65253247Y4004472D01*
X65361053Y4092947D01*
X65449528Y4200753D01*
X65515271Y4323749D01*
X65555755Y4457208D01*
X65569425Y4596000D01*
X65569425Y7596000D01*
X65555755Y7734792D01*
X65515271Y7868251D01*
X65449528Y7991247D01*
X65361053Y8099053D01*
X65328000Y8126179D01*
X65328000Y8237659D01*
X65604380Y8153820D01*
X65900000Y8124704D01*
X66195619Y8153820D01*
X66479878Y8240049D01*
X66741852Y8380077D01*
X66971476Y8568524D01*
X67159923Y8798147D01*
X67299951Y9060121D01*
X67386180Y9344380D01*
X67408000Y9565922D01*
X67408000Y9998209D01*
X67881791Y10472000D01*
X70195307Y10472000D01*
X70042997Y10347003D01*
X69848303Y10109766D01*
X69703631Y9839105D01*
X69614543Y9545421D01*
X69584462Y9240000D01*
X69614543Y8934579D01*
X69703631Y8640895D01*
X69848303Y8370234D01*
X70042997Y8132997D01*
X70280234Y7938303D01*
X70550895Y7793631D01*
X70844579Y7704543D01*
X71073465Y7682000D01*
X72526535Y7682000D01*
X72755421Y7704543D01*
X73049105Y7793631D01*
X73319766Y7938303D01*
X73557003Y8132997D01*
X73751697Y8370234D01*
X73896369Y8640895D01*
X73985457Y8934579D01*
X74015538Y9240000D01*
X73985457Y9545421D01*
X73896369Y9839105D01*
X73751697Y10109766D01*
X73557003Y10347003D01*
X73358389Y10510000D01*
X73557003Y10672997D01*
X73751697Y10910234D01*
X73896369Y11180895D01*
X73985457Y11474579D01*
X74015538Y11780000D01*
X73985457Y12085421D01*
X73896369Y12379105D01*
X73751697Y12649766D01*
X73557003Y12887003D01*
X73358389Y13050000D01*
X73557003Y13212997D01*
X73751697Y13450234D01*
X73896369Y13720895D01*
X73985457Y14014579D01*
X74015538Y14320000D01*
X73985457Y14625421D01*
X73896369Y14919105D01*
X73751697Y15189766D01*
X73557003Y15427003D01*
X73358389Y15590000D01*
X73557003Y15752997D01*
X73751697Y15990234D01*
X73896369Y16260895D01*
X73985457Y16554579D01*
X74015538Y16860000D01*
X73985457Y17165421D01*
X73896369Y17459105D01*
X73751697Y17729766D01*
X73604021Y17909711D01*
X73695247Y17958472D01*
X73803053Y18046947D01*
X73891528Y18154753D01*
X73957271Y18277749D01*
X73997755Y18411208D01*
X74011425Y18550000D01*
X74011425Y20250000D01*
X73997755Y20388792D01*
X73957271Y20522251D01*
X73891528Y20645247D01*
X73803053Y20753053D01*
X73695247Y20841528D01*
X73572251Y20907271D01*
X73438792Y20947755D01*
X73300000Y20961425D01*
X72005523Y20961425D01*
X69908000Y23058947D01*
X69908000Y23774078D01*
X69886180Y23995620D01*
X69799951Y24279879D01*
X69659923Y24541853D01*
X69471476Y24771476D01*
X69241853Y24959923D01*
X68979879Y25099951D01*
X68695620Y25186180D01*
X68400000Y25215296D01*
X68104381Y25186180D01*
X67820122Y25099951D01*
X67558148Y24959923D01*
X67328525Y24771476D01*
X67150001Y24553944D01*
X66971476Y24771476D01*
X66741853Y24959923D01*
X66479879Y25099951D01*
X66195620Y25186180D01*
X65900000Y25215296D01*
X65604381Y25186180D01*
X65320122Y25099951D01*
X65058148Y24959923D01*
X64828525Y24771476D01*
X64640078Y24541853D01*
X64500050Y24279879D01*
X64413820Y23995620D01*
X64392000Y23774078D01*
X64392000Y22225923D01*
X64413820Y22004381D01*
X64442000Y21911483D01*
X64442001Y21608000D01*
X62255844Y21608000D01*
X58008000Y25855842D01*
X58008000Y25885475D01*
X58148152Y25979122D01*
X58420878Y26251848D01*
X58635157Y26572539D01*
X58782755Y26928872D01*
X58858000Y27307154D01*
X58858000Y27692846D01*
X58782755Y28071128D01*
X58635157Y28427461D01*
X58420878Y28748152D01*
X58148152Y29020878D01*
X57827461Y29235157D01*
X57471128Y29382755D01*
X57092846Y29458000D01*
X56707154Y29458000D01*
X56328872Y29382755D01*
X55972539Y29235157D01*
X55651848Y29020878D01*
X55379122Y28748152D01*
X55164843Y28427461D01*
X55017245Y28071128D01*
X54942000Y27692846D01*
X54942000Y27307154D01*
X54962456Y27204315D01*
X54217911Y27948860D01*
X54179191Y27995081D01*
X54098486Y28059962D01*
X54018462Y28125637D01*
X54013488Y28128296D01*
X54009088Y28131833D01*
X53917269Y28179726D01*
X53825976Y28228523D01*
X53820575Y28230161D01*
X53815574Y28232770D01*
X53716244Y28261810D01*
X53617118Y28291880D01*
X53611499Y28292433D01*
X53606086Y28294016D01*
X53502975Y28303122D01*
X53399912Y28313272D01*
X53339904Y28307362D01*
X43548855Y28208549D01*
X43500000Y28213361D01*
X43439990Y28207451D01*
X43434391Y28207394D01*
X43385872Y28202120D01*
X43282794Y28191968D01*
X43277392Y28190329D01*
X43271786Y28189720D01*
X43173093Y28158690D01*
X43073935Y28128611D01*
X43068954Y28125948D01*
X43063577Y28124258D01*
X42972852Y28074581D01*
X42881450Y28025726D01*
X42877085Y28022143D01*
X42872140Y28019436D01*
X42792846Y27953011D01*
X42755014Y27921963D01*
X42751044Y27917993D01*
X42704831Y27879280D01*
X42674079Y27841028D01*
X40275022Y25441969D01*
X40232735Y25407265D01*
X40094274Y25238550D01*
X40030291Y25118845D01*
X39991389Y25046064D01*
X39939896Y24876314D01*
X39928032Y24837205D01*
X39912000Y24674430D01*
X39912000Y24674423D01*
X39906640Y24620000D01*
X39912000Y24565576D01*
X39912000Y24026971D01*
X39760077Y23841853D01*
X39750000Y23823000D01*
X39739923Y23841853D01*
X39551476Y24071476D01*
X39321853Y24259923D01*
X39059879Y24399951D01*
X38775620Y24486180D01*
X38480000Y24515296D01*
X38184381Y24486180D01*
X37900122Y24399951D01*
X37638148Y24259923D01*
X37408525Y24071476D01*
X37220077Y23841853D01*
X37210000Y23823000D01*
X37199923Y23841853D01*
X37048000Y24026971D01*
X37048000Y24141053D01*
X43344989Y30438040D01*
X43387265Y30472735D01*
X43525726Y30641450D01*
X43628611Y30833935D01*
X43691968Y31042794D01*
X43708000Y31205569D01*
X43708000Y31205578D01*
X43713360Y31259999D01*
X43708000Y31314420D01*
X43708000Y36013029D01*
X43859923Y36198147D01*
X43999951Y36460121D01*
X44086180Y36744380D01*
X44108000Y36965922D01*
X44108000Y38514078D01*
X44086180Y38735620D01*
X43999951Y39019879D01*
X43859923Y39281853D01*
X43671476Y39511476D01*
X43441853Y39699923D01*
X43179879Y39839951D01*
X42895620Y39926180D01*
X42600000Y39955296D01*
X42304381Y39926180D01*
X42020122Y39839951D01*
X41758148Y39699923D01*
X41528525Y39511476D01*
X41340078Y39281853D01*
X41200050Y39019879D01*
X41113820Y38735620D01*
X41092000Y38514078D01*
X41092000Y36965923D01*
X41113820Y36744381D01*
X41200049Y36460122D01*
X41340077Y36198148D01*
X41492001Y36013028D01*
X41492001Y34994431D01*
X41492000Y31718949D01*
X35195018Y25421965D01*
X35152736Y25387265D01*
X35053836Y25266755D01*
X35014275Y25218550D01*
X34911389Y25026064D01*
X34848032Y24817206D01*
X34826640Y24600000D01*
X34832001Y24545567D01*
X34832001Y24026971D01*
X34680077Y23841853D01*
X34670000Y23823000D01*
X34659923Y23841853D01*
X34508000Y24026971D01*
X34508000Y26078769D01*
X34635003Y26182997D01*
X34829697Y26420234D01*
X34974369Y26690895D01*
X35063457Y26984579D01*
X35086000Y27213465D01*
X35086000Y28666535D01*
X35063457Y28895421D01*
X34974369Y29189105D01*
X34829697Y29459766D01*
X34635003Y29697003D01*
X34397765Y29891697D01*
X34179725Y30008243D01*
X34407465Y30235983D01*
X34457370Y30276939D01*
X34620824Y30476107D01*
X34742281Y30703337D01*
X34817074Y30949896D01*
X34836000Y31142059D01*
X34836000Y31142068D01*
X34842327Y31206308D01*
X34836000Y31270548D01*
X34836000Y35200626D01*
X34889074Y35375587D01*
X34908000Y35567750D01*
X34908000Y35567759D01*
X34914327Y35631999D01*
X34908000Y35696239D01*
X34908000Y36678970D01*
X35120878Y36891848D01*
X35335157Y37212539D01*
X35482755Y37568872D01*
X35558000Y37947154D01*
X35558000Y38332846D01*
X35482755Y38711128D01*
X35335157Y39067461D01*
X35120878Y39388152D01*
X34848152Y39660878D01*
X34527461Y39875157D01*
X34171128Y40022755D01*
X33792846Y40098000D01*
X33407154Y40098000D01*
X33028872Y40022755D01*
X32672539Y39875157D01*
X32351848Y39660878D01*
X32079122Y39388152D01*
X31864843Y39067461D01*
X31717245Y38711128D01*
X31642000Y38332846D01*
X31642000Y37947154D01*
X31717245Y37568872D01*
X31864843Y37212539D01*
X32079122Y36891848D01*
X32292000Y36678970D01*
X32292000Y35991374D01*
X32238926Y35816412D01*
X32213673Y35560000D01*
X32220001Y35495748D01*
X32220000Y31748100D01*
X30623325Y30151425D01*
X30138000Y30151425D01*
X29999208Y30137755D01*
X29865749Y30097271D01*
X29742753Y30031528D01*
X29634947Y29943053D01*
X29546472Y29835247D01*
X29480729Y29712251D01*
X29440245Y29578792D01*
X29426575Y29440000D01*
X29426575Y26440000D01*
X29440245Y26301208D01*
X29480729Y26167749D01*
X29546472Y26044753D01*
X29634947Y25936947D01*
X29680000Y25899972D01*
X29680001Y23939240D01*
X29600077Y23841853D01*
X29460049Y23579879D01*
X29373820Y23295620D01*
X29352000Y23074078D01*
X29352000Y21925923D01*
X29373820Y21704381D01*
X29460049Y21420122D01*
X29600077Y21158148D01*
X29788524Y20928524D01*
X30018147Y20740077D01*
X30280121Y20600049D01*
X30564380Y20513820D01*
X30860000Y20484704D01*
X31155619Y20513820D01*
X31439878Y20600049D01*
X31701852Y20740077D01*
X31931476Y20928524D01*
X32119923Y21158147D01*
X32130000Y21177000D01*
X32140077Y21158148D01*
X32328524Y20928524D01*
X32558147Y20740077D01*
X32820121Y20600049D01*
X33104380Y20513820D01*
X33400000Y20484704D01*
X33695619Y20513820D01*
X33979878Y20600049D01*
X34241852Y20740077D01*
X34471476Y20928524D01*
X34659923Y21158147D01*
X34670000Y21177000D01*
X34680077Y21158148D01*
X34868524Y20928524D01*
X35098147Y20740077D01*
X35360121Y20600049D01*
X35644380Y20513820D01*
X35940000Y20484704D01*
X36235619Y20513820D01*
X36519878Y20600049D01*
X36781852Y20740077D01*
X37011476Y20928524D01*
X37199923Y21158147D01*
X37210000Y21177000D01*
X37220077Y21158148D01*
X37408524Y20928524D01*
X37638147Y20740077D01*
X37900121Y20600049D01*
X38184380Y20513820D01*
X38422705Y20490347D01*
X38960703Y19952349D01*
X28829239Y19981077D01*
X28773232Y19986593D01*
X28665903Y19976022D01*
X28559124Y19965811D01*
X28557608Y19965356D01*
X28556025Y19965200D01*
X28452737Y19933868D01*
X28350086Y19903046D01*
X28348690Y19902305D01*
X28347167Y19901843D01*
X28252062Y19851009D01*
X28157310Y19800708D01*
X28156083Y19799707D01*
X28154682Y19798958D01*
X28071340Y19730561D01*
X27988203Y19662726D01*
X27952388Y19619337D01*
X26841053Y18508000D01*
X15431668Y18508000D01*
X15377244Y18513360D01*
X15322821Y18508000D01*
X15322814Y18508000D01*
X15181298Y18494062D01*
X15160038Y18491968D01*
X14951180Y18428611D01*
X14758695Y18325726D01*
X14589980Y18187265D01*
X14555282Y18144985D01*
X13285367Y16875069D01*
X13080000Y16895296D01*
X12784381Y16866180D01*
X12500122Y16779951D01*
X12238148Y16639923D01*
X12008525Y16451476D01*
X11820077Y16221853D01*
X11680049Y15959879D01*
X11593820Y15675620D01*
X11572000Y15454078D01*
X11572000Y14305923D01*
X11593820Y14084381D01*
X11680049Y13800122D01*
X11820077Y13538148D01*
X12008524Y13308524D01*
X12238147Y13120077D01*
X12500121Y12980049D01*
X12784380Y12893820D01*
X13080000Y12864704D01*
X13375619Y12893820D01*
X13659878Y12980049D01*
X13921852Y13120077D01*
X14151476Y13308524D01*
X14339923Y13538147D01*
X14350000Y13557000D01*
X14360077Y13538148D01*
X14548524Y13308524D01*
X14778147Y13120077D01*
X15040121Y12980049D01*
X15270539Y12910153D01*
X16257457Y10648000D01*
X13458156Y10648000D01*
X13323940Y10758148D01*
X13070652Y10893533D01*
X12795818Y10976903D01*
X12581619Y10998000D01*
X10938381Y10998000D01*
X10724182Y10976903D01*
X10449348Y10893533D01*
X10196060Y10758148D01*
X9974050Y10575950D01*
X9948000Y10544208D01*
X9948000Y10941660D01*
X10139105Y10999631D01*
X10409766Y11144303D01*
X10647003Y11338997D01*
X10841697Y11576234D01*
X10986369Y11846895D01*
X11075457Y12140579D01*
X11105538Y12446000D01*
X11075457Y12751421D01*
X10986369Y13045105D01*
X10841697Y13315766D01*
X10694021Y13495711D01*
X10785247Y13544472D01*
X10893053Y13632947D01*
X10981528Y13740753D01*
X11047271Y13863749D01*
X11087755Y13997208D01*
X11101425Y14136000D01*
X11101425Y15836000D01*
X11087755Y15974792D01*
X11047271Y16108251D01*
X10981528Y16231247D01*
X10893053Y16339053D01*
X10785247Y16427528D01*
X10662251Y16493271D01*
X10528792Y16533755D01*
X10390000Y16547425D01*
X7608000Y16547425D01*
X7608000Y26262457D01*
X7636729Y26167749D01*
X7702472Y26044753D01*
X7790947Y25936947D01*
X7898753Y25848472D01*
X8021749Y25782729D01*
X8155208Y25742245D01*
X8294000Y25728575D01*
X9994000Y25728575D01*
X10132792Y25742245D01*
X10266251Y25782729D01*
X10389247Y25848472D01*
X10497053Y25936947D01*
X10585528Y26044753D01*
X10634290Y26135979D01*
X10814235Y25988303D01*
X11084896Y25843631D01*
X11378580Y25754543D01*
X11684000Y25724462D01*
X11989421Y25754543D01*
X12283105Y25843631D01*
X12553766Y25988303D01*
X12791003Y26182997D01*
X12985697Y26420234D01*
X13130369Y26690895D01*
X13219457Y26984579D01*
X13242000Y27213465D01*
X13242000Y28374518D01*
X13999493Y29132010D01*
X14448508Y29132010D01*
X14766010Y28814508D01*
X14766011Y27065493D01*
X12906488Y25205969D01*
X12864201Y25171265D01*
X12725740Y25002550D01*
X12661730Y24882794D01*
X12622855Y24810064D01*
X12562054Y24609630D01*
X12559498Y24601205D01*
X12543466Y24438430D01*
X12543466Y24438423D01*
X12540895Y24412319D01*
X12500122Y24399951D01*
X12238148Y24259923D01*
X12008525Y24071476D01*
X11820077Y23841853D01*
X11680049Y23579879D01*
X11593820Y23295620D01*
X11572000Y23074078D01*
X11572000Y21925923D01*
X11593820Y21704381D01*
X11680049Y21420122D01*
X11820077Y21158148D01*
X12008524Y20928524D01*
X12238147Y20740077D01*
X12500121Y20600049D01*
X12784380Y20513820D01*
X13080000Y20484704D01*
X13375619Y20513820D01*
X13659878Y20600049D01*
X13921852Y20740077D01*
X14151476Y20928524D01*
X14339923Y21158147D01*
X14350000Y21177000D01*
X14360077Y21158148D01*
X14548524Y20928524D01*
X14778147Y20740077D01*
X15040121Y20600049D01*
X15324380Y20513820D01*
X15620000Y20484704D01*
X15915619Y20513820D01*
X16199878Y20600049D01*
X16461852Y20740077D01*
X16691476Y20928524D01*
X16879923Y21158147D01*
X16890000Y21177000D01*
X16900077Y21158148D01*
X17088524Y20928524D01*
X17318147Y20740077D01*
X17580121Y20600049D01*
X17864380Y20513820D01*
X18160000Y20484704D01*
X18455619Y20513820D01*
X18739878Y20600049D01*
X19001852Y20740077D01*
X19231476Y20928524D01*
X19419923Y21158147D01*
X19430000Y21177000D01*
X19440077Y21158148D01*
X19628524Y20928524D01*
X19858147Y20740077D01*
X20120121Y20600049D01*
X20404380Y20513820D01*
X20700000Y20484704D01*
X20995619Y20513820D01*
X21279878Y20600049D01*
X21541852Y20740077D01*
X21771476Y20928524D01*
X21959923Y21158147D01*
X21970000Y21177000D01*
X21980077Y21158148D01*
X22168524Y20928524D01*
X22398147Y20740077D01*
X22660121Y20600049D01*
X22944380Y20513820D01*
X23240000Y20484704D01*
X23535619Y20513820D01*
X23819878Y20600049D01*
X24081852Y20740077D01*
X24311476Y20928524D01*
X24499923Y21158147D01*
X24510000Y21177000D01*
X24520077Y21158148D01*
X24708524Y20928524D01*
X24938147Y20740077D01*
X25200121Y20600049D01*
X25484380Y20513820D01*
X25780000Y20484704D01*
X26075619Y20513820D01*
X26359878Y20600049D01*
X26621852Y20740077D01*
X26851476Y20928524D01*
X27039923Y21158147D01*
X27179951Y21420121D01*
X27266180Y21704380D01*
X27288000Y21925922D01*
X27288000Y23074078D01*
X27266180Y23295620D01*
X27179951Y23579879D01*
X27039923Y23841853D01*
X26888000Y24026971D01*
X26888000Y31792000D01*
X26917469Y31792000D01*
X27344050Y31876852D01*
X27745880Y32043295D01*
X28107518Y32284934D01*
X28415066Y32592482D01*
X28656705Y32954120D01*
X28823148Y33355950D01*
X28908000Y33782531D01*
X28908000Y34217469D01*
X28823148Y34644050D01*
X28656705Y35045880D01*
X28415066Y35407518D01*
X28107518Y35715066D01*
X27745880Y35956705D01*
X27344050Y36123148D01*
X26917469Y36208000D01*
X26808000Y36208000D01*
X26808000Y36273029D01*
X26959923Y36458147D01*
X27099951Y36720121D01*
X27186180Y37004380D01*
X27208000Y37225922D01*
X27208000Y38774078D01*
X27186180Y38995620D01*
X27099951Y39279879D01*
X26959923Y39541853D01*
X26771476Y39771476D01*
X26541853Y39959923D01*
X26279879Y40099951D01*
X25995620Y40186180D01*
X25700000Y40215296D01*
X25404381Y40186180D01*
X25120122Y40099951D01*
X24858148Y39959923D01*
X24628525Y39771476D01*
X24440078Y39541853D01*
X24300050Y39279879D01*
X24213820Y38995620D01*
X24200000Y38855303D01*
X24186180Y38995620D01*
X24099951Y39279879D01*
X23959923Y39541853D01*
X23771476Y39771476D01*
X23541852Y39959923D01*
X23279878Y40099951D01*
X22995619Y40186180D01*
X22700000Y40215296D01*
X22404380Y40186180D01*
X22120121Y40099951D01*
X21858147Y39959923D01*
X21628524Y39771476D01*
X21440077Y39541852D01*
X21300049Y39279878D01*
X21213820Y38995619D01*
X21192000Y38774077D01*
X21192000Y37225922D01*
X21213820Y37004380D01*
X21300050Y36720121D01*
X21440078Y36458147D01*
X21592001Y36273029D01*
X21592001Y36205905D01*
X21175950Y36123148D01*
X20774120Y35956705D01*
X20412482Y35715066D01*
X20104934Y35407518D01*
X19863295Y35045880D01*
X19696852Y34644050D01*
X19612000Y34217469D01*
X19612000Y33782531D01*
X19696852Y33355950D01*
X19863295Y32954120D01*
X20104934Y32592482D01*
X20412482Y32284934D01*
X20774120Y32043295D01*
X21175950Y31876852D01*
X21602531Y31792000D01*
X22037469Y31792000D01*
X22132001Y31810804D01*
X22132000Y24026971D01*
X21980077Y23841853D01*
X21970000Y23823000D01*
X21959923Y23841853D01*
X21808000Y24026971D01*
X21808000Y30299580D01*
X21813360Y30354001D01*
X21808000Y30408422D01*
X21808000Y30408431D01*
X21791968Y30571206D01*
X21728611Y30780065D01*
X21625726Y30972550D01*
X21552339Y31061972D01*
X21521962Y31098987D01*
X21521960Y31098989D01*
X21487265Y31141265D01*
X21444988Y31175961D01*
X19142000Y33478947D01*
X19142000Y39165053D01*
X21356939Y41379990D01*
X50779062Y41379990D01*
X51092000Y41067052D01*
X51092000Y39665923D01*
X51113820Y39444381D01*
X51200049Y39160122D01*
X51340077Y38898148D01*
X51528524Y38668524D01*
X51758147Y38480077D01*
X52020121Y38340049D01*
X52304380Y38253820D01*
X52600000Y38224704D01*
X52895619Y38253820D01*
X53179878Y38340049D01*
X53441852Y38480077D01*
X53671476Y38668524D01*
X53859923Y38898147D01*
X53999951Y39160121D01*
X54086180Y39444380D01*
X54108000Y39665922D01*
X54108000Y41214078D01*
X54086180Y41435620D01*
X53999951Y41719879D01*
X53859923Y41981853D01*
X53671476Y42211476D01*
X53441853Y42399923D01*
X53179879Y42539951D01*
X53047855Y42580000D01*
X60893052Y42580000D01*
X60978034Y42495018D01*
X61012735Y42452735D01*
X61181450Y42314274D01*
X61312211Y42244381D01*
X61373935Y42211389D01*
X61582793Y42148032D01*
X61800000Y42126639D01*
X61854431Y42132000D01*
X61947910Y42132000D01*
X62000049Y41960122D01*
X62140077Y41698148D01*
X62328524Y41468524D01*
X62558147Y41280077D01*
X62820121Y41140049D01*
X63104380Y41053820D01*
X63400000Y41024704D01*
X63695619Y41053820D01*
X63979878Y41140049D01*
X64241852Y41280077D01*
X64471476Y41468524D01*
X64659923Y41698147D01*
X64799951Y41960121D01*
X64886180Y42244380D01*
X64908000Y42465922D01*
X64908000Y44014078D01*
X64886180Y44235620D01*
X64799951Y44519879D01*
X64659923Y44781853D01*
X64471476Y45011476D01*
X64241853Y45199923D01*
X63979879Y45339951D01*
X63695620Y45426180D01*
X63400000Y45455296D01*
X63104381Y45426180D01*
X62820122Y45339951D01*
X62558148Y45199923D01*
X62328525Y45011476D01*
X62140078Y44781853D01*
X62025922Y44568283D01*
X61970550Y44613726D01*
X61778065Y44716611D01*
X61569206Y44779968D01*
X61406431Y44796000D01*
X61406423Y44796000D01*
X61352000Y44801360D01*
X61297577Y44796000D01*
X20455353Y44796000D01*
X20400930Y44801360D01*
X20346506Y44796000D01*
X20346499Y44796000D01*
X20203088Y44781875D01*
X20183723Y44779968D01*
X19974865Y44716611D01*
X19782380Y44613726D01*
X19613665Y44475265D01*
X19578965Y44432983D01*
X16089012Y40943029D01*
X16046725Y40908325D01*
X15908264Y40739610D01*
X15806770Y40549726D01*
X15805379Y40547124D01*
X15742165Y40338735D01*
X15742022Y40338265D01*
X15725990Y40175490D01*
X15725990Y40175483D01*
X15720630Y40121060D01*
X15725990Y40066637D01*
X15725991Y32685493D01*
X15168515Y33242968D01*
X15133811Y33285255D01*
X14965096Y33423716D01*
X14772611Y33526601D01*
X14563752Y33589958D01*
X14400977Y33605990D01*
X14400969Y33605990D01*
X14346546Y33611350D01*
X14292123Y33605990D01*
X13792959Y33605990D01*
X13242000Y34156948D01*
X13242000Y35524535D01*
X13219457Y35753421D01*
X13130369Y36047105D01*
X12985697Y36317766D01*
X12791003Y36555003D01*
X12553765Y36749697D01*
X12283104Y36894369D01*
X11989420Y36983457D01*
X11684000Y37013538D01*
X11378579Y36983457D01*
X11084895Y36894369D01*
X10814234Y36749697D01*
X10634289Y36602021D01*
X10585528Y36693247D01*
X10497053Y36801053D01*
X10389247Y36889528D01*
X10266251Y36955271D01*
X10132792Y36995755D01*
X9994000Y37009425D01*
X8294000Y37009425D01*
X8155208Y36995755D01*
X8021749Y36955271D01*
X7898753Y36889528D01*
X7790947Y36801053D01*
X7702472Y36693247D01*
X7636729Y36570251D01*
X7608000Y36475543D01*
X7608000Y41787876D01*
X7704753Y41708472D01*
X7827749Y41642729D01*
X7961208Y41602245D01*
X8100000Y41588575D01*
X9700000Y41588575D01*
X9838792Y41602245D01*
X9972251Y41642729D01*
X10095247Y41708472D01*
X10203053Y41796947D01*
X10291528Y41904753D01*
X10357271Y42027749D01*
X10397755Y42161208D01*
X10411425Y42300000D01*
X10411425Y45300000D01*
X10397755Y45438792D01*
X10357271Y45572251D01*
X10291528Y45695247D01*
X10208000Y45797025D01*
X10208000Y45958209D01*
X14741791Y50492000D01*
X16448093Y50492000D01*
X16592001Y50415080D01*
X16592001Y49864252D01*
X16585673Y49800000D01*
X16610926Y49543588D01*
X16685719Y49297029D01*
X16807176Y49069799D01*
X16929673Y48920536D01*
X16929678Y48920531D01*
X16970631Y48870630D01*
X17020532Y48829677D01*
X17929673Y47920536D01*
X17970630Y47870630D01*
X18169798Y47707176D01*
X18397028Y47585719D01*
X18643587Y47510926D01*
X18835750Y47492000D01*
X18835757Y47492000D01*
X18900000Y47485673D01*
X18964243Y47492000D01*
X32338970Y47492000D01*
X32551848Y47279122D01*
X32872539Y47064843D01*
X33228872Y46917245D01*
X33607154Y46842000D01*
X33992846Y46842000D01*
X34371128Y46917245D01*
X34727461Y47064843D01*
X35048152Y47279122D01*
X35320878Y47551848D01*
X35535157Y47872539D01*
X35682755Y48228872D01*
X35758000Y48607154D01*
X35758000Y48992846D01*
X35682755Y49371128D01*
X35535157Y49727461D01*
X35320878Y50048152D01*
X35108000Y50261030D01*
X35108000Y60068257D01*
X35114327Y60132500D01*
X35108000Y60196743D01*
X35108000Y60196750D01*
X35089074Y60388913D01*
X35014281Y60635472D01*
X34892824Y60862702D01*
X34729370Y61061870D01*
X34679465Y61102826D01*
X29343716Y66438575D01*
X30850000Y66438575D01*
X30988792Y66452245D01*
X31082000Y66480519D01*
X31082000Y65621620D01*
X31074946Y65550000D01*
X31103097Y65264182D01*
X31163502Y65065054D01*
X31186467Y64989349D01*
X31321852Y64736061D01*
X31504050Y64514051D01*
X31559687Y64468391D01*
X33158394Y62869682D01*
X33204049Y62814051D01*
X33426059Y62631853D01*
X33676939Y62497755D01*
X33679347Y62496468D01*
X33954181Y62413098D01*
X34239999Y62384947D01*
X34311618Y62392001D01*
X36836075Y62392001D01*
X36836075Y58700000D01*
X36849745Y58561208D01*
X36890229Y58427749D01*
X36955972Y58304753D01*
X37044447Y58196947D01*
X37152253Y58108472D01*
X37275249Y58042729D01*
X37392001Y58007313D01*
X37392000Y56152090D01*
X37220121Y56099951D01*
X36958147Y55959923D01*
X36728524Y55771476D01*
X36540077Y55541853D01*
X36400049Y55279879D01*
X36313820Y54995620D01*
X36284704Y54700000D01*
X36313820Y54404380D01*
X36400049Y54120121D01*
X36540077Y53858147D01*
X36728524Y53628524D01*
X36958147Y53440077D01*
X37220121Y53300049D01*
X37392000Y53247910D01*
X37392000Y53045570D01*
X37392001Y53045560D01*
X37392000Y49954424D01*
X37386640Y49900000D01*
X37392000Y49845577D01*
X37392000Y49845570D01*
X37403445Y49729370D01*
X37408032Y49682794D01*
X37428955Y49613820D01*
X37471389Y49473936D01*
X37574274Y49281450D01*
X37712735Y49112735D01*
X37755022Y49078031D01*
X39678035Y47155017D01*
X39712735Y47112735D01*
X39881450Y46974274D01*
X40073935Y46871389D01*
X40282794Y46808032D01*
X40445569Y46792000D01*
X40445578Y46792000D01*
X40499999Y46786640D01*
X40554420Y46792000D01*
X41147910Y46792000D01*
X41200049Y46620122D01*
X41340077Y46358148D01*
X41528524Y46128524D01*
X41758147Y45940077D01*
X42020121Y45800049D01*
X42304380Y45713820D01*
X42600000Y45684704D01*
X42895619Y45713820D01*
X43179878Y45800049D01*
X43441852Y45940077D01*
X43671476Y46128524D01*
X43859923Y46358147D01*
X43999951Y46620121D01*
X44086180Y46904380D01*
X44108000Y47125922D01*
X44108000Y48674078D01*
X44086180Y48895620D01*
X43999951Y49179879D01*
X43859923Y49441853D01*
X43671476Y49671476D01*
X43441853Y49859923D01*
X43179879Y49999951D01*
X42895620Y50086180D01*
X42600000Y50115296D01*
X42304381Y50086180D01*
X42020122Y49999951D01*
X41758148Y49859923D01*
X41528525Y49671476D01*
X41340078Y49441853D01*
X41200050Y49179879D01*
X41147910Y49008000D01*
X40958948Y49008000D01*
X39608000Y50358947D01*
X39608000Y53247910D01*
X39779879Y53300049D01*
X40041853Y53440077D01*
X40271476Y53628524D01*
X40459923Y53858147D01*
X40599951Y54120121D01*
X40686180Y54404380D01*
X40715296Y54700000D01*
X40686180Y54995620D01*
X40599951Y55279879D01*
X40459923Y55541853D01*
X40271476Y55771476D01*
X40041853Y55959923D01*
X39779879Y56099951D01*
X39608000Y56152090D01*
X39608000Y58007313D01*
X39724751Y58042729D01*
X39847747Y58108472D01*
X39955553Y58196947D01*
X40044028Y58304753D01*
X40050354Y58316588D01*
X40113013Y58265165D01*
X40401481Y58110976D01*
X40714486Y58016026D01*
X41040000Y57983966D01*
X41365515Y58016026D01*
X41678520Y58110976D01*
X41966988Y58265165D01*
X42219832Y58472668D01*
X42427335Y58725512D01*
X42581524Y59013980D01*
X42676474Y59326985D01*
X42700500Y59570928D01*
X42700500Y61829072D01*
X42676474Y62073015D01*
X42581524Y62386020D01*
X42498000Y62542283D01*
X42498000Y63110883D01*
X42505054Y63182503D01*
X42476903Y63468321D01*
X42393533Y63743154D01*
X42332995Y63856412D01*
X42258148Y63996442D01*
X42075950Y64218452D01*
X42020308Y64264116D01*
X41992413Y64292011D01*
X50868569Y64292011D01*
X51749154Y63411425D01*
X50547500Y63411425D01*
X50408708Y63397755D01*
X50275249Y63357271D01*
X50152253Y63291528D01*
X50044447Y63203053D01*
X49955972Y63095247D01*
X49890229Y62972251D01*
X49849745Y62838792D01*
X49836075Y62700000D01*
X49836075Y58700000D01*
X49849745Y58561208D01*
X49890229Y58427749D01*
X49955972Y58304753D01*
X50044447Y58196947D01*
X50152253Y58108472D01*
X50275249Y58042729D01*
X50392001Y58007313D01*
X50392001Y56854433D01*
X50386640Y56800000D01*
X50408032Y56582794D01*
X50471389Y56373936D01*
X50471390Y56373935D01*
X50574275Y56181450D01*
X50712736Y56012735D01*
X50755018Y55978035D01*
X51489139Y55243913D01*
X51413820Y54995620D01*
X51384704Y54700000D01*
X51413820Y54404380D01*
X51500049Y54120121D01*
X51544410Y54037127D01*
X51508032Y53917206D01*
X51486640Y53700000D01*
X51492001Y53645567D01*
X51492001Y52326971D01*
X51340078Y52141853D01*
X51200050Y51879879D01*
X51113820Y51595620D01*
X51092000Y51374078D01*
X51092000Y49825923D01*
X51113820Y49604381D01*
X51200049Y49320122D01*
X51340077Y49058148D01*
X51528524Y48828524D01*
X51758147Y48640077D01*
X52020121Y48500049D01*
X52304380Y48413820D01*
X52600000Y48384704D01*
X52895619Y48413820D01*
X53179878Y48500049D01*
X53441852Y48640077D01*
X53671476Y48828524D01*
X53859923Y49058147D01*
X53999951Y49320121D01*
X54086180Y49604380D01*
X54108000Y49825922D01*
X54108000Y51374078D01*
X54086180Y51595620D01*
X53999951Y51879879D01*
X53859923Y52141853D01*
X53708000Y52326971D01*
X53708000Y53192000D01*
X54374078Y53192000D01*
X54595620Y53213820D01*
X54879879Y53300049D01*
X55141853Y53440077D01*
X55371476Y53628524D01*
X55559923Y53858147D01*
X55699951Y54120121D01*
X55786180Y54404380D01*
X55815296Y54700000D01*
X55786180Y54995620D01*
X55699951Y55279879D01*
X55559923Y55541853D01*
X55371476Y55771476D01*
X55141853Y55959923D01*
X54879879Y56099951D01*
X54595620Y56186180D01*
X54374078Y56208000D01*
X53658948Y56208000D01*
X52608000Y57258947D01*
X52608000Y58007313D01*
X52724751Y58042729D01*
X52847747Y58108472D01*
X52955553Y58196947D01*
X53044028Y58304753D01*
X53050354Y58316588D01*
X53113013Y58265165D01*
X53401481Y58110976D01*
X53714486Y58016026D01*
X54040000Y57983966D01*
X54365515Y58016026D01*
X54678520Y58110976D01*
X54966988Y58265165D01*
X55219832Y58472668D01*
X55427335Y58725512D01*
X55581524Y59013980D01*
X55676474Y59326985D01*
X55700500Y59570928D01*
X55700500Y61829072D01*
X55676474Y62073015D01*
X55581524Y62386020D01*
X55498000Y62542283D01*
X55498000Y63110883D01*
X55505054Y63182503D01*
X55476903Y63468321D01*
X55393533Y63743154D01*
X55332995Y63856413D01*
X55258148Y63996442D01*
X55075950Y64218452D01*
X55020313Y64264112D01*
X52554105Y66730319D01*
X52508441Y66785961D01*
X52286431Y66968159D01*
X52033143Y67103544D01*
X51758309Y67186914D01*
X51706671Y67192000D01*
X53326076Y67192000D01*
X55848390Y64669686D01*
X55894049Y64614049D01*
X56116059Y64431851D01*
X56306231Y64330202D01*
X56369347Y64296466D01*
X56644180Y64213096D01*
X56929998Y64184945D01*
X57001618Y64191999D01*
X64986079Y64191999D01*
X65582000Y63596077D01*
X65582000Y63398670D01*
X65452500Y63411425D01*
X63547500Y63411425D01*
X63408708Y63397755D01*
X63275249Y63357271D01*
X63152253Y63291528D01*
X63044447Y63203053D01*
X62955972Y63095247D01*
X62890229Y62972251D01*
X62849745Y62838792D01*
X62836075Y62700000D01*
X62836075Y58700000D01*
X62849745Y58561208D01*
X62890229Y58427749D01*
X62955972Y58304753D01*
X63044447Y58196947D01*
X63152253Y58108472D01*
X63275249Y58042729D01*
X63392000Y58007313D01*
X63392000Y57958948D01*
X61241053Y55808000D01*
X61126971Y55808000D01*
X60941853Y55959923D01*
X60679879Y56099951D01*
X60395620Y56186180D01*
X60174078Y56208000D01*
X58625922Y56208000D01*
X58404380Y56186180D01*
X58120121Y56099951D01*
X57858147Y55959923D01*
X57628524Y55771476D01*
X57440077Y55541853D01*
X57300049Y55279879D01*
X57213820Y54995620D01*
X57184704Y54700000D01*
X57213820Y54404380D01*
X57300049Y54120121D01*
X57440077Y53858147D01*
X57628524Y53628524D01*
X57858147Y53440077D01*
X58120121Y53300049D01*
X58404380Y53213820D01*
X58625922Y53192000D01*
X60174078Y53192000D01*
X60395620Y53213820D01*
X60679879Y53300049D01*
X60941853Y53440077D01*
X61126971Y53592000D01*
X61641052Y53592000D01*
X61892000Y53341052D01*
X61892000Y52625923D01*
X61913820Y52404381D01*
X62000049Y52120122D01*
X62140077Y51858148D01*
X62328524Y51628524D01*
X62558147Y51440077D01*
X62820121Y51300049D01*
X63104380Y51213820D01*
X63400000Y51184704D01*
X63695619Y51213820D01*
X63979878Y51300049D01*
X64241852Y51440077D01*
X64471476Y51628524D01*
X64659923Y51858147D01*
X64799951Y52120121D01*
X64886180Y52404380D01*
X64908000Y52625922D01*
X64908000Y54174078D01*
X64886180Y54395620D01*
X64799951Y54679879D01*
X64659923Y54941853D01*
X64471476Y55171476D01*
X64241853Y55359923D01*
X64036587Y55469640D01*
X65244983Y56678035D01*
X65287265Y56712735D01*
X65425726Y56881450D01*
X65528611Y57073935D01*
X65574759Y57226064D01*
X65591968Y57282793D01*
X65593875Y57302158D01*
X65608000Y57445569D01*
X65608000Y57445576D01*
X65613360Y57500000D01*
X65608000Y57554423D01*
X65608000Y58007313D01*
X65724751Y58042729D01*
X65847747Y58108472D01*
X65955553Y58196947D01*
X66044028Y58304753D01*
X66050354Y58316588D01*
X66113013Y58265165D01*
X66401481Y58110976D01*
X66714486Y58016026D01*
X67040000Y57983966D01*
X67365515Y58016026D01*
X67678520Y58110976D01*
X67966988Y58265165D01*
X68219832Y58472668D01*
X68427335Y58725512D01*
X68581524Y59013980D01*
X68676474Y59326985D01*
X68700500Y59570928D01*
X68700500Y61829072D01*
X68676474Y62073015D01*
X68581524Y62386020D01*
X68498000Y62542283D01*
X68498000Y64128381D01*
X68505054Y64200001D01*
X68476903Y64485819D01*
X68393533Y64760652D01*
X68388701Y64769692D01*
X68258148Y65013940D01*
X68075949Y65235950D01*
X68020318Y65281605D01*
X66671615Y66630307D01*
X66625951Y66685949D01*
X66403941Y66868147D01*
X66150653Y67003532D01*
X65875819Y67086902D01*
X65661620Y67107999D01*
X65590001Y67115053D01*
X65518382Y67107999D01*
X62541228Y67107999D01*
X62548712Y67122000D01*
X67616078Y67122000D01*
X70576205Y64161872D01*
X70576205Y63676975D01*
X70602365Y63411366D01*
X70705749Y63070557D01*
X70873634Y62756465D01*
X70926205Y62692407D01*
X70926206Y43016129D01*
X67618079Y39708001D01*
X59180722Y39708001D01*
X59109102Y39715055D01*
X58823284Y39686904D01*
X58615918Y39624000D01*
X58548451Y39603534D01*
X58295163Y39468149D01*
X58073153Y39285951D01*
X58027493Y39230314D01*
X56459687Y37662507D01*
X56404050Y37616847D01*
X56374141Y37580403D01*
X56355553Y37603053D01*
X56247747Y37691528D01*
X56124751Y37757271D01*
X55991292Y37797755D01*
X55852500Y37811425D01*
X53947500Y37811425D01*
X53808708Y37797755D01*
X53675249Y37757271D01*
X53552253Y37691528D01*
X53444447Y37603053D01*
X53355972Y37495247D01*
X53290229Y37372251D01*
X53249745Y37238792D01*
X53236075Y37100000D01*
X53236075Y35508000D01*
X49626971Y35508000D01*
X49441853Y35659923D01*
X49179879Y35799951D01*
X48895620Y35886180D01*
X48674078Y35908000D01*
X47125922Y35908000D01*
X46904380Y35886180D01*
X46620121Y35799951D01*
X46358147Y35659923D01*
X46128524Y35471476D01*
X45940077Y35241853D01*
X45800049Y34979879D01*
X45713820Y34695620D01*
X45684704Y34400000D01*
X45713820Y34104380D01*
X45800049Y33820121D01*
X45940077Y33558147D01*
X46128524Y33328524D01*
X46358147Y33140077D01*
X46620121Y33000049D01*
X46904380Y32913820D01*
X47125922Y32892000D01*
X48674078Y32892000D01*
X48895620Y32913820D01*
X49179879Y33000049D01*
X49441853Y33140077D01*
X49626971Y33292000D01*
X53236075Y33292000D01*
X53236075Y33100000D01*
X53249745Y32961208D01*
X53290229Y32827749D01*
X53355972Y32704753D01*
X53444447Y32596947D01*
X53552253Y32508472D01*
X53675249Y32442729D01*
X53808708Y32402245D01*
X53947500Y32388575D01*
X54996977Y32388575D01*
X55830549Y31555002D01*
X55865245Y31512725D01*
X55907521Y31478030D01*
X55907523Y31478028D01*
X55986412Y31413286D01*
X56033960Y31374264D01*
X56226445Y31271379D01*
X56435304Y31208022D01*
X56598079Y31191990D01*
X56598088Y31191990D01*
X56652509Y31186630D01*
X56706930Y31191990D01*
X59841063Y31191990D01*
X61892001Y29141050D01*
X61892000Y28124633D01*
X61386327Y27618960D01*
X61245103Y27446878D01*
X61105074Y27184903D01*
X61018845Y26900645D01*
X60989730Y26605025D01*
X61018845Y26309405D01*
X61105074Y26025147D01*
X61245103Y25763172D01*
X61433549Y25533549D01*
X61663172Y25345103D01*
X61925147Y25205074D01*
X62209405Y25118845D01*
X62505025Y25089730D01*
X62800645Y25118845D01*
X63084903Y25205074D01*
X63346878Y25345103D01*
X63518960Y25486327D01*
X64613673Y26581040D01*
X64754898Y26753122D01*
X64894926Y27015096D01*
X64981155Y27299355D01*
X65010271Y27594975D01*
X64981155Y27890595D01*
X64894926Y28174853D01*
X64754898Y28436828D01*
X64566451Y28666451D01*
X64336828Y28854898D01*
X64108000Y28977209D01*
X64108000Y29545580D01*
X64113360Y29600001D01*
X64108000Y29654422D01*
X64108000Y29654431D01*
X64091968Y29817206D01*
X64028611Y30026065D01*
X63925726Y30218550D01*
X63857185Y30302067D01*
X63821962Y30344987D01*
X63821960Y30344989D01*
X63787265Y30387265D01*
X63744988Y30421961D01*
X61121979Y33044968D01*
X61087275Y33087255D01*
X60918560Y33225716D01*
X60726075Y33328601D01*
X60517216Y33391958D01*
X60354441Y33407990D01*
X60354433Y33407990D01*
X60300010Y33413350D01*
X60245587Y33407990D01*
X58978322Y33407990D01*
X58981524Y33413980D01*
X59076474Y33726985D01*
X59100500Y33970928D01*
X59100500Y36179476D01*
X59713026Y36792001D01*
X68150382Y36792001D01*
X68222001Y36784947D01*
X68293620Y36792001D01*
X68385526Y36801053D01*
X68507819Y36813098D01*
X68626416Y36849074D01*
X68782653Y36896468D01*
X69035941Y37031853D01*
X69257951Y37214051D01*
X69303615Y37269693D01*
X73364519Y41330596D01*
X73420155Y41376255D01*
X73602353Y41598265D01*
X73737738Y41851553D01*
X73821108Y42126387D01*
X73842205Y42340586D01*
X73842205Y42340587D01*
X73849259Y42412204D01*
X73842205Y42483821D01*
X73842205Y62692406D01*
X73894776Y62756464D01*
X74062661Y63070556D01*
X74166045Y63411365D01*
X74192205Y63676974D01*
X74192205Y65154616D01*
X74166045Y65420225D01*
X74062661Y65761034D01*
X73894776Y66075126D01*
X73668840Y66350430D01*
X73393536Y66576366D01*
X73079444Y66744251D01*
X72738635Y66847635D01*
X72384205Y66882543D01*
X72029776Y66847635D01*
X72017893Y66844030D01*
X69301614Y69560308D01*
X69255950Y69615950D01*
X69033940Y69798148D01*
X68780652Y69933533D01*
X68505818Y70016903D01*
X68291619Y70038000D01*
X68220000Y70045054D01*
X68148381Y70038000D01*
X67236745Y70038000D01*
X67291528Y70104753D01*
X67357271Y70227749D01*
X67397755Y70361208D01*
X67411425Y70500000D01*
X67411425Y72700000D01*
X67397755Y72838792D01*
X67357271Y72972251D01*
X67291528Y73095247D01*
X67203053Y73203053D01*
X67095247Y73291528D01*
X66972251Y73357271D01*
X66838792Y73397755D01*
X66700000Y73411425D01*
X63700000Y73411425D01*
X63561208Y73397755D01*
X63427749Y73357271D01*
X63304753Y73291528D01*
X63196947Y73203053D01*
X63108472Y73095247D01*
X63088563Y73058000D01*
X59019619Y73058000D01*
X58948000Y73065054D01*
X58876381Y73058000D01*
X58662182Y73036903D01*
X58387348Y72953533D01*
X58134060Y72818148D01*
X57912050Y72635950D01*
X57866389Y72580312D01*
X57693686Y72407608D01*
X57638051Y72361950D01*
X57495278Y72187980D01*
X57366502Y72337794D01*
X57285940Y72435960D01*
X57217414Y72492198D01*
X57153345Y72553409D01*
X57106684Y72583071D01*
X57063930Y72618158D01*
X56985759Y72659941D01*
X56910971Y72707483D01*
X56859414Y72727474D01*
X56810642Y72753543D01*
X56725824Y72779272D01*
X56643195Y72811311D01*
X56588729Y72820860D01*
X56535808Y72836913D01*
X56447609Y72845600D01*
X56360308Y72860905D01*
X56233403Y72858010D01*
X31783188Y72858010D01*
X31711568Y72865064D01*
X31425750Y72836913D01*
X31181773Y72762903D01*
X31150917Y72753543D01*
X30897629Y72618158D01*
X30675619Y72435960D01*
X30629959Y72380323D01*
X29805780Y71556143D01*
X28231604Y73130318D01*
X28185940Y73185960D01*
X27963930Y73368158D01*
X27710642Y73503543D01*
X27435808Y73586913D01*
X27221609Y73608010D01*
X27149990Y73615064D01*
X27078371Y73608010D01*
X18121629Y73608010D01*
X18050010Y73615064D01*
X17764191Y73586913D01*
X17626775Y73545228D01*
X17489358Y73503543D01*
X17236070Y73368158D01*
X17014060Y73185960D01*
X16968400Y73130322D01*
X16719686Y72881609D01*
X16664050Y72835949D01*
X16481852Y72613939D01*
X16347161Y72361950D01*
X16346467Y72360651D01*
X16263097Y72085818D01*
X16234946Y71800000D01*
X16242000Y71728380D01*
X16242000Y71500072D01*
X16155972Y71395247D01*
X16090229Y71272251D01*
X16049745Y71138792D01*
X16036075Y71000000D01*
X16036075Y67000000D01*
X16049745Y66861208D01*
X16090229Y66727749D01*
X16155972Y66604753D01*
X16242000Y66499928D01*
X16242001Y64203925D01*
X14799502Y62761425D01*
X12650000Y62761425D01*
X12511208Y62747755D01*
X12377749Y62707271D01*
X12254753Y62641528D01*
X12146947Y62553053D01*
X12058472Y62445247D01*
X11992729Y62322251D01*
X11952245Y62188792D01*
X11938575Y62050000D01*
X11938575Y58550000D01*
X11952245Y58411208D01*
X11992729Y58277749D01*
X12058472Y58154753D01*
X12135065Y58061425D01*
X10525000Y58061425D01*
X10215504Y58030942D01*
X9917901Y57940666D01*
X9643629Y57794064D01*
X9403228Y57596772D01*
X9205936Y57356371D01*
X9059334Y57082099D01*
X8969058Y56784496D01*
X8938575Y56475000D01*
X8938575Y54725000D01*
X8969058Y54415504D01*
X9059334Y54117901D01*
X9205936Y53843629D01*
X9403228Y53603228D01*
X9643629Y53405936D01*
X9917901Y53259334D01*
X10215504Y53169058D01*
X10525000Y53138575D01*
X12275000Y53138575D01*
X12584496Y53169058D01*
X12882099Y53259334D01*
X13156371Y53405936D01*
X13396772Y53603228D01*
X13594064Y53843629D01*
X13740666Y54117901D01*
X13830942Y54415504D01*
X13861425Y54725000D01*
X13861425Y56475000D01*
X13830942Y56784496D01*
X13740666Y57082099D01*
X13594064Y57356371D01*
X13396772Y57596772D01*
X13156371Y57794064D01*
X13073097Y57838575D01*
X16150000Y57838575D01*
X16288792Y57852245D01*
X16422251Y57892729D01*
X16545247Y57958472D01*
X16653053Y58046947D01*
X16741528Y58154753D01*
X16807271Y58277749D01*
X16847755Y58411208D01*
X16861425Y58550000D01*
X16861425Y60699502D01*
X17506066Y61344143D01*
X19429673Y59420536D01*
X19470630Y59370630D01*
X19669798Y59207176D01*
X19897028Y59085719D01*
X20143587Y59010926D01*
X20335750Y58992000D01*
X20335757Y58992000D01*
X20400000Y58985673D01*
X20464243Y58992000D01*
X23888575Y58992000D01*
X23888575Y58800000D01*
X23902245Y58661208D01*
X23942729Y58527749D01*
X24008472Y58404753D01*
X24096947Y58296947D01*
X24204753Y58208472D01*
X24327749Y58142729D01*
X24461208Y58102245D01*
X24600000Y58088575D01*
X26200000Y58088575D01*
X26338792Y58102245D01*
X26472251Y58142729D01*
X26595247Y58208472D01*
X26703053Y58296947D01*
X26791528Y58404753D01*
X26857271Y58527749D01*
X26897755Y58661208D01*
X26911425Y58800000D01*
X26911425Y61800000D01*
X26897755Y61938792D01*
X26857271Y62072251D01*
X26791528Y62195247D01*
X26703053Y62303053D01*
X26595247Y62391528D01*
X26472251Y62457271D01*
X26338792Y62497755D01*
X26200000Y62511425D01*
X24600000Y62511425D01*
X24461208Y62497755D01*
X24327749Y62457271D01*
X24204753Y62391528D01*
X24096947Y62303053D01*
X24008472Y62195247D01*
X23942729Y62072251D01*
X23902245Y61938792D01*
X23888575Y61800000D01*
X23888575Y61608000D01*
X20941791Y61608000D01*
X19145753Y63404038D01*
X19165054Y63600000D01*
X19158000Y63671619D01*
X19158000Y66499929D01*
X19244028Y66604753D01*
X19309771Y66727749D01*
X19350255Y66861208D01*
X19363925Y67000000D01*
X19363925Y70692010D01*
X21241678Y70692010D01*
X21238476Y70686019D01*
X21143526Y70373014D01*
X21119500Y70129071D01*
X21119501Y67870928D01*
X21143527Y67626985D01*
X21238477Y67313980D01*
X21392666Y67025512D01*
X21600169Y66772668D01*
X21853013Y66565165D01*
X22141481Y66410976D01*
X22454486Y66316026D01*
X22780000Y66283966D01*
X23105515Y66316026D01*
X23418520Y66410976D01*
X23706988Y66565165D01*
X23959832Y66772668D01*
X24167335Y67025512D01*
X24321524Y67313980D01*
X24416474Y67626985D01*
X24419993Y67662716D01*
X32492000Y59590709D01*
X32492001Y54709857D01*
X32492000Y54709847D01*
X32492001Y50261031D01*
X32338970Y50108000D01*
X19441791Y50108000D01*
X19208000Y50341791D01*
X19208000Y50415080D01*
X19441853Y50540077D01*
X19671476Y50728524D01*
X19859923Y50958147D01*
X19999951Y51220121D01*
X20086180Y51504380D01*
X20115296Y51800000D01*
X20086180Y52095620D01*
X19999951Y52379879D01*
X19859923Y52641853D01*
X19671476Y52871476D01*
X19441853Y53059923D01*
X19179879Y53199951D01*
X18895620Y53286180D01*
X18674078Y53308000D01*
X17125922Y53308000D01*
X16904380Y53286180D01*
X16620121Y53199951D01*
X16448093Y53108000D01*
X14264243Y53108000D01*
X14200000Y53114327D01*
X14135757Y53108000D01*
X14135750Y53108000D01*
X13943587Y53089074D01*
X13697028Y53014281D01*
X13469798Y52892824D01*
X13270630Y52729370D01*
X13229673Y52679464D01*
X8020536Y47470327D01*
X7970630Y47429370D01*
X7807176Y47230201D01*
X7685719Y47002971D01*
X7610926Y46756412D01*
X7592000Y46564249D01*
X7592000Y46564243D01*
X7585673Y46500000D01*
X7592000Y46435757D01*
X7592000Y45797025D01*
X7508472Y45695247D01*
X7442729Y45572251D01*
X7402245Y45438792D01*
X7388575Y45300000D01*
X7388575Y45108000D01*
X6964239Y45108000D01*
X6899999Y45114327D01*
X6835759Y45108000D01*
X6835750Y45108000D01*
X6643587Y45089074D01*
X6397028Y45014281D01*
X6169798Y44892824D01*
X5970630Y44729370D01*
X5929673Y44679464D01*
X5420532Y44170323D01*
X5370631Y44129370D01*
X5329678Y44079469D01*
X5329673Y44079464D01*
X5207176Y43930201D01*
X5085719Y43702971D01*
X5010926Y43456412D01*
X4985673Y43200000D01*
X4992001Y43135747D01*
X4992000Y34912243D01*
X4985673Y34848000D01*
X4992000Y34783757D01*
X4992000Y34783751D01*
X4992001Y34783741D01*
X4992000Y27954243D01*
X4985673Y27890000D01*
X4992000Y27825757D01*
X4992000Y27825751D01*
X4992001Y27825741D01*
X4992000Y15000251D01*
X4985672Y14936000D01*
X783000Y14936000D01*
X783000Y52574077D01*
X4032000Y52574077D01*
X4032000Y51025922D01*
X4053820Y50804380D01*
X4140050Y50520121D01*
X4280078Y50258147D01*
X4468525Y50028524D01*
X4698148Y49840077D01*
X4960122Y49700049D01*
X5244381Y49613820D01*
X5540000Y49584704D01*
X5835620Y49613820D01*
X6119879Y49700049D01*
X6381853Y49840077D01*
X6611476Y50028524D01*
X6799923Y50258147D01*
X6825415Y50305839D01*
X6965922Y50292000D01*
X8514078Y50292000D01*
X8735620Y50313820D01*
X9019879Y50400049D01*
X9281853Y50540077D01*
X9511476Y50728524D01*
X9699923Y50958147D01*
X9839951Y51220121D01*
X9926180Y51504380D01*
X9955296Y51800000D01*
X9926180Y52095620D01*
X9839951Y52379879D01*
X9699923Y52641853D01*
X9511476Y52871476D01*
X9281853Y53059923D01*
X9019879Y53199951D01*
X8735620Y53286180D01*
X8514078Y53308000D01*
X6965922Y53308000D01*
X6825415Y53294161D01*
X6799923Y53341853D01*
X6611476Y53571476D01*
X6381852Y53759923D01*
X6119878Y53899951D01*
X5835619Y53986180D01*
X5540000Y54015296D01*
X5244380Y53986180D01*
X4960121Y53899951D01*
X4698147Y53759923D01*
X4468524Y53571476D01*
X4280077Y53341852D01*
X4140049Y53079878D01*
X4053820Y52795619D01*
X4032000Y52574077D01*
X783000Y52574077D01*
X783000Y71900230D01*
X900201Y71617281D01*
X1196559Y71173751D01*
X1573751Y70796559D01*
X2017281Y70500201D01*
X2510105Y70296067D01*
X3033285Y70192000D01*
X3566715Y70192000D01*
X4089895Y70296067D01*
X4582719Y70500201D01*
X5026249Y70796559D01*
X5403441Y71173751D01*
X5699799Y71617281D01*
X5903933Y72110105D01*
X6008000Y72633285D01*
X6008000Y73166715D01*
X5903933Y73689895D01*
X5699799Y74182719D01*
X5403441Y74626249D01*
X5026249Y75003441D01*
X4706636Y75217000D01*
X71893364Y75217000D01*
X71573751Y75003441D01*
X71573751Y75003441D01*
G37*
X71573751Y75003441D02*
X71196559Y74626249D01*
X70900201Y74182719D01*
X70696067Y73689895D01*
X70592000Y73166715D01*
X70592000Y72633285D01*
X70696067Y72110105D01*
X70900201Y71617281D01*
X71196559Y71173751D01*
X71573751Y70796559D01*
X72017281Y70500201D01*
X72510105Y70296067D01*
X73033285Y70192000D01*
X73566715Y70192000D01*
X74089895Y70296067D01*
X74582719Y70500201D01*
X75026249Y70796559D01*
X75403441Y71173751D01*
X75699799Y71617281D01*
X75817000Y71900230D01*
X75817001Y3899768D01*
X75699799Y4182719D01*
X75403441Y4626249D01*
X75026249Y5003441D01*
X74582719Y5299799D01*
X74089895Y5503933D01*
X73566715Y5608000D01*
X73033285Y5608000D01*
X72510105Y5503933D01*
X72017281Y5299799D01*
X71573751Y5003441D01*
X71196559Y4626249D01*
X70900201Y4182719D01*
X70696067Y3689895D01*
X70592000Y3166715D01*
X70592000Y2633285D01*
X70696067Y2110105D01*
X70900201Y1617281D01*
X71196559Y1173751D01*
X71573751Y796559D01*
X71594043Y783000D01*
X5005957Y783000D01*
X5026249Y796559D01*
X5403441Y1173751D01*
X5699799Y1617281D01*
X5903933Y2110105D01*
X6008000Y2633285D01*
X6008000Y3166715D01*
X5903933Y3689895D01*
X5699799Y4182719D01*
X5403441Y4626249D01*
X5026249Y5003441D01*
X4582719Y5299799D01*
X4089895Y5503933D01*
X3566715Y5608000D01*
X3033285Y5608000D01*
X2510105Y5503933D01*
X2017281Y5299799D01*
X1573751Y5003441D01*
X1196559Y4626249D01*
X900201Y4182719D01*
X783000Y3899770D01*
X783000Y14936000D01*
X4985672Y14936000D01*
X4992000Y14871751D01*
X4992001Y7790655D01*
X4985673Y7726402D01*
X5010926Y7469990D01*
X5085719Y7223431D01*
X5207176Y6996201D01*
X5329673Y6846938D01*
X5329678Y6846933D01*
X5370631Y6797032D01*
X5420532Y6756079D01*
X9522085Y2654526D01*
X9563042Y2604620D01*
X9762210Y2441166D01*
X9989440Y2319709D01*
X10235999Y2244916D01*
X10428162Y2225990D01*
X10428169Y2225990D01*
X10492412Y2219663D01*
X10556655Y2225990D01*
X24899747Y2225990D01*
X24963990Y2219663D01*
X25028233Y2225990D01*
X25028240Y2225990D01*
X25220403Y2244916D01*
X25466962Y2319709D01*
X25694192Y2441166D01*
X25893360Y2604620D01*
X25934317Y2654526D01*
X26303782Y3023991D01*
X26440000Y3010575D01*
X29440000Y3010575D01*
X29578792Y3024245D01*
X29712251Y3064729D01*
X29835247Y3130472D01*
X29943053Y3218947D01*
X29980027Y3264000D01*
X32249973Y3264000D01*
X32286947Y3218947D01*
X32394753Y3130472D01*
X32517749Y3064729D01*
X32651208Y3024245D01*
X32790000Y3010575D01*
X35790000Y3010575D01*
X35928792Y3024245D01*
X36062251Y3064729D01*
X36185247Y3130472D01*
X36293053Y3218947D01*
X36330027Y3264000D01*
X37019757Y3264000D01*
X37084000Y3257673D01*
X37148243Y3264000D01*
X37148250Y3264000D01*
X37340413Y3282926D01*
X37586972Y3357719D01*
X37814202Y3479176D01*
X38013370Y3642630D01*
X38054327Y3692536D01*
X38194845Y3833054D01*
X39411378Y2616521D01*
X39452331Y2566620D01*
X39502232Y2525667D01*
X39502236Y2525663D01*
X39529649Y2503166D01*
X39651499Y2403166D01*
X39878729Y2281709D01*
X40125288Y2206916D01*
X40317451Y2187990D01*
X40317457Y2187990D01*
X40381700Y2181663D01*
X40445943Y2187990D01*
X50421747Y2187990D01*
X50485990Y2181663D01*
X50550233Y2187990D01*
X50550240Y2187990D01*
X50742403Y2206916D01*
X50988962Y2281709D01*
X51216192Y2403166D01*
X51415360Y2566620D01*
X51456317Y2616526D01*
X52015609Y3175818D01*
X52269355Y3098845D01*
X52564975Y3069729D01*
X52860595Y3098845D01*
X53144853Y3185074D01*
X53406828Y3325102D01*
X53636451Y3513549D01*
X53824898Y3743172D01*
X53840307Y3772000D01*
X55055367Y3772000D01*
X55361040Y3466327D01*
X55533122Y3325102D01*
X55795096Y3185074D01*
X55981757Y3128451D01*
X56393687Y2716521D01*
X56434640Y2666620D01*
X56484541Y2625667D01*
X56484545Y2625663D01*
X56633808Y2503166D01*
X56861038Y2381709D01*
X57107597Y2306916D01*
X57299760Y2287990D01*
X57299769Y2287990D01*
X57364009Y2281663D01*
X57428249Y2287990D01*
X62170056Y2287990D01*
X62234299Y2281663D01*
X62298542Y2287990D01*
X62298549Y2287990D01*
X62490712Y2306916D01*
X62737271Y2381709D01*
X62964501Y2503166D01*
X63163669Y2666620D01*
X63204626Y2716526D01*
X64259346Y3771245D01*
X64276413Y3772926D01*
X64522972Y3847719D01*
X64591925Y3884575D01*
X64858000Y3884575D01*
X64996792Y3898245D01*
X65130251Y3938729D01*
X65253247Y4004472D01*
X65361053Y4092947D01*
X65449528Y4200753D01*
X65515271Y4323749D01*
X65555755Y4457208D01*
X65569425Y4596000D01*
X65569425Y7596000D01*
X65555755Y7734792D01*
X65515271Y7868251D01*
X65449528Y7991247D01*
X65361053Y8099053D01*
X65328000Y8126179D01*
X65328000Y8237659D01*
X65604380Y8153820D01*
X65900000Y8124704D01*
X66195619Y8153820D01*
X66479878Y8240049D01*
X66741852Y8380077D01*
X66971476Y8568524D01*
X67159923Y8798147D01*
X67299951Y9060121D01*
X67386180Y9344380D01*
X67408000Y9565922D01*
X67408000Y9998209D01*
X67881791Y10472000D01*
X70195307Y10472000D01*
X70042997Y10347003D01*
X69848303Y10109766D01*
X69703631Y9839105D01*
X69614543Y9545421D01*
X69584462Y9240000D01*
X69614543Y8934579D01*
X69703631Y8640895D01*
X69848303Y8370234D01*
X70042997Y8132997D01*
X70280234Y7938303D01*
X70550895Y7793631D01*
X70844579Y7704543D01*
X71073465Y7682000D01*
X72526535Y7682000D01*
X72755421Y7704543D01*
X73049105Y7793631D01*
X73319766Y7938303D01*
X73557003Y8132997D01*
X73751697Y8370234D01*
X73896369Y8640895D01*
X73985457Y8934579D01*
X74015538Y9240000D01*
X73985457Y9545421D01*
X73896369Y9839105D01*
X73751697Y10109766D01*
X73557003Y10347003D01*
X73358389Y10510000D01*
X73557003Y10672997D01*
X73751697Y10910234D01*
X73896369Y11180895D01*
X73985457Y11474579D01*
X74015538Y11780000D01*
X73985457Y12085421D01*
X73896369Y12379105D01*
X73751697Y12649766D01*
X73557003Y12887003D01*
X73358389Y13050000D01*
X73557003Y13212997D01*
X73751697Y13450234D01*
X73896369Y13720895D01*
X73985457Y14014579D01*
X74015538Y14320000D01*
X73985457Y14625421D01*
X73896369Y14919105D01*
X73751697Y15189766D01*
X73557003Y15427003D01*
X73358389Y15590000D01*
X73557003Y15752997D01*
X73751697Y15990234D01*
X73896369Y16260895D01*
X73985457Y16554579D01*
X74015538Y16860000D01*
X73985457Y17165421D01*
X73896369Y17459105D01*
X73751697Y17729766D01*
X73604021Y17909711D01*
X73695247Y17958472D01*
X73803053Y18046947D01*
X73891528Y18154753D01*
X73957271Y18277749D01*
X73997755Y18411208D01*
X74011425Y18550000D01*
X74011425Y20250000D01*
X73997755Y20388792D01*
X73957271Y20522251D01*
X73891528Y20645247D01*
X73803053Y20753053D01*
X73695247Y20841528D01*
X73572251Y20907271D01*
X73438792Y20947755D01*
X73300000Y20961425D01*
X72005523Y20961425D01*
X69908000Y23058947D01*
X69908000Y23774078D01*
X69886180Y23995620D01*
X69799951Y24279879D01*
X69659923Y24541853D01*
X69471476Y24771476D01*
X69241853Y24959923D01*
X68979879Y25099951D01*
X68695620Y25186180D01*
X68400000Y25215296D01*
X68104381Y25186180D01*
X67820122Y25099951D01*
X67558148Y24959923D01*
X67328525Y24771476D01*
X67150001Y24553944D01*
X66971476Y24771476D01*
X66741853Y24959923D01*
X66479879Y25099951D01*
X66195620Y25186180D01*
X65900000Y25215296D01*
X65604381Y25186180D01*
X65320122Y25099951D01*
X65058148Y24959923D01*
X64828525Y24771476D01*
X64640078Y24541853D01*
X64500050Y24279879D01*
X64413820Y23995620D01*
X64392000Y23774078D01*
X64392000Y22225923D01*
X64413820Y22004381D01*
X64442000Y21911483D01*
X64442001Y21608000D01*
X62255844Y21608000D01*
X58008000Y25855842D01*
X58008000Y25885475D01*
X58148152Y25979122D01*
X58420878Y26251848D01*
X58635157Y26572539D01*
X58782755Y26928872D01*
X58858000Y27307154D01*
X58858000Y27692846D01*
X58782755Y28071128D01*
X58635157Y28427461D01*
X58420878Y28748152D01*
X58148152Y29020878D01*
X57827461Y29235157D01*
X57471128Y29382755D01*
X57092846Y29458000D01*
X56707154Y29458000D01*
X56328872Y29382755D01*
X55972539Y29235157D01*
X55651848Y29020878D01*
X55379122Y28748152D01*
X55164843Y28427461D01*
X55017245Y28071128D01*
X54942000Y27692846D01*
X54942000Y27307154D01*
X54962456Y27204315D01*
X54217911Y27948860D01*
X54179191Y27995081D01*
X54098486Y28059962D01*
X54018462Y28125637D01*
X54013488Y28128296D01*
X54009088Y28131833D01*
X53917269Y28179726D01*
X53825976Y28228523D01*
X53820575Y28230161D01*
X53815574Y28232770D01*
X53716244Y28261810D01*
X53617118Y28291880D01*
X53611499Y28292433D01*
X53606086Y28294016D01*
X53502975Y28303122D01*
X53399912Y28313272D01*
X53339904Y28307362D01*
X43548855Y28208549D01*
X43500000Y28213361D01*
X43439990Y28207451D01*
X43434391Y28207394D01*
X43385872Y28202120D01*
X43282794Y28191968D01*
X43277392Y28190329D01*
X43271786Y28189720D01*
X43173093Y28158690D01*
X43073935Y28128611D01*
X43068954Y28125948D01*
X43063577Y28124258D01*
X42972852Y28074581D01*
X42881450Y28025726D01*
X42877085Y28022143D01*
X42872140Y28019436D01*
X42792846Y27953011D01*
X42755014Y27921963D01*
X42751044Y27917993D01*
X42704831Y27879280D01*
X42674079Y27841028D01*
X40275022Y25441969D01*
X40232735Y25407265D01*
X40094274Y25238550D01*
X40030291Y25118845D01*
X39991389Y25046064D01*
X39939896Y24876314D01*
X39928032Y24837205D01*
X39912000Y24674430D01*
X39912000Y24674423D01*
X39906640Y24620000D01*
X39912000Y24565576D01*
X39912000Y24026971D01*
X39760077Y23841853D01*
X39750000Y23823000D01*
X39739923Y23841853D01*
X39551476Y24071476D01*
X39321853Y24259923D01*
X39059879Y24399951D01*
X38775620Y24486180D01*
X38480000Y24515296D01*
X38184381Y24486180D01*
X37900122Y24399951D01*
X37638148Y24259923D01*
X37408525Y24071476D01*
X37220077Y23841853D01*
X37210000Y23823000D01*
X37199923Y23841853D01*
X37048000Y24026971D01*
X37048000Y24141053D01*
X43344989Y30438040D01*
X43387265Y30472735D01*
X43525726Y30641450D01*
X43628611Y30833935D01*
X43691968Y31042794D01*
X43708000Y31205569D01*
X43708000Y31205578D01*
X43713360Y31259999D01*
X43708000Y31314420D01*
X43708000Y36013029D01*
X43859923Y36198147D01*
X43999951Y36460121D01*
X44086180Y36744380D01*
X44108000Y36965922D01*
X44108000Y38514078D01*
X44086180Y38735620D01*
X43999951Y39019879D01*
X43859923Y39281853D01*
X43671476Y39511476D01*
X43441853Y39699923D01*
X43179879Y39839951D01*
X42895620Y39926180D01*
X42600000Y39955296D01*
X42304381Y39926180D01*
X42020122Y39839951D01*
X41758148Y39699923D01*
X41528525Y39511476D01*
X41340078Y39281853D01*
X41200050Y39019879D01*
X41113820Y38735620D01*
X41092000Y38514078D01*
X41092000Y36965923D01*
X41113820Y36744381D01*
X41200049Y36460122D01*
X41340077Y36198148D01*
X41492001Y36013028D01*
X41492001Y34994431D01*
X41492000Y31718949D01*
X35195018Y25421965D01*
X35152736Y25387265D01*
X35053836Y25266755D01*
X35014275Y25218550D01*
X34911389Y25026064D01*
X34848032Y24817206D01*
X34826640Y24600000D01*
X34832001Y24545567D01*
X34832001Y24026971D01*
X34680077Y23841853D01*
X34670000Y23823000D01*
X34659923Y23841853D01*
X34508000Y24026971D01*
X34508000Y26078769D01*
X34635003Y26182997D01*
X34829697Y26420234D01*
X34974369Y26690895D01*
X35063457Y26984579D01*
X35086000Y27213465D01*
X35086000Y28666535D01*
X35063457Y28895421D01*
X34974369Y29189105D01*
X34829697Y29459766D01*
X34635003Y29697003D01*
X34397765Y29891697D01*
X34179725Y30008243D01*
X34407465Y30235983D01*
X34457370Y30276939D01*
X34620824Y30476107D01*
X34742281Y30703337D01*
X34817074Y30949896D01*
X34836000Y31142059D01*
X34836000Y31142068D01*
X34842327Y31206308D01*
X34836000Y31270548D01*
X34836000Y35200626D01*
X34889074Y35375587D01*
X34908000Y35567750D01*
X34908000Y35567759D01*
X34914327Y35631999D01*
X34908000Y35696239D01*
X34908000Y36678970D01*
X35120878Y36891848D01*
X35335157Y37212539D01*
X35482755Y37568872D01*
X35558000Y37947154D01*
X35558000Y38332846D01*
X35482755Y38711128D01*
X35335157Y39067461D01*
X35120878Y39388152D01*
X34848152Y39660878D01*
X34527461Y39875157D01*
X34171128Y40022755D01*
X33792846Y40098000D01*
X33407154Y40098000D01*
X33028872Y40022755D01*
X32672539Y39875157D01*
X32351848Y39660878D01*
X32079122Y39388152D01*
X31864843Y39067461D01*
X31717245Y38711128D01*
X31642000Y38332846D01*
X31642000Y37947154D01*
X31717245Y37568872D01*
X31864843Y37212539D01*
X32079122Y36891848D01*
X32292000Y36678970D01*
X32292000Y35991374D01*
X32238926Y35816412D01*
X32213673Y35560000D01*
X32220001Y35495748D01*
X32220000Y31748100D01*
X30623325Y30151425D01*
X30138000Y30151425D01*
X29999208Y30137755D01*
X29865749Y30097271D01*
X29742753Y30031528D01*
X29634947Y29943053D01*
X29546472Y29835247D01*
X29480729Y29712251D01*
X29440245Y29578792D01*
X29426575Y29440000D01*
X29426575Y26440000D01*
X29440245Y26301208D01*
X29480729Y26167749D01*
X29546472Y26044753D01*
X29634947Y25936947D01*
X29680000Y25899972D01*
X29680001Y23939240D01*
X29600077Y23841853D01*
X29460049Y23579879D01*
X29373820Y23295620D01*
X29352000Y23074078D01*
X29352000Y21925923D01*
X29373820Y21704381D01*
X29460049Y21420122D01*
X29600077Y21158148D01*
X29788524Y20928524D01*
X30018147Y20740077D01*
X30280121Y20600049D01*
X30564380Y20513820D01*
X30860000Y20484704D01*
X31155619Y20513820D01*
X31439878Y20600049D01*
X31701852Y20740077D01*
X31931476Y20928524D01*
X32119923Y21158147D01*
X32130000Y21177000D01*
X32140077Y21158148D01*
X32328524Y20928524D01*
X32558147Y20740077D01*
X32820121Y20600049D01*
X33104380Y20513820D01*
X33400000Y20484704D01*
X33695619Y20513820D01*
X33979878Y20600049D01*
X34241852Y20740077D01*
X34471476Y20928524D01*
X34659923Y21158147D01*
X34670000Y21177000D01*
X34680077Y21158148D01*
X34868524Y20928524D01*
X35098147Y20740077D01*
X35360121Y20600049D01*
X35644380Y20513820D01*
X35940000Y20484704D01*
X36235619Y20513820D01*
X36519878Y20600049D01*
X36781852Y20740077D01*
X37011476Y20928524D01*
X37199923Y21158147D01*
X37210000Y21177000D01*
X37220077Y21158148D01*
X37408524Y20928524D01*
X37638147Y20740077D01*
X37900121Y20600049D01*
X38184380Y20513820D01*
X38422705Y20490347D01*
X38960703Y19952349D01*
X28829239Y19981077D01*
X28773232Y19986593D01*
X28665903Y19976022D01*
X28559124Y19965811D01*
X28557608Y19965356D01*
X28556025Y19965200D01*
X28452737Y19933868D01*
X28350086Y19903046D01*
X28348690Y19902305D01*
X28347167Y19901843D01*
X28252062Y19851009D01*
X28157310Y19800708D01*
X28156083Y19799707D01*
X28154682Y19798958D01*
X28071340Y19730561D01*
X27988203Y19662726D01*
X27952388Y19619337D01*
X26841053Y18508000D01*
X15431668Y18508000D01*
X15377244Y18513360D01*
X15322821Y18508000D01*
X15322814Y18508000D01*
X15181298Y18494062D01*
X15160038Y18491968D01*
X14951180Y18428611D01*
X14758695Y18325726D01*
X14589980Y18187265D01*
X14555282Y18144985D01*
X13285367Y16875069D01*
X13080000Y16895296D01*
X12784381Y16866180D01*
X12500122Y16779951D01*
X12238148Y16639923D01*
X12008525Y16451476D01*
X11820077Y16221853D01*
X11680049Y15959879D01*
X11593820Y15675620D01*
X11572000Y15454078D01*
X11572000Y14305923D01*
X11593820Y14084381D01*
X11680049Y13800122D01*
X11820077Y13538148D01*
X12008524Y13308524D01*
X12238147Y13120077D01*
X12500121Y12980049D01*
X12784380Y12893820D01*
X13080000Y12864704D01*
X13375619Y12893820D01*
X13659878Y12980049D01*
X13921852Y13120077D01*
X14151476Y13308524D01*
X14339923Y13538147D01*
X14350000Y13557000D01*
X14360077Y13538148D01*
X14548524Y13308524D01*
X14778147Y13120077D01*
X15040121Y12980049D01*
X15270539Y12910153D01*
X16257457Y10648000D01*
X13458156Y10648000D01*
X13323940Y10758148D01*
X13070652Y10893533D01*
X12795818Y10976903D01*
X12581619Y10998000D01*
X10938381Y10998000D01*
X10724182Y10976903D01*
X10449348Y10893533D01*
X10196060Y10758148D01*
X9974050Y10575950D01*
X9948000Y10544208D01*
X9948000Y10941660D01*
X10139105Y10999631D01*
X10409766Y11144303D01*
X10647003Y11338997D01*
X10841697Y11576234D01*
X10986369Y11846895D01*
X11075457Y12140579D01*
X11105538Y12446000D01*
X11075457Y12751421D01*
X10986369Y13045105D01*
X10841697Y13315766D01*
X10694021Y13495711D01*
X10785247Y13544472D01*
X10893053Y13632947D01*
X10981528Y13740753D01*
X11047271Y13863749D01*
X11087755Y13997208D01*
X11101425Y14136000D01*
X11101425Y15836000D01*
X11087755Y15974792D01*
X11047271Y16108251D01*
X10981528Y16231247D01*
X10893053Y16339053D01*
X10785247Y16427528D01*
X10662251Y16493271D01*
X10528792Y16533755D01*
X10390000Y16547425D01*
X7608000Y16547425D01*
X7608000Y26262457D01*
X7636729Y26167749D01*
X7702472Y26044753D01*
X7790947Y25936947D01*
X7898753Y25848472D01*
X8021749Y25782729D01*
X8155208Y25742245D01*
X8294000Y25728575D01*
X9994000Y25728575D01*
X10132792Y25742245D01*
X10266251Y25782729D01*
X10389247Y25848472D01*
X10497053Y25936947D01*
X10585528Y26044753D01*
X10634290Y26135979D01*
X10814235Y25988303D01*
X11084896Y25843631D01*
X11378580Y25754543D01*
X11684000Y25724462D01*
X11989421Y25754543D01*
X12283105Y25843631D01*
X12553766Y25988303D01*
X12791003Y26182997D01*
X12985697Y26420234D01*
X13130369Y26690895D01*
X13219457Y26984579D01*
X13242000Y27213465D01*
X13242000Y28374518D01*
X13999493Y29132010D01*
X14448508Y29132010D01*
X14766010Y28814508D01*
X14766011Y27065493D01*
X12906488Y25205969D01*
X12864201Y25171265D01*
X12725740Y25002550D01*
X12661730Y24882794D01*
X12622855Y24810064D01*
X12562054Y24609630D01*
X12559498Y24601205D01*
X12543466Y24438430D01*
X12543466Y24438423D01*
X12540895Y24412319D01*
X12500122Y24399951D01*
X12238148Y24259923D01*
X12008525Y24071476D01*
X11820077Y23841853D01*
X11680049Y23579879D01*
X11593820Y23295620D01*
X11572000Y23074078D01*
X11572000Y21925923D01*
X11593820Y21704381D01*
X11680049Y21420122D01*
X11820077Y21158148D01*
X12008524Y20928524D01*
X12238147Y20740077D01*
X12500121Y20600049D01*
X12784380Y20513820D01*
X13080000Y20484704D01*
X13375619Y20513820D01*
X13659878Y20600049D01*
X13921852Y20740077D01*
X14151476Y20928524D01*
X14339923Y21158147D01*
X14350000Y21177000D01*
X14360077Y21158148D01*
X14548524Y20928524D01*
X14778147Y20740077D01*
X15040121Y20600049D01*
X15324380Y20513820D01*
X15620000Y20484704D01*
X15915619Y20513820D01*
X16199878Y20600049D01*
X16461852Y20740077D01*
X16691476Y20928524D01*
X16879923Y21158147D01*
X16890000Y21177000D01*
X16900077Y21158148D01*
X17088524Y20928524D01*
X17318147Y20740077D01*
X17580121Y20600049D01*
X17864380Y20513820D01*
X18160000Y20484704D01*
X18455619Y20513820D01*
X18739878Y20600049D01*
X19001852Y20740077D01*
X19231476Y20928524D01*
X19419923Y21158147D01*
X19430000Y21177000D01*
X19440077Y21158148D01*
X19628524Y20928524D01*
X19858147Y20740077D01*
X20120121Y20600049D01*
X20404380Y20513820D01*
X20700000Y20484704D01*
X20995619Y20513820D01*
X21279878Y20600049D01*
X21541852Y20740077D01*
X21771476Y20928524D01*
X21959923Y21158147D01*
X21970000Y21177000D01*
X21980077Y21158148D01*
X22168524Y20928524D01*
X22398147Y20740077D01*
X22660121Y20600049D01*
X22944380Y20513820D01*
X23240000Y20484704D01*
X23535619Y20513820D01*
X23819878Y20600049D01*
X24081852Y20740077D01*
X24311476Y20928524D01*
X24499923Y21158147D01*
X24510000Y21177000D01*
X24520077Y21158148D01*
X24708524Y20928524D01*
X24938147Y20740077D01*
X25200121Y20600049D01*
X25484380Y20513820D01*
X25780000Y20484704D01*
X26075619Y20513820D01*
X26359878Y20600049D01*
X26621852Y20740077D01*
X26851476Y20928524D01*
X27039923Y21158147D01*
X27179951Y21420121D01*
X27266180Y21704380D01*
X27288000Y21925922D01*
X27288000Y23074078D01*
X27266180Y23295620D01*
X27179951Y23579879D01*
X27039923Y23841853D01*
X26888000Y24026971D01*
X26888000Y31792000D01*
X26917469Y31792000D01*
X27344050Y31876852D01*
X27745880Y32043295D01*
X28107518Y32284934D01*
X28415066Y32592482D01*
X28656705Y32954120D01*
X28823148Y33355950D01*
X28908000Y33782531D01*
X28908000Y34217469D01*
X28823148Y34644050D01*
X28656705Y35045880D01*
X28415066Y35407518D01*
X28107518Y35715066D01*
X27745880Y35956705D01*
X27344050Y36123148D01*
X26917469Y36208000D01*
X26808000Y36208000D01*
X26808000Y36273029D01*
X26959923Y36458147D01*
X27099951Y36720121D01*
X27186180Y37004380D01*
X27208000Y37225922D01*
X27208000Y38774078D01*
X27186180Y38995620D01*
X27099951Y39279879D01*
X26959923Y39541853D01*
X26771476Y39771476D01*
X26541853Y39959923D01*
X26279879Y40099951D01*
X25995620Y40186180D01*
X25700000Y40215296D01*
X25404381Y40186180D01*
X25120122Y40099951D01*
X24858148Y39959923D01*
X24628525Y39771476D01*
X24440078Y39541853D01*
X24300050Y39279879D01*
X24213820Y38995620D01*
X24200000Y38855303D01*
X24186180Y38995620D01*
X24099951Y39279879D01*
X23959923Y39541853D01*
X23771476Y39771476D01*
X23541852Y39959923D01*
X23279878Y40099951D01*
X22995619Y40186180D01*
X22700000Y40215296D01*
X22404380Y40186180D01*
X22120121Y40099951D01*
X21858147Y39959923D01*
X21628524Y39771476D01*
X21440077Y39541852D01*
X21300049Y39279878D01*
X21213820Y38995619D01*
X21192000Y38774077D01*
X21192000Y37225922D01*
X21213820Y37004380D01*
X21300050Y36720121D01*
X21440078Y36458147D01*
X21592001Y36273029D01*
X21592001Y36205905D01*
X21175950Y36123148D01*
X20774120Y35956705D01*
X20412482Y35715066D01*
X20104934Y35407518D01*
X19863295Y35045880D01*
X19696852Y34644050D01*
X19612000Y34217469D01*
X19612000Y33782531D01*
X19696852Y33355950D01*
X19863295Y32954120D01*
X20104934Y32592482D01*
X20412482Y32284934D01*
X20774120Y32043295D01*
X21175950Y31876852D01*
X21602531Y31792000D01*
X22037469Y31792000D01*
X22132001Y31810804D01*
X22132000Y24026971D01*
X21980077Y23841853D01*
X21970000Y23823000D01*
X21959923Y23841853D01*
X21808000Y24026971D01*
X21808000Y30299580D01*
X21813360Y30354001D01*
X21808000Y30408422D01*
X21808000Y30408431D01*
X21791968Y30571206D01*
X21728611Y30780065D01*
X21625726Y30972550D01*
X21552339Y31061972D01*
X21521962Y31098987D01*
X21521960Y31098989D01*
X21487265Y31141265D01*
X21444988Y31175961D01*
X19142000Y33478947D01*
X19142000Y39165053D01*
X21356939Y41379990D01*
X50779062Y41379990D01*
X51092000Y41067052D01*
X51092000Y39665923D01*
X51113820Y39444381D01*
X51200049Y39160122D01*
X51340077Y38898148D01*
X51528524Y38668524D01*
X51758147Y38480077D01*
X52020121Y38340049D01*
X52304380Y38253820D01*
X52600000Y38224704D01*
X52895619Y38253820D01*
X53179878Y38340049D01*
X53441852Y38480077D01*
X53671476Y38668524D01*
X53859923Y38898147D01*
X53999951Y39160121D01*
X54086180Y39444380D01*
X54108000Y39665922D01*
X54108000Y41214078D01*
X54086180Y41435620D01*
X53999951Y41719879D01*
X53859923Y41981853D01*
X53671476Y42211476D01*
X53441853Y42399923D01*
X53179879Y42539951D01*
X53047855Y42580000D01*
X60893052Y42580000D01*
X60978034Y42495018D01*
X61012735Y42452735D01*
X61181450Y42314274D01*
X61312211Y42244381D01*
X61373935Y42211389D01*
X61582793Y42148032D01*
X61800000Y42126639D01*
X61854431Y42132000D01*
X61947910Y42132000D01*
X62000049Y41960122D01*
X62140077Y41698148D01*
X62328524Y41468524D01*
X62558147Y41280077D01*
X62820121Y41140049D01*
X63104380Y41053820D01*
X63400000Y41024704D01*
X63695619Y41053820D01*
X63979878Y41140049D01*
X64241852Y41280077D01*
X64471476Y41468524D01*
X64659923Y41698147D01*
X64799951Y41960121D01*
X64886180Y42244380D01*
X64908000Y42465922D01*
X64908000Y44014078D01*
X64886180Y44235620D01*
X64799951Y44519879D01*
X64659923Y44781853D01*
X64471476Y45011476D01*
X64241853Y45199923D01*
X63979879Y45339951D01*
X63695620Y45426180D01*
X63400000Y45455296D01*
X63104381Y45426180D01*
X62820122Y45339951D01*
X62558148Y45199923D01*
X62328525Y45011476D01*
X62140078Y44781853D01*
X62025922Y44568283D01*
X61970550Y44613726D01*
X61778065Y44716611D01*
X61569206Y44779968D01*
X61406431Y44796000D01*
X61406423Y44796000D01*
X61352000Y44801360D01*
X61297577Y44796000D01*
X20455353Y44796000D01*
X20400930Y44801360D01*
X20346506Y44796000D01*
X20346499Y44796000D01*
X20203088Y44781875D01*
X20183723Y44779968D01*
X19974865Y44716611D01*
X19782380Y44613726D01*
X19613665Y44475265D01*
X19578965Y44432983D01*
X16089012Y40943029D01*
X16046725Y40908325D01*
X15908264Y40739610D01*
X15806770Y40549726D01*
X15805379Y40547124D01*
X15742165Y40338735D01*
X15742022Y40338265D01*
X15725990Y40175490D01*
X15725990Y40175483D01*
X15720630Y40121060D01*
X15725990Y40066637D01*
X15725991Y32685493D01*
X15168515Y33242968D01*
X15133811Y33285255D01*
X14965096Y33423716D01*
X14772611Y33526601D01*
X14563752Y33589958D01*
X14400977Y33605990D01*
X14400969Y33605990D01*
X14346546Y33611350D01*
X14292123Y33605990D01*
X13792959Y33605990D01*
X13242000Y34156948D01*
X13242000Y35524535D01*
X13219457Y35753421D01*
X13130369Y36047105D01*
X12985697Y36317766D01*
X12791003Y36555003D01*
X12553765Y36749697D01*
X12283104Y36894369D01*
X11989420Y36983457D01*
X11684000Y37013538D01*
X11378579Y36983457D01*
X11084895Y36894369D01*
X10814234Y36749697D01*
X10634289Y36602021D01*
X10585528Y36693247D01*
X10497053Y36801053D01*
X10389247Y36889528D01*
X10266251Y36955271D01*
X10132792Y36995755D01*
X9994000Y37009425D01*
X8294000Y37009425D01*
X8155208Y36995755D01*
X8021749Y36955271D01*
X7898753Y36889528D01*
X7790947Y36801053D01*
X7702472Y36693247D01*
X7636729Y36570251D01*
X7608000Y36475543D01*
X7608000Y41787876D01*
X7704753Y41708472D01*
X7827749Y41642729D01*
X7961208Y41602245D01*
X8100000Y41588575D01*
X9700000Y41588575D01*
X9838792Y41602245D01*
X9972251Y41642729D01*
X10095247Y41708472D01*
X10203053Y41796947D01*
X10291528Y41904753D01*
X10357271Y42027749D01*
X10397755Y42161208D01*
X10411425Y42300000D01*
X10411425Y45300000D01*
X10397755Y45438792D01*
X10357271Y45572251D01*
X10291528Y45695247D01*
X10208000Y45797025D01*
X10208000Y45958209D01*
X14741791Y50492000D01*
X16448093Y50492000D01*
X16592001Y50415080D01*
X16592001Y49864252D01*
X16585673Y49800000D01*
X16610926Y49543588D01*
X16685719Y49297029D01*
X16807176Y49069799D01*
X16929673Y48920536D01*
X16929678Y48920531D01*
X16970631Y48870630D01*
X17020532Y48829677D01*
X17929673Y47920536D01*
X17970630Y47870630D01*
X18169798Y47707176D01*
X18397028Y47585719D01*
X18643587Y47510926D01*
X18835750Y47492000D01*
X18835757Y47492000D01*
X18900000Y47485673D01*
X18964243Y47492000D01*
X32338970Y47492000D01*
X32551848Y47279122D01*
X32872539Y47064843D01*
X33228872Y46917245D01*
X33607154Y46842000D01*
X33992846Y46842000D01*
X34371128Y46917245D01*
X34727461Y47064843D01*
X35048152Y47279122D01*
X35320878Y47551848D01*
X35535157Y47872539D01*
X35682755Y48228872D01*
X35758000Y48607154D01*
X35758000Y48992846D01*
X35682755Y49371128D01*
X35535157Y49727461D01*
X35320878Y50048152D01*
X35108000Y50261030D01*
X35108000Y60068257D01*
X35114327Y60132500D01*
X35108000Y60196743D01*
X35108000Y60196750D01*
X35089074Y60388913D01*
X35014281Y60635472D01*
X34892824Y60862702D01*
X34729370Y61061870D01*
X34679465Y61102826D01*
X29343716Y66438575D01*
X30850000Y66438575D01*
X30988792Y66452245D01*
X31082000Y66480519D01*
X31082000Y65621620D01*
X31074946Y65550000D01*
X31103097Y65264182D01*
X31163502Y65065054D01*
X31186467Y64989349D01*
X31321852Y64736061D01*
X31504050Y64514051D01*
X31559687Y64468391D01*
X33158394Y62869682D01*
X33204049Y62814051D01*
X33426059Y62631853D01*
X33676939Y62497755D01*
X33679347Y62496468D01*
X33954181Y62413098D01*
X34239999Y62384947D01*
X34311618Y62392001D01*
X36836075Y62392001D01*
X36836075Y58700000D01*
X36849745Y58561208D01*
X36890229Y58427749D01*
X36955972Y58304753D01*
X37044447Y58196947D01*
X37152253Y58108472D01*
X37275249Y58042729D01*
X37392001Y58007313D01*
X37392000Y56152090D01*
X37220121Y56099951D01*
X36958147Y55959923D01*
X36728524Y55771476D01*
X36540077Y55541853D01*
X36400049Y55279879D01*
X36313820Y54995620D01*
X36284704Y54700000D01*
X36313820Y54404380D01*
X36400049Y54120121D01*
X36540077Y53858147D01*
X36728524Y53628524D01*
X36958147Y53440077D01*
X37220121Y53300049D01*
X37392000Y53247910D01*
X37392000Y53045570D01*
X37392001Y53045560D01*
X37392000Y49954424D01*
X37386640Y49900000D01*
X37392000Y49845577D01*
X37392000Y49845570D01*
X37403445Y49729370D01*
X37408032Y49682794D01*
X37428955Y49613820D01*
X37471389Y49473936D01*
X37574274Y49281450D01*
X37712735Y49112735D01*
X37755022Y49078031D01*
X39678035Y47155017D01*
X39712735Y47112735D01*
X39881450Y46974274D01*
X40073935Y46871389D01*
X40282794Y46808032D01*
X40445569Y46792000D01*
X40445578Y46792000D01*
X40499999Y46786640D01*
X40554420Y46792000D01*
X41147910Y46792000D01*
X41200049Y46620122D01*
X41340077Y46358148D01*
X41528524Y46128524D01*
X41758147Y45940077D01*
X42020121Y45800049D01*
X42304380Y45713820D01*
X42600000Y45684704D01*
X42895619Y45713820D01*
X43179878Y45800049D01*
X43441852Y45940077D01*
X43671476Y46128524D01*
X43859923Y46358147D01*
X43999951Y46620121D01*
X44086180Y46904380D01*
X44108000Y47125922D01*
X44108000Y48674078D01*
X44086180Y48895620D01*
X43999951Y49179879D01*
X43859923Y49441853D01*
X43671476Y49671476D01*
X43441853Y49859923D01*
X43179879Y49999951D01*
X42895620Y50086180D01*
X42600000Y50115296D01*
X42304381Y50086180D01*
X42020122Y49999951D01*
X41758148Y49859923D01*
X41528525Y49671476D01*
X41340078Y49441853D01*
X41200050Y49179879D01*
X41147910Y49008000D01*
X40958948Y49008000D01*
X39608000Y50358947D01*
X39608000Y53247910D01*
X39779879Y53300049D01*
X40041853Y53440077D01*
X40271476Y53628524D01*
X40459923Y53858147D01*
X40599951Y54120121D01*
X40686180Y54404380D01*
X40715296Y54700000D01*
X40686180Y54995620D01*
X40599951Y55279879D01*
X40459923Y55541853D01*
X40271476Y55771476D01*
X40041853Y55959923D01*
X39779879Y56099951D01*
X39608000Y56152090D01*
X39608000Y58007313D01*
X39724751Y58042729D01*
X39847747Y58108472D01*
X39955553Y58196947D01*
X40044028Y58304753D01*
X40050354Y58316588D01*
X40113013Y58265165D01*
X40401481Y58110976D01*
X40714486Y58016026D01*
X41040000Y57983966D01*
X41365515Y58016026D01*
X41678520Y58110976D01*
X41966988Y58265165D01*
X42219832Y58472668D01*
X42427335Y58725512D01*
X42581524Y59013980D01*
X42676474Y59326985D01*
X42700500Y59570928D01*
X42700500Y61829072D01*
X42676474Y62073015D01*
X42581524Y62386020D01*
X42498000Y62542283D01*
X42498000Y63110883D01*
X42505054Y63182503D01*
X42476903Y63468321D01*
X42393533Y63743154D01*
X42332995Y63856412D01*
X42258148Y63996442D01*
X42075950Y64218452D01*
X42020308Y64264116D01*
X41992413Y64292011D01*
X50868569Y64292011D01*
X51749154Y63411425D01*
X50547500Y63411425D01*
X50408708Y63397755D01*
X50275249Y63357271D01*
X50152253Y63291528D01*
X50044447Y63203053D01*
X49955972Y63095247D01*
X49890229Y62972251D01*
X49849745Y62838792D01*
X49836075Y62700000D01*
X49836075Y58700000D01*
X49849745Y58561208D01*
X49890229Y58427749D01*
X49955972Y58304753D01*
X50044447Y58196947D01*
X50152253Y58108472D01*
X50275249Y58042729D01*
X50392001Y58007313D01*
X50392001Y56854433D01*
X50386640Y56800000D01*
X50408032Y56582794D01*
X50471389Y56373936D01*
X50471390Y56373935D01*
X50574275Y56181450D01*
X50712736Y56012735D01*
X50755018Y55978035D01*
X51489139Y55243913D01*
X51413820Y54995620D01*
X51384704Y54700000D01*
X51413820Y54404380D01*
X51500049Y54120121D01*
X51544410Y54037127D01*
X51508032Y53917206D01*
X51486640Y53700000D01*
X51492001Y53645567D01*
X51492001Y52326971D01*
X51340078Y52141853D01*
X51200050Y51879879D01*
X51113820Y51595620D01*
X51092000Y51374078D01*
X51092000Y49825923D01*
X51113820Y49604381D01*
X51200049Y49320122D01*
X51340077Y49058148D01*
X51528524Y48828524D01*
X51758147Y48640077D01*
X52020121Y48500049D01*
X52304380Y48413820D01*
X52600000Y48384704D01*
X52895619Y48413820D01*
X53179878Y48500049D01*
X53441852Y48640077D01*
X53671476Y48828524D01*
X53859923Y49058147D01*
X53999951Y49320121D01*
X54086180Y49604380D01*
X54108000Y49825922D01*
X54108000Y51374078D01*
X54086180Y51595620D01*
X53999951Y51879879D01*
X53859923Y52141853D01*
X53708000Y52326971D01*
X53708000Y53192000D01*
X54374078Y53192000D01*
X54595620Y53213820D01*
X54879879Y53300049D01*
X55141853Y53440077D01*
X55371476Y53628524D01*
X55559923Y53858147D01*
X55699951Y54120121D01*
X55786180Y54404380D01*
X55815296Y54700000D01*
X55786180Y54995620D01*
X55699951Y55279879D01*
X55559923Y55541853D01*
X55371476Y55771476D01*
X55141853Y55959923D01*
X54879879Y56099951D01*
X54595620Y56186180D01*
X54374078Y56208000D01*
X53658948Y56208000D01*
X52608000Y57258947D01*
X52608000Y58007313D01*
X52724751Y58042729D01*
X52847747Y58108472D01*
X52955553Y58196947D01*
X53044028Y58304753D01*
X53050354Y58316588D01*
X53113013Y58265165D01*
X53401481Y58110976D01*
X53714486Y58016026D01*
X54040000Y57983966D01*
X54365515Y58016026D01*
X54678520Y58110976D01*
X54966988Y58265165D01*
X55219832Y58472668D01*
X55427335Y58725512D01*
X55581524Y59013980D01*
X55676474Y59326985D01*
X55700500Y59570928D01*
X55700500Y61829072D01*
X55676474Y62073015D01*
X55581524Y62386020D01*
X55498000Y62542283D01*
X55498000Y63110883D01*
X55505054Y63182503D01*
X55476903Y63468321D01*
X55393533Y63743154D01*
X55332995Y63856413D01*
X55258148Y63996442D01*
X55075950Y64218452D01*
X55020313Y64264112D01*
X52554105Y66730319D01*
X52508441Y66785961D01*
X52286431Y66968159D01*
X52033143Y67103544D01*
X51758309Y67186914D01*
X51706671Y67192000D01*
X53326076Y67192000D01*
X55848390Y64669686D01*
X55894049Y64614049D01*
X56116059Y64431851D01*
X56306231Y64330202D01*
X56369347Y64296466D01*
X56644180Y64213096D01*
X56929998Y64184945D01*
X57001618Y64191999D01*
X64986079Y64191999D01*
X65582000Y63596077D01*
X65582000Y63398670D01*
X65452500Y63411425D01*
X63547500Y63411425D01*
X63408708Y63397755D01*
X63275249Y63357271D01*
X63152253Y63291528D01*
X63044447Y63203053D01*
X62955972Y63095247D01*
X62890229Y62972251D01*
X62849745Y62838792D01*
X62836075Y62700000D01*
X62836075Y58700000D01*
X62849745Y58561208D01*
X62890229Y58427749D01*
X62955972Y58304753D01*
X63044447Y58196947D01*
X63152253Y58108472D01*
X63275249Y58042729D01*
X63392000Y58007313D01*
X63392000Y57958948D01*
X61241053Y55808000D01*
X61126971Y55808000D01*
X60941853Y55959923D01*
X60679879Y56099951D01*
X60395620Y56186180D01*
X60174078Y56208000D01*
X58625922Y56208000D01*
X58404380Y56186180D01*
X58120121Y56099951D01*
X57858147Y55959923D01*
X57628524Y55771476D01*
X57440077Y55541853D01*
X57300049Y55279879D01*
X57213820Y54995620D01*
X57184704Y54700000D01*
X57213820Y54404380D01*
X57300049Y54120121D01*
X57440077Y53858147D01*
X57628524Y53628524D01*
X57858147Y53440077D01*
X58120121Y53300049D01*
X58404380Y53213820D01*
X58625922Y53192000D01*
X60174078Y53192000D01*
X60395620Y53213820D01*
X60679879Y53300049D01*
X60941853Y53440077D01*
X61126971Y53592000D01*
X61641052Y53592000D01*
X61892000Y53341052D01*
X61892000Y52625923D01*
X61913820Y52404381D01*
X62000049Y52120122D01*
X62140077Y51858148D01*
X62328524Y51628524D01*
X62558147Y51440077D01*
X62820121Y51300049D01*
X63104380Y51213820D01*
X63400000Y51184704D01*
X63695619Y51213820D01*
X63979878Y51300049D01*
X64241852Y51440077D01*
X64471476Y51628524D01*
X64659923Y51858147D01*
X64799951Y52120121D01*
X64886180Y52404380D01*
X64908000Y52625922D01*
X64908000Y54174078D01*
X64886180Y54395620D01*
X64799951Y54679879D01*
X64659923Y54941853D01*
X64471476Y55171476D01*
X64241853Y55359923D01*
X64036587Y55469640D01*
X65244983Y56678035D01*
X65287265Y56712735D01*
X65425726Y56881450D01*
X65528611Y57073935D01*
X65574759Y57226064D01*
X65591968Y57282793D01*
X65593875Y57302158D01*
X65608000Y57445569D01*
X65608000Y57445576D01*
X65613360Y57500000D01*
X65608000Y57554423D01*
X65608000Y58007313D01*
X65724751Y58042729D01*
X65847747Y58108472D01*
X65955553Y58196947D01*
X66044028Y58304753D01*
X66050354Y58316588D01*
X66113013Y58265165D01*
X66401481Y58110976D01*
X66714486Y58016026D01*
X67040000Y57983966D01*
X67365515Y58016026D01*
X67678520Y58110976D01*
X67966988Y58265165D01*
X68219832Y58472668D01*
X68427335Y58725512D01*
X68581524Y59013980D01*
X68676474Y59326985D01*
X68700500Y59570928D01*
X68700500Y61829072D01*
X68676474Y62073015D01*
X68581524Y62386020D01*
X68498000Y62542283D01*
X68498000Y64128381D01*
X68505054Y64200001D01*
X68476903Y64485819D01*
X68393533Y64760652D01*
X68388701Y64769692D01*
X68258148Y65013940D01*
X68075949Y65235950D01*
X68020318Y65281605D01*
X66671615Y66630307D01*
X66625951Y66685949D01*
X66403941Y66868147D01*
X66150653Y67003532D01*
X65875819Y67086902D01*
X65661620Y67107999D01*
X65590001Y67115053D01*
X65518382Y67107999D01*
X62541228Y67107999D01*
X62548712Y67122000D01*
X67616078Y67122000D01*
X70576205Y64161872D01*
X70576205Y63676975D01*
X70602365Y63411366D01*
X70705749Y63070557D01*
X70873634Y62756465D01*
X70926205Y62692407D01*
X70926206Y43016129D01*
X67618079Y39708001D01*
X59180722Y39708001D01*
X59109102Y39715055D01*
X58823284Y39686904D01*
X58615918Y39624000D01*
X58548451Y39603534D01*
X58295163Y39468149D01*
X58073153Y39285951D01*
X58027493Y39230314D01*
X56459687Y37662507D01*
X56404050Y37616847D01*
X56374141Y37580403D01*
X56355553Y37603053D01*
X56247747Y37691528D01*
X56124751Y37757271D01*
X55991292Y37797755D01*
X55852500Y37811425D01*
X53947500Y37811425D01*
X53808708Y37797755D01*
X53675249Y37757271D01*
X53552253Y37691528D01*
X53444447Y37603053D01*
X53355972Y37495247D01*
X53290229Y37372251D01*
X53249745Y37238792D01*
X53236075Y37100000D01*
X53236075Y35508000D01*
X49626971Y35508000D01*
X49441853Y35659923D01*
X49179879Y35799951D01*
X48895620Y35886180D01*
X48674078Y35908000D01*
X47125922Y35908000D01*
X46904380Y35886180D01*
X46620121Y35799951D01*
X46358147Y35659923D01*
X46128524Y35471476D01*
X45940077Y35241853D01*
X45800049Y34979879D01*
X45713820Y34695620D01*
X45684704Y34400000D01*
X45713820Y34104380D01*
X45800049Y33820121D01*
X45940077Y33558147D01*
X46128524Y33328524D01*
X46358147Y33140077D01*
X46620121Y33000049D01*
X46904380Y32913820D01*
X47125922Y32892000D01*
X48674078Y32892000D01*
X48895620Y32913820D01*
X49179879Y33000049D01*
X49441853Y33140077D01*
X49626971Y33292000D01*
X53236075Y33292000D01*
X53236075Y33100000D01*
X53249745Y32961208D01*
X53290229Y32827749D01*
X53355972Y32704753D01*
X53444447Y32596947D01*
X53552253Y32508472D01*
X53675249Y32442729D01*
X53808708Y32402245D01*
X53947500Y32388575D01*
X54996977Y32388575D01*
X55830549Y31555002D01*
X55865245Y31512725D01*
X55907521Y31478030D01*
X55907523Y31478028D01*
X55986412Y31413286D01*
X56033960Y31374264D01*
X56226445Y31271379D01*
X56435304Y31208022D01*
X56598079Y31191990D01*
X56598088Y31191990D01*
X56652509Y31186630D01*
X56706930Y31191990D01*
X59841063Y31191990D01*
X61892001Y29141050D01*
X61892000Y28124633D01*
X61386327Y27618960D01*
X61245103Y27446878D01*
X61105074Y27184903D01*
X61018845Y26900645D01*
X60989730Y26605025D01*
X61018845Y26309405D01*
X61105074Y26025147D01*
X61245103Y25763172D01*
X61433549Y25533549D01*
X61663172Y25345103D01*
X61925147Y25205074D01*
X62209405Y25118845D01*
X62505025Y25089730D01*
X62800645Y25118845D01*
X63084903Y25205074D01*
X63346878Y25345103D01*
X63518960Y25486327D01*
X64613673Y26581040D01*
X64754898Y26753122D01*
X64894926Y27015096D01*
X64981155Y27299355D01*
X65010271Y27594975D01*
X64981155Y27890595D01*
X64894926Y28174853D01*
X64754898Y28436828D01*
X64566451Y28666451D01*
X64336828Y28854898D01*
X64108000Y28977209D01*
X64108000Y29545580D01*
X64113360Y29600001D01*
X64108000Y29654422D01*
X64108000Y29654431D01*
X64091968Y29817206D01*
X64028611Y30026065D01*
X63925726Y30218550D01*
X63857185Y30302067D01*
X63821962Y30344987D01*
X63821960Y30344989D01*
X63787265Y30387265D01*
X63744988Y30421961D01*
X61121979Y33044968D01*
X61087275Y33087255D01*
X60918560Y33225716D01*
X60726075Y33328601D01*
X60517216Y33391958D01*
X60354441Y33407990D01*
X60354433Y33407990D01*
X60300010Y33413350D01*
X60245587Y33407990D01*
X58978322Y33407990D01*
X58981524Y33413980D01*
X59076474Y33726985D01*
X59100500Y33970928D01*
X59100500Y36179476D01*
X59713026Y36792001D01*
X68150382Y36792001D01*
X68222001Y36784947D01*
X68293620Y36792001D01*
X68385526Y36801053D01*
X68507819Y36813098D01*
X68626416Y36849074D01*
X68782653Y36896468D01*
X69035941Y37031853D01*
X69257951Y37214051D01*
X69303615Y37269693D01*
X73364519Y41330596D01*
X73420155Y41376255D01*
X73602353Y41598265D01*
X73737738Y41851553D01*
X73821108Y42126387D01*
X73842205Y42340586D01*
X73842205Y42340587D01*
X73849259Y42412204D01*
X73842205Y42483821D01*
X73842205Y62692406D01*
X73894776Y62756464D01*
X74062661Y63070556D01*
X74166045Y63411365D01*
X74192205Y63676974D01*
X74192205Y65154616D01*
X74166045Y65420225D01*
X74062661Y65761034D01*
X73894776Y66075126D01*
X73668840Y66350430D01*
X73393536Y66576366D01*
X73079444Y66744251D01*
X72738635Y66847635D01*
X72384205Y66882543D01*
X72029776Y66847635D01*
X72017893Y66844030D01*
X69301614Y69560308D01*
X69255950Y69615950D01*
X69033940Y69798148D01*
X68780652Y69933533D01*
X68505818Y70016903D01*
X68291619Y70038000D01*
X68220000Y70045054D01*
X68148381Y70038000D01*
X67236745Y70038000D01*
X67291528Y70104753D01*
X67357271Y70227749D01*
X67397755Y70361208D01*
X67411425Y70500000D01*
X67411425Y72700000D01*
X67397755Y72838792D01*
X67357271Y72972251D01*
X67291528Y73095247D01*
X67203053Y73203053D01*
X67095247Y73291528D01*
X66972251Y73357271D01*
X66838792Y73397755D01*
X66700000Y73411425D01*
X63700000Y73411425D01*
X63561208Y73397755D01*
X63427749Y73357271D01*
X63304753Y73291528D01*
X63196947Y73203053D01*
X63108472Y73095247D01*
X63088563Y73058000D01*
X59019619Y73058000D01*
X58948000Y73065054D01*
X58876381Y73058000D01*
X58662182Y73036903D01*
X58387348Y72953533D01*
X58134060Y72818148D01*
X57912050Y72635950D01*
X57866389Y72580312D01*
X57693686Y72407608D01*
X57638051Y72361950D01*
X57495278Y72187980D01*
X57366502Y72337794D01*
X57285940Y72435960D01*
X57217414Y72492198D01*
X57153345Y72553409D01*
X57106684Y72583071D01*
X57063930Y72618158D01*
X56985759Y72659941D01*
X56910971Y72707483D01*
X56859414Y72727474D01*
X56810642Y72753543D01*
X56725824Y72779272D01*
X56643195Y72811311D01*
X56588729Y72820860D01*
X56535808Y72836913D01*
X56447609Y72845600D01*
X56360308Y72860905D01*
X56233403Y72858010D01*
X31783188Y72858010D01*
X31711568Y72865064D01*
X31425750Y72836913D01*
X31181773Y72762903D01*
X31150917Y72753543D01*
X30897629Y72618158D01*
X30675619Y72435960D01*
X30629959Y72380323D01*
X29805780Y71556143D01*
X28231604Y73130318D01*
X28185940Y73185960D01*
X27963930Y73368158D01*
X27710642Y73503543D01*
X27435808Y73586913D01*
X27221609Y73608010D01*
X27149990Y73615064D01*
X27078371Y73608010D01*
X18121629Y73608010D01*
X18050010Y73615064D01*
X17764191Y73586913D01*
X17626775Y73545228D01*
X17489358Y73503543D01*
X17236070Y73368158D01*
X17014060Y73185960D01*
X16968400Y73130322D01*
X16719686Y72881609D01*
X16664050Y72835949D01*
X16481852Y72613939D01*
X16347161Y72361950D01*
X16346467Y72360651D01*
X16263097Y72085818D01*
X16234946Y71800000D01*
X16242000Y71728380D01*
X16242000Y71500072D01*
X16155972Y71395247D01*
X16090229Y71272251D01*
X16049745Y71138792D01*
X16036075Y71000000D01*
X16036075Y67000000D01*
X16049745Y66861208D01*
X16090229Y66727749D01*
X16155972Y66604753D01*
X16242000Y66499928D01*
X16242001Y64203925D01*
X14799502Y62761425D01*
X12650000Y62761425D01*
X12511208Y62747755D01*
X12377749Y62707271D01*
X12254753Y62641528D01*
X12146947Y62553053D01*
X12058472Y62445247D01*
X11992729Y62322251D01*
X11952245Y62188792D01*
X11938575Y62050000D01*
X11938575Y58550000D01*
X11952245Y58411208D01*
X11992729Y58277749D01*
X12058472Y58154753D01*
X12135065Y58061425D01*
X10525000Y58061425D01*
X10215504Y58030942D01*
X9917901Y57940666D01*
X9643629Y57794064D01*
X9403228Y57596772D01*
X9205936Y57356371D01*
X9059334Y57082099D01*
X8969058Y56784496D01*
X8938575Y56475000D01*
X8938575Y54725000D01*
X8969058Y54415504D01*
X9059334Y54117901D01*
X9205936Y53843629D01*
X9403228Y53603228D01*
X9643629Y53405936D01*
X9917901Y53259334D01*
X10215504Y53169058D01*
X10525000Y53138575D01*
X12275000Y53138575D01*
X12584496Y53169058D01*
X12882099Y53259334D01*
X13156371Y53405936D01*
X13396772Y53603228D01*
X13594064Y53843629D01*
X13740666Y54117901D01*
X13830942Y54415504D01*
X13861425Y54725000D01*
X13861425Y56475000D01*
X13830942Y56784496D01*
X13740666Y57082099D01*
X13594064Y57356371D01*
X13396772Y57596772D01*
X13156371Y57794064D01*
X13073097Y57838575D01*
X16150000Y57838575D01*
X16288792Y57852245D01*
X16422251Y57892729D01*
X16545247Y57958472D01*
X16653053Y58046947D01*
X16741528Y58154753D01*
X16807271Y58277749D01*
X16847755Y58411208D01*
X16861425Y58550000D01*
X16861425Y60699502D01*
X17506066Y61344143D01*
X19429673Y59420536D01*
X19470630Y59370630D01*
X19669798Y59207176D01*
X19897028Y59085719D01*
X20143587Y59010926D01*
X20335750Y58992000D01*
X20335757Y58992000D01*
X20400000Y58985673D01*
X20464243Y58992000D01*
X23888575Y58992000D01*
X23888575Y58800000D01*
X23902245Y58661208D01*
X23942729Y58527749D01*
X24008472Y58404753D01*
X24096947Y58296947D01*
X24204753Y58208472D01*
X24327749Y58142729D01*
X24461208Y58102245D01*
X24600000Y58088575D01*
X26200000Y58088575D01*
X26338792Y58102245D01*
X26472251Y58142729D01*
X26595247Y58208472D01*
X26703053Y58296947D01*
X26791528Y58404753D01*
X26857271Y58527749D01*
X26897755Y58661208D01*
X26911425Y58800000D01*
X26911425Y61800000D01*
X26897755Y61938792D01*
X26857271Y62072251D01*
X26791528Y62195247D01*
X26703053Y62303053D01*
X26595247Y62391528D01*
X26472251Y62457271D01*
X26338792Y62497755D01*
X26200000Y62511425D01*
X24600000Y62511425D01*
X24461208Y62497755D01*
X24327749Y62457271D01*
X24204753Y62391528D01*
X24096947Y62303053D01*
X24008472Y62195247D01*
X23942729Y62072251D01*
X23902245Y61938792D01*
X23888575Y61800000D01*
X23888575Y61608000D01*
X20941791Y61608000D01*
X19145753Y63404038D01*
X19165054Y63600000D01*
X19158000Y63671619D01*
X19158000Y66499929D01*
X19244028Y66604753D01*
X19309771Y66727749D01*
X19350255Y66861208D01*
X19363925Y67000000D01*
X19363925Y70692010D01*
X21241678Y70692010D01*
X21238476Y70686019D01*
X21143526Y70373014D01*
X21119500Y70129071D01*
X21119501Y67870928D01*
X21143527Y67626985D01*
X21238477Y67313980D01*
X21392666Y67025512D01*
X21600169Y66772668D01*
X21853013Y66565165D01*
X22141481Y66410976D01*
X22454486Y66316026D01*
X22780000Y66283966D01*
X23105515Y66316026D01*
X23418520Y66410976D01*
X23706988Y66565165D01*
X23959832Y66772668D01*
X24167335Y67025512D01*
X24321524Y67313980D01*
X24416474Y67626985D01*
X24419993Y67662716D01*
X32492000Y59590709D01*
X32492001Y54709857D01*
X32492000Y54709847D01*
X32492001Y50261031D01*
X32338970Y50108000D01*
X19441791Y50108000D01*
X19208000Y50341791D01*
X19208000Y50415080D01*
X19441853Y50540077D01*
X19671476Y50728524D01*
X19859923Y50958147D01*
X19999951Y51220121D01*
X20086180Y51504380D01*
X20115296Y51800000D01*
X20086180Y52095620D01*
X19999951Y52379879D01*
X19859923Y52641853D01*
X19671476Y52871476D01*
X19441853Y53059923D01*
X19179879Y53199951D01*
X18895620Y53286180D01*
X18674078Y53308000D01*
X17125922Y53308000D01*
X16904380Y53286180D01*
X16620121Y53199951D01*
X16448093Y53108000D01*
X14264243Y53108000D01*
X14200000Y53114327D01*
X14135757Y53108000D01*
X14135750Y53108000D01*
X13943587Y53089074D01*
X13697028Y53014281D01*
X13469798Y52892824D01*
X13270630Y52729370D01*
X13229673Y52679464D01*
X8020536Y47470327D01*
X7970630Y47429370D01*
X7807176Y47230201D01*
X7685719Y47002971D01*
X7610926Y46756412D01*
X7592000Y46564249D01*
X7592000Y46564243D01*
X7585673Y46500000D01*
X7592000Y46435757D01*
X7592000Y45797025D01*
X7508472Y45695247D01*
X7442729Y45572251D01*
X7402245Y45438792D01*
X7388575Y45300000D01*
X7388575Y45108000D01*
X6964239Y45108000D01*
X6899999Y45114327D01*
X6835759Y45108000D01*
X6835750Y45108000D01*
X6643587Y45089074D01*
X6397028Y45014281D01*
X6169798Y44892824D01*
X5970630Y44729370D01*
X5929673Y44679464D01*
X5420532Y44170323D01*
X5370631Y44129370D01*
X5329678Y44079469D01*
X5329673Y44079464D01*
X5207176Y43930201D01*
X5085719Y43702971D01*
X5010926Y43456412D01*
X4985673Y43200000D01*
X4992001Y43135747D01*
X4992000Y34912243D01*
X4985673Y34848000D01*
X4992000Y34783757D01*
X4992000Y34783751D01*
X4992001Y34783741D01*
X4992000Y27954243D01*
X4985673Y27890000D01*
X4992000Y27825757D01*
X4992000Y27825751D01*
X4992001Y27825741D01*
X4992000Y15000251D01*
X4985672Y14936000D01*
X783000Y14936000D01*
X783000Y52574077D01*
X4032000Y52574077D01*
X4032000Y51025922D01*
X4053820Y50804380D01*
X4140050Y50520121D01*
X4280078Y50258147D01*
X4468525Y50028524D01*
X4698148Y49840077D01*
X4960122Y49700049D01*
X5244381Y49613820D01*
X5540000Y49584704D01*
X5835620Y49613820D01*
X6119879Y49700049D01*
X6381853Y49840077D01*
X6611476Y50028524D01*
X6799923Y50258147D01*
X6825415Y50305839D01*
X6965922Y50292000D01*
X8514078Y50292000D01*
X8735620Y50313820D01*
X9019879Y50400049D01*
X9281853Y50540077D01*
X9511476Y50728524D01*
X9699923Y50958147D01*
X9839951Y51220121D01*
X9926180Y51504380D01*
X9955296Y51800000D01*
X9926180Y52095620D01*
X9839951Y52379879D01*
X9699923Y52641853D01*
X9511476Y52871476D01*
X9281853Y53059923D01*
X9019879Y53199951D01*
X8735620Y53286180D01*
X8514078Y53308000D01*
X6965922Y53308000D01*
X6825415Y53294161D01*
X6799923Y53341853D01*
X6611476Y53571476D01*
X6381852Y53759923D01*
X6119878Y53899951D01*
X5835619Y53986180D01*
X5540000Y54015296D01*
X5244380Y53986180D01*
X4960121Y53899951D01*
X4698147Y53759923D01*
X4468524Y53571476D01*
X4280077Y53341852D01*
X4140049Y53079878D01*
X4053820Y52795619D01*
X4032000Y52574077D01*
X783000Y52574077D01*
X783000Y71900230D01*
X900201Y71617281D01*
X1196559Y71173751D01*
X1573751Y70796559D01*
X2017281Y70500201D01*
X2510105Y70296067D01*
X3033285Y70192000D01*
X3566715Y70192000D01*
X4089895Y70296067D01*
X4582719Y70500201D01*
X5026249Y70796559D01*
X5403441Y71173751D01*
X5699799Y71617281D01*
X5903933Y72110105D01*
X6008000Y72633285D01*
X6008000Y73166715D01*
X5903933Y73689895D01*
X5699799Y74182719D01*
X5403441Y74626249D01*
X5026249Y75003441D01*
X4706636Y75217000D01*
X71893364Y75217000D01*
X71573751Y75003441D01*
G36*
X50549929Y17703479D02*
G01*
X51010387Y17243020D01*
X50610020Y16842653D01*
X50468796Y16670571D01*
X50328767Y16408596D01*
X50242538Y16124338D01*
X50213423Y15828718D01*
X50242538Y15533098D01*
X50328767Y15248840D01*
X50468796Y14986865D01*
X50657242Y14757242D01*
X50886865Y14568796D01*
X51148840Y14428767D01*
X51433098Y14342538D01*
X51728718Y14313423D01*
X52024338Y14342538D01*
X52308596Y14428767D01*
X52570571Y14568796D01*
X52742653Y14710020D01*
X53207635Y15175002D01*
X53207635Y14084582D01*
X53115022Y13991969D01*
X53072735Y13957265D01*
X52934274Y13788550D01*
X52845077Y13621673D01*
X52831389Y13596064D01*
X52768032Y13387206D01*
X52766613Y13372794D01*
X52752000Y13224430D01*
X52752000Y13224423D01*
X52746640Y13170000D01*
X52752000Y13115576D01*
X52752000Y11752090D01*
X52580121Y11699951D01*
X52318147Y11559923D01*
X52088524Y11371476D01*
X51900077Y11141853D01*
X51760049Y10879879D01*
X51673820Y10595620D01*
X51644704Y10300000D01*
X51673820Y10004380D01*
X51760049Y9720121D01*
X51900077Y9458147D01*
X52088524Y9228524D01*
X52318147Y9040077D01*
X52580121Y8900049D01*
X52864380Y8813820D01*
X53085922Y8792000D01*
X54634078Y8792000D01*
X54855620Y8813820D01*
X55139879Y8900049D01*
X55401853Y9040077D01*
X55586971Y9192000D01*
X56409053Y9192000D01*
X59910000Y5691051D01*
X59910000Y5369466D01*
X59932543Y5140580D01*
X60004312Y4903990D01*
X57905802Y4903990D01*
X57831549Y4978243D01*
X57774926Y5164904D01*
X57634898Y5426878D01*
X57493673Y5598960D01*
X56398960Y6693673D01*
X56226878Y6834897D01*
X55964903Y6974926D01*
X55680645Y7061155D01*
X55385025Y7090270D01*
X55089405Y7061155D01*
X54805147Y6974926D01*
X54543172Y6834897D01*
X54313549Y6646451D01*
X54125103Y6416828D01*
X54109694Y6388000D01*
X52894633Y6388000D01*
X52588960Y6693673D01*
X52416878Y6834897D01*
X52154903Y6974926D01*
X51870645Y7061155D01*
X51575025Y7090270D01*
X51279405Y7061155D01*
X50995147Y6974926D01*
X50733172Y6834897D01*
X50503549Y6646451D01*
X50315103Y6416828D01*
X50175074Y6154853D01*
X50088845Y5870595D01*
X50059730Y5574975D01*
X50088845Y5279355D01*
X50165818Y5025610D01*
X49944199Y4803990D01*
X45151689Y4803990D01*
X45223457Y5040579D01*
X45246000Y5269465D01*
X45246000Y6087052D01*
X45322973Y6164025D01*
X45365255Y6198725D01*
X45503716Y6367440D01*
X45606601Y6559925D01*
X45643873Y6682794D01*
X45669958Y6768783D01*
X45675613Y6826202D01*
X45685990Y6931559D01*
X45685990Y6931566D01*
X45691350Y6985990D01*
X45685990Y7040413D01*
X45685990Y7687453D01*
X48452486Y10453948D01*
X48610891Y10369279D01*
X48895150Y10283050D01*
X49190770Y10253934D01*
X49486390Y10283050D01*
X49770648Y10369279D01*
X50032623Y10509307D01*
X50262246Y10697754D01*
X50450693Y10927377D01*
X50590721Y11189352D01*
X50676950Y11473610D01*
X50706066Y11769230D01*
X50676950Y12064850D01*
X50590721Y12349109D01*
X50450693Y12611083D01*
X50309468Y12783165D01*
X49214755Y13877878D01*
X49042673Y14019102D01*
X48780698Y14159131D01*
X48496440Y14245360D01*
X48258116Y14268832D01*
X47608000Y14918948D01*
X47608000Y15454078D01*
X47586180Y15675620D01*
X47499951Y15959879D01*
X47359923Y16221853D01*
X47171476Y16451476D01*
X46941853Y16639923D01*
X46679879Y16779951D01*
X46395620Y16866180D01*
X46100000Y16895296D01*
X45804381Y16866180D01*
X45520122Y16779951D01*
X45258148Y16639923D01*
X45028525Y16451476D01*
X44840077Y16221853D01*
X44830000Y16203000D01*
X44819923Y16221853D01*
X44631476Y16451476D01*
X44401853Y16639923D01*
X44139879Y16779951D01*
X43855620Y16866180D01*
X43560000Y16895296D01*
X43264381Y16866180D01*
X42980122Y16779951D01*
X42718148Y16639923D01*
X42488525Y16451476D01*
X42300077Y16221853D01*
X42290000Y16203000D01*
X42279923Y16221853D01*
X42091476Y16451476D01*
X41861853Y16639923D01*
X41599879Y16779951D01*
X41315620Y16866180D01*
X41020000Y16895296D01*
X40724381Y16866180D01*
X40440122Y16779951D01*
X40178148Y16639923D01*
X39948525Y16451476D01*
X39760077Y16221853D01*
X39750000Y16203000D01*
X39739923Y16221853D01*
X39551476Y16451476D01*
X39321853Y16639923D01*
X39059879Y16779951D01*
X38775620Y16866180D01*
X38480000Y16895296D01*
X38184381Y16866180D01*
X37900122Y16779951D01*
X37638148Y16639923D01*
X37408525Y16451476D01*
X37220077Y16221853D01*
X37210000Y16203000D01*
X37199923Y16221853D01*
X37011476Y16451476D01*
X36781853Y16639923D01*
X36519879Y16779951D01*
X36235620Y16866180D01*
X35940000Y16895296D01*
X35644381Y16866180D01*
X35360122Y16779951D01*
X35098148Y16639923D01*
X34868525Y16451476D01*
X34680077Y16221853D01*
X34670000Y16203000D01*
X34659923Y16221853D01*
X34471476Y16451476D01*
X34241853Y16639923D01*
X33979879Y16779951D01*
X33695620Y16866180D01*
X33400000Y16895296D01*
X33104381Y16866180D01*
X32820122Y16779951D01*
X32558148Y16639923D01*
X32328525Y16451476D01*
X32140077Y16221853D01*
X32000049Y15959879D01*
X31913820Y15675620D01*
X31892000Y15454078D01*
X31892000Y14305923D01*
X31913820Y14084381D01*
X32000049Y13800122D01*
X32140077Y13538148D01*
X32328524Y13308524D01*
X32558147Y13120077D01*
X32820121Y12980049D01*
X33104380Y12893820D01*
X33400000Y12864704D01*
X33695619Y12893820D01*
X33979878Y12980049D01*
X34241852Y13120077D01*
X34471476Y13308524D01*
X34659923Y13538147D01*
X34670000Y13557000D01*
X34680077Y13538148D01*
X34868524Y13308524D01*
X35098147Y13120077D01*
X35360121Y12980049D01*
X35644380Y12893820D01*
X35940000Y12864704D01*
X36235619Y12893820D01*
X36519878Y12980049D01*
X36781852Y13120077D01*
X37011476Y13308524D01*
X37199923Y13538147D01*
X37210000Y13557000D01*
X37220077Y13538148D01*
X37408524Y13308524D01*
X37638147Y13120077D01*
X37900121Y12980049D01*
X38184380Y12893820D01*
X38480000Y12864704D01*
X38775619Y12893820D01*
X39059878Y12980049D01*
X39321852Y13120077D01*
X39551476Y13308524D01*
X39739923Y13538147D01*
X39750000Y13557000D01*
X39760077Y13538148D01*
X39912001Y13353028D01*
X39912001Y13238950D01*
X35303033Y8629981D01*
X35245421Y8647457D01*
X35016535Y8670000D01*
X33563465Y8670000D01*
X33334579Y8647457D01*
X33040895Y8558369D01*
X32770234Y8413697D01*
X32532997Y8219003D01*
X32338303Y7981766D01*
X32193631Y7711105D01*
X32104543Y7417421D01*
X32074462Y7112000D01*
X32104543Y6806579D01*
X32193631Y6512895D01*
X32338303Y6242234D01*
X32485979Y6062289D01*
X32394753Y6013528D01*
X32286947Y5925053D01*
X32249973Y5880000D01*
X29980027Y5880000D01*
X29943053Y5925053D01*
X29835247Y6013528D01*
X29813530Y6025136D01*
X29991697Y6242234D01*
X30136369Y6512895D01*
X30225457Y6806579D01*
X30255384Y7110437D01*
X31224983Y8080035D01*
X31267265Y8114735D01*
X31405726Y8283450D01*
X31508611Y8475935D01*
X31571968Y8684794D01*
X31588000Y8847569D01*
X31588000Y8847578D01*
X31593360Y8901999D01*
X31588000Y8956420D01*
X31588000Y9868524D01*
X31806690Y10087214D01*
X31993610Y10366959D01*
X32122362Y10677795D01*
X32188000Y11007777D01*
X32188000Y11344223D01*
X32122362Y11674205D01*
X31993610Y11985041D01*
X31806690Y12264786D01*
X31568786Y12502690D01*
X31289041Y12689610D01*
X30978205Y12818362D01*
X30648223Y12884000D01*
X30311777Y12884000D01*
X29981795Y12818362D01*
X29670959Y12689610D01*
X29391214Y12502690D01*
X29153310Y12264786D01*
X28966390Y11985041D01*
X28837638Y11674205D01*
X28772000Y11344223D01*
X28772000Y11007777D01*
X28837638Y10677795D01*
X28966390Y10366959D01*
X29153310Y10087214D01*
X29372001Y9868523D01*
X29372001Y9360949D01*
X28681053Y8670000D01*
X27113465Y8670000D01*
X26884579Y8647457D01*
X26647990Y8575689D01*
X26647990Y9876508D01*
X26659464Y9887982D01*
X26709370Y9928939D01*
X26872824Y10128107D01*
X26994281Y10355337D01*
X27069074Y10601896D01*
X27088000Y10794059D01*
X27088000Y10794068D01*
X27094327Y10858308D01*
X27088000Y10922548D01*
X27088000Y13504124D01*
X27248524Y13308524D01*
X27478147Y13120077D01*
X27740121Y12980049D01*
X28024380Y12893820D01*
X28320000Y12864704D01*
X28615619Y12893820D01*
X28899878Y12980049D01*
X29161852Y13120077D01*
X29391476Y13308524D01*
X29579923Y13538147D01*
X29719951Y13800121D01*
X29806180Y14084380D01*
X29828000Y14305922D01*
X29828000Y15454078D01*
X29806180Y15675620D01*
X29719951Y15959879D01*
X29579923Y16221853D01*
X29391476Y16451476D01*
X29161853Y16639923D01*
X28899879Y16779951D01*
X28615620Y16866180D01*
X28358456Y16891508D01*
X29230879Y17763930D01*
X50549929Y17703479D01*
X50549929Y17703479D01*
G37*
X50549929Y17703479D02*
X51010387Y17243020D01*
X50610020Y16842653D01*
X50468796Y16670571D01*
X50328767Y16408596D01*
X50242538Y16124338D01*
X50213423Y15828718D01*
X50242538Y15533098D01*
X50328767Y15248840D01*
X50468796Y14986865D01*
X50657242Y14757242D01*
X50886865Y14568796D01*
X51148840Y14428767D01*
X51433098Y14342538D01*
X51728718Y14313423D01*
X52024338Y14342538D01*
X52308596Y14428767D01*
X52570571Y14568796D01*
X52742653Y14710020D01*
X53207635Y15175002D01*
X53207635Y14084582D01*
X53115022Y13991969D01*
X53072735Y13957265D01*
X52934274Y13788550D01*
X52845077Y13621673D01*
X52831389Y13596064D01*
X52768032Y13387206D01*
X52766613Y13372794D01*
X52752000Y13224430D01*
X52752000Y13224423D01*
X52746640Y13170000D01*
X52752000Y13115576D01*
X52752000Y11752090D01*
X52580121Y11699951D01*
X52318147Y11559923D01*
X52088524Y11371476D01*
X51900077Y11141853D01*
X51760049Y10879879D01*
X51673820Y10595620D01*
X51644704Y10300000D01*
X51673820Y10004380D01*
X51760049Y9720121D01*
X51900077Y9458147D01*
X52088524Y9228524D01*
X52318147Y9040077D01*
X52580121Y8900049D01*
X52864380Y8813820D01*
X53085922Y8792000D01*
X54634078Y8792000D01*
X54855620Y8813820D01*
X55139879Y8900049D01*
X55401853Y9040077D01*
X55586971Y9192000D01*
X56409053Y9192000D01*
X59910000Y5691051D01*
X59910000Y5369466D01*
X59932543Y5140580D01*
X60004312Y4903990D01*
X57905802Y4903990D01*
X57831549Y4978243D01*
X57774926Y5164904D01*
X57634898Y5426878D01*
X57493673Y5598960D01*
X56398960Y6693673D01*
X56226878Y6834897D01*
X55964903Y6974926D01*
X55680645Y7061155D01*
X55385025Y7090270D01*
X55089405Y7061155D01*
X54805147Y6974926D01*
X54543172Y6834897D01*
X54313549Y6646451D01*
X54125103Y6416828D01*
X54109694Y6388000D01*
X52894633Y6388000D01*
X52588960Y6693673D01*
X52416878Y6834897D01*
X52154903Y6974926D01*
X51870645Y7061155D01*
X51575025Y7090270D01*
X51279405Y7061155D01*
X50995147Y6974926D01*
X50733172Y6834897D01*
X50503549Y6646451D01*
X50315103Y6416828D01*
X50175074Y6154853D01*
X50088845Y5870595D01*
X50059730Y5574975D01*
X50088845Y5279355D01*
X50165818Y5025610D01*
X49944199Y4803990D01*
X45151689Y4803990D01*
X45223457Y5040579D01*
X45246000Y5269465D01*
X45246000Y6087052D01*
X45322973Y6164025D01*
X45365255Y6198725D01*
X45503716Y6367440D01*
X45606601Y6559925D01*
X45643873Y6682794D01*
X45669958Y6768783D01*
X45675613Y6826202D01*
X45685990Y6931559D01*
X45685990Y6931566D01*
X45691350Y6985990D01*
X45685990Y7040413D01*
X45685990Y7687453D01*
X48452486Y10453948D01*
X48610891Y10369279D01*
X48895150Y10283050D01*
X49190770Y10253934D01*
X49486390Y10283050D01*
X49770648Y10369279D01*
X50032623Y10509307D01*
X50262246Y10697754D01*
X50450693Y10927377D01*
X50590721Y11189352D01*
X50676950Y11473610D01*
X50706066Y11769230D01*
X50676950Y12064850D01*
X50590721Y12349109D01*
X50450693Y12611083D01*
X50309468Y12783165D01*
X49214755Y13877878D01*
X49042673Y14019102D01*
X48780698Y14159131D01*
X48496440Y14245360D01*
X48258116Y14268832D01*
X47608000Y14918948D01*
X47608000Y15454078D01*
X47586180Y15675620D01*
X47499951Y15959879D01*
X47359923Y16221853D01*
X47171476Y16451476D01*
X46941853Y16639923D01*
X46679879Y16779951D01*
X46395620Y16866180D01*
X46100000Y16895296D01*
X45804381Y16866180D01*
X45520122Y16779951D01*
X45258148Y16639923D01*
X45028525Y16451476D01*
X44840077Y16221853D01*
X44830000Y16203000D01*
X44819923Y16221853D01*
X44631476Y16451476D01*
X44401853Y16639923D01*
X44139879Y16779951D01*
X43855620Y16866180D01*
X43560000Y16895296D01*
X43264381Y16866180D01*
X42980122Y16779951D01*
X42718148Y16639923D01*
X42488525Y16451476D01*
X42300077Y16221853D01*
X42290000Y16203000D01*
X42279923Y16221853D01*
X42091476Y16451476D01*
X41861853Y16639923D01*
X41599879Y16779951D01*
X41315620Y16866180D01*
X41020000Y16895296D01*
X40724381Y16866180D01*
X40440122Y16779951D01*
X40178148Y16639923D01*
X39948525Y16451476D01*
X39760077Y16221853D01*
X39750000Y16203000D01*
X39739923Y16221853D01*
X39551476Y16451476D01*
X39321853Y16639923D01*
X39059879Y16779951D01*
X38775620Y16866180D01*
X38480000Y16895296D01*
X38184381Y16866180D01*
X37900122Y16779951D01*
X37638148Y16639923D01*
X37408525Y16451476D01*
X37220077Y16221853D01*
X37210000Y16203000D01*
X37199923Y16221853D01*
X37011476Y16451476D01*
X36781853Y16639923D01*
X36519879Y16779951D01*
X36235620Y16866180D01*
X35940000Y16895296D01*
X35644381Y16866180D01*
X35360122Y16779951D01*
X35098148Y16639923D01*
X34868525Y16451476D01*
X34680077Y16221853D01*
X34670000Y16203000D01*
X34659923Y16221853D01*
X34471476Y16451476D01*
X34241853Y16639923D01*
X33979879Y16779951D01*
X33695620Y16866180D01*
X33400000Y16895296D01*
X33104381Y16866180D01*
X32820122Y16779951D01*
X32558148Y16639923D01*
X32328525Y16451476D01*
X32140077Y16221853D01*
X32000049Y15959879D01*
X31913820Y15675620D01*
X31892000Y15454078D01*
X31892000Y14305923D01*
X31913820Y14084381D01*
X32000049Y13800122D01*
X32140077Y13538148D01*
X32328524Y13308524D01*
X32558147Y13120077D01*
X32820121Y12980049D01*
X33104380Y12893820D01*
X33400000Y12864704D01*
X33695619Y12893820D01*
X33979878Y12980049D01*
X34241852Y13120077D01*
X34471476Y13308524D01*
X34659923Y13538147D01*
X34670000Y13557000D01*
X34680077Y13538148D01*
X34868524Y13308524D01*
X35098147Y13120077D01*
X35360121Y12980049D01*
X35644380Y12893820D01*
X35940000Y12864704D01*
X36235619Y12893820D01*
X36519878Y12980049D01*
X36781852Y13120077D01*
X37011476Y13308524D01*
X37199923Y13538147D01*
X37210000Y13557000D01*
X37220077Y13538148D01*
X37408524Y13308524D01*
X37638147Y13120077D01*
X37900121Y12980049D01*
X38184380Y12893820D01*
X38480000Y12864704D01*
X38775619Y12893820D01*
X39059878Y12980049D01*
X39321852Y13120077D01*
X39551476Y13308524D01*
X39739923Y13538147D01*
X39750000Y13557000D01*
X39760077Y13538148D01*
X39912001Y13353028D01*
X39912001Y13238950D01*
X35303033Y8629981D01*
X35245421Y8647457D01*
X35016535Y8670000D01*
X33563465Y8670000D01*
X33334579Y8647457D01*
X33040895Y8558369D01*
X32770234Y8413697D01*
X32532997Y8219003D01*
X32338303Y7981766D01*
X32193631Y7711105D01*
X32104543Y7417421D01*
X32074462Y7112000D01*
X32104543Y6806579D01*
X32193631Y6512895D01*
X32338303Y6242234D01*
X32485979Y6062289D01*
X32394753Y6013528D01*
X32286947Y5925053D01*
X32249973Y5880000D01*
X29980027Y5880000D01*
X29943053Y5925053D01*
X29835247Y6013528D01*
X29813530Y6025136D01*
X29991697Y6242234D01*
X30136369Y6512895D01*
X30225457Y6806579D01*
X30255384Y7110437D01*
X31224983Y8080035D01*
X31267265Y8114735D01*
X31405726Y8283450D01*
X31508611Y8475935D01*
X31571968Y8684794D01*
X31588000Y8847569D01*
X31588000Y8847578D01*
X31593360Y8901999D01*
X31588000Y8956420D01*
X31588000Y9868524D01*
X31806690Y10087214D01*
X31993610Y10366959D01*
X32122362Y10677795D01*
X32188000Y11007777D01*
X32188000Y11344223D01*
X32122362Y11674205D01*
X31993610Y11985041D01*
X31806690Y12264786D01*
X31568786Y12502690D01*
X31289041Y12689610D01*
X30978205Y12818362D01*
X30648223Y12884000D01*
X30311777Y12884000D01*
X29981795Y12818362D01*
X29670959Y12689610D01*
X29391214Y12502690D01*
X29153310Y12264786D01*
X28966390Y11985041D01*
X28837638Y11674205D01*
X28772000Y11344223D01*
X28772000Y11007777D01*
X28837638Y10677795D01*
X28966390Y10366959D01*
X29153310Y10087214D01*
X29372001Y9868523D01*
X29372001Y9360949D01*
X28681053Y8670000D01*
X27113465Y8670000D01*
X26884579Y8647457D01*
X26647990Y8575689D01*
X26647990Y9876508D01*
X26659464Y9887982D01*
X26709370Y9928939D01*
X26872824Y10128107D01*
X26994281Y10355337D01*
X27069074Y10601896D01*
X27088000Y10794059D01*
X27088000Y10794068D01*
X27094327Y10858308D01*
X27088000Y10922548D01*
X27088000Y13504124D01*
X27248524Y13308524D01*
X27478147Y13120077D01*
X27740121Y12980049D01*
X28024380Y12893820D01*
X28320000Y12864704D01*
X28615619Y12893820D01*
X28899878Y12980049D01*
X29161852Y13120077D01*
X29391476Y13308524D01*
X29579923Y13538147D01*
X29719951Y13800121D01*
X29806180Y14084380D01*
X29828000Y14305922D01*
X29828000Y15454078D01*
X29806180Y15675620D01*
X29719951Y15959879D01*
X29579923Y16221853D01*
X29391476Y16451476D01*
X29161853Y16639923D01*
X28899879Y16779951D01*
X28615620Y16866180D01*
X28358456Y16891508D01*
X29230879Y17763930D01*
X50549929Y17703479D01*
M02*
