G04 #@! TF.GenerationSoftware,KiCad,Pcbnew,5.1.4-3.fc30*
G04 #@! TF.CreationDate,2019-09-30T02:21:18+02:00*
G04 #@! TF.ProjectId,AT328-aqua-controller,41543332-382d-4617-9175-612d636f6e74,rev?*
G04 #@! TF.SameCoordinates,PX1e53ac0PY62b48e0*
G04 #@! TF.FileFunction,Legend,Top*
G04 #@! TF.FilePolarity,Positive*
%FSLAX46Y46*%
G04 Gerber Fmt 4.6, Leading zero omitted, Abs format (unit mm)*
G04 Created by KiCad (PCBNEW 5.1.4-3.fc30) date 2019-09-30 02:21:18*
%MOMM*%
%LPD*%
G04 APERTURE LIST*
%ADD10C,0.120000*%
%ADD11C,0.150000*%
G04 APERTURE END LIST*
D10*
X22825000Y12304775D02*
X22325000Y12304775D01*
X22575000Y12554775D02*
X22575000Y12054775D01*
X21384000Y7149000D02*
X20816000Y7149000D01*
X21618000Y7189000D02*
X20582000Y7189000D01*
X21777000Y7229000D02*
X20423000Y7229000D01*
X21905000Y7269000D02*
X20295000Y7269000D01*
X22015000Y7309000D02*
X20185000Y7309000D01*
X22111000Y7349000D02*
X20089000Y7349000D01*
X22198000Y7389000D02*
X20002000Y7389000D01*
X22278000Y7429000D02*
X19922000Y7429000D01*
X20060000Y7469000D02*
X19849000Y7469000D01*
X22351000Y7469000D02*
X22140000Y7469000D01*
X20060000Y7509000D02*
X19781000Y7509000D01*
X22419000Y7509000D02*
X22140000Y7509000D01*
X20060000Y7549000D02*
X19717000Y7549000D01*
X22483000Y7549000D02*
X22140000Y7549000D01*
X20060000Y7589000D02*
X19657000Y7589000D01*
X22543000Y7589000D02*
X22140000Y7589000D01*
X20060000Y7629000D02*
X19600000Y7629000D01*
X22600000Y7629000D02*
X22140000Y7629000D01*
X20060000Y7669000D02*
X19546000Y7669000D01*
X22654000Y7669000D02*
X22140000Y7669000D01*
X20060000Y7709000D02*
X19495000Y7709000D01*
X22705000Y7709000D02*
X22140000Y7709000D01*
X20060000Y7749000D02*
X19447000Y7749000D01*
X22753000Y7749000D02*
X22140000Y7749000D01*
X20060000Y7789000D02*
X19401000Y7789000D01*
X22799000Y7789000D02*
X22140000Y7789000D01*
X20060000Y7829000D02*
X19357000Y7829000D01*
X22843000Y7829000D02*
X22140000Y7829000D01*
X20060000Y7869000D02*
X19315000Y7869000D01*
X22885000Y7869000D02*
X22140000Y7869000D01*
X20060000Y7909000D02*
X19274000Y7909000D01*
X22926000Y7909000D02*
X22140000Y7909000D01*
X20060000Y7949000D02*
X19236000Y7949000D01*
X22964000Y7949000D02*
X22140000Y7949000D01*
X20060000Y7989000D02*
X19199000Y7989000D01*
X23001000Y7989000D02*
X22140000Y7989000D01*
X20060000Y8029000D02*
X19163000Y8029000D01*
X23037000Y8029000D02*
X22140000Y8029000D01*
X20060000Y8069000D02*
X19129000Y8069000D01*
X23071000Y8069000D02*
X22140000Y8069000D01*
X20060000Y8109000D02*
X19096000Y8109000D01*
X23104000Y8109000D02*
X22140000Y8109000D01*
X20060000Y8149000D02*
X19065000Y8149000D01*
X23135000Y8149000D02*
X22140000Y8149000D01*
X20060000Y8189000D02*
X19035000Y8189000D01*
X23165000Y8189000D02*
X22140000Y8189000D01*
X20060000Y8229000D02*
X19005000Y8229000D01*
X23195000Y8229000D02*
X22140000Y8229000D01*
X20060000Y8269000D02*
X18978000Y8269000D01*
X23222000Y8269000D02*
X22140000Y8269000D01*
X20060000Y8309000D02*
X18951000Y8309000D01*
X23249000Y8309000D02*
X22140000Y8309000D01*
X20060000Y8349000D02*
X18925000Y8349000D01*
X23275000Y8349000D02*
X22140000Y8349000D01*
X20060000Y8389000D02*
X18900000Y8389000D01*
X23300000Y8389000D02*
X22140000Y8389000D01*
X20060000Y8429000D02*
X18876000Y8429000D01*
X23324000Y8429000D02*
X22140000Y8429000D01*
X20060000Y8469000D02*
X18853000Y8469000D01*
X23347000Y8469000D02*
X22140000Y8469000D01*
X20060000Y8509000D02*
X18832000Y8509000D01*
X23368000Y8509000D02*
X22140000Y8509000D01*
X20060000Y8549000D02*
X18810000Y8549000D01*
X23390000Y8549000D02*
X22140000Y8549000D01*
X20060000Y8589000D02*
X18790000Y8589000D01*
X23410000Y8589000D02*
X22140000Y8589000D01*
X20060000Y8629000D02*
X18771000Y8629000D01*
X23429000Y8629000D02*
X22140000Y8629000D01*
X20060000Y8669000D02*
X18752000Y8669000D01*
X23448000Y8669000D02*
X22140000Y8669000D01*
X20060000Y8709000D02*
X18735000Y8709000D01*
X23465000Y8709000D02*
X22140000Y8709000D01*
X20060000Y8749000D02*
X18718000Y8749000D01*
X23482000Y8749000D02*
X22140000Y8749000D01*
X20060000Y8789000D02*
X18702000Y8789000D01*
X23498000Y8789000D02*
X22140000Y8789000D01*
X20060000Y8829000D02*
X18686000Y8829000D01*
X23514000Y8829000D02*
X22140000Y8829000D01*
X20060000Y8869000D02*
X18672000Y8869000D01*
X23528000Y8869000D02*
X22140000Y8869000D01*
X20060000Y8909000D02*
X18658000Y8909000D01*
X23542000Y8909000D02*
X22140000Y8909000D01*
X20060000Y8949000D02*
X18645000Y8949000D01*
X23555000Y8949000D02*
X22140000Y8949000D01*
X20060000Y8989000D02*
X18632000Y8989000D01*
X23568000Y8989000D02*
X22140000Y8989000D01*
X20060000Y9029000D02*
X18620000Y9029000D01*
X23580000Y9029000D02*
X22140000Y9029000D01*
X20060000Y9070000D02*
X18609000Y9070000D01*
X23591000Y9070000D02*
X22140000Y9070000D01*
X20060000Y9110000D02*
X18599000Y9110000D01*
X23601000Y9110000D02*
X22140000Y9110000D01*
X20060000Y9150000D02*
X18589000Y9150000D01*
X23611000Y9150000D02*
X22140000Y9150000D01*
X20060000Y9190000D02*
X18580000Y9190000D01*
X23620000Y9190000D02*
X22140000Y9190000D01*
X20060000Y9230000D02*
X18572000Y9230000D01*
X23628000Y9230000D02*
X22140000Y9230000D01*
X20060000Y9270000D02*
X18564000Y9270000D01*
X23636000Y9270000D02*
X22140000Y9270000D01*
X20060000Y9310000D02*
X18557000Y9310000D01*
X23643000Y9310000D02*
X22140000Y9310000D01*
X20060000Y9350000D02*
X18550000Y9350000D01*
X23650000Y9350000D02*
X22140000Y9350000D01*
X20060000Y9390000D02*
X18544000Y9390000D01*
X23656000Y9390000D02*
X22140000Y9390000D01*
X20060000Y9430000D02*
X18539000Y9430000D01*
X23661000Y9430000D02*
X22140000Y9430000D01*
X20060000Y9470000D02*
X18535000Y9470000D01*
X23665000Y9470000D02*
X22140000Y9470000D01*
X20060000Y9510000D02*
X18531000Y9510000D01*
X23669000Y9510000D02*
X22140000Y9510000D01*
X23673000Y9550000D02*
X18527000Y9550000D01*
X23676000Y9590000D02*
X18524000Y9590000D01*
X23678000Y9630000D02*
X18522000Y9630000D01*
X23679000Y9670000D02*
X18521000Y9670000D01*
X23680000Y9710000D02*
X18520000Y9710000D01*
X23680000Y9750000D02*
X18520000Y9750000D01*
X23720000Y9750000D02*
G75*
G03X23720000Y9750000I-2620000J0D01*
G01*
X64530000Y21630000D02*
X64530000Y24370000D01*
X69770000Y21630000D02*
X69770000Y24370000D01*
X69770000Y24370000D02*
X64530000Y24370000D01*
X69770000Y21630000D02*
X64530000Y21630000D01*
X21060000Y36525000D02*
G75*
G03X21060000Y31475000I0J-2525000D01*
G01*
X27460000Y36525000D02*
G75*
G02X27460000Y31475000I0J-2525000D01*
G01*
X27460000Y36525000D02*
X21060000Y36525000D01*
X27460000Y31475000D02*
X21060000Y31475000D01*
X65900000Y11380000D02*
X65900000Y12150000D01*
X65900000Y19460000D02*
X65900000Y18690000D01*
X67270000Y12150000D02*
X67270000Y18690000D01*
X64530000Y12150000D02*
X67270000Y12150000D01*
X64530000Y18690000D02*
X64530000Y12150000D01*
X67270000Y18690000D02*
X64530000Y18690000D01*
X15422795Y11864184D02*
G75*
G02X16150000Y11340000I-1122795J-2324184D01*
G01*
X13201629Y11895457D02*
G75*
G03X11950000Y10650000I1098371J-2355457D01*
G01*
X13196158Y7172801D02*
G75*
G02X11950000Y8400000I1103842J2367199D01*
G01*
X15422795Y7215816D02*
G75*
G03X16150000Y7740000I-1122795J2324184D01*
G01*
X16150000Y7740000D02*
X16150000Y11340000D01*
X19882789Y62850000D02*
X19882789Y62100000D01*
X19507789Y62475000D02*
X20257789Y62475000D01*
X27491000Y60741000D02*
X27491000Y59859000D01*
X27451000Y60993000D02*
X27451000Y59607000D01*
X27411000Y61177000D02*
X27411000Y59423000D01*
X27371000Y61328000D02*
X27371000Y59272000D01*
X27331000Y61458000D02*
X27331000Y59142000D01*
X27291000Y61575000D02*
X27291000Y59025000D01*
X27251000Y61681000D02*
X27251000Y58919000D01*
X27211000Y61778000D02*
X27211000Y58822000D01*
X27171000Y61869000D02*
X27171000Y58731000D01*
X27131000Y61954000D02*
X27131000Y58646000D01*
X27091000Y62033000D02*
X27091000Y58567000D01*
X27051000Y62109000D02*
X27051000Y58491000D01*
X27011000Y62181000D02*
X27011000Y58419000D01*
X26971000Y62249000D02*
X26971000Y58351000D01*
X26931000Y62314000D02*
X26931000Y58286000D01*
X26891000Y62377000D02*
X26891000Y58223000D01*
X26851000Y62437000D02*
X26851000Y58163000D01*
X26811000Y62495000D02*
X26811000Y58105000D01*
X26771000Y62550000D02*
X26771000Y58050000D01*
X26731000Y62604000D02*
X26731000Y57996000D01*
X26691000Y62655000D02*
X26691000Y57945000D01*
X26651000Y62705000D02*
X26651000Y57895000D01*
X26611000Y62754000D02*
X26611000Y57846000D01*
X26571000Y62800000D02*
X26571000Y57800000D01*
X26531000Y62846000D02*
X26531000Y57754000D01*
X26491000Y62889000D02*
X26491000Y57711000D01*
X26451000Y62932000D02*
X26451000Y57668000D01*
X26411000Y62973000D02*
X26411000Y57627000D01*
X26371000Y63013000D02*
X26371000Y57587000D01*
X26331000Y63052000D02*
X26331000Y57548000D01*
X26291000Y63090000D02*
X26291000Y57510000D01*
X26251000Y63127000D02*
X26251000Y57473000D01*
X26211000Y63163000D02*
X26211000Y57437000D01*
X26171000Y63198000D02*
X26171000Y57402000D01*
X26131000Y63231000D02*
X26131000Y57369000D01*
X26091000Y63264000D02*
X26091000Y57336000D01*
X26051000Y63296000D02*
X26051000Y57304000D01*
X26011000Y63328000D02*
X26011000Y57272000D01*
X25971000Y63358000D02*
X25971000Y57242000D01*
X25931000Y59260000D02*
X25931000Y57212000D01*
X25931000Y63388000D02*
X25931000Y61340000D01*
X25891000Y59260000D02*
X25891000Y57184000D01*
X25891000Y63416000D02*
X25891000Y61340000D01*
X25851000Y59260000D02*
X25851000Y57156000D01*
X25851000Y63444000D02*
X25851000Y61340000D01*
X25811000Y59260000D02*
X25811000Y57128000D01*
X25811000Y63472000D02*
X25811000Y61340000D01*
X25771000Y59260000D02*
X25771000Y57102000D01*
X25771000Y63498000D02*
X25771000Y61340000D01*
X25731000Y59260000D02*
X25731000Y57076000D01*
X25731000Y63524000D02*
X25731000Y61340000D01*
X25691000Y59260000D02*
X25691000Y57051000D01*
X25691000Y63549000D02*
X25691000Y61340000D01*
X25651000Y59260000D02*
X25651000Y57026000D01*
X25651000Y63574000D02*
X25651000Y61340000D01*
X25611000Y59260000D02*
X25611000Y57003000D01*
X25611000Y63597000D02*
X25611000Y61340000D01*
X25571000Y59260000D02*
X25571000Y56979000D01*
X25571000Y63621000D02*
X25571000Y61340000D01*
X25531000Y59260000D02*
X25531000Y56957000D01*
X25531000Y63643000D02*
X25531000Y61340000D01*
X25491000Y59260000D02*
X25491000Y56935000D01*
X25491000Y63665000D02*
X25491000Y61340000D01*
X25451000Y59260000D02*
X25451000Y56914000D01*
X25451000Y63686000D02*
X25451000Y61340000D01*
X25411000Y59260000D02*
X25411000Y56893000D01*
X25411000Y63707000D02*
X25411000Y61340000D01*
X25371000Y59260000D02*
X25371000Y56873000D01*
X25371000Y63727000D02*
X25371000Y61340000D01*
X25331000Y59260000D02*
X25331000Y56853000D01*
X25331000Y63747000D02*
X25331000Y61340000D01*
X25291000Y59260000D02*
X25291000Y56834000D01*
X25291000Y63766000D02*
X25291000Y61340000D01*
X25251000Y59260000D02*
X25251000Y56816000D01*
X25251000Y63784000D02*
X25251000Y61340000D01*
X25211000Y59260000D02*
X25211000Y56798000D01*
X25211000Y63802000D02*
X25211000Y61340000D01*
X25171000Y59260000D02*
X25171000Y56780000D01*
X25171000Y63820000D02*
X25171000Y61340000D01*
X25131000Y59260000D02*
X25131000Y56764000D01*
X25131000Y63836000D02*
X25131000Y61340000D01*
X25091000Y59260000D02*
X25091000Y56747000D01*
X25091000Y63853000D02*
X25091000Y61340000D01*
X25051000Y59260000D02*
X25051000Y56732000D01*
X25051000Y63868000D02*
X25051000Y61340000D01*
X25011000Y59260000D02*
X25011000Y56716000D01*
X25011000Y63884000D02*
X25011000Y61340000D01*
X24971000Y59260000D02*
X24971000Y56702000D01*
X24971000Y63898000D02*
X24971000Y61340000D01*
X24931000Y59260000D02*
X24931000Y56687000D01*
X24931000Y63913000D02*
X24931000Y61340000D01*
X24891000Y59260000D02*
X24891000Y56674000D01*
X24891000Y63926000D02*
X24891000Y61340000D01*
X24851000Y59260000D02*
X24851000Y56660000D01*
X24851000Y63940000D02*
X24851000Y61340000D01*
X24811000Y59260000D02*
X24811000Y56647000D01*
X24811000Y63953000D02*
X24811000Y61340000D01*
X24771000Y59260000D02*
X24771000Y56635000D01*
X24771000Y63965000D02*
X24771000Y61340000D01*
X24731000Y59260000D02*
X24731000Y56623000D01*
X24731000Y63977000D02*
X24731000Y61340000D01*
X24691000Y59260000D02*
X24691000Y56612000D01*
X24691000Y63988000D02*
X24691000Y61340000D01*
X24651000Y59260000D02*
X24651000Y56601000D01*
X24651000Y63999000D02*
X24651000Y61340000D01*
X24611000Y59260000D02*
X24611000Y56590000D01*
X24611000Y64010000D02*
X24611000Y61340000D01*
X24571000Y59260000D02*
X24571000Y56580000D01*
X24571000Y64020000D02*
X24571000Y61340000D01*
X24531000Y59260000D02*
X24531000Y56571000D01*
X24531000Y64029000D02*
X24531000Y61340000D01*
X24491000Y59260000D02*
X24491000Y56562000D01*
X24491000Y64038000D02*
X24491000Y61340000D01*
X24451000Y59260000D02*
X24451000Y56553000D01*
X24451000Y64047000D02*
X24451000Y61340000D01*
X24411000Y59260000D02*
X24411000Y56545000D01*
X24411000Y64055000D02*
X24411000Y61340000D01*
X24371000Y59260000D02*
X24371000Y56537000D01*
X24371000Y64063000D02*
X24371000Y61340000D01*
X24330000Y59260000D02*
X24330000Y56530000D01*
X24330000Y64070000D02*
X24330000Y61340000D01*
X24290000Y59260000D02*
X24290000Y56523000D01*
X24290000Y64077000D02*
X24290000Y61340000D01*
X24250000Y59260000D02*
X24250000Y56516000D01*
X24250000Y64084000D02*
X24250000Y61340000D01*
X24210000Y59260000D02*
X24210000Y56510000D01*
X24210000Y64090000D02*
X24210000Y61340000D01*
X24170000Y59260000D02*
X24170000Y56505000D01*
X24170000Y64095000D02*
X24170000Y61340000D01*
X24130000Y59260000D02*
X24130000Y56499000D01*
X24130000Y64101000D02*
X24130000Y61340000D01*
X24090000Y59260000D02*
X24090000Y56495000D01*
X24090000Y64105000D02*
X24090000Y61340000D01*
X24050000Y59260000D02*
X24050000Y56490000D01*
X24050000Y64110000D02*
X24050000Y61340000D01*
X24010000Y59260000D02*
X24010000Y56486000D01*
X24010000Y64114000D02*
X24010000Y61340000D01*
X23970000Y59260000D02*
X23970000Y56483000D01*
X23970000Y64117000D02*
X23970000Y61340000D01*
X23930000Y59260000D02*
X23930000Y56480000D01*
X23930000Y64120000D02*
X23930000Y61340000D01*
X23890000Y59260000D02*
X23890000Y56477000D01*
X23890000Y64123000D02*
X23890000Y61340000D01*
X23850000Y64125000D02*
X23850000Y56475000D01*
X23810000Y64127000D02*
X23810000Y56473000D01*
X23770000Y64129000D02*
X23770000Y56471000D01*
X23730000Y64130000D02*
X23730000Y56470000D01*
X23690000Y64130000D02*
X23690000Y56470000D01*
X23650000Y64130000D02*
X23650000Y56470000D01*
X27520000Y60300000D02*
G75*
G03X27520000Y60300000I-3870000J0D01*
G01*
X14020000Y43800000D02*
G75*
G03X14020000Y43800000I-3870000J0D01*
G01*
X10150000Y47630000D02*
X10150000Y39970000D01*
X10190000Y47630000D02*
X10190000Y39970000D01*
X10230000Y47630000D02*
X10230000Y39970000D01*
X10270000Y47629000D02*
X10270000Y39971000D01*
X10310000Y47627000D02*
X10310000Y39973000D01*
X10350000Y47625000D02*
X10350000Y39975000D01*
X10390000Y47623000D02*
X10390000Y44840000D01*
X10390000Y42760000D02*
X10390000Y39977000D01*
X10430000Y47620000D02*
X10430000Y44840000D01*
X10430000Y42760000D02*
X10430000Y39980000D01*
X10470000Y47617000D02*
X10470000Y44840000D01*
X10470000Y42760000D02*
X10470000Y39983000D01*
X10510000Y47614000D02*
X10510000Y44840000D01*
X10510000Y42760000D02*
X10510000Y39986000D01*
X10550000Y47610000D02*
X10550000Y44840000D01*
X10550000Y42760000D02*
X10550000Y39990000D01*
X10590000Y47605000D02*
X10590000Y44840000D01*
X10590000Y42760000D02*
X10590000Y39995000D01*
X10630000Y47601000D02*
X10630000Y44840000D01*
X10630000Y42760000D02*
X10630000Y39999000D01*
X10670000Y47595000D02*
X10670000Y44840000D01*
X10670000Y42760000D02*
X10670000Y40005000D01*
X10710000Y47590000D02*
X10710000Y44840000D01*
X10710000Y42760000D02*
X10710000Y40010000D01*
X10750000Y47584000D02*
X10750000Y44840000D01*
X10750000Y42760000D02*
X10750000Y40016000D01*
X10790000Y47577000D02*
X10790000Y44840000D01*
X10790000Y42760000D02*
X10790000Y40023000D01*
X10830000Y47570000D02*
X10830000Y44840000D01*
X10830000Y42760000D02*
X10830000Y40030000D01*
X10871000Y47563000D02*
X10871000Y44840000D01*
X10871000Y42760000D02*
X10871000Y40037000D01*
X10911000Y47555000D02*
X10911000Y44840000D01*
X10911000Y42760000D02*
X10911000Y40045000D01*
X10951000Y47547000D02*
X10951000Y44840000D01*
X10951000Y42760000D02*
X10951000Y40053000D01*
X10991000Y47538000D02*
X10991000Y44840000D01*
X10991000Y42760000D02*
X10991000Y40062000D01*
X11031000Y47529000D02*
X11031000Y44840000D01*
X11031000Y42760000D02*
X11031000Y40071000D01*
X11071000Y47520000D02*
X11071000Y44840000D01*
X11071000Y42760000D02*
X11071000Y40080000D01*
X11111000Y47510000D02*
X11111000Y44840000D01*
X11111000Y42760000D02*
X11111000Y40090000D01*
X11151000Y47499000D02*
X11151000Y44840000D01*
X11151000Y42760000D02*
X11151000Y40101000D01*
X11191000Y47488000D02*
X11191000Y44840000D01*
X11191000Y42760000D02*
X11191000Y40112000D01*
X11231000Y47477000D02*
X11231000Y44840000D01*
X11231000Y42760000D02*
X11231000Y40123000D01*
X11271000Y47465000D02*
X11271000Y44840000D01*
X11271000Y42760000D02*
X11271000Y40135000D01*
X11311000Y47453000D02*
X11311000Y44840000D01*
X11311000Y42760000D02*
X11311000Y40147000D01*
X11351000Y47440000D02*
X11351000Y44840000D01*
X11351000Y42760000D02*
X11351000Y40160000D01*
X11391000Y47426000D02*
X11391000Y44840000D01*
X11391000Y42760000D02*
X11391000Y40174000D01*
X11431000Y47413000D02*
X11431000Y44840000D01*
X11431000Y42760000D02*
X11431000Y40187000D01*
X11471000Y47398000D02*
X11471000Y44840000D01*
X11471000Y42760000D02*
X11471000Y40202000D01*
X11511000Y47384000D02*
X11511000Y44840000D01*
X11511000Y42760000D02*
X11511000Y40216000D01*
X11551000Y47368000D02*
X11551000Y44840000D01*
X11551000Y42760000D02*
X11551000Y40232000D01*
X11591000Y47353000D02*
X11591000Y44840000D01*
X11591000Y42760000D02*
X11591000Y40247000D01*
X11631000Y47336000D02*
X11631000Y44840000D01*
X11631000Y42760000D02*
X11631000Y40264000D01*
X11671000Y47320000D02*
X11671000Y44840000D01*
X11671000Y42760000D02*
X11671000Y40280000D01*
X11711000Y47302000D02*
X11711000Y44840000D01*
X11711000Y42760000D02*
X11711000Y40298000D01*
X11751000Y47284000D02*
X11751000Y44840000D01*
X11751000Y42760000D02*
X11751000Y40316000D01*
X11791000Y47266000D02*
X11791000Y44840000D01*
X11791000Y42760000D02*
X11791000Y40334000D01*
X11831000Y47247000D02*
X11831000Y44840000D01*
X11831000Y42760000D02*
X11831000Y40353000D01*
X11871000Y47227000D02*
X11871000Y44840000D01*
X11871000Y42760000D02*
X11871000Y40373000D01*
X11911000Y47207000D02*
X11911000Y44840000D01*
X11911000Y42760000D02*
X11911000Y40393000D01*
X11951000Y47186000D02*
X11951000Y44840000D01*
X11951000Y42760000D02*
X11951000Y40414000D01*
X11991000Y47165000D02*
X11991000Y44840000D01*
X11991000Y42760000D02*
X11991000Y40435000D01*
X12031000Y47143000D02*
X12031000Y44840000D01*
X12031000Y42760000D02*
X12031000Y40457000D01*
X12071000Y47121000D02*
X12071000Y44840000D01*
X12071000Y42760000D02*
X12071000Y40479000D01*
X12111000Y47097000D02*
X12111000Y44840000D01*
X12111000Y42760000D02*
X12111000Y40503000D01*
X12151000Y47074000D02*
X12151000Y44840000D01*
X12151000Y42760000D02*
X12151000Y40526000D01*
X12191000Y47049000D02*
X12191000Y44840000D01*
X12191000Y42760000D02*
X12191000Y40551000D01*
X12231000Y47024000D02*
X12231000Y44840000D01*
X12231000Y42760000D02*
X12231000Y40576000D01*
X12271000Y46998000D02*
X12271000Y44840000D01*
X12271000Y42760000D02*
X12271000Y40602000D01*
X12311000Y46972000D02*
X12311000Y44840000D01*
X12311000Y42760000D02*
X12311000Y40628000D01*
X12351000Y46944000D02*
X12351000Y44840000D01*
X12351000Y42760000D02*
X12351000Y40656000D01*
X12391000Y46916000D02*
X12391000Y44840000D01*
X12391000Y42760000D02*
X12391000Y40684000D01*
X12431000Y46888000D02*
X12431000Y44840000D01*
X12431000Y42760000D02*
X12431000Y40712000D01*
X12471000Y46858000D02*
X12471000Y40742000D01*
X12511000Y46828000D02*
X12511000Y40772000D01*
X12551000Y46796000D02*
X12551000Y40804000D01*
X12591000Y46764000D02*
X12591000Y40836000D01*
X12631000Y46731000D02*
X12631000Y40869000D01*
X12671000Y46698000D02*
X12671000Y40902000D01*
X12711000Y46663000D02*
X12711000Y40937000D01*
X12751000Y46627000D02*
X12751000Y40973000D01*
X12791000Y46590000D02*
X12791000Y41010000D01*
X12831000Y46552000D02*
X12831000Y41048000D01*
X12871000Y46513000D02*
X12871000Y41087000D01*
X12911000Y46473000D02*
X12911000Y41127000D01*
X12951000Y46432000D02*
X12951000Y41168000D01*
X12991000Y46389000D02*
X12991000Y41211000D01*
X13031000Y46346000D02*
X13031000Y41254000D01*
X13071000Y46300000D02*
X13071000Y41300000D01*
X13111000Y46254000D02*
X13111000Y41346000D01*
X13151000Y46205000D02*
X13151000Y41395000D01*
X13191000Y46155000D02*
X13191000Y41445000D01*
X13231000Y46104000D02*
X13231000Y41496000D01*
X13271000Y46050000D02*
X13271000Y41550000D01*
X13311000Y45995000D02*
X13311000Y41605000D01*
X13351000Y45937000D02*
X13351000Y41663000D01*
X13391000Y45877000D02*
X13391000Y41723000D01*
X13431000Y45814000D02*
X13431000Y41786000D01*
X13471000Y45749000D02*
X13471000Y41851000D01*
X13511000Y45681000D02*
X13511000Y41919000D01*
X13551000Y45609000D02*
X13551000Y41991000D01*
X13591000Y45533000D02*
X13591000Y42067000D01*
X13631000Y45454000D02*
X13631000Y42146000D01*
X13671000Y45369000D02*
X13671000Y42231000D01*
X13711000Y45278000D02*
X13711000Y42322000D01*
X13751000Y45181000D02*
X13751000Y42419000D01*
X13791000Y45075000D02*
X13791000Y42525000D01*
X13831000Y44958000D02*
X13831000Y42642000D01*
X13871000Y44828000D02*
X13871000Y42772000D01*
X13911000Y44677000D02*
X13911000Y42923000D01*
X13951000Y44493000D02*
X13951000Y43107000D01*
X13991000Y44241000D02*
X13991000Y43359000D01*
X6007789Y45975000D02*
X6757789Y45975000D01*
X6382789Y46350000D02*
X6382789Y45600000D01*
X24330000Y36630000D02*
X24330000Y39370000D01*
X29570000Y36630000D02*
X29570000Y39370000D01*
X29570000Y39370000D02*
X24330000Y39370000D01*
X29570000Y36630000D02*
X24330000Y36630000D01*
X18830000Y39370000D02*
X24070000Y39370000D01*
X18830000Y36630000D02*
X24070000Y36630000D01*
X18830000Y39370000D02*
X18830000Y36630000D01*
X24070000Y39370000D02*
X24070000Y36630000D01*
X15500000Y64050000D02*
X15500000Y65100000D01*
X14450000Y65100000D02*
X15500000Y65100000D01*
X9400000Y55700000D02*
X600000Y55700000D01*
X600000Y55700000D02*
X600000Y64900000D01*
X15300000Y58400000D02*
X15300000Y55700000D01*
X15300000Y55700000D02*
X13400000Y55700000D01*
X600000Y64900000D02*
X15300000Y64900000D01*
X15300000Y64900000D02*
X15300000Y62300000D01*
X34730000Y31270000D02*
X32070000Y31270000D01*
X34730000Y28670000D02*
X34730000Y31270000D01*
X32070000Y28670000D02*
X32070000Y31270000D01*
X34730000Y28670000D02*
X32070000Y28670000D01*
X34730000Y27400000D02*
X34730000Y26070000D01*
X34730000Y26070000D02*
X33400000Y26070000D01*
X14530000Y25870000D02*
X13200000Y25870000D01*
X14530000Y27200000D02*
X14530000Y25870000D01*
X14530000Y28470000D02*
X11870000Y28470000D01*
X11870000Y28470000D02*
X11870000Y31070000D01*
X14530000Y28470000D02*
X14530000Y31070000D01*
X14530000Y31070000D02*
X11870000Y31070000D01*
X60830000Y68870000D02*
X60830000Y71530000D01*
X58230000Y68870000D02*
X60830000Y68870000D01*
X58230000Y71530000D02*
X60830000Y71530000D01*
X58230000Y68870000D02*
X58230000Y71530000D01*
X56960000Y68870000D02*
X55630000Y68870000D01*
X55630000Y68870000D02*
X55630000Y70200000D01*
X45390000Y6330000D02*
X45390000Y3670000D01*
X50530000Y6330000D02*
X45390000Y6330000D01*
X50530000Y3670000D02*
X45390000Y3670000D01*
X50530000Y6330000D02*
X50530000Y3670000D01*
X51800000Y6330000D02*
X53130000Y6330000D01*
X53130000Y6330000D02*
X53130000Y5000000D01*
X32370000Y3670000D02*
X32370000Y5000000D01*
X33700000Y3670000D02*
X32370000Y3670000D01*
X34970000Y3670000D02*
X34970000Y6330000D01*
X34970000Y6330000D02*
X42650000Y6330000D01*
X34970000Y3670000D02*
X42650000Y3670000D01*
X42650000Y3670000D02*
X42650000Y6330000D01*
X38870000Y68870000D02*
X38870000Y71530000D01*
X31190000Y68870000D02*
X38870000Y68870000D01*
X31190000Y71530000D02*
X38870000Y71530000D01*
X31190000Y68870000D02*
X31190000Y71530000D01*
X29920000Y68870000D02*
X28590000Y68870000D01*
X28590000Y68870000D02*
X28590000Y70200000D01*
X70470000Y5370000D02*
X73130000Y5370000D01*
X70470000Y18130000D02*
X70470000Y5370000D01*
X73130000Y18130000D02*
X73130000Y5370000D01*
X70470000Y18130000D02*
X73130000Y18130000D01*
X70470000Y19400000D02*
X70470000Y20730000D01*
X70470000Y20730000D02*
X71800000Y20730000D01*
X7570000Y11270000D02*
X7570000Y13930000D01*
X7570000Y11270000D02*
X10170000Y11270000D01*
X10170000Y11270000D02*
X10170000Y13930000D01*
X7570000Y13930000D02*
X10170000Y13930000D01*
X4970000Y13930000D02*
X6300000Y13930000D01*
X4970000Y12600000D02*
X4970000Y13930000D01*
X63140000Y68170000D02*
X63140000Y65230000D01*
X63380000Y68170000D02*
X63380000Y65230000D01*
X63260000Y68170000D02*
X63260000Y65230000D01*
X68820000Y66700000D02*
X67800000Y66700000D01*
X61340000Y66700000D02*
X62360000Y66700000D01*
X67800000Y68170000D02*
X62360000Y68170000D01*
X67800000Y65230000D02*
X67800000Y68170000D01*
X62360000Y65230000D02*
X67800000Y65230000D01*
X62360000Y68170000D02*
X62360000Y65230000D01*
X7260000Y51799538D02*
G75*
G03X1710000Y53344830I-2990000J462D01*
G01*
X7260000Y51800462D02*
G75*
G02X1710000Y50255170I-2990000J-462D01*
G01*
X6770000Y51800000D02*
G75*
G03X6770000Y51800000I-2500000J0D01*
G01*
X1710000Y53345000D02*
X1710000Y50255000D01*
X47430000Y17690000D02*
G75*
G02X47430000Y19690000I0J1000000D01*
G01*
X47430000Y19690000D02*
X47430000Y21340000D01*
X47430000Y21340000D02*
X11750000Y21340000D01*
X11750000Y21340000D02*
X11750000Y16040000D01*
X11750000Y16040000D02*
X47430000Y16040000D01*
X47430000Y16040000D02*
X47430000Y17690000D01*
X15120000Y72270000D02*
X25360000Y72270000D01*
X15120000Y67629000D02*
X25360000Y67629000D01*
X15120000Y72270000D02*
X15120000Y67629000D01*
X25360000Y72270000D02*
X25360000Y67629000D01*
X15120000Y70760000D02*
X25360000Y70760000D01*
X18390000Y72270000D02*
X18390000Y70760000D01*
X22091000Y72270000D02*
X22091000Y70760000D01*
X68851000Y35370000D02*
X68851000Y33860000D01*
X65150000Y35370000D02*
X65150000Y33860000D01*
X61880000Y33860000D02*
X72120000Y33860000D01*
X72120000Y35370000D02*
X72120000Y30729000D01*
X61880000Y35370000D02*
X61880000Y30729000D01*
X61880000Y30729000D02*
X72120000Y30729000D01*
X61880000Y35370000D02*
X72120000Y35370000D01*
X61920000Y63970000D02*
X72160000Y63970000D01*
X61920000Y59329000D02*
X72160000Y59329000D01*
X61920000Y63970000D02*
X61920000Y59329000D01*
X72160000Y63970000D02*
X72160000Y59329000D01*
X61920000Y62460000D02*
X72160000Y62460000D01*
X65190000Y63970000D02*
X65190000Y62460000D01*
X68891000Y63970000D02*
X68891000Y62460000D01*
X55891000Y63970000D02*
X55891000Y62460000D01*
X52190000Y63970000D02*
X52190000Y62460000D01*
X48920000Y62460000D02*
X59160000Y62460000D01*
X59160000Y63970000D02*
X59160000Y59329000D01*
X48920000Y63970000D02*
X48920000Y59329000D01*
X48920000Y59329000D02*
X59160000Y59329000D01*
X48920000Y63970000D02*
X59160000Y63970000D01*
X35920000Y63970000D02*
X46160000Y63970000D01*
X35920000Y59329000D02*
X46160000Y59329000D01*
X35920000Y63970000D02*
X35920000Y59329000D01*
X46160000Y63970000D02*
X46160000Y59329000D01*
X35920000Y62460000D02*
X46160000Y62460000D01*
X39190000Y63970000D02*
X39190000Y62460000D01*
X42891000Y63970000D02*
X42891000Y62460000D01*
X63400000Y44280000D02*
X63400000Y45050000D01*
X63400000Y52360000D02*
X63400000Y51590000D01*
X64770000Y45050000D02*
X64770000Y51590000D01*
X62030000Y45050000D02*
X64770000Y45050000D01*
X62030000Y51590000D02*
X62030000Y45050000D01*
X64770000Y51590000D02*
X62030000Y51590000D01*
X36690000Y53330000D02*
X36690000Y56070000D01*
X36690000Y56070000D02*
X30150000Y56070000D01*
X30150000Y56070000D02*
X30150000Y53330000D01*
X30150000Y53330000D02*
X36690000Y53330000D01*
X37460000Y54700000D02*
X36690000Y54700000D01*
X29380000Y54700000D02*
X30150000Y54700000D01*
X52600000Y41480000D02*
X52600000Y42250000D01*
X52600000Y49560000D02*
X52600000Y48790000D01*
X53970000Y42250000D02*
X53970000Y48790000D01*
X51230000Y42250000D02*
X53970000Y42250000D01*
X51230000Y48790000D02*
X51230000Y42250000D01*
X53970000Y48790000D02*
X51230000Y48790000D01*
X43970000Y46090000D02*
X41230000Y46090000D01*
X41230000Y46090000D02*
X41230000Y39550000D01*
X41230000Y39550000D02*
X43970000Y39550000D01*
X43970000Y39550000D02*
X43970000Y46090000D01*
X42600000Y46860000D02*
X42600000Y46090000D01*
X42600000Y38780000D02*
X42600000Y39550000D01*
X44480000Y54700000D02*
X45250000Y54700000D01*
X52560000Y54700000D02*
X51790000Y54700000D01*
X45250000Y53330000D02*
X51790000Y53330000D01*
X45250000Y56070000D02*
X45250000Y53330000D01*
X51790000Y56070000D02*
X45250000Y56070000D01*
X51790000Y53330000D02*
X51790000Y56070000D01*
X61210000Y56070000D02*
X61210000Y53330000D01*
X61210000Y53330000D02*
X67750000Y53330000D01*
X67750000Y53330000D02*
X67750000Y56070000D01*
X67750000Y56070000D02*
X61210000Y56070000D01*
X60440000Y54700000D02*
X61210000Y54700000D01*
X68520000Y54700000D02*
X67750000Y54700000D01*
X61473078Y23735605D02*
X59535605Y25673078D01*
X59535605Y25673078D02*
X54911127Y21048600D01*
X54911127Y21048600D02*
X56848600Y19111127D01*
X56848600Y19111127D02*
X61473078Y23735605D01*
X61048814Y25248814D02*
X60504342Y24704342D01*
X55335391Y19535391D02*
X55879863Y20079863D01*
X56690000Y35230000D02*
X56690000Y37970000D01*
X56690000Y37970000D02*
X50150000Y37970000D01*
X50150000Y37970000D02*
X50150000Y35230000D01*
X50150000Y35230000D02*
X56690000Y35230000D01*
X57460000Y36600000D02*
X56690000Y36600000D01*
X49380000Y36600000D02*
X50150000Y36600000D01*
X50440000Y9600000D02*
X51210000Y9600000D01*
X58520000Y9600000D02*
X57750000Y9600000D01*
X51210000Y8230000D02*
X57750000Y8230000D01*
X51210000Y10970000D02*
X51210000Y8230000D01*
X57750000Y10970000D02*
X51210000Y10970000D01*
X57750000Y8230000D02*
X57750000Y10970000D01*
X16090000Y50430000D02*
X16090000Y53170000D01*
X16090000Y53170000D02*
X9550000Y53170000D01*
X9550000Y53170000D02*
X9550000Y50430000D01*
X9550000Y50430000D02*
X16090000Y50430000D01*
X16860000Y51800000D02*
X16090000Y51800000D01*
X8780000Y51800000D02*
X9550000Y51800000D01*
X16110000Y6570000D02*
X16110000Y3830000D01*
X16110000Y3830000D02*
X22650000Y3830000D01*
X22650000Y3830000D02*
X22650000Y6570000D01*
X22650000Y6570000D02*
X16110000Y6570000D01*
X15340000Y5200000D02*
X16110000Y5200000D01*
X23420000Y5200000D02*
X22650000Y5200000D01*
D11*
X25207142Y9583334D02*
X25254761Y9535715D01*
X25302380Y9392858D01*
X25302380Y9297620D01*
X25254761Y9154762D01*
X25159523Y9059524D01*
X25064285Y9011905D01*
X24873809Y8964286D01*
X24730952Y8964286D01*
X24540476Y9011905D01*
X24445238Y9059524D01*
X24350000Y9154762D01*
X24302380Y9297620D01*
X24302380Y9392858D01*
X24350000Y9535715D01*
X24397619Y9583334D01*
X24302380Y10440477D02*
X24302380Y10250000D01*
X24350000Y10154762D01*
X24397619Y10107143D01*
X24540476Y10011905D01*
X24730952Y9964286D01*
X25111904Y9964286D01*
X25207142Y10011905D01*
X25254761Y10059524D01*
X25302380Y10154762D01*
X25302380Y10345239D01*
X25254761Y10440477D01*
X25207142Y10488096D01*
X25111904Y10535715D01*
X24873809Y10535715D01*
X24778571Y10488096D01*
X24730952Y10440477D01*
X24683333Y10345239D01*
X24683333Y10154762D01*
X24730952Y10059524D01*
X24778571Y10011905D01*
X24873809Y9964286D01*
X66983333Y20142858D02*
X66935714Y20095239D01*
X66792857Y20047620D01*
X66697619Y20047620D01*
X66554761Y20095239D01*
X66459523Y20190477D01*
X66411904Y20285715D01*
X66364285Y20476191D01*
X66364285Y20619048D01*
X66411904Y20809524D01*
X66459523Y20904762D01*
X66554761Y21000000D01*
X66697619Y21047620D01*
X66792857Y21047620D01*
X66935714Y21000000D01*
X66983333Y20952381D01*
X67888095Y21047620D02*
X67411904Y21047620D01*
X67364285Y20571429D01*
X67411904Y20619048D01*
X67507142Y20666667D01*
X67745238Y20666667D01*
X67840476Y20619048D01*
X67888095Y20571429D01*
X67935714Y20476191D01*
X67935714Y20238096D01*
X67888095Y20142858D01*
X67840476Y20095239D01*
X67745238Y20047620D01*
X67507142Y20047620D01*
X67411904Y20095239D01*
X67364285Y20142858D01*
X23783809Y30498810D02*
X23783809Y30022620D01*
X23450476Y31022620D02*
X23783809Y30498810D01*
X24117142Y31022620D01*
X24974285Y30022620D02*
X24402857Y30022620D01*
X24688571Y30022620D02*
X24688571Y31022620D01*
X24593333Y30879762D01*
X24498095Y30784524D01*
X24402857Y30736905D01*
X68722380Y14777143D02*
X68246190Y14443810D01*
X68722380Y14205715D02*
X67722380Y14205715D01*
X67722380Y14586667D01*
X67770000Y14681905D01*
X67817619Y14729524D01*
X67912857Y14777143D01*
X68055714Y14777143D01*
X68150952Y14729524D01*
X68198571Y14681905D01*
X68246190Y14586667D01*
X68246190Y14205715D01*
X68722380Y15729524D02*
X68722380Y15158096D01*
X68722380Y15443810D02*
X67722380Y15443810D01*
X67865238Y15348572D01*
X67960476Y15253334D01*
X68008095Y15158096D01*
X67722380Y16062858D02*
X67722380Y16681905D01*
X68103333Y16348572D01*
X68103333Y16491429D01*
X68150952Y16586667D01*
X68198571Y16634286D01*
X68293809Y16681905D01*
X68531904Y16681905D01*
X68627142Y16634286D01*
X68674761Y16586667D01*
X68722380Y16491429D01*
X68722380Y16205715D01*
X68674761Y16110477D01*
X68627142Y16062858D01*
X15497619Y9404762D02*
X15450000Y9309524D01*
X15354761Y9214286D01*
X15211904Y9071429D01*
X15164285Y8976191D01*
X15164285Y8880953D01*
X15402380Y8928572D02*
X15354761Y8833334D01*
X15259523Y8738096D01*
X15069047Y8690477D01*
X14735714Y8690477D01*
X14545238Y8738096D01*
X14450000Y8833334D01*
X14402380Y8928572D01*
X14402380Y9119048D01*
X14450000Y9214286D01*
X14545238Y9309524D01*
X14735714Y9357143D01*
X15069047Y9357143D01*
X15259523Y9309524D01*
X15354761Y9214286D01*
X15402380Y9119048D01*
X15402380Y8928572D01*
X14402380Y10261905D02*
X14402380Y9785715D01*
X14878571Y9738096D01*
X14830952Y9785715D01*
X14783333Y9880953D01*
X14783333Y10119048D01*
X14830952Y10214286D01*
X14878571Y10261905D01*
X14973809Y10309524D01*
X15211904Y10309524D01*
X15307142Y10261905D01*
X15354761Y10214286D01*
X15402380Y10119048D01*
X15402380Y9880953D01*
X15354761Y9785715D01*
X15307142Y9738096D01*
X23483333Y64942858D02*
X23435714Y64895239D01*
X23292857Y64847620D01*
X23197619Y64847620D01*
X23054761Y64895239D01*
X22959523Y64990477D01*
X22911904Y65085715D01*
X22864285Y65276191D01*
X22864285Y65419048D01*
X22911904Y65609524D01*
X22959523Y65704762D01*
X23054761Y65800000D01*
X23197619Y65847620D01*
X23292857Y65847620D01*
X23435714Y65800000D01*
X23483333Y65752381D01*
X23816666Y65847620D02*
X24435714Y65847620D01*
X24102380Y65466667D01*
X24245238Y65466667D01*
X24340476Y65419048D01*
X24388095Y65371429D01*
X24435714Y65276191D01*
X24435714Y65038096D01*
X24388095Y64942858D01*
X24340476Y64895239D01*
X24245238Y64847620D01*
X23959523Y64847620D01*
X23864285Y64895239D01*
X23816666Y64942858D01*
X9983333Y48442858D02*
X9935714Y48395239D01*
X9792857Y48347620D01*
X9697619Y48347620D01*
X9554761Y48395239D01*
X9459523Y48490477D01*
X9411904Y48585715D01*
X9364285Y48776191D01*
X9364285Y48919048D01*
X9411904Y49109524D01*
X9459523Y49204762D01*
X9554761Y49300000D01*
X9697619Y49347620D01*
X9792857Y49347620D01*
X9935714Y49300000D01*
X9983333Y49252381D01*
X10840476Y49014286D02*
X10840476Y48347620D01*
X10602380Y49395239D02*
X10364285Y48680953D01*
X10983333Y48680953D01*
X26783333Y35142858D02*
X26735714Y35095239D01*
X26592857Y35047620D01*
X26497619Y35047620D01*
X26354761Y35095239D01*
X26259523Y35190477D01*
X26211904Y35285715D01*
X26164285Y35476191D01*
X26164285Y35619048D01*
X26211904Y35809524D01*
X26259523Y35904762D01*
X26354761Y36000000D01*
X26497619Y36047620D01*
X26592857Y36047620D01*
X26735714Y36000000D01*
X26783333Y35952381D01*
X27735714Y35047620D02*
X27164285Y35047620D01*
X27450000Y35047620D02*
X27450000Y36047620D01*
X27354761Y35904762D01*
X27259523Y35809524D01*
X27164285Y35761905D01*
X20533333Y35142858D02*
X20485714Y35095239D01*
X20342857Y35047620D01*
X20247619Y35047620D01*
X20104761Y35095239D01*
X20009523Y35190477D01*
X19961904Y35285715D01*
X19914285Y35476191D01*
X19914285Y35619048D01*
X19961904Y35809524D01*
X20009523Y35904762D01*
X20104761Y36000000D01*
X20247619Y36047620D01*
X20342857Y36047620D01*
X20485714Y36000000D01*
X20533333Y35952381D01*
X20914285Y35952381D02*
X20961904Y36000000D01*
X21057142Y36047620D01*
X21295238Y36047620D01*
X21390476Y36000000D01*
X21438095Y35952381D01*
X21485714Y35857143D01*
X21485714Y35761905D01*
X21438095Y35619048D01*
X20866666Y35047620D01*
X21485714Y35047620D01*
X5616666Y55097620D02*
X5616666Y54383334D01*
X5569047Y54240477D01*
X5473809Y54145239D01*
X5330952Y54097620D01*
X5235714Y54097620D01*
X6521428Y55097620D02*
X6330952Y55097620D01*
X6235714Y55050000D01*
X6188095Y55002381D01*
X6092857Y54859524D01*
X6045238Y54669048D01*
X6045238Y54288096D01*
X6092857Y54192858D01*
X6140476Y54145239D01*
X6235714Y54097620D01*
X6426190Y54097620D01*
X6521428Y54145239D01*
X6569047Y54192858D01*
X6616666Y54288096D01*
X6616666Y54526191D01*
X6569047Y54621429D01*
X6521428Y54669048D01*
X6426190Y54716667D01*
X6235714Y54716667D01*
X6140476Y54669048D01*
X6092857Y54621429D01*
X6045238Y54526191D01*
X32066666Y24665239D02*
X32209523Y24617620D01*
X32447619Y24617620D01*
X32542857Y24665239D01*
X32590476Y24712858D01*
X32638095Y24808096D01*
X32638095Y24903334D01*
X32590476Y24998572D01*
X32542857Y25046191D01*
X32447619Y25093810D01*
X32257142Y25141429D01*
X32161904Y25189048D01*
X32114285Y25236667D01*
X32066666Y25331905D01*
X32066666Y25427143D01*
X32114285Y25522381D01*
X32161904Y25570000D01*
X32257142Y25617620D01*
X32495238Y25617620D01*
X32638095Y25570000D01*
X32971428Y25617620D02*
X33209523Y24617620D01*
X33400000Y25331905D01*
X33590476Y24617620D01*
X33828571Y25617620D01*
X34161904Y25522381D02*
X34209523Y25570000D01*
X34304761Y25617620D01*
X34542857Y25617620D01*
X34638095Y25570000D01*
X34685714Y25522381D01*
X34733333Y25427143D01*
X34733333Y25331905D01*
X34685714Y25189048D01*
X34114285Y24617620D01*
X34733333Y24617620D01*
X11866666Y24465239D02*
X12009523Y24417620D01*
X12247619Y24417620D01*
X12342857Y24465239D01*
X12390476Y24512858D01*
X12438095Y24608096D01*
X12438095Y24703334D01*
X12390476Y24798572D01*
X12342857Y24846191D01*
X12247619Y24893810D01*
X12057142Y24941429D01*
X11961904Y24989048D01*
X11914285Y25036667D01*
X11866666Y25131905D01*
X11866666Y25227143D01*
X11914285Y25322381D01*
X11961904Y25370000D01*
X12057142Y25417620D01*
X12295238Y25417620D01*
X12438095Y25370000D01*
X12771428Y25417620D02*
X13009523Y24417620D01*
X13200000Y25131905D01*
X13390476Y24417620D01*
X13628571Y25417620D01*
X14533333Y24417620D02*
X13961904Y24417620D01*
X14247619Y24417620D02*
X14247619Y25417620D01*
X14152380Y25274762D01*
X14057142Y25179524D01*
X13961904Y25131905D01*
X54082380Y69866667D02*
X54796666Y69866667D01*
X54939523Y69819048D01*
X55034761Y69723810D01*
X55082380Y69580953D01*
X55082380Y69485715D01*
X54177619Y70295239D02*
X54130000Y70342858D01*
X54082380Y70438096D01*
X54082380Y70676191D01*
X54130000Y70771429D01*
X54177619Y70819048D01*
X54272857Y70866667D01*
X54368095Y70866667D01*
X54510952Y70819048D01*
X55082380Y70247620D01*
X55082380Y70866667D01*
X43852380Y4666667D02*
X44566666Y4666667D01*
X44709523Y4619048D01*
X44804761Y4523810D01*
X44852380Y4380953D01*
X44852380Y4285715D01*
X43852380Y5619048D02*
X43852380Y5142858D01*
X44328571Y5095239D01*
X44280952Y5142858D01*
X44233333Y5238096D01*
X44233333Y5476191D01*
X44280952Y5571429D01*
X44328571Y5619048D01*
X44423809Y5666667D01*
X44661904Y5666667D01*
X44757142Y5619048D01*
X44804761Y5571429D01*
X44852380Y5476191D01*
X44852380Y5238096D01*
X44804761Y5142858D01*
X44757142Y5095239D01*
X30822380Y4666667D02*
X31536666Y4666667D01*
X31679523Y4619048D01*
X31774761Y4523810D01*
X31822380Y4380953D01*
X31822380Y4285715D01*
X30822380Y5047620D02*
X30822380Y5666667D01*
X31203333Y5333334D01*
X31203333Y5476191D01*
X31250952Y5571429D01*
X31298571Y5619048D01*
X31393809Y5666667D01*
X31631904Y5666667D01*
X31727142Y5619048D01*
X31774761Y5571429D01*
X31822380Y5476191D01*
X31822380Y5190477D01*
X31774761Y5095239D01*
X31727142Y5047620D01*
X27042380Y69866667D02*
X27756666Y69866667D01*
X27899523Y69819048D01*
X27994761Y69723810D01*
X28042380Y69580953D01*
X28042380Y69485715D01*
X28042380Y70866667D02*
X28042380Y70295239D01*
X28042380Y70580953D02*
X27042380Y70580953D01*
X27185238Y70485715D01*
X27280476Y70390477D01*
X27328095Y70295239D01*
X71466666Y22277620D02*
X71466666Y21563334D01*
X71419047Y21420477D01*
X71323809Y21325239D01*
X71180952Y21277620D01*
X71085714Y21277620D01*
X72371428Y21944286D02*
X72371428Y21277620D01*
X72133333Y22325239D02*
X71895238Y21610953D01*
X72514285Y21610953D01*
X11752380Y11757143D02*
X11752380Y11280953D01*
X10752380Y11280953D01*
X11704761Y12042858D02*
X11752380Y12185715D01*
X11752380Y12423810D01*
X11704761Y12519048D01*
X11657142Y12566667D01*
X11561904Y12614286D01*
X11466666Y12614286D01*
X11371428Y12566667D01*
X11323809Y12519048D01*
X11276190Y12423810D01*
X11228571Y12233334D01*
X11180952Y12138096D01*
X11133333Y12090477D01*
X11038095Y12042858D01*
X10942857Y12042858D01*
X10847619Y12090477D01*
X10800000Y12138096D01*
X10752380Y12233334D01*
X10752380Y12471429D01*
X10800000Y12614286D01*
X11752380Y13566667D02*
X11752380Y12995239D01*
X11752380Y13280953D02*
X10752380Y13280953D01*
X10895238Y13185715D01*
X10990476Y13090477D01*
X11038095Y12995239D01*
X64341904Y68717620D02*
X64341904Y69717620D01*
X64580000Y69717620D01*
X64722857Y69670000D01*
X64818095Y69574762D01*
X64865714Y69479524D01*
X64913333Y69289048D01*
X64913333Y69146191D01*
X64865714Y68955715D01*
X64818095Y68860477D01*
X64722857Y68765239D01*
X64580000Y68717620D01*
X64341904Y68717620D01*
X65865714Y68717620D02*
X65294285Y68717620D01*
X65580000Y68717620D02*
X65580000Y69717620D01*
X65484761Y69574762D01*
X65389523Y69479524D01*
X65294285Y69431905D01*
X59738095Y68347620D02*
X59738095Y69347620D01*
X60309523Y68347620D02*
X59880952Y68919048D01*
X60309523Y69347620D02*
X59738095Y68776191D01*
X3531904Y55307620D02*
X3531904Y56307620D01*
X3770000Y56307620D01*
X3912857Y56260000D01*
X4008095Y56164762D01*
X4055714Y56069524D01*
X4103333Y55879048D01*
X4103333Y55736191D01*
X4055714Y55545715D01*
X4008095Y55450477D01*
X3912857Y55355239D01*
X3770000Y55307620D01*
X3531904Y55307620D01*
X4436666Y56307620D02*
X5055714Y56307620D01*
X4722380Y55926667D01*
X4865238Y55926667D01*
X4960476Y55879048D01*
X5008095Y55831429D01*
X5055714Y55736191D01*
X5055714Y55498096D01*
X5008095Y55402858D01*
X4960476Y55355239D01*
X4865238Y55307620D01*
X4579523Y55307620D01*
X4484285Y55355239D01*
X4436666Y55402858D01*
X47882380Y17928096D02*
X48691904Y17928096D01*
X48787142Y17975715D01*
X48834761Y18023334D01*
X48882380Y18118572D01*
X48882380Y18309048D01*
X48834761Y18404286D01*
X48787142Y18451905D01*
X48691904Y18499524D01*
X47882380Y18499524D01*
X48882380Y19499524D02*
X48882380Y18928096D01*
X48882380Y19213810D02*
X47882380Y19213810D01*
X48025238Y19118572D01*
X48120476Y19023334D01*
X48168095Y18928096D01*
X19478095Y73817620D02*
X19478095Y73008096D01*
X19525714Y72912858D01*
X19573333Y72865239D01*
X19668571Y72817620D01*
X19859047Y72817620D01*
X19954285Y72865239D01*
X20001904Y72912858D01*
X20049523Y73008096D01*
X20049523Y73817620D01*
X20478095Y73722381D02*
X20525714Y73770000D01*
X20620952Y73817620D01*
X20859047Y73817620D01*
X20954285Y73770000D01*
X21001904Y73722381D01*
X21049523Y73627143D01*
X21049523Y73531905D01*
X21001904Y73389048D01*
X20430476Y72817620D01*
X21049523Y72817620D01*
X66904761Y35822381D02*
X66809523Y35870000D01*
X66714285Y35965239D01*
X66571428Y36108096D01*
X66476190Y36155715D01*
X66380952Y36155715D01*
X66428571Y35917620D02*
X66333333Y35965239D01*
X66238095Y36060477D01*
X66190476Y36250953D01*
X66190476Y36584286D01*
X66238095Y36774762D01*
X66333333Y36870000D01*
X66428571Y36917620D01*
X66619047Y36917620D01*
X66714285Y36870000D01*
X66809523Y36774762D01*
X66857142Y36584286D01*
X66857142Y36250953D01*
X66809523Y36060477D01*
X66714285Y35965239D01*
X66619047Y35917620D01*
X66428571Y35917620D01*
X67714285Y36584286D02*
X67714285Y35917620D01*
X67476190Y36965239D02*
X67238095Y36250953D01*
X67857142Y36250953D01*
X66944761Y64422381D02*
X66849523Y64470000D01*
X66754285Y64565239D01*
X66611428Y64708096D01*
X66516190Y64755715D01*
X66420952Y64755715D01*
X66468571Y64517620D02*
X66373333Y64565239D01*
X66278095Y64660477D01*
X66230476Y64850953D01*
X66230476Y65184286D01*
X66278095Y65374762D01*
X66373333Y65470000D01*
X66468571Y65517620D01*
X66659047Y65517620D01*
X66754285Y65470000D01*
X66849523Y65374762D01*
X66897142Y65184286D01*
X66897142Y64850953D01*
X66849523Y64660477D01*
X66754285Y64565239D01*
X66659047Y64517620D01*
X66468571Y64517620D01*
X67230476Y65517620D02*
X67849523Y65517620D01*
X67516190Y65136667D01*
X67659047Y65136667D01*
X67754285Y65089048D01*
X67801904Y65041429D01*
X67849523Y64946191D01*
X67849523Y64708096D01*
X67801904Y64612858D01*
X67754285Y64565239D01*
X67659047Y64517620D01*
X67373333Y64517620D01*
X67278095Y64565239D01*
X67230476Y64612858D01*
X53944761Y64422381D02*
X53849523Y64470000D01*
X53754285Y64565239D01*
X53611428Y64708096D01*
X53516190Y64755715D01*
X53420952Y64755715D01*
X53468571Y64517620D02*
X53373333Y64565239D01*
X53278095Y64660477D01*
X53230476Y64850953D01*
X53230476Y65184286D01*
X53278095Y65374762D01*
X53373333Y65470000D01*
X53468571Y65517620D01*
X53659047Y65517620D01*
X53754285Y65470000D01*
X53849523Y65374762D01*
X53897142Y65184286D01*
X53897142Y64850953D01*
X53849523Y64660477D01*
X53754285Y64565239D01*
X53659047Y64517620D01*
X53468571Y64517620D01*
X54278095Y65422381D02*
X54325714Y65470000D01*
X54420952Y65517620D01*
X54659047Y65517620D01*
X54754285Y65470000D01*
X54801904Y65422381D01*
X54849523Y65327143D01*
X54849523Y65231905D01*
X54801904Y65089048D01*
X54230476Y64517620D01*
X54849523Y64517620D01*
X40944761Y64422381D02*
X40849523Y64470000D01*
X40754285Y64565239D01*
X40611428Y64708096D01*
X40516190Y64755715D01*
X40420952Y64755715D01*
X40468571Y64517620D02*
X40373333Y64565239D01*
X40278095Y64660477D01*
X40230476Y64850953D01*
X40230476Y65184286D01*
X40278095Y65374762D01*
X40373333Y65470000D01*
X40468571Y65517620D01*
X40659047Y65517620D01*
X40754285Y65470000D01*
X40849523Y65374762D01*
X40897142Y65184286D01*
X40897142Y64850953D01*
X40849523Y64660477D01*
X40754285Y64565239D01*
X40659047Y64517620D01*
X40468571Y64517620D01*
X41849523Y64517620D02*
X41278095Y64517620D01*
X41563809Y64517620D02*
X41563809Y65517620D01*
X41468571Y65374762D01*
X41373333Y65279524D01*
X41278095Y65231905D01*
X66222380Y48153334D02*
X65746190Y47820000D01*
X66222380Y47581905D02*
X65222380Y47581905D01*
X65222380Y47962858D01*
X65270000Y48058096D01*
X65317619Y48105715D01*
X65412857Y48153334D01*
X65555714Y48153334D01*
X65650952Y48105715D01*
X65698571Y48058096D01*
X65746190Y47962858D01*
X65746190Y47581905D01*
X65555714Y49010477D02*
X66222380Y49010477D01*
X65174761Y48772381D02*
X65889047Y48534286D01*
X65889047Y49153334D01*
X33253333Y51877620D02*
X32920000Y52353810D01*
X32681904Y51877620D02*
X32681904Y52877620D01*
X33062857Y52877620D01*
X33158095Y52830000D01*
X33205714Y52782381D01*
X33253333Y52687143D01*
X33253333Y52544286D01*
X33205714Y52449048D01*
X33158095Y52401429D01*
X33062857Y52353810D01*
X32681904Y52353810D01*
X33586666Y52877620D02*
X34205714Y52877620D01*
X33872380Y52496667D01*
X34015238Y52496667D01*
X34110476Y52449048D01*
X34158095Y52401429D01*
X34205714Y52306191D01*
X34205714Y52068096D01*
X34158095Y51972858D01*
X34110476Y51925239D01*
X34015238Y51877620D01*
X33729523Y51877620D01*
X33634285Y51925239D01*
X33586666Y51972858D01*
X55422380Y45353334D02*
X54946190Y45020000D01*
X55422380Y44781905D02*
X54422380Y44781905D01*
X54422380Y45162858D01*
X54470000Y45258096D01*
X54517619Y45305715D01*
X54612857Y45353334D01*
X54755714Y45353334D01*
X54850952Y45305715D01*
X54898571Y45258096D01*
X54946190Y45162858D01*
X54946190Y44781905D01*
X54517619Y45734286D02*
X54470000Y45781905D01*
X54422380Y45877143D01*
X54422380Y46115239D01*
X54470000Y46210477D01*
X54517619Y46258096D01*
X54612857Y46305715D01*
X54708095Y46305715D01*
X54850952Y46258096D01*
X55422380Y45686667D01*
X55422380Y46305715D01*
X45422380Y42653334D02*
X44946190Y42320000D01*
X45422380Y42081905D02*
X44422380Y42081905D01*
X44422380Y42462858D01*
X44470000Y42558096D01*
X44517619Y42605715D01*
X44612857Y42653334D01*
X44755714Y42653334D01*
X44850952Y42605715D01*
X44898571Y42558096D01*
X44946190Y42462858D01*
X44946190Y42081905D01*
X45422380Y43605715D02*
X45422380Y43034286D01*
X45422380Y43320000D02*
X44422380Y43320000D01*
X44565238Y43224762D01*
X44660476Y43129524D01*
X44708095Y43034286D01*
X48353333Y51877620D02*
X48020000Y52353810D01*
X47781904Y51877620D02*
X47781904Y52877620D01*
X48162857Y52877620D01*
X48258095Y52830000D01*
X48305714Y52782381D01*
X48353333Y52687143D01*
X48353333Y52544286D01*
X48305714Y52449048D01*
X48258095Y52401429D01*
X48162857Y52353810D01*
X47781904Y52353810D01*
X49258095Y52877620D02*
X48781904Y52877620D01*
X48734285Y52401429D01*
X48781904Y52449048D01*
X48877142Y52496667D01*
X49115238Y52496667D01*
X49210476Y52449048D01*
X49258095Y52401429D01*
X49305714Y52306191D01*
X49305714Y52068096D01*
X49258095Y51972858D01*
X49210476Y51925239D01*
X49115238Y51877620D01*
X48877142Y51877620D01*
X48781904Y51925239D01*
X48734285Y51972858D01*
X64313333Y56617620D02*
X63980000Y57093810D01*
X63741904Y56617620D02*
X63741904Y57617620D01*
X64122857Y57617620D01*
X64218095Y57570000D01*
X64265714Y57522381D01*
X64313333Y57427143D01*
X64313333Y57284286D01*
X64265714Y57189048D01*
X64218095Y57141429D01*
X64122857Y57093810D01*
X63741904Y57093810D01*
X65170476Y57617620D02*
X64980000Y57617620D01*
X64884761Y57570000D01*
X64837142Y57522381D01*
X64741904Y57379524D01*
X64694285Y57189048D01*
X64694285Y56808096D01*
X64741904Y56712858D01*
X64789523Y56665239D01*
X64884761Y56617620D01*
X65075238Y56617620D01*
X65170476Y56665239D01*
X65218095Y56712858D01*
X65265714Y56808096D01*
X65265714Y57046191D01*
X65218095Y57141429D01*
X65170476Y57189048D01*
X65075238Y57236667D01*
X64884761Y57236667D01*
X64789523Y57189048D01*
X64741904Y57141429D01*
X64694285Y57046191D01*
X60069976Y20278527D02*
X59497556Y20379542D01*
X59665915Y19874466D02*
X58958808Y20581572D01*
X59228182Y20850947D01*
X59329197Y20884618D01*
X59396541Y20884618D01*
X59497556Y20850947D01*
X59598571Y20749931D01*
X59632243Y20648916D01*
X59632243Y20581572D01*
X59598571Y20480557D01*
X59329197Y20211183D01*
X59598571Y21221336D02*
X60069976Y21692740D01*
X60474037Y20682588D01*
X53253333Y33777620D02*
X52920000Y34253810D01*
X52681904Y33777620D02*
X52681904Y34777620D01*
X53062857Y34777620D01*
X53158095Y34730000D01*
X53205714Y34682381D01*
X53253333Y34587143D01*
X53253333Y34444286D01*
X53205714Y34349048D01*
X53158095Y34301429D01*
X53062857Y34253810D01*
X52681904Y34253810D01*
X53824761Y34349048D02*
X53729523Y34396667D01*
X53681904Y34444286D01*
X53634285Y34539524D01*
X53634285Y34587143D01*
X53681904Y34682381D01*
X53729523Y34730000D01*
X53824761Y34777620D01*
X54015238Y34777620D01*
X54110476Y34730000D01*
X54158095Y34682381D01*
X54205714Y34587143D01*
X54205714Y34539524D01*
X54158095Y34444286D01*
X54110476Y34396667D01*
X54015238Y34349048D01*
X53824761Y34349048D01*
X53729523Y34301429D01*
X53681904Y34253810D01*
X53634285Y34158572D01*
X53634285Y33968096D01*
X53681904Y33872858D01*
X53729523Y33825239D01*
X53824761Y33777620D01*
X54015238Y33777620D01*
X54110476Y33825239D01*
X54158095Y33872858D01*
X54205714Y33968096D01*
X54205714Y34158572D01*
X54158095Y34253810D01*
X54110476Y34301429D01*
X54015238Y34349048D01*
X53917142Y9147620D02*
X53583809Y9623810D01*
X53345714Y9147620D02*
X53345714Y10147620D01*
X53726666Y10147620D01*
X53821904Y10100000D01*
X53869523Y10052381D01*
X53917142Y9957143D01*
X53917142Y9814286D01*
X53869523Y9719048D01*
X53821904Y9671429D01*
X53726666Y9623810D01*
X53345714Y9623810D01*
X54869523Y9147620D02*
X54298095Y9147620D01*
X54583809Y9147620D02*
X54583809Y10147620D01*
X54488571Y10004762D01*
X54393333Y9909524D01*
X54298095Y9861905D01*
X55488571Y10147620D02*
X55583809Y10147620D01*
X55679047Y10100000D01*
X55726666Y10052381D01*
X55774285Y9957143D01*
X55821904Y9766667D01*
X55821904Y9528572D01*
X55774285Y9338096D01*
X55726666Y9242858D01*
X55679047Y9195239D01*
X55583809Y9147620D01*
X55488571Y9147620D01*
X55393333Y9195239D01*
X55345714Y9242858D01*
X55298095Y9338096D01*
X55250476Y9528572D01*
X55250476Y9766667D01*
X55298095Y9957143D01*
X55345714Y10052381D01*
X55393333Y10100000D01*
X55488571Y10147620D01*
X12177142Y48977620D02*
X11843809Y49453810D01*
X11605714Y48977620D02*
X11605714Y49977620D01*
X11986666Y49977620D01*
X12081904Y49930000D01*
X12129523Y49882381D01*
X12177142Y49787143D01*
X12177142Y49644286D01*
X12129523Y49549048D01*
X12081904Y49501429D01*
X11986666Y49453810D01*
X11605714Y49453810D01*
X13129523Y48977620D02*
X12558095Y48977620D01*
X12843809Y48977620D02*
X12843809Y49977620D01*
X12748571Y49834762D01*
X12653333Y49739524D01*
X12558095Y49691905D01*
X13510476Y49882381D02*
X13558095Y49930000D01*
X13653333Y49977620D01*
X13891428Y49977620D01*
X13986666Y49930000D01*
X14034285Y49882381D01*
X14081904Y49787143D01*
X14081904Y49691905D01*
X14034285Y49549048D01*
X13462857Y48977620D01*
X14081904Y48977620D01*
X18457142Y4747620D02*
X18123809Y5223810D01*
X17885714Y4747620D02*
X17885714Y5747620D01*
X18266666Y5747620D01*
X18361904Y5700000D01*
X18409523Y5652381D01*
X18457142Y5557143D01*
X18457142Y5414286D01*
X18409523Y5319048D01*
X18361904Y5271429D01*
X18266666Y5223810D01*
X17885714Y5223810D01*
X19409523Y4747620D02*
X18838095Y4747620D01*
X19123809Y4747620D02*
X19123809Y5747620D01*
X19028571Y5604762D01*
X18933333Y5509524D01*
X18838095Y5461905D01*
X20361904Y4747620D02*
X19790476Y4747620D01*
X20076190Y4747620D02*
X20076190Y5747620D01*
X19980952Y5604762D01*
X19885714Y5509524D01*
X19790476Y5461905D01*
M02*
