M48
; DRILL file {KiCad 5.1.4-3.fc30} date Fri 04 Oct 2019 03:53:27 CEST
; FORMAT={-:-/ absolute / metric / decimal}
; #@! TF.CreationDate,2019-10-04T03:53:27+02:00
; #@! TF.GenerationSoftware,Kicad,Pcbnew,5.1.4-3.fc30
FMAT,2
METRIC
T1C0.800
T2C0.900
T3C1.000
T4C1.100
T5C4.000
%
G90
G05
T1
X22.098Y12.192
X30.48Y11.176
X31.0Y51.5
X31.0Y46.1
X33.6Y38.14
X33.8Y48.8
X37.084Y11.684
X37.084Y2.54
X52.6Y22.6
X56.9Y27.5
X25.4Y60.3
X27.9Y60.3
X28.34Y54.7
X38.5Y54.7
X20.2Y38.0
X22.7Y38.0
X5.54Y51.8
X11.938Y5.334
X22.098Y5.334
X52.224Y16.324
X63.0Y27.1
X42.6Y47.9
X42.6Y37.74
X44.886Y12.264
X52.07Y5.08
X13.08Y22.5
X13.08Y14.88
X15.62Y22.5
X15.62Y14.88
X18.16Y22.5
X18.16Y14.88
X20.7Y22.5
X20.7Y14.88
X23.24Y22.5
X23.24Y14.88
X25.78Y22.5
X25.78Y14.88
X28.32Y22.5
X28.32Y14.88
X30.86Y22.5
X30.86Y14.88
X33.4Y22.5
X33.4Y14.88
X35.94Y22.5
X35.94Y14.88
X38.48Y22.5
X38.48Y14.88
X41.02Y22.5
X41.02Y14.88
X43.56Y22.5
X43.56Y14.88
X46.1Y22.5
X46.1Y14.88
X59.4Y54.7
X69.56Y54.7
X7.74Y51.8
X17.9Y51.8
X11.76Y9.54
X14.3Y12.08
X14.3Y7.0
X52.6Y50.6
X52.6Y40.44
X25.7Y38.0
X28.2Y38.0
X20.9Y9.2
X23.4Y9.2
X48.696Y12.264
X55.88Y5.08
X37.74Y34.4
X47.9Y34.4
X43.44Y54.7
X53.6Y54.7
X21.82Y34.0
X26.7Y34.0
X8.9Y43.8
X11.4Y43.8
X63.4Y53.4
X63.4Y43.24
X53.86Y10.3
X64.02Y10.3
X65.9Y23.0
X68.4Y23.0
X65.9Y20.5
X65.9Y10.34
T2
X3.0Y51.8
T3
X8.89Y14.986
X8.89Y12.446
X71.8Y19.4
X71.8Y16.86
X71.8Y14.32
X71.8Y11.78
X71.8Y9.24
X71.8Y6.7
X34.29Y9.652
X34.29Y7.112
X34.29Y4.572
X58.674Y68.58
X61.214Y68.58
X58.928Y6.096
X61.468Y6.096
X64.008Y6.096
X38.608Y6.096
X41.148Y6.096
X43.688Y6.096
X46.228Y6.096
X30.988Y27.94
X33.528Y27.94
X36.068Y27.94
X9.144Y34.798
X11.684Y34.798
X14.224Y34.798
X9.144Y27.94
X11.684Y27.94
X14.224Y27.94
X27.94Y9.652
X27.94Y7.112
X27.94Y4.572
X30.0Y68.65
X32.54Y68.65
X35.08Y68.65
X37.62Y68.65
T4
X64.5Y60.7
X67.04Y60.7
X69.58Y60.7
X51.5Y60.7
X54.04Y60.7
X56.58Y60.7
X38.5Y60.7
X41.04Y60.7
X43.58Y60.7
X17.7Y69.0
X20.24Y69.0
X22.78Y69.0
X65.2Y71.6
X72.384Y64.416
X54.9Y35.1
X57.44Y35.1
X59.98Y35.1
T5
X73.3Y72.9
X73.3Y2.9
X3.3Y2.9
X3.3Y72.9
T3
G00X8.4Y61.3
M15
G01X8.4Y59.3
M16
G05
G00X10.4Y55.6
M15
G01X12.4Y55.6
M16
G05
G00X14.4Y61.3
M15
G01X14.4Y59.3
M16
G05
T0
M30
