<?xml version="1.0" standalone="no"?>
<!DOCTYPE svg PUBLIC "-//W3C//DTD SVG 1.1//EN" "http://www.w3.org/Graphics/SVG/1.1/DTD/svg11.dtd">
<svg width="112mm" height="98mm" viewBox="-33 -49 112 98" xmlns="http://www.w3.org/2000/svg" version="1.1">
<title>OpenSCAD Model</title>
<path d="
M 75.4181,48.9781 L 75.6946,48.9392 L 75.9677,48.8812 L 76.2361,48.8042 L 76.4984,48.7087 L 76.7535,48.5952
 L 77,48.4641 L 77.2368,48.3161 L 77.4626,48.152 L 77.6765,47.9726 L 77.8773,47.7786 L 78.0642,47.5711
 L 78.2361,47.3511 L 78.3922,47.1197 L 78.5318,46.8779 L 78.6542,46.6269 L 78.7588,46.3681 L 78.845,46.1025
 L 78.9126,45.8316 L 78.9611,45.5567 L 78.9902,45.279 L 79,45 L 79,-45 L 78.9902,-45.279
 L 78.9611,-45.5567 L 78.9126,-45.8316 L 78.845,-46.1025 L 78.7588,-46.3681 L 78.6542,-46.6269 L 78.5318,-46.8779
 L 78.3922,-47.1197 L 78.2361,-47.3511 L 78.0642,-47.5711 L 77.8773,-47.7786 L 77.6765,-47.9726 L 77.4626,-48.152
 L 77.2368,-48.3161 L 77,-48.4641 L 76.7535,-48.5952 L 76.4984,-48.7087 L 76.2361,-48.8042 L 75.9677,-48.8812
 L 75.6946,-48.9392 L 75.4181,-48.9781 L 75.1396,-48.9976 L -28.6396,-48.9976 L -28.9181,-48.9781 L -29.1946,-48.9392
 L -29.4677,-48.8812 L -29.7361,-48.8042 L -29.9984,-48.7087 L -30.2535,-48.5952 L -30.5,-48.4641 L -30.7368,-48.3161
 L -30.9626,-48.152 L -31.1765,-47.9726 L -31.3773,-47.7786 L -31.5642,-47.5711 L -31.7361,-47.3511 L -31.8922,-47.1197
 L -32.0318,-46.8779 L -32.1542,-46.6269 L -32.2588,-46.3681 L -32.345,-46.1025 L -32.4126,-45.8316 L -32.4611,-45.5567
 L -32.4902,-45.279 L -32.5,-45 L -32.5,45 L -32.4902,45.279 L -32.4611,45.5567 L -32.4126,45.8316
 L -32.345,46.1025 L -32.2588,46.3681 L -32.1542,46.6269 L -32.0318,46.8779 L -31.8922,47.1197 L -31.7361,47.3511
 L -31.5642,47.5711 L -31.3773,47.7786 L -31.1765,47.9726 L -30.9626,48.152 L -30.7368,48.3161 L -30.5,48.4641
 L -30.2535,48.5952 L -29.9984,48.7087 L -29.7361,48.8042 L -29.4677,48.8812 L -29.1946,48.9392 L -28.9181,48.9781
 L -28.6396,48.9976 L 75.1396,48.9976 z
M -28.5977,-39.7017 L -28.7927,-39.7153 L -28.9862,-39.7425 L -29.1774,-39.7832 L -29.3652,-39.837 L -29.5489,-39.9039
 L -29.7274,-39.9834 L -29.9,-40.0751 L -30.0657,-40.1787 L -30.2238,-40.2936 L -30.3736,-40.4192 L -30.5141,-40.5549
 L -30.6449,-40.7002 L -30.7652,-40.8542 L -30.8745,-41.0162 L -30.9722,-41.1855 L -31.0579,-41.3611 L -31.1311,-41.5423
 L -31.1915,-41.7282 L -31.2388,-41.9178 L -31.2727,-42.1103 L -31.2932,-42.3047 L -31.3,-42.5 L -31.2932,-42.6953
 L -31.2727,-42.8897 L -31.2388,-43.0821 L -31.1915,-43.2718 L -31.1311,-43.4576 L -31.0579,-43.6389 L -30.9722,-43.8145
 L -30.8745,-43.9838 L -30.7652,-44.1458 L -30.6449,-44.2998 L -30.5141,-44.445 L -30.3736,-44.5808 L -30.2238,-44.7064
 L -30.0657,-44.8213 L -29.9,-44.9249 L -29.7274,-45.0166 L -29.5489,-45.0961 L -29.3652,-45.1629 L -29.1774,-45.2168
 L -28.9862,-45.2575 L -28.7927,-45.2847 L -28.5977,-45.2983 L -28.4023,-45.2983 L -28.2073,-45.2847 L -28.0138,-45.2575
 L -27.8226,-45.2168 L -27.6348,-45.1629 L -27.4511,-45.0961 L -27.2726,-45.0166 L -27.1,-44.9249 L -26.9343,-44.8213
 L -26.7762,-44.7064 L -26.6264,-44.5808 L -26.4859,-44.445 L -26.3551,-44.2998 L -26.2348,-44.1458 L -26.1255,-43.9838
 L -26.0278,-43.8145 L -25.9421,-43.6389 L -25.8689,-43.4576 L -25.8085,-43.2718 L -25.7612,-43.0821 L -25.7273,-42.8897
 L -25.7068,-42.6953 L -25.7,-42.5 L -25.7068,-42.3047 L -25.7273,-42.1103 L -25.7612,-41.9178 L -25.8085,-41.7282
 L -25.8689,-41.5423 L -25.9421,-41.3611 L -26.0278,-41.1855 L -26.1255,-41.0162 L -26.2348,-40.8542 L -26.3551,-40.7002
 L -26.4859,-40.5549 L -26.6264,-40.4192 L -26.7762,-40.2936 L -26.9343,-40.1787 L -27.1,-40.0751 L -27.2726,-39.9834
 L -27.4511,-39.9039 L -27.6348,-39.837 L -27.8226,-39.7832 L -28.0138,-39.7425 L -28.2073,-39.7153 L -28.4023,-39.7017
 z
M 72.4023,-39.7017 L 72.2073,-39.7153 L 72.0138,-39.7425 L 71.8226,-39.7832 L 71.6348,-39.837 L 71.4511,-39.9039
 L 71.2726,-39.9834 L 71.1,-40.0751 L 70.9342,-40.1787 L 70.7761,-40.2936 L 70.6264,-40.4192 L 70.4858,-40.5549
 L 70.3551,-40.7002 L 70.2347,-40.8542 L 70.1255,-41.0162 L 70.0277,-41.1855 L 69.9421,-41.3611 L 69.8689,-41.5423
 L 69.8085,-41.7282 L 69.7612,-41.9178 L 69.7272,-42.1103 L 69.7068,-42.3047 L 69.7,-42.5 L 69.7068,-42.6953
 L 69.7272,-42.8897 L 69.7612,-43.0821 L 69.8085,-43.2718 L 69.8689,-43.4576 L 69.9421,-43.6389 L 70.0277,-43.8145
 L 70.1255,-43.9838 L 70.2347,-44.1458 L 70.3551,-44.2998 L 70.4858,-44.445 L 70.6264,-44.5808 L 70.7761,-44.7064
 L 70.9342,-44.8213 L 71.1,-44.9249 L 71.2726,-45.0166 L 71.4511,-45.0961 L 71.6348,-45.1629 L 71.8226,-45.2168
 L 72.0138,-45.2575 L 72.2073,-45.2847 L 72.4023,-45.2983 L 72.5977,-45.2983 L 72.7927,-45.2847 L 72.9862,-45.2575
 L 73.1774,-45.2168 L 73.3652,-45.1629 L 73.5489,-45.0961 L 73.7274,-45.0166 L 73.9,-44.9249 L 74.0657,-44.8213
 L 74.2238,-44.7064 L 74.3736,-44.5808 L 74.5141,-44.445 L 74.6449,-44.2998 L 74.7652,-44.1458 L 74.8745,-43.9838
 L 74.9722,-43.8145 L 75.0579,-43.6389 L 75.1311,-43.4576 L 75.1915,-43.2718 L 75.2388,-43.0821 L 75.2727,-42.8897
 L 75.2932,-42.6953 L 75.3,-42.5 L 75.2932,-42.3047 L 75.2727,-42.1103 L 75.2388,-41.9178 L 75.1915,-41.7282
 L 75.1311,-41.5423 L 75.0579,-41.3611 L 74.9722,-41.1855 L 74.8745,-41.0162 L 74.7652,-40.8542 L 74.6449,-40.7002
 L 74.5141,-40.5549 L 74.3736,-40.4192 L 74.2238,-40.2936 L 74.0657,-40.1787 L 73.9,-40.0751 L 73.7274,-39.9834
 L 73.5489,-39.9039 L 73.3652,-39.837 L 73.1774,-39.7832 L 72.9862,-39.7425 L 72.7927,-39.7153 L 72.5977,-39.7017
 z
M -28.5977,45.2983 L -28.7927,45.2847 L -28.9862,45.2575 L -29.1774,45.2168 L -29.3652,45.1629 L -29.5489,45.0961
 L -29.7274,45.0166 L -29.9,44.9249 L -30.0657,44.8213 L -30.2238,44.7064 L -30.3736,44.5808 L -30.5141,44.4451
 L -30.6449,44.2998 L -30.7652,44.1458 L -30.8745,43.9838 L -30.9722,43.8145 L -31.0579,43.6389 L -31.1311,43.4577
 L -31.1915,43.2718 L -31.2388,43.0822 L -31.2727,42.8897 L -31.2932,42.6953 L -31.3,42.5 L -31.2932,42.3047
 L -31.2727,42.1103 L -31.2388,41.9179 L -31.1915,41.7282 L -31.1311,41.5424 L -31.0579,41.3611 L -30.9722,41.1855
 L -30.8745,41.0162 L -30.7652,40.8542 L -30.6449,40.7002 L -30.5141,40.555 L -30.3736,40.4192 L -30.2238,40.2936
 L -30.0657,40.1787 L -29.9,40.0751 L -29.7274,39.9834 L -29.5489,39.9039 L -29.3652,39.8371 L -29.1774,39.7832
 L -28.9862,39.7425 L -28.7927,39.7153 L -28.5977,39.7017 L -28.4023,39.7017 L -28.2073,39.7153 L -28.0138,39.7425
 L -27.8226,39.7832 L -27.6348,39.8371 L -27.4511,39.9039 L -27.2726,39.9834 L -27.1,40.0751 L -26.9343,40.1787
 L -26.7762,40.2936 L -26.6264,40.4192 L -26.4859,40.555 L -26.3551,40.7002 L -26.2348,40.8542 L -26.1255,41.0162
 L -26.0278,41.1855 L -25.9421,41.3611 L -25.8689,41.5424 L -25.8085,41.7282 L -25.7612,41.9179 L -25.7273,42.1103
 L -25.7068,42.3047 L -25.7,42.5 L -25.7068,42.6953 L -25.7273,42.8897 L -25.7612,43.0822 L -25.8085,43.2718
 L -25.8689,43.4577 L -25.9421,43.6389 L -26.0278,43.8145 L -26.1255,43.9838 L -26.2348,44.1458 L -26.3551,44.2998
 L -26.4859,44.4451 L -26.6264,44.5808 L -26.7762,44.7064 L -26.9343,44.8213 L -27.1,44.9249 L -27.2726,45.0166
 L -27.4511,45.0961 L -27.6348,45.1629 L -27.8226,45.2168 L -28.0138,45.2575 L -28.2073,45.2847 L -28.4023,45.2983
 z
M 72.4023,45.2983 L 72.2073,45.2847 L 72.0138,45.2575 L 71.8226,45.2168 L 71.6348,45.1629 L 71.4511,45.0961
 L 71.2726,45.0166 L 71.1,44.9249 L 70.9342,44.8213 L 70.7761,44.7064 L 70.6264,44.5808 L 70.4858,44.4451
 L 70.3551,44.2998 L 70.2347,44.1458 L 70.1255,43.9838 L 70.0277,43.8145 L 69.9421,43.6389 L 69.8689,43.4577
 L 69.8085,43.2718 L 69.7612,43.0822 L 69.7272,42.8897 L 69.7068,42.6953 L 69.7,42.5 L 69.7068,42.3047
 L 69.7272,42.1103 L 69.7612,41.9179 L 69.8085,41.7282 L 69.8689,41.5424 L 69.9421,41.3611 L 70.0277,41.1855
 L 70.1255,41.0162 L 70.2347,40.8542 L 70.3551,40.7002 L 70.4858,40.555 L 70.6264,40.4192 L 70.7761,40.2936
 L 70.9342,40.1787 L 71.1,40.0751 L 71.2726,39.9834 L 71.4511,39.9039 L 71.6348,39.8371 L 71.8226,39.7832
 L 72.0138,39.7425 L 72.2073,39.7153 L 72.4023,39.7017 L 72.5977,39.7017 L 72.7927,39.7153 L 72.9862,39.7425
 L 73.1774,39.7832 L 73.3652,39.8371 L 73.5489,39.9039 L 73.7274,39.9834 L 73.9,40.0751 L 74.0657,40.1787
 L 74.2238,40.2936 L 74.3736,40.4192 L 74.5141,40.555 L 74.6449,40.7002 L 74.7652,40.8542 L 74.8745,41.0162
 L 74.9722,41.1855 L 75.0579,41.3611 L 75.1311,41.5424 L 75.1915,41.7282 L 75.2388,41.9179 L 75.2727,42.1103
 L 75.2932,42.3047 L 75.3,42.5 L 75.2932,42.6953 L 75.2727,42.8897 L 75.2388,43.0822 L 75.1915,43.2718
 L 75.1311,43.4577 L 75.0579,43.6389 L 74.9722,43.8145 L 74.8745,43.9838 L 74.7652,44.1458 L 74.6449,44.2998
 L 74.5141,44.4451 L 74.3736,44.5808 L 74.2238,44.7064 L 74.0657,44.8213 L 73.9,44.9249 L 73.7274,45.0166
 L 73.5489,45.0961 L 73.3652,45.1629 L 73.1774,45.2168 L 72.9862,45.2575 L 72.7927,45.2847 L 72.5977,45.2983
 z
" stroke="black" fill="lightgray" stroke-width="0.5"/>
</svg>
