<?xml version="1.0" standalone="no"?>
<!DOCTYPE svg PUBLIC "-//W3C//DTD SVG 1.1//EN" "http://www.w3.org/Graphics/SVG/1.1/DTD/svg11.dtd">
<svg width="112mm" height="98mm" viewBox="-33 -49 112 98" xmlns="http://www.w3.org/2000/svg" version="1.1">
<title>OpenSCAD Model</title>
<path d="
M 77.209,48.989 L 77.3473,48.9696 L 77.4838,48.9406 L 77.618,48.9021 L 77.7492,48.8544 L 77.8767,48.7976
 L 78,48.732 L 78.1184,48.6581 L 78.2313,48.576 L 78.3383,48.4863 L 78.4387,48.3893 L 78.5321,48.2856
 L 78.618,48.1756 L 78.6961,48.0598 L 78.7659,47.9389 L 78.8271,47.8135 L 78.8794,47.684 L 78.9225,47.5513
 L 78.9563,47.4158 L 78.9805,47.2783 L 78.9951,47.1395 L 79,47 L 79,-47 L 78.9951,-47.1395
 L 78.9805,-47.2783 L 78.9563,-47.4158 L 78.9225,-47.5513 L 78.8794,-47.684 L 78.8271,-47.8135 L 78.7659,-47.9389
 L 78.6961,-48.0598 L 78.618,-48.1756 L 78.5321,-48.2856 L 78.4387,-48.3893 L 78.3383,-48.4863 L 78.2313,-48.576
 L 78.1184,-48.6581 L 78,-48.732 L 77.8767,-48.7976 L 77.7492,-48.8544 L 77.618,-48.9021 L 77.4838,-48.9406
 L 77.3473,-48.9696 L 77.209,-48.989 L 77.0698,-48.9988 L -31.0698,-48.9988 L -31.209,-48.989 L -31.3473,-48.9696
 L -31.4838,-48.9406 L -31.618,-48.9021 L -31.7492,-48.8544 L -31.8767,-48.7976 L -32,-48.732 L -32.1184,-48.6581
 L -32.2313,-48.576 L -32.3383,-48.4863 L -32.4387,-48.3893 L -32.5321,-48.2856 L -32.618,-48.1756 L -32.6961,-48.0598
 L -32.7659,-47.9389 L -32.8271,-47.8135 L -32.8794,-47.684 L -32.9225,-47.5513 L -32.9563,-47.4158 L -32.9805,-47.2783
 L -32.9951,-47.1395 L -33,-47 L -33,47 L -32.9951,47.1395 L -32.9805,47.2783 L -32.9563,47.4158
 L -32.9225,47.5513 L -32.8794,47.684 L -32.8271,47.8135 L -32.7659,47.9389 L -32.6961,48.0598 L -32.618,48.1756
 L -32.5321,48.2856 L -32.4387,48.3893 L -32.3383,48.4863 L -32.2313,48.576 L -32.1184,48.6581 L -32,48.732
 L -31.8767,48.7976 L -31.7492,48.8544 L -31.618,48.9021 L -31.4838,48.9406 L -31.3473,48.9696 L -31.209,48.989
 L -31.0698,48.9988 L 77.0698,48.9988 z
M -28.075,-39.8513 L -28.2247,-39.8618 L -28.3734,-39.8827 L -28.5201,-39.9139 L -28.6644,-39.9552 L -28.8054,-40.0065
 L -28.9425,-40.0676 L -29.075,-40.138 L -29.2023,-40.2176 L -29.3237,-40.3058 L -29.4386,-40.4022 L -29.5466,-40.5065
 L -29.647,-40.618 L -29.7394,-40.7363 L -29.8233,-40.8607 L -29.8983,-40.9906 L -29.9641,-41.1255 L -30.0203,-41.2646
 L -30.0667,-41.4074 L -30.103,-41.553 L -30.1291,-41.7008 L -30.1448,-41.85 L -30.15,-42 L -30.1448,-42.15
 L -30.1291,-42.2992 L -30.103,-42.447 L -30.0667,-42.5926 L -30.0203,-42.7353 L -29.9641,-42.8745 L -29.8983,-43.0094
 L -29.8233,-43.1393 L -29.7394,-43.2637 L -29.647,-43.382 L -29.5466,-43.4935 L -29.4386,-43.5977 L -29.3237,-43.6942
 L -29.2023,-43.7824 L -29.075,-43.862 L -28.9425,-43.9324 L -28.8054,-43.9934 L -28.6644,-44.0448 L -28.5201,-44.0861
 L -28.3734,-44.1173 L -28.2247,-44.1382 L -28.075,-44.1487 L -27.925,-44.1487 L -27.7753,-44.1382 L -27.6267,-44.1173
 L -27.4799,-44.0861 L -27.3356,-44.0448 L -27.1946,-43.9934 L -27.0575,-43.9324 L -26.925,-43.862 L -26.7977,-43.7824
 L -26.6763,-43.6942 L -26.5614,-43.5977 L -26.4534,-43.4935 L -26.353,-43.382 L -26.2606,-43.2637 L -26.1767,-43.1393
 L -26.1017,-43.0094 L -26.0359,-42.8745 L -25.9797,-42.7353 L -25.9333,-42.5926 L -25.897,-42.447 L -25.8709,-42.2992
 L -25.8552,-42.15 L -25.85,-42 L -25.8552,-41.85 L -25.8709,-41.7008 L -25.897,-41.553 L -25.9333,-41.4074
 L -25.9797,-41.2646 L -26.0359,-41.1255 L -26.1017,-40.9906 L -26.1767,-40.8607 L -26.2606,-40.7363 L -26.353,-40.618
 L -26.4534,-40.5065 L -26.5614,-40.4022 L -26.6763,-40.3058 L -26.7977,-40.2176 L -26.925,-40.138 L -27.0575,-40.0676
 L -27.1946,-40.0065 L -27.3356,-39.9552 L -27.4799,-39.9139 L -27.6267,-39.8827 L -27.7753,-39.8618 L -27.925,-39.8513
 z
M 71.925,-39.8513 L 71.7753,-39.8618 L 71.6266,-39.8827 L 71.4799,-39.9139 L 71.3356,-39.9552 L 71.1946,-40.0065
 L 71.0575,-40.0676 L 70.925,-40.138 L 70.7977,-40.2176 L 70.6763,-40.3058 L 70.5614,-40.4022 L 70.4534,-40.5065
 L 70.353,-40.618 L 70.2606,-40.7363 L 70.1767,-40.8607 L 70.1017,-40.9906 L 70.0359,-41.1255 L 69.9797,-41.2646
 L 69.9333,-41.4074 L 69.897,-41.553 L 69.8709,-41.7008 L 69.8552,-41.85 L 69.85,-42 L 69.8552,-42.15
 L 69.8709,-42.2992 L 69.897,-42.447 L 69.9333,-42.5926 L 69.9797,-42.7353 L 70.0359,-42.8745 L 70.1017,-43.0094
 L 70.1767,-43.1393 L 70.2606,-43.2637 L 70.353,-43.382 L 70.4534,-43.4935 L 70.5614,-43.5977 L 70.6763,-43.6942
 L 70.7977,-43.7824 L 70.925,-43.862 L 71.0575,-43.9324 L 71.1946,-43.9934 L 71.3356,-44.0448 L 71.4799,-44.0861
 L 71.6266,-44.1173 L 71.7753,-44.1382 L 71.925,-44.1487 L 72.075,-44.1487 L 72.2247,-44.1382 L 72.3733,-44.1173
 L 72.5201,-44.0861 L 72.6644,-44.0448 L 72.8054,-43.9934 L 72.9425,-43.9324 L 73.075,-43.862 L 73.2023,-43.7824
 L 73.3237,-43.6942 L 73.4386,-43.5977 L 73.5466,-43.4935 L 73.647,-43.382 L 73.7394,-43.2637 L 73.8233,-43.1393
 L 73.8983,-43.0094 L 73.9641,-42.8745 L 74.0203,-42.7353 L 74.0667,-42.5926 L 74.103,-42.447 L 74.1291,-42.2992
 L 74.1448,-42.15 L 74.15,-42 L 74.1448,-41.85 L 74.1291,-41.7008 L 74.103,-41.553 L 74.0667,-41.4074
 L 74.0203,-41.2646 L 73.9641,-41.1255 L 73.8983,-40.9906 L 73.8233,-40.8607 L 73.7394,-40.7363 L 73.647,-40.618
 L 73.5466,-40.5065 L 73.4386,-40.4022 L 73.3237,-40.3058 L 73.2023,-40.2176 L 73.075,-40.138 L 72.9425,-40.0676
 L 72.8054,-40.0065 L 72.6644,-39.9552 L 72.5201,-39.9139 L 72.3733,-39.8827 L 72.2247,-39.8618 L 72.075,-39.8513
 z
M -28.075,44.1487 L -28.2247,44.1382 L -28.3734,44.1173 L -28.5201,44.0861 L -28.6644,44.0448 L -28.8054,43.9935
 L -28.9425,43.9324 L -29.075,43.862 L -29.2023,43.7824 L -29.3237,43.6942 L -29.4386,43.5978 L -29.5466,43.4935
 L -29.647,43.382 L -29.7394,43.2637 L -29.8233,43.1393 L -29.8983,43.0094 L -29.9641,42.8745 L -30.0203,42.7354
 L -30.0667,42.5926 L -30.103,42.447 L -30.1291,42.2992 L -30.1448,42.15 L -30.15,42 L -30.1448,41.85
 L -30.1291,41.7008 L -30.103,41.553 L -30.0667,41.4074 L -30.0203,41.2647 L -29.9641,41.1255 L -29.8983,40.9906
 L -29.8233,40.8607 L -29.7394,40.7363 L -29.647,40.618 L -29.5466,40.5065 L -29.4386,40.4023 L -29.3237,40.3058
 L -29.2023,40.2176 L -29.075,40.138 L -28.9425,40.0676 L -28.8054,40.0066 L -28.6644,39.9552 L -28.5201,39.9139
 L -28.3734,39.8827 L -28.2247,39.8618 L -28.075,39.8513 L -27.925,39.8513 L -27.7753,39.8618 L -27.6267,39.8827
 L -27.4799,39.9139 L -27.3356,39.9552 L -27.1946,40.0066 L -27.0575,40.0676 L -26.925,40.138 L -26.7977,40.2176
 L -26.6763,40.3058 L -26.5614,40.4023 L -26.4534,40.5065 L -26.353,40.618 L -26.2606,40.7363 L -26.1767,40.8607
 L -26.1017,40.9906 L -26.0359,41.1255 L -25.9797,41.2647 L -25.9333,41.4074 L -25.897,41.553 L -25.8709,41.7008
 L -25.8552,41.85 L -25.85,42 L -25.8552,42.15 L -25.8709,42.2992 L -25.897,42.447 L -25.9333,42.5926
 L -25.9797,42.7354 L -26.0359,42.8745 L -26.1017,43.0094 L -26.1767,43.1393 L -26.2606,43.2637 L -26.353,43.382
 L -26.4534,43.4935 L -26.5614,43.5978 L -26.6763,43.6942 L -26.7977,43.7824 L -26.925,43.862 L -27.0575,43.9324
 L -27.1946,43.9935 L -27.3356,44.0448 L -27.4799,44.0861 L -27.6267,44.1173 L -27.7753,44.1382 L -27.925,44.1487
 z
M 71.925,44.1487 L 71.7753,44.1382 L 71.6266,44.1173 L 71.4799,44.0861 L 71.3356,44.0448 L 71.1946,43.9935
 L 71.0575,43.9324 L 70.925,43.862 L 70.7977,43.7824 L 70.6763,43.6942 L 70.5614,43.5978 L 70.4534,43.4935
 L 70.353,43.382 L 70.2606,43.2637 L 70.1767,43.1393 L 70.1017,43.0094 L 70.0359,42.8745 L 69.9797,42.7354
 L 69.9333,42.5926 L 69.897,42.447 L 69.8709,42.2992 L 69.8552,42.15 L 69.85,42 L 69.8552,41.85
 L 69.8709,41.7008 L 69.897,41.553 L 69.9333,41.4074 L 69.9797,41.2647 L 70.0359,41.1255 L 70.1017,40.9906
 L 70.1767,40.8607 L 70.2606,40.7363 L 70.353,40.618 L 70.4534,40.5065 L 70.5614,40.4023 L 70.6763,40.3058
 L 70.7977,40.2176 L 70.925,40.138 L 71.0575,40.0676 L 71.1946,40.0066 L 71.3356,39.9552 L 71.4799,39.9139
 L 71.6266,39.8827 L 71.7753,39.8618 L 71.925,39.8513 L 72.075,39.8513 L 72.2247,39.8618 L 72.3733,39.8827
 L 72.5201,39.9139 L 72.6644,39.9552 L 72.8054,40.0066 L 72.9425,40.0676 L 73.075,40.138 L 73.2023,40.2176
 L 73.3237,40.3058 L 73.4386,40.4023 L 73.5466,40.5065 L 73.647,40.618 L 73.7394,40.7363 L 73.8233,40.8607
 L 73.8983,40.9906 L 73.9641,41.1255 L 74.0203,41.2647 L 74.0667,41.4074 L 74.103,41.553 L 74.1291,41.7008
 L 74.1448,41.85 L 74.15,42 L 74.1448,42.15 L 74.1291,42.2992 L 74.103,42.447 L 74.0667,42.5926
 L 74.0203,42.7354 L 73.9641,42.8745 L 73.8983,43.0094 L 73.8233,43.1393 L 73.7394,43.2637 L 73.647,43.382
 L 73.5466,43.4935 L 73.4386,43.5978 L 73.3237,43.6942 L 73.2023,43.7824 L 73.075,43.862 L 72.9425,43.9324
 L 72.8054,43.9935 L 72.6644,44.0448 L 72.5201,44.0861 L 72.3733,44.1173 L 72.2247,44.1382 L 72.075,44.1487
 z
" stroke="black" fill="lightgray" stroke-width="0.5"/>
</svg>
